<svg xmlns="http://www.w3.org/2000/svg" viewBox="0 0 12.939 16">
  <defs>
    <style>
      .cls-1 {
        fill: #4f4f4f;
      }
    </style>
  </defs>
  <g id="ic_delete" transform="translate(-46.155)">
    <path id="Path_1" data-name="Path 1" class="cls-1" d="M57.266,1.917H54.775a2.165,2.165,0,0,0-4.3,0H47.983a1.83,1.83,0,0,0-1.828,1.828v.094a1.83,1.83,0,0,0,1.155,1.7v8.635A1.83,1.83,0,0,0,49.138,16h6.973a1.83,1.83,0,0,0,1.828-1.828V5.537a1.83,1.83,0,0,0,1.155-1.7V3.745A1.83,1.83,0,0,0,57.266,1.917ZM52.624.867A1.3,1.3,0,0,1,53.9,1.917H51.35A1.3,1.3,0,0,1,52.624.867Zm4.447,13.305a.962.962,0,0,1-.961.961H49.138a.962.962,0,0,1-.961-.961V5.667h8.894ZM58.227,3.839a.962.962,0,0,1-.961.961H47.983a.962.962,0,0,1-.961-.961V3.745a.962.962,0,0,1,.961-.961h9.283a.962.962,0,0,1,.961.961v.094Z" transform="translate(0)"/>
    <path id="Path_2" data-name="Path 2" class="cls-1" d="M158.508,255.318a.433.433,0,0,0,.433-.433V250a.433.433,0,1,0-.867,0v4.88A.433.433,0,0,0,158.508,255.318Z" transform="translate(-108.208 -241.294)"/>
    <path id="Path_3" data-name="Path 3" class="cls-1" d="M228.578,255.318a.434.434,0,0,0,.433-.433V250a.433.433,0,1,0-.867,0v4.88A.433.433,0,0,0,228.578,255.318Z" transform="translate(-175.954 -241.294)"/>
    <path id="Path_4" data-name="Path 4" class="cls-1" d="M298.647,255.318a.434.434,0,0,0,.433-.433V250a.433.433,0,1,0-.867,0v4.88A.433.433,0,0,0,298.647,255.318Z" transform="translate(-243.699 -241.294)"/>
  </g>
</svg>
