<svg xmlns="http://www.w3.org/2000/svg" viewBox="0 0 17.311 16">
  <defs>
    <style>
      .cls-1 {
        fill: #4f4f4f;
      }
    </style>
  </defs>
  <g id="ic_upload" transform="translate(-0.001 -18.4)">
    <g id="Group_2" data-name="Group 2" transform="translate(0 18.4)">
      <path id="Path_5" data-name="Path 5" class="cls-1" d="M14.078,22.579a5.014,5.014,0,0,0-9.29-1.666,2.872,2.872,0,0,0-.527-.05,2.748,2.748,0,0,0-2.744,2.744,3,3,0,0,0,.057.57A3.819,3.819,0,0,0,0,27.256a4.083,4.083,0,0,0,1.036,2.7A3.7,3.7,0,0,0,3.6,31.246h3.09a.481.481,0,1,0,0-.961H3.641a3.031,3.031,0,0,1-2.68-3.033A2.853,2.853,0,0,1,2.374,24.8a.484.484,0,0,0,.21-.584,1.744,1.744,0,0,1-.107-.612,1.786,1.786,0,0,1,1.783-1.783,1.753,1.753,0,0,1,.609.107.483.483,0,0,0,.6-.246,4.053,4.053,0,0,1,7.7,1.335.48.48,0,0,0,.4.427,3.464,3.464,0,0,1-.327,6.841H10.618a.481.481,0,1,0,0,.961h2.677a4.259,4.259,0,0,0,2.855-1.41,4.43,4.43,0,0,0-2.072-7.254Z" transform="translate(0 -18.4)"/>
      <path id="Path_6" data-name="Path 6" class="cls-1" d="M164.133,188.767a.479.479,0,0,0,0-.68l-2.545-2.545a.486.486,0,0,0-.338-.142.471.471,0,0,0-.338.142l-2.545,2.545a.482.482,0,0,0,.338.822.469.469,0,0,0,.338-.142l1.726-1.726v7.934a.481.481,0,1,0,.961,0v-7.934l1.726,1.726A.475.475,0,0,0,164.133,188.767Z" transform="translate(-152.593 -179.456)"/>
    </g>
  </g>
</svg>
