<svg xmlns="http://www.w3.org/2000/svg" viewBox="0 0 115.002 108.029">
    <defs>
        <style>
            .cls-1{fill:#26c6ec}.cls-2{fill:#ff859e}.cls-3{filter:url(#Ellipse_11)}.cls-4{filter:url(#Path_193)}.cls-5{filter:url(#Path_192)}.cls-6{filter:url(#Path_191)}.cls-7{filter:url(#Path_190)}
        </style>
        <filter id="Path_190" width="82.6" height="82.5" x="0" y="25.529" filterUnits="userSpaceOnUse">
            <feOffset dy="3"/>
            <feGaussianBlur result="blur" stdDeviation="3"/>
            <feFlood flood-color="#21cbeb" flood-opacity=".922"/>
            <feComposite in2="blur" operator="in"/>
            <feComposite in="SourceGraphic"/>
        </filter>
        <filter id="Path_191" width="36.1" height="47.4" x="23.6" y="43.429" filterUnits="userSpaceOnUse">
            <feOffset dy="3"/>
            <feGaussianBlur result="blur-2" stdDeviation="3"/>
            <feFlood flood-color="#21cbeb" flood-opacity=".922"/>
            <feComposite in2="blur-2" operator="in"/>
            <feComposite in="SourceGraphic"/>
        </filter>
        <filter id="Path_192" width="78.546" height="79.729" x="36.456" y="0" filterUnits="userSpaceOnUse">
            <feOffset dy="3"/>
            <feGaussianBlur result="blur-3" stdDeviation="3"/>
            <feFlood flood-color="#21cbeb" flood-opacity=".922"/>
            <feComposite in2="blur-3" operator="in"/>
            <feComposite in="SourceGraphic"/>
        </filter>
        <filter id="Path_193" width="32.32" height="50.8" x="64.6" y="13.429" filterUnits="userSpaceOnUse">
            <feOffset dy="3"/>
            <feGaussianBlur result="blur-4" stdDeviation="3"/>
            <feFlood flood-color="#21cbeb" flood-opacity=".922"/>
            <feComposite in2="blur-4" operator="in"/>
            <feComposite in="SourceGraphic"/>
        </filter>
        <filter id="Ellipse_11" width="33" height="33" x="3" y="28" filterUnits="userSpaceOnUse">
            <feOffset dy="3"/>
            <feGaussianBlur result="blur-5" stdDeviation="3"/>
            <feFlood flood-color="#ff859e" flood-opacity=".922"/>
            <feComposite in2="blur-5" operator="in"/>
            <feComposite in="SourceGraphic"/>
        </filter>
    </defs>
    <g id="ic_costEffective" transform="translate(-1297 -1575)">
        <g id="ic_costEffective-2" data-name="ic_costEffective">
            <g class="cls-7" transform="translate(1297 1574.999)">
                <path id="Path_190-2" d="M32.3 25.5a32.25 32.25 0 1 0 32.3 32.2 32.264 32.264 0 0 0-32.3-32.2zm0 61.4a29.1 29.1 0 1 1 29.1-29.1 29.128 29.128 0 0 1-29.1 29.1z" class="cls-1" data-name="Path 190" transform="translate(9 6.03)"/>
            </g>
            <g class="cls-6" transform="translate(1297 1574.999)">
                <path id="Path_191-2" d="M34.3 55.7v-6.5a13.2 13.2 0 0 1 3.5 1.5 1.929 1.929 0 0 0 1 .3 1.854 1.854 0 0 0 .9-3.5 13.454 13.454 0 0 0-5.3-1.9v-.7a1.473 1.473 0 0 0-1.5-1.5 1.417 1.417 0 0 0-1.5 1.5v.7c-4.2.3-7.1 2.9-7.1 6.5 0 3.8 2.3 5.7 7.3 7v6.7a10.882 10.882 0 0 1-5-2.3 2.1 2.1 0 0 0-1.1-.4 1.839 1.839 0 0 0-1.9 1.9 1.7 1.7 0 0 0 .9 1.6 13.606 13.606 0 0 0 7 2.6v2.1a1.538 1.538 0 0 0 1.5 1.5 1.473 1.473 0 0 0 1.5-1.5v-2c4.3-.4 7.2-2.9 7.2-6.6-.1-3.7-2.3-5.7-7.4-7zm-2.7-.7c-2.6-.8-3.3-1.7-3.3-3.2s1.1-2.6 3.3-2.9zm2.7 10.9v-6.2c2.6.8 3.4 1.7 3.4 3.2-.1 1.6-1.3 2.7-3.4 3z" class="cls-1" data-name="Path 191" transform="translate(9 6.03)"/>
            </g>
            <g class="cls-5" transform="translate(1297 1574.999)">
                <path id="Path_192-2" d="M70.7.3a30.955 30.955 0 0 0-34.2 22.3 1.6 1.6 0 0 0 1.1 1.9 1.512 1.512 0 0 0 1.8-1 27.794 27.794 0 1 1 28.2 35.1 1.453 1.453 0 0 0-1.4 1.5v.1a1.5 1.5 0 0 0 1.6 1.5A31.084 31.084 0 0 0 97 30.4 31.069 31.069 0 0 0 70.7.3z" class="cls-1" data-name="Path 192" transform="translate(9 6.03)"/>
            </g>
            <g class="cls-4" transform="translate(1297 1574.999)">
                <path id="Path_193-2" d="M77.5 46.2a1.4 1.4 0 0 0 .9-.3 1.55 1.55 0 0 0 .2-2.1l-11-13.5V14.9a1.5 1.5 0 0 0-3 0v15.9a1.4 1.4 0 0 0 .3.9l11.3 13.9a1.76 1.76 0 0 0 1.3.6z" class="cls-1" data-name="Path 193" transform="translate(9 6.03)"/>
            </g>
        </g>
        <g class="cls-3" transform="translate(1297 1575)">
            <circle id="Ellipse_11-2" cx="7.5" cy="7.5" r="7.5" class="cls-2" data-name="Ellipse 11" transform="translate(12 34)"/>
        </g>
    </g>
</svg>
