<svg xmlns="http://www.w3.org/2000/svg" viewBox="0 0 115.073 87.6">
    <defs>
        <style>
            .cls-1{fill:#26c6ec}.cls-2{fill:#ff859e}.cls-3{filter:url(#Ellipse_9)}.cls-4{filter:url(#Path_187)}
        </style>
        <filter id="Path_187" width="115.073" height="87.6" x="0" y="0" filterUnits="userSpaceOnUse">
            <feOffset dy="3"/>
            <feGaussianBlur result="blur" stdDeviation="3"/>
            <feFlood flood-color="#21cbeb" flood-opacity=".922"/>
            <feComposite in2="blur" operator="in"/>
            <feComposite in="SourceGraphic"/>
        </filter>
        <filter id="Ellipse_9" width="33" height="33" x="61" y="48" filterUnits="userSpaceOnUse">
            <feOffset dy="3"/>
            <feGaussianBlur result="blur-2" stdDeviation="3"/>
            <feFlood flood-color="#ff859e" flood-opacity=".922"/>
            <feComposite in2="blur-2" operator="in"/>
            <feComposite in="SourceGraphic"/>
        </filter>
    </defs>
    <g id="ic_docker">
        <g class="cls-4">
            <path id="Path_187-2" d="M32.6 69.6c-11.1 0-19.7-3.5-25.4-10.4-7.5-9-7.5-20.8-6.9-24.6l.1-.7a1.433 1.433 0 0 1 1.5-1.2h63.8a14.793 14.793 0 0 0 5-.8 15.583 15.583 0 0 1-1.2-4.6 18.075 18.075 0 0 1 2.6-10.9l1.4-2.1a1.326 1.326 0 0 1 1-.6 1.389 1.389 0 0 1 1.1.2l2.1 1.4a.1.1 0 0 1 .1.1c3.4 2.7 5.5 5.6 6.3 9 3.6-.4 8 .1 10.4 1.7l2 1.3a1.536 1.536 0 0 1 .5 1.9l-.3.7a15.5 15.5 0 0 1-1 1.9c-3.6 6.9-10.3 7.5-13.7 7.5-8.6 19.4-26 30.2-49.4 30.2zm-29.5-34c-.4 3.9-.1 13.9 6.4 21.7q7.8 9.3 23.1 9.3c22.4 0 39.1-10.5 46.8-29.4a1.416 1.416 0 0 1 1.4-.9c4.1.1 9.3-.5 12-5.9.1-.1.2-.4.7-1.3l-.9-.6c-1.7-1.2-6.2-1.7-9.6-1a1.383 1.383 0 0 1-1.2-.3 1.326 1.326 0 0 1-.6-1c-.4-3.2-2.2-5.9-5.4-8.5l-.8-.5-.5.8a14.381 14.381 0 0 0-2.1 9 12.091 12.091 0 0 0 1.6 4.8 1.721 1.721 0 0 1 .2 1.2 1.6 1.6 0 0 1-.7.9 16.227 16.227 0 0 1-7.9 1.8H3.1zm58.1-5.5h-6.9a1.538 1.538 0 0 1-1.5-1.5v-6.4a1.538 1.538 0 0 1 1.5-1.5h6.9a1.538 1.538 0 0 1 1.5 1.5v6.4a1.473 1.473 0 0 1-1.5 1.5zm-5.4-3h3.9v-3.4h-3.9zm-5.7 3h-6.9a1.538 1.538 0 0 1-1.5-1.5v-6.4a1.538 1.538 0 0 1 1.5-1.5h6.9a1.538 1.538 0 0 1 1.5 1.5v6.4a1.538 1.538 0 0 1-1.5 1.5zm-5.4-3h3.9v-3.4h-3.9zm-5.7 3h-6.9a1.538 1.538 0 0 1-1.5-1.5v-6.4a1.538 1.538 0 0 1 1.5-1.5H39a1.538 1.538 0 0 1 1.5 1.5v6.4a1.538 1.538 0 0 1-1.5 1.5zm-5.4-3h3.9v-3.4h-3.9zm-5.7 3H21a1.538 1.538 0 0 1-1.5-1.5v-6.4a1.538 1.538 0 0 1 1.5-1.5h6.9a1.538 1.538 0 0 1 1.5 1.5v6.4a1.538 1.538 0 0 1-1.5 1.5zm-5.4-3h3.9v-3.4h-3.9zm-5.8 3H9.8a1.538 1.538 0 0 1-1.5-1.5v-6.4a1.538 1.538 0 0 1 1.5-1.5h6.9a1.538 1.538 0 0 1 1.5 1.5v6.4a1.473 1.473 0 0 1-1.5 1.5zm-5.4-3h3.9v-3.4h-3.9v3.4zm38.8-7.4h-6.9a1.538 1.538 0 0 1-1.5-1.5v-6.4a1.538 1.538 0 0 1 1.5-1.5h6.9a1.538 1.538 0 0 1 1.5 1.5v6.4a1.473 1.473 0 0 1-1.5 1.5zm-5.4-3h3.9v-3.4h-3.9zm-5.7 3h-6.9a1.538 1.538 0 0 1-1.5-1.5v-6.4a1.538 1.538 0 0 1 1.5-1.5H39a1.538 1.538 0 0 1 1.5 1.5v6.4a1.473 1.473 0 0 1-1.5 1.5zm-5.4-3h3.9v-3.4h-3.9zm-5.7 3H21a1.538 1.538 0 0 1-1.5-1.5v-6.4a1.538 1.538 0 0 1 1.5-1.5h6.9a1.538 1.538 0 0 1 1.5 1.5v6.4a1.473 1.473 0 0 1-1.5 1.5zm-5.4-3h3.9v-3.4h-3.9zm27.6-7.3h-6.9a1.538 1.538 0 0 1-1.5-1.5V1.5A1.538 1.538 0 0 1 43.2 0h6.9a1.538 1.538 0 0 1 1.5 1.5v6.4a1.538 1.538 0 0 1-1.5 1.5zm-5.4-3h3.9V3h-3.9z" class="cls-1" data-name="Path 187" transform="translate(8.94 6)"/>
        </g>
        <g class="cls-3">
            <circle id="Ellipse_9-2" cx="7.5" cy="7.5" r="7.5" class="cls-2" data-name="Ellipse 9" transform="translate(70 54)"/>
        </g>
    </g>
</svg>
