<svg xmlns="http://www.w3.org/2000/svg" viewBox="0 0 115.4 69.8">
    <defs>
        <style>
            .cls-1{fill:#26c6ec}.cls-2{fill:#ff859e}.cls-3{filter:url(#Ellipse_12)}.cls-4{filter:url(#Path_198)}.cls-5{filter:url(#Path_197)}.cls-6{filter:url(#Path_196)}.cls-7{filter:url(#Path_195)}.cls-8{filter:url(#Path_194)}
        </style>
        <filter id="Path_194" width="32.6" height="32.6" x="72.3" y="32.1" filterUnits="userSpaceOnUse">
            <feOffset dy="3"/>
            <feGaussianBlur result="blur" stdDeviation="3"/>
            <feFlood flood-color="#21cbeb" flood-opacity=".922"/>
            <feComposite in2="blur" operator="in"/>
            <feComposite in="SourceGraphic"/>
        </filter>
        <filter id="Path_195" width="32.6" height="32.6" x="56.1" y="31.9" filterUnits="userSpaceOnUse">
            <feOffset dy="3"/>
            <feGaussianBlur result="blur-2" stdDeviation="3"/>
            <feFlood flood-color="#21cbeb" flood-opacity=".922"/>
            <feComposite in2="blur-2" operator="in"/>
            <feComposite in="SourceGraphic"/>
        </filter>
        <filter id="Path_196" width="32.6" height="32.6" x="39.9" y="32.1" filterUnits="userSpaceOnUse">
            <feOffset dy="3"/>
            <feGaussianBlur result="blur-3" stdDeviation="3"/>
            <feFlood flood-color="#21cbeb" flood-opacity=".922"/>
            <feComposite in2="blur-3" operator="in"/>
            <feComposite in="SourceGraphic"/>
        </filter>
        <filter id="Path_197" width="32.6" height="32.6" x="23.8" y="31.9" filterUnits="userSpaceOnUse">
            <feOffset dy="3"/>
            <feGaussianBlur result="blur-4" stdDeviation="3"/>
            <feFlood flood-color="#21cbeb" flood-opacity=".922"/>
            <feComposite in2="blur-4" operator="in"/>
            <feComposite in="SourceGraphic"/>
        </filter>
        <filter id="Path_198" width="115.4" height="69.8" x="0" y="0" filterUnits="userSpaceOnUse">
            <feOffset dy="3"/>
            <feGaussianBlur result="blur-5" stdDeviation="3"/>
            <feFlood flood-color="#21cbeb" flood-opacity=".922"/>
            <feComposite in2="blur-5" operator="in"/>
            <feComposite in="SourceGraphic"/>
        </filter>
        <filter id="Ellipse_12" width="25" height="25" x="56" y="11" filterUnits="userSpaceOnUse">
            <feOffset dy="3"/>
            <feGaussianBlur result="blur-6" stdDeviation="3"/>
            <feFlood flood-color="#ff859e" flood-opacity=".922"/>
            <feComposite in2="blur-6" operator="in"/>
            <feComposite in="SourceGraphic"/>
        </filter>
    </defs>
    <g id="ic_readyTG" transform="translate(-897 -1594)">
        <g id="ic_readyTG-2" data-name="ic_readyTG">
            <g class="cls-8" transform="translate(897 1594)">
                <path id="Path_194-2" d="M79.6 32.1a7.3 7.3 0 1 0 7.3 7.3 7.341 7.341 0 0 0-7.3-7.3zm0 11.6a4.3 4.3 0 1 1 4.3-4.3 4.268 4.268 0 0 1-4.3 4.3z" class="cls-1" data-name="Path 194" transform="translate(9 6)"/>
            </g>
            <g class="cls-7" transform="translate(897 1594)">
                <path id="Path_195-2" d="M63.4 31.9a7.3 7.3 0 1 0 7.3 7.3 7.341 7.341 0 0 0-7.3-7.3zm0 11.6a4.3 4.3 0 1 1 4.3-4.3 4.268 4.268 0 0 1-4.3 4.3z" class="cls-1" data-name="Path 195" transform="translate(9 6)"/>
            </g>
            <g class="cls-6" transform="translate(897 1594)">
                <path id="Path_196-2" d="M47.2 32.1a7.3 7.3 0 1 0 7.3 7.3 7.341 7.341 0 0 0-7.3-7.3zm0 11.6a4.3 4.3 0 1 1 4.3-4.3 4.268 4.268 0 0 1-4.3 4.3z" class="cls-1" data-name="Path 196" transform="translate(9 6)"/>
            </g>
            <g class="cls-5" transform="translate(897 1594)">
                <path id="Path_197-2" d="M31.1 31.9a7.3 7.3 0 1 0 7.3 7.3 7.341 7.341 0 0 0-7.3-7.3zm0 11.6a4.3 4.3 0 1 1 4.3-4.3 4.268 4.268 0 0 1-4.3 4.3z" class="cls-1" data-name="Path 197" transform="translate(9 6)"/>
            </g>
            <g class="cls-4" transform="translate(897 1594)">
                <path id="Path_198-2" d="M85.4 26.8l-3.1-2.6a12.488 12.488 0 0 0-12.4-11.3H53v-2.2a1.606 1.606 0 0 0-.5-1.1L42.1.4a1.777 1.777 0 0 0-1-.4H24.4A1.5 1.5 0 0 0 23 1a1.087 1.087 0 0 0-.1.5v11.4H12.5a12.5 12.5 0 0 0-7 2.1A12.714 12.714 0 0 0 0 25.4a12.5 12.5 0 0 0 12.5 12.5H14c0 .5-.1.9-.1 1.4a12.5 12.5 0 0 0 12.5 12.5h58.5a12.505 12.505 0 0 0 .5-25zm-7.2-6l-5.3-4.4a8.924 8.924 0 0 1 5.3 4.4zm-52.3-16l7.4 6.5v9.8l-7.4-6.5zm10.4 7.4H50V23H36.3zM40.6 3l7 6.1H35.4l-7-6.1zM23 15.9a2.092 2.092 0 0 0 .4.6l10.4 9.1a1.777 1.777 0 0 0 1 .4h16.7a1.5 1.5 0 0 0 1.4-1 .9.9 0 0 0 .1-.5v-8.6h14.6l13.1 10.9H26.4a12.8 12.8 0 0 0-4.8.9L9 16.6a10.388 10.388 0 0 1 3.5-.7H23zm-10.5 19A9.56 9.56 0 0 1 3 25.4a9.427 9.427 0 0 1 3.3-7.2l12.6 11.1a12.438 12.438 0 0 0-4.2 5.6zm72.3 13.8H26.4a9.5 9.5 0 0 1 0-19h58.5a9.5 9.5 0 1 1-.1 19z" class="cls-1" data-name="Path 198" transform="translate(9 6)"/>
            </g>
        </g>
        <g class="cls-3" transform="translate(897 1594)">
            <circle id="Ellipse_12-2" cx="3.5" cy="3.5" r="3.5" class="cls-2" data-name="Ellipse 12" transform="translate(65 17)"/>
        </g>
    </g>
</svg>
