<svg xmlns="http://www.w3.org/2000/svg" xmlns:xlink="http://www.w3.org/1999/xlink" viewBox="0 0 690.925 649.782"><defs><style>.cls-1{fill:none;stroke:#ffcc29;stroke-miterlimit:10}.cls-2{fill:#693277}.cls-3{fill:url(#linear-gradient)}.cls-4{fill:#ffad40}.cls-5{fill:#853c95}.cls-6{fill:#f29da4}.cls-7{fill:#b06c9c}.cls-8{fill:url(#linear-gradient-2)}.cls-11{fill:url(#linear-gradient-5)}.cls-13{fill:#ffcc29}.cls-15{fill:url(#linear-gradient-8)}.cls-29{fill:url(#linear-gradient-25)}.cls-33{fill:url(#linear-gradient-29)}.cls-39{fill:url(#linear-gradient-35)}.cls-40{fill:url(#linear-gradient-36)}.cls-41{fill:url(#linear-gradient-37)}.cls-42{fill:url(#linear-gradient-38)}.cls-43{fill:url(#linear-gradient-39)}.cls-44{fill:url(#linear-gradient-41)}.cls-45{fill:url(#linear-gradient-42)}.cls-46{fill:url(#linear-gradient-43)}.cls-47{fill:url(#linear-gradient-44)}.cls-48{fill:url(#linear-gradient-45)}.cls-49{fill:url(#linear-gradient-62)}.cls-50{fill:url(#linear-gradient-64)}.cls-51{fill:url(#linear-gradient-65)}.cls-52{fill:url(#linear-gradient-66)}.cls-53{fill:url(#linear-gradient-67)}.cls-54{fill:url(#linear-gradient-68)}.cls-55{fill:url(#linear-gradient-69)}.cls-56{fill:url(#linear-gradient-70)}.cls-57{fill:url(#linear-gradient-71)}.cls-58{fill:url(#linear-gradient-72)}.cls-60{fill:url(#linear-gradient-85)}.cls-61{fill:url(#linear-gradient-86)}.cls-62{fill:url(#linear-gradient-90)}.cls-63{fill:url(#linear-gradient-91)}.cls-64{fill:url(#linear-gradient-92)}.cls-65{fill:url(#linear-gradient-93)}.cls-66{fill:url(#linear-gradient-94)}.cls-67{fill:url(#linear-gradient-95)}.cls-68{fill:url(#linear-gradient-98)}.cls-69{fill:url(#linear-gradient-99)}.cls-70{fill:url(#linear-gradient-100)}.cls-71{fill:url(#linear-gradient-112)}.cls-72{fill:url(#linear-gradient-113)}.cls-73{fill:url(#linear-gradient-114)}</style><linearGradient id="linear-gradient" y1=".5" x2="1" y2=".5" gradientUnits="objectBoundingBox"><stop offset=".452" stop-color="#b54b99"/><stop offset=".52" stop-color="#ba5290"/><stop offset=".632" stop-color="#c66676"/><stop offset=".775" stop-color="#da854d"/><stop offset=".941" stop-color="#f5b114"/><stop offset=".994" stop-color="#ffc000"/></linearGradient><linearGradient id="linear-gradient-2" y1=".5" x2="1" y2=".5" xlink:href="#linear-gradient"/><linearGradient id="linear-gradient-3" y1=".501" x2="1" y2=".501" xlink:href="#linear-gradient"/><linearGradient id="linear-gradient-4" y1=".5" x2="1" y2=".5" xlink:href="#linear-gradient"/><linearGradient id="linear-gradient-5" x1=".5" x2=".5" y2=".998" xlink:href="#linear-gradient"/><linearGradient id="linear-gradient-6" y1=".499" x2="1" y2=".499" xlink:href="#linear-gradient"/><linearGradient id="linear-gradient-7" y1=".5" x2="1" y2=".5" xlink:href="#linear-gradient"/><linearGradient id="linear-gradient-8" y1=".5" x2="1" y2=".5" xlink:href="#linear-gradient"/><linearGradient id="linear-gradient-9" y1=".499" x2="1" y2=".499" xlink:href="#linear-gradient"/><linearGradient id="linear-gradient-10" x1=".499" y1=".001" x2=".499" y2=".999" xlink:href="#linear-gradient"/><linearGradient id="linear-gradient-11" y1=".5" x2="1" y2=".5" xlink:href="#linear-gradient"/><linearGradient id="linear-gradient-13" y1=".5" x2="1" y2=".5" xlink:href="#linear-gradient"/><linearGradient id="linear-gradient-14" y1=".5" x2="1" y2=".5" xlink:href="#linear-gradient"/><linearGradient id="linear-gradient-15" x1=".499" y1="-.001" x2=".499" y2=".997" xlink:href="#linear-gradient"/><linearGradient id="linear-gradient-18" y1=".499" x2="1" y2=".499" xlink:href="#linear-gradient"/><linearGradient id="linear-gradient-19" y1=".5" x2="1" y2=".5" xlink:href="#linear-gradient"/><linearGradient id="linear-gradient-21" x1=".03" y1=".647" x2=".591" y2=".384" gradientUnits="objectBoundingBox"><stop offset="0" stop-color="#b54b99"/><stop offset=".124" stop-color="#ba5290"/><stop offset=".329" stop-color="#c66676"/><stop offset=".591" stop-color="#da854d"/><stop offset=".897" stop-color="#f5b114"/><stop offset=".994" stop-color="#ffc000"/></linearGradient><clipPath id="clip-path"><path id="Path_749" data-name="Path 749" d="M655.9 557a8.386 8.386 0 0 1-2.7 2.6l-58.4 33.6s-19.9 11.6-39.8 0l-20-11.6s-8.3-7.1-4.2-25.4c0 0 16.3-76.3 63.8-48.5 0 0 12.3-10.6 24-2.1 0 0 9.1-8.8 18.5-2.8l23.6 13.2c.1.1 17 5.8-4.8 41z"/></clipPath><linearGradient id="linear-gradient-22" x1="-.001" y1=".5" x2="1" y2=".5" xlink:href="#linear-gradient"/><linearGradient id="linear-gradient-23" y1=".5" x2="1" y2=".5" xlink:href="#linear-gradient"/><linearGradient id="linear-gradient-24" x1=".499" x2=".499" y2=".998" xlink:href="#linear-gradient"/><linearGradient id="linear-gradient-25" x1=".001" y1=".506" x2="1.001" y2=".506" gradientUnits="objectBoundingBox"><stop offset=".456" stop-color="#b54b99"/><stop offset=".523" stop-color="#ba5290"/><stop offset=".634" stop-color="#c66676"/><stop offset=".776" stop-color="#da854d"/><stop offset=".942" stop-color="#f5b114"/><stop offset=".994" stop-color="#ffc000"/></linearGradient><linearGradient id="linear-gradient-26" x1=".001" y1=".504" x2="1.001" y2=".504" xlink:href="#linear-gradient-25"/><linearGradient id="linear-gradient-27" x1=".001" y1=".503" x2="1.001" y2=".503" xlink:href="#linear-gradient-25"/><linearGradient id="linear-gradient-28" x1=".001" y1=".502" x2="1.001" y2=".502" xlink:href="#linear-gradient-25"/><linearGradient id="linear-gradient-29" x1=".001" y1=".507" x2="1.001" y2=".507" xlink:href="#linear-gradient-25"/><linearGradient id="linear-gradient-30" x1=".001" y1=".506" x2="1.001" y2=".506" xlink:href="#linear-gradient-25"/><linearGradient id="linear-gradient-31" x1=".001" y1=".505" x2="1.001" y2=".505" xlink:href="#linear-gradient-25"/><linearGradient id="linear-gradient-32" x1=".001" y1=".504" x2="1.001" y2=".504" xlink:href="#linear-gradient-25"/><linearGradient id="linear-gradient-33" x1=".001" y1=".503" x2="1.001" y2=".503" xlink:href="#linear-gradient-25"/><linearGradient id="linear-gradient-34" x1=".001" y1=".502" x2="1.001" y2=".502" xlink:href="#linear-gradient-25"/><linearGradient id="linear-gradient-35" x1=".001" y1=".506" x2="1.001" y2=".506" xlink:href="#linear-gradient-25"/><linearGradient id="linear-gradient-36" x1=".001" y1=".505" x2="1.001" y2=".505" xlink:href="#linear-gradient-25"/><linearGradient id="linear-gradient-37" x1=".001" y1=".504" x2="1.001" y2=".504" xlink:href="#linear-gradient-25"/><linearGradient id="linear-gradient-38" x1=".001" y1=".503" x2="1.001" y2=".503" xlink:href="#linear-gradient-25"/><linearGradient id="linear-gradient-39" x1=".001" y1=".502" x2="1.001" y2=".502" xlink:href="#linear-gradient-25"/><linearGradient id="linear-gradient-41" x1=".001" y1=".506" x2="1.001" y2=".506" xlink:href="#linear-gradient-25"/><linearGradient id="linear-gradient-42" x1=".001" y1=".505" x2="1.001" y2=".505" xlink:href="#linear-gradient-25"/><linearGradient id="linear-gradient-43" x1=".001" y1=".504" x2="1.001" y2=".504" xlink:href="#linear-gradient-25"/><linearGradient id="linear-gradient-44" x1=".001" y1=".503" x2="1.001" y2=".503" xlink:href="#linear-gradient-25"/><linearGradient id="linear-gradient-45" x1=".001" y1=".502" x2="1.001" y2=".502" xlink:href="#linear-gradient-25"/><linearGradient id="linear-gradient-62" x1=".001" y1=".507" x2="1.001" y2=".507" xlink:href="#linear-gradient-25"/><linearGradient id="linear-gradient-64" x1=".001" y1=".505" x2="1.001" y2=".505" xlink:href="#linear-gradient-25"/><linearGradient id="linear-gradient-65" x1=".001" y1=".504" x2="1.001" y2=".504" xlink:href="#linear-gradient-25"/><linearGradient id="linear-gradient-66" x1=".001" y1=".503" x2="1.001" y2=".503" xlink:href="#linear-gradient-25"/><linearGradient id="linear-gradient-67" x1=".001" y1=".502" x2="1.001" y2=".502" xlink:href="#linear-gradient-25"/><linearGradient id="linear-gradient-68" x1=".001" y1=".506" x2="1.001" y2=".506" xlink:href="#linear-gradient-25"/><linearGradient id="linear-gradient-69" x1=".001" y1=".505" x2="1.001" y2=".505" xlink:href="#linear-gradient-25"/><linearGradient id="linear-gradient-70" x1=".001" y1=".504" x2="1.001" y2=".504" xlink:href="#linear-gradient-25"/><linearGradient id="linear-gradient-71" x1=".001" y1=".503" x2="1.001" y2=".503" xlink:href="#linear-gradient-25"/><linearGradient id="linear-gradient-72" x1=".001" y1=".502" x2="1.001" y2=".502" xlink:href="#linear-gradient-25"/><linearGradient id="linear-gradient-84" x1=".001" y1=".507" x2="1.001" y2=".507" xlink:href="#linear-gradient-25"/><linearGradient id="linear-gradient-85" x1=".001" y1=".506" x2="1.001" y2=".506" xlink:href="#linear-gradient-25"/><linearGradient id="linear-gradient-86" x1=".001" y1=".505" x2="1.001" y2=".505" xlink:href="#linear-gradient-25"/><linearGradient id="linear-gradient-90" x1=".001" y1=".506" x2="1.001" y2=".506" xlink:href="#linear-gradient-25"/><linearGradient id="linear-gradient-91" x1=".001" y1=".505" x2="1.001" y2=".505" xlink:href="#linear-gradient-25"/><linearGradient id="linear-gradient-92" x1=".001" y1=".504" x2="1.001" y2=".504" xlink:href="#linear-gradient-25"/><linearGradient id="linear-gradient-93" x1=".001" y1=".503" x2="1.001" y2=".503" xlink:href="#linear-gradient-25"/><linearGradient id="linear-gradient-94" x1=".001" y1=".502" x2="1.001" y2=".502" xlink:href="#linear-gradient-25"/><linearGradient id="linear-gradient-95" x1=".001" y1=".501" x2="1.001" y2=".501" xlink:href="#linear-gradient-25"/><linearGradient id="linear-gradient-98" x1=".001" y1=".504" x2="1.001" y2=".504" xlink:href="#linear-gradient-25"/><linearGradient id="linear-gradient-99" x1=".001" y1=".503" x2="1.001" y2=".503" xlink:href="#linear-gradient-25"/><linearGradient id="linear-gradient-100" x1=".001" y1=".502" x2="1.001" y2=".502" xlink:href="#linear-gradient-25"/><linearGradient id="linear-gradient-112" x1=".001" y1=".506" x2="1.001" y2=".506" xlink:href="#linear-gradient-25"/><linearGradient id="linear-gradient-113" x1=".001" y1=".505" x2="1.001" y2=".505" xlink:href="#linear-gradient-25"/><linearGradient id="linear-gradient-114" x1=".001" y1=".504" x2="1.001" y2=".504" xlink:href="#linear-gradient-25"/><linearGradient id="linear-gradient-118" x1=".001" y1=".506" x2="1.001" y2=".506" xlink:href="#linear-gradient-25"/><linearGradient id="linear-gradient-119" x1=".001" y1=".505" x2="1.001" y2=".505" xlink:href="#linear-gradient-25"/><linearGradient id="linear-gradient-120" x1=".001" y1=".504" x2="1.001" y2=".504" xlink:href="#linear-gradient-25"/><linearGradient id="linear-gradient-121" x1=".001" y1=".503" x2="1.001" y2=".503" xlink:href="#linear-gradient-25"/><linearGradient id="linear-gradient-122" x1=".001" y1=".502" x2="1.001" y2=".502" xlink:href="#linear-gradient-25"/></defs><g id="img_main_ill" transform="translate(-.025 .05)"><path id="Path_607" data-name="Path 607" class="cls-1" d="M375.5 395.7l52.5 30.4a5.06 5.06 0 0 1 0 8.7l-25 14.4a5.06 5.06 0 0 0 0 8.7l151 87.2"/><path id="Path_608" data-name="Path 608" class="cls-1" d="M395.4 384.2l72.6 41.9a5.06 5.06 0 0 1 0 8.7l-25 14.4a5.06 5.06 0 0 0 0 8.7l121.9 70.4"/><path id="Path_609" data-name="Path 609" class="cls-1" d="M415.6 372.8l92.4 53.3a5.06 5.06 0 0 1 0 8.7l-25 14.4a5.06 5.06 0 0 0 0 8.7l95.2 55.2"/><path id="Path_610" data-name="Path 610" class="cls-1" d="M115.5 361L83 379.8a5.06 5.06 0 0 0 0 8.7l65 37.5a5.06 5.06 0 0 1 0 8.7l-24.6 14.2"/><path id="Path_611" data-name="Path 611" class="cls-1" d="M95.5 349.5l-52.6 30.3a4.973 4.973 0 0 0 0 8.6l65 37.6a5.06 5.06 0 0 1 0 8.7l-18.4 10.7"/><path id="Path_612" data-name="Path 612" class="cls-1" d="M75.5 338.1L3 379.8a5.06 5.06 0 0 0 0 8.7L68 426a5.06 5.06 0 0 1 0 8.7l-18.3 10.7"/><path id="Path_613" data-name="Path 613" class="cls-1" d="M273 452L23 307.7a5.06 5.06 0 0 1 0-8.7l46.1-26.6a5.678 5.678 0 0 1 2.2-.7l204.3-12.3h.5l192.4 5.9a4.756 4.756 0 0 1 2.3.7l57 32.9a5.06 5.06 0 0 1 0 8.7L278 452a4.966 4.966 0 0 1-5 0z"/><path id="Path_614" data-name="Path 614" class="cls-2" d="M212.4 382.3v15.4a3.481 3.481 0 0 0 1.7 2.9l59.7 34.5a3.25 3.25 0 0 0 3.3 0l59.7-34.5a3.357 3.357 0 0 0 1.7-2.9v-15.3H212.4"/><path id="Path_615" data-name="Path 615" class="cls-2" d="M332.6 312.7V328a3.481 3.481 0 0 0 1.7 2.9l59.7 34.5a3.25 3.25 0 0 0 3.3 0l59.7-34.5a3.357 3.357 0 0 0 1.7-2.9v-15.3H332.6"/><path id="Path_616" data-name="Path 616" class="cls-2" d="M92.4 312.6V328a3.481 3.481 0 0 0 1.7 2.9l59.7 34.5a3.25 3.25 0 0 0 3.3 0l59.7-34.5a3.357 3.357 0 0 0 1.7-2.9v-15.3H92.4"/><g id="Group_135" data-name="Group 135"><path id="Path_617" data-name="Path 617" class="cls-3" d="M180.4 215.1v23.2a4.755 4.755 0 0 0 2.5 4.3l90 52a4.967 4.967 0 0 0 5 0l90-52a5.018 5.018 0 0 0 2.5-4.4v-23.1h-190"/><path id="Path_618" data-name="Path 618" class="cls-4" d="M182.9 212.4l90-52a4.967 4.967 0 0 1 5 0l90 52a5.06 5.06 0 0 1 0 8.7l-90 52a4.967 4.967 0 0 1-5 0l-90-52a5.06 5.06 0 0 1 0-8.7z"/><path id="Path_619" data-name="Path 619" class="cls-5" d="M182.9 210.8l90-52a4.967 4.967 0 0 1 5 0l90 52a5.06 5.06 0 0 1 0 8.7l-90 52a4.967 4.967 0 0 1-5 0l-90-52a5.06 5.06 0 0 1 0-8.7z"/><path id="Path_620" data-name="Path 620" class="cls-2" d="M212.4 195.6V211a3.481 3.481 0 0 0 1.7 2.9l59.7 34.5a3.25 3.25 0 0 0 3.3 0l59.7-34.5a3.357 3.357 0 0 0 1.7-2.9v-15.3H212.4"/><path id="Path_621" data-name="Path 621" class="cls-4" d="M214.1 193.8l59.7-34.5a3.25 3.25 0 0 1 3.3 0l59.7 34.5a3.286 3.286 0 0 1 0 5.7L277.1 234a3.25 3.25 0 0 1-3.3 0l-59.7-34.5a3.286 3.286 0 0 1 0-5.7z"/><path id="Path_622" data-name="Path 622" class="cls-5" d="M214.1 192.7l59.7-34.5a3.25 3.25 0 0 1 3.3 0l59.7 34.5a3.286 3.286 0 0 1 0 5.7l-59.7 34.5a3.25 3.25 0 0 1-3.3 0l-59.7-34.5a3.286 3.286 0 0 1 0-5.7z"/><path id="Path_623" data-name="Path 623" class="cls-6" d="M236.8 191l37.8-21.8a1.986 1.986 0 0 1 2.1 0l37.8 21.8a2.068 2.068 0 0 1 0 3.6l-37.8 21.8a1.986 1.986 0 0 1-2.1 0l-37.8-21.8a2.068 2.068 0 0 1 0-3.6z"/><path id="Path_624" data-name="Path 624" class="cls-7" d="M248.9 199l26.1-15a1.2 1.2 0 0 1 1.4 0l26.1 15a1.416 1.416 0 0 1 0 2.5l-26.1 15a1.2 1.2 0 0 1-1.4 0l-26.1-15a1.417 1.417 0 0 1 0-2.5z"/><path id="Path_625" data-name="Path 625" class="cls-8" d="M180.4 162.5v23.2a4.755 4.755 0 0 0 2.5 4.3l90 52a4.967 4.967 0 0 0 5 0l90-52a5.018 5.018 0 0 0 2.5-4.4v-23.1h-190"/><path id="Path_626" data-name="Path 626" class="cls-4" d="M182.9 159.8l90-52a4.967 4.967 0 0 1 5 0l90 52a5.06 5.06 0 0 1 0 8.7l-90 52a4.967 4.967 0 0 1-5 0l-90-52a5.06 5.06 0 0 1 0-8.7z"/><path id="Path_627" data-name="Path 627" class="cls-5" d="M182.9 158.2l90-52a4.967 4.967 0 0 1 5 0l90 52a5.06 5.06 0 0 1 0 8.7l-90 52a4.967 4.967 0 0 1-5 0l-90-52a5.06 5.06 0 0 1 0-8.7z"/><path id="Path_628" data-name="Path 628" class="cls-2" d="M212.4 143v15.4a3.481 3.481 0 0 0 1.7 2.9l59.7 34.5a3.25 3.25 0 0 0 3.3 0l59.7-34.5a3.357 3.357 0 0 0 1.7-2.9V143H212.4"/><path id="Path_629" data-name="Path 629" class="cls-4" d="M214.1 141.2l59.7-34.5a3.25 3.25 0 0 1 3.3 0l59.7 34.5a3.286 3.286 0 0 1 0 5.7l-59.7 34.5a3.25 3.25 0 0 1-3.3 0L214.1 147a3.373 3.373 0 0 1 0-5.8z"/><path id="Path_630" data-name="Path 630" class="cls-5" d="M214.1 140.2l59.7-34.5a3.25 3.25 0 0 1 3.3 0l59.7 34.5a3.286 3.286 0 0 1 0 5.7l-59.7 34.5a3.25 3.25 0 0 1-3.3 0l-59.7-34.5a3.286 3.286 0 0 1 0-5.7z"/><path id="Path_631" data-name="Path 631" class="cls-6" d="M236.8 138.4l37.8-21.8a1.986 1.986 0 0 1 2.1 0l37.8 21.8a2.068 2.068 0 0 1 0 3.6l-37.8 21.8a1.986 1.986 0 0 1-2.1 0L236.8 142a2.067 2.067 0 0 1 0-3.6z"/><path id="Path_632" data-name="Path 632" class="cls-7" d="M248.9 146.4l26.1-15a1.2 1.2 0 0 1 1.4 0l26.1 15a1.416 1.416 0 0 1 0 2.5l-26.1 15a1.2 1.2 0 0 1-1.4 0l-26.1-15a1.416 1.416 0 0 1 0-2.5z"/><path id="Path_633" data-name="Path 633" d="M180.4 109.9V133a4.755 4.755 0 0 0 2.5 4.3l90 52a4.967 4.967 0 0 0 5 0l90-52a5.018 5.018 0 0 0 2.5-4.4v-23.1h-190" fill="url(#linear-gradient-3)"/><path id="Path_634" data-name="Path 634" class="cls-4" d="M182.9 107.2l90-52a4.967 4.967 0 0 1 5 0l90 52a5.06 5.06 0 0 1 0 8.7l-90 52a4.967 4.967 0 0 1-5 0l-90-52a5.06 5.06 0 0 1 0-8.7z"/><path id="Path_635" data-name="Path 635" class="cls-5" d="M182.9 105.5l90-52a4.967 4.967 0 0 1 5 0l90 52a5.06 5.06 0 0 1 0 8.7l-90 52a4.967 4.967 0 0 1-5 0l-90-52a5.06 5.06 0 0 1 0-8.7z"/><path id="Path_636" data-name="Path 636" class="cls-2" d="M212.4 90.3v15.4a3.481 3.481 0 0 0 1.7 2.9l59.7 34.5a3.25 3.25 0 0 0 3.3 0l59.7-34.5a3.357 3.357 0 0 0 1.7-2.9V90.3H212.4"/><path id="Path_637" data-name="Path 637" class="cls-4" d="M214.1 88.6l59.7-34.5a3.25 3.25 0 0 1 3.3 0l59.7 34.5a3.286 3.286 0 0 1 0 5.7l-59.7 34.5a3.25 3.25 0 0 1-3.3 0l-59.7-34.5a3.286 3.286 0 0 1 0-5.7z"/><path id="Path_638" data-name="Path 638" class="cls-5" d="M214.1 87.5L273.8 53a3.25 3.25 0 0 1 3.3 0l59.7 34.5a3.286 3.286 0 0 1 0 5.7l-59.7 34.5a3.25 3.25 0 0 1-3.3 0l-59.7-34.5a3.286 3.286 0 0 1 0-5.7z"/><path id="Path_639" data-name="Path 639" class="cls-6" d="M236.8 85.8L274.6 64a1.986 1.986 0 0 1 2.1 0l37.8 21.8a2.068 2.068 0 0 1 0 3.6l-37.8 21.8a1.986 1.986 0 0 1-2.1 0l-37.8-21.8a2.068 2.068 0 0 1 0-3.6z"/><path id="Path_640" data-name="Path 640" class="cls-7" d="M248.9 93.7l26.1-15a1.2 1.2 0 0 1 1.4 0l26.1 15a1.416 1.416 0 0 1 0 2.5l-26.1 15a1.2 1.2 0 0 1-1.4 0l-26.1-15a1.416 1.416 0 0 1 0-2.5z"/><path id="Path_641" data-name="Path 641" d="M180.4 57.3v23.2a4.755 4.755 0 0 0 2.5 4.3l90 52a4.967 4.967 0 0 0 5 0l90-52a5.018 5.018 0 0 0 2.5-4.4V57.3h-190" fill="url(#linear-gradient-4)"/><path id="Path_642" data-name="Path 642" class="cls-4" d="M182.9 54.6l90-52a4.967 4.967 0 0 1 5 0l90 52a5.06 5.06 0 0 1 0 8.7l-90 52a4.967 4.967 0 0 1-5 0l-90-52a5.06 5.06 0 0 1 0-8.7z"/><path id="Path_643" data-name="Path 643" class="cls-5" d="M182.9 53l90-52a4.967 4.967 0 0 1 5 0l90 52a5.06 5.06 0 0 1 0 8.7l-90 52a4.967 4.967 0 0 1-5 0l-90-52a5.06 5.06 0 0 1 0-8.7z"/><path id="Path_644" data-name="Path 644" class="cls-11" d="M212.4 37.8v15.4a3.481 3.481 0 0 0 1.7 2.9l59.7 34.5a3.25 3.25 0 0 0 3.3 0L336.8 56a3.357 3.357 0 0 0 1.7-2.9V37.8H212.4"/><path id="Path_645" data-name="Path 645" class="cls-4" d="M214.1 36l59.7-34.5a3.25 3.25 0 0 1 3.3 0L336.8 36a3.286 3.286 0 0 1 0 5.7l-59.7 34.5a3.25 3.25 0 0 1-3.3 0l-59.7-34.5a3.286 3.286 0 0 1 0-5.7z"/><path id="Path_646" data-name="Path 646" class="cls-2" d="M214.1 34.9L273.8.4a3.25 3.25 0 0 1 3.3 0l59.7 34.5a3.286 3.286 0 0 1 0 5.7l-59.7 34.5a3.25 3.25 0 0 1-3.3 0l-59.7-34.5a3.286 3.286 0 0 1 0-5.7z"/><path id="Path_647" data-name="Path 647" class="cls-6" d="M236.8 33.2l37.8-21.8a1.986 1.986 0 0 1 2.1 0l37.8 21.8a2.068 2.068 0 0 1 0 3.6l-37.8 21.8a1.986 1.986 0 0 1-2.1 0l-37.8-21.8a2.068 2.068 0 0 1 0-3.6z"/><path id="Path_648" data-name="Path 648" class="cls-7" d="M248.9 41.2l26.1-15a1.2 1.2 0 0 1 1.4 0l26.1 15a1.416 1.416 0 0 1 0 2.5l-26.1 15a1.2 1.2 0 0 1-1.4 0l-26.1-15a1.416 1.416 0 0 1 0-2.5z"/></g><g id="Group_148" data-name="Group 148"><path id="Path_649" data-name="Path 649" d="M60.4 280.1v23.2a4.754 4.754 0 0 0 2.5 4.3l90 52a4.967 4.967 0 0 0 5 0l90-52a5.018 5.018 0 0 0 2.5-4.4v-23.1h-190" fill="url(#linear-gradient-6)"/><path id="Path_650" data-name="Path 650" class="cls-4" d="M62.9 277.4l90-52a4.967 4.967 0 0 1 5 0l90 52a5.06 5.06 0 0 1 0 8.7l-90 52a4.967 4.967 0 0 1-5 0l-90-52a5.06 5.06 0 0 1 0-8.7z"/><path id="Path_651" data-name="Path 651" class="cls-5" d="M62.9 275.8l90-52a4.967 4.967 0 0 1 5 0l90 52a5.06 5.06 0 0 1 0 8.7l-90 52a4.967 4.967 0 0 1-5 0l-90-52a5.06 5.06 0 0 1 0-8.7z"/><path id="Path_652" data-name="Path 652" class="cls-2" d="M92.4 260.6V276a3.481 3.481 0 0 0 1.7 2.9l59.7 34.5a3.25 3.25 0 0 0 3.3 0l59.7-34.5a3.357 3.357 0 0 0 1.7-2.9v-15.3H92.4"/><path id="Path_653" data-name="Path 653" class="cls-4" d="M94 258.8l59.7-34.5a3.25 3.25 0 0 1 3.3 0l59.7 34.5a3.286 3.286 0 0 1 0 5.7L157 299a3.25 3.25 0 0 1-3.3 0L94 264.5a3.286 3.286 0 0 1 0-5.7z"/><path id="Path_654" data-name="Path 654" class="cls-5" d="M94 257.7l59.7-34.5a3.25 3.25 0 0 1 3.3 0l59.7 34.5a3.286 3.286 0 0 1 0 5.7L157 297.9a3.25 3.25 0 0 1-3.3 0L94 263.4a3.286 3.286 0 0 1 0-5.7z"/><g id="Group_136" data-name="Group 136"><ellipse id="Ellipse_82" data-name="Ellipse 82" class="cls-13" cx="4.5" cy="7.8" rx="4.5" ry="7.8" transform="rotate(-30 642.825 -25.69)"/></g><g id="Group_137" data-name="Group 137"><ellipse id="Ellipse_83" data-name="Ellipse 83" class="cls-13" cx="4.5" cy="7.8" rx="4.5" ry="7.8" transform="rotate(-30 673.472 -57.104)"/></g><path id="Path_655" data-name="Path 655" class="cls-6" d="M116.8 256l37.8-21.8a1.986 1.986 0 0 1 2.1 0l37.8 21.8a2.068 2.068 0 0 1 0 3.6l-37.8 21.8a1.986 1.986 0 0 1-2.1 0l-37.8-21.8a2.068 2.068 0 0 1 0-3.6z"/><path id="Path_656" data-name="Path 656" class="cls-7" d="M128.8 264l26.1-15a1.2 1.2 0 0 1 1.4 0l26.1 15a1.416 1.416 0 0 1 0 2.5l-26.1 15a1.2 1.2 0 0 1-1.4 0l-26.1-15a1.494 1.494 0 0 1 0-2.5z"/><g id="Group_138" data-name="Group 138"><ellipse id="Ellipse_84" data-name="Ellipse 84" class="cls-13" cx="4.5" cy="7.8" rx="4.5" ry="7.8" transform="rotate(-30 613.435 4.779)"/></g><path id="Path_657" data-name="Path 657" d="M60.4 227.5v23.2a4.755 4.755 0 0 0 2.5 4.3l90 52a4.967 4.967 0 0 0 5 0l90-52a5.018 5.018 0 0 0 2.5-4.4v-23.1h-190" fill="url(#linear-gradient-7)"/><path id="Path_658" data-name="Path 658" class="cls-4" d="M62.9 224.8l90-52a4.967 4.967 0 0 1 5 0l90 52a5.06 5.06 0 0 1 0 8.7l-90 52a4.967 4.967 0 0 1-5 0l-90-52a5.06 5.06 0 0 1 0-8.7z"/><path id="Path_659" data-name="Path 659" class="cls-5" d="M62.9 223.2l90-52a4.967 4.967 0 0 1 5 0l90 52a5.06 5.06 0 0 1 0 8.7l-90 52a4.967 4.967 0 0 1-5 0l-90-52a5.06 5.06 0 0 1 0-8.7z"/><path id="Path_660" data-name="Path 660" class="cls-2" d="M92.4 208v15.4a3.481 3.481 0 0 0 1.7 2.9l59.7 34.5a3.25 3.25 0 0 0 3.3 0l59.7-34.5a3.357 3.357 0 0 0 1.7-2.9V208H92.4"/><path id="Path_661" data-name="Path 661" class="cls-4" d="M94 206.2l59.7-34.5a3.25 3.25 0 0 1 3.3 0l59.7 34.5a3.286 3.286 0 0 1 0 5.7L157 246.4a3.25 3.25 0 0 1-3.3 0L94 211.9a3.286 3.286 0 0 1 0-5.7z"/><path id="Path_662" data-name="Path 662" class="cls-5" d="M94 205.1l59.7-34.5a3.25 3.25 0 0 1 3.3 0l59.7 34.5a3.286 3.286 0 0 1 0 5.7L157 245.3a3.25 3.25 0 0 1-3.3 0L94 210.9a3.373 3.373 0 0 1 0-5.8z"/><g id="Group_139" data-name="Group 139"><ellipse id="Ellipse_85" data-name="Ellipse 85" class="cls-13" cx="4.5" cy="7.8" rx="4.5" ry="7.8" transform="rotate(-30 544.863 -52.013)"/></g><g id="Group_140" data-name="Group 140"><ellipse id="Ellipse_86" data-name="Ellipse 86" class="cls-13" cx="4.5" cy="7.8" rx="4.5" ry="7.8" transform="rotate(-30 575.323 -83.376)"/></g><path id="Path_663" data-name="Path 663" class="cls-6" d="M116.8 203.4l37.8-21.8a1.986 1.986 0 0 1 2.1 0l37.8 21.8a2.068 2.068 0 0 1 0 3.6l-37.8 21.8a1.986 1.986 0 0 1-2.1 0L116.8 207a2.068 2.068 0 0 1 0-3.6z"/><path id="Path_664" data-name="Path 664" class="cls-7" d="M128.8 211.4l26.1-15a1.2 1.2 0 0 1 1.4 0l26.1 15a1.416 1.416 0 0 1 0 2.5l-26.1 15a1.2 1.2 0 0 1-1.4 0l-26.1-15a1.494 1.494 0 0 1 0-2.5z"/><g id="Group_141" data-name="Group 141"><ellipse id="Ellipse_87" data-name="Ellipse 87" class="cls-13" cx="4.5" cy="7.8" rx="4.5" ry="7.8" transform="rotate(-30 515.288 -21.493)"/></g><path id="Path_665" data-name="Path 665" class="cls-15" d="M60.4 174.8V198a4.755 4.755 0 0 0 2.5 4.3l90 52a4.967 4.967 0 0 0 5 0l90-52a5.018 5.018 0 0 0 2.5-4.4v-23.1h-190"/><path id="Path_666" data-name="Path 666" class="cls-4" d="M62.9 172.1l90-52a4.967 4.967 0 0 1 5 0l90 52a5.06 5.06 0 0 1 0 8.7l-90 52a4.967 4.967 0 0 1-5 0l-90-52a5.06 5.06 0 0 1 0-8.7z"/><path id="Path_667" data-name="Path 667" class="cls-5" d="M62.9 170.5l90-52a4.967 4.967 0 0 1 5 0l90 52a5.06 5.06 0 0 1 0 8.7l-90 52a4.967 4.967 0 0 1-5 0l-90-52a5.06 5.06 0 0 1 0-8.7z"/><path id="Path_668" data-name="Path 668" class="cls-2" d="M92.4 155.3v15.4a3.481 3.481 0 0 0 1.7 2.9l59.7 34.5a3.25 3.25 0 0 0 3.3 0l59.7-34.5a3.357 3.357 0 0 0 1.7-2.9v-15.3H92.4"/><path id="Path_669" data-name="Path 669" class="cls-4" d="M94 153.5l59.7-34.5a3.25 3.25 0 0 1 3.3 0l59.7 34.5a3.286 3.286 0 0 1 0 5.7L157 193.7a3.25 3.25 0 0 1-3.3 0L94 159.3a3.373 3.373 0 0 1 0-5.8z"/><path id="Path_670" data-name="Path 670" class="cls-5" d="M94 152.4l59.7-34.5a3.25 3.25 0 0 1 3.3 0l59.7 34.5a3.286 3.286 0 0 1 0 5.7L157 192.6a3.25 3.25 0 0 1-3.3 0L94 158.2a3.373 3.373 0 0 1 0-5.8z"/><g id="Group_142" data-name="Group 142"><ellipse id="Ellipse_88" data-name="Ellipse 88" class="cls-13" cx="4.5" cy="7.8" rx="4.5" ry="7.8" transform="rotate(-30 446.528 -78.344)"/></g><g id="Group_143" data-name="Group 143"><ellipse id="Ellipse_89" data-name="Ellipse 89" class="cls-13" cx="4.5" cy="7.8" rx="4.5" ry="7.8" transform="rotate(-30 477.174 -109.755)"/></g><path id="Path_671" data-name="Path 671" class="cls-6" d="M116.8 150.7l37.8-21.8a1.986 1.986 0 0 1 2.1 0l37.8 21.8a2.068 2.068 0 0 1 0 3.6l-37.8 21.8a1.986 1.986 0 0 1-2.1 0l-37.8-21.8a2.068 2.068 0 0 1 0-3.6z"/><path id="Path_672" data-name="Path 672" class="cls-7" d="M128.8 158.7l26.1-15a1.2 1.2 0 0 1 1.4 0l26.1 15a1.416 1.416 0 0 1 0 2.5l-26.1 15a1.2 1.2 0 0 1-1.4 0l-26.1-15a1.494 1.494 0 0 1 0-2.5z"/><g id="Group_144" data-name="Group 144"><ellipse id="Ellipse_90" data-name="Ellipse 90" class="cls-13" cx="4.5" cy="7.8" rx="4.5" ry="7.8" transform="rotate(-30 416.952 -47.823)"/></g><path id="Path_673" data-name="Path 673" d="M60.4 122.3v23.2a4.755 4.755 0 0 0 2.5 4.3l90 52a4.967 4.967 0 0 0 5 0l90-52a5.018 5.018 0 0 0 2.5-4.4v-23.1h-190" fill="url(#linear-gradient-9)"/><path id="Path_674" data-name="Path 674" class="cls-4" d="M62.9 119.6l90-52a4.967 4.967 0 0 1 5 0l90 52a5.06 5.06 0 0 1 0 8.7l-90 52a4.967 4.967 0 0 1-5 0l-90-52a5.06 5.06 0 0 1 0-8.7z"/><path id="Path_675" data-name="Path 675" class="cls-5" d="M62.9 117.9l90-52a4.967 4.967 0 0 1 5 0l90 52a5.06 5.06 0 0 1 0 8.7l-90 52a4.967 4.967 0 0 1-5 0l-90-52a5.06 5.06 0 0 1 0-8.7z"/><path id="Path_676" data-name="Path 676" d="M92.4 102.7v15.4a3.481 3.481 0 0 0 1.7 2.9l59.7 34.5a3.25 3.25 0 0 0 3.3 0l59.7-34.5a3.357 3.357 0 0 0 1.7-2.9v-15.3H92.4" fill="url(#linear-gradient-10)"/><path id="Path_677" data-name="Path 677" class="cls-4" d="M94 101l59.7-34.5a3.25 3.25 0 0 1 3.3 0l59.7 34.5a3.286 3.286 0 0 1 0 5.7L157 141.2a3.25 3.25 0 0 1-3.3 0L94 106.7a3.286 3.286 0 0 1 0-5.7z"/><path id="Path_678" data-name="Path 678" class="cls-2" d="M94 99.9l59.7-34.5a3.25 3.25 0 0 1 3.3 0l59.7 34.5a3.286 3.286 0 0 1 0 5.7L157 140.1a3.25 3.25 0 0 1-3.3 0L94 105.6a3.286 3.286 0 0 1 0-5.7z"/><g id="Group_145" data-name="Group 145"><ellipse id="Ellipse_91" data-name="Ellipse 91" class="cls-13" cx="4.5" cy="7.8" rx="4.5" ry="7.8" transform="rotate(-30 348.381 -104.616)"/></g><g id="Group_146" data-name="Group 146"><ellipse id="Ellipse_92" data-name="Ellipse 92" class="cls-13" cx="4.5" cy="7.8" rx="4.5" ry="7.8" transform="rotate(-30 379.027 -136.027)"/></g><path id="Path_679" data-name="Path 679" class="cls-6" d="M116.8 98.2l37.8-21.8a1.986 1.986 0 0 1 2.1 0l37.8 21.8a2.068 2.068 0 0 1 0 3.6l-37.8 21.8a1.986 1.986 0 0 1-2.1 0l-37.8-21.8a2.068 2.068 0 0 1 0-3.6z"/><path id="Path_680" data-name="Path 680" class="cls-7" d="M128.8 106.1l26.1-15a1.2 1.2 0 0 1 1.4 0l26.1 15a1.416 1.416 0 0 1 0 2.5l-26.1 15a1.2 1.2 0 0 1-1.4 0l-26.1-15a1.494 1.494 0 0 1 0-2.5z"/><g id="Group_147" data-name="Group 147"><ellipse id="Ellipse_93" data-name="Ellipse 93" class="cls-13" cx="4.5" cy="7.8" rx="4.5" ry="7.8" transform="rotate(-30 318.993 -74.144)"/></g><path id="Line_127" data-name="Line 127" class="cls-1" transform="translate(87.6 154.7)" d="M0 0v51.9"/><path id="Line_128" data-name="Line 128" class="cls-1" transform="translate(87.6 206.6)" d="M18.7 10.7L0 0"/><path id="Line_129" data-name="Line 129" class="cls-1" transform="translate(87.6 259.9)" d="M18.7 10.6L0 0"/><path id="Line_130" data-name="Line 130" class="cls-1" transform="translate(126.6 176.5)" d="M0 0v105.2"/><path id="Line_131" data-name="Line 131" class="cls-1" transform="translate(87.6 311.9)" d="M19.2 12.2L0 0"/><path id="Line_132" data-name="Line 132" class="cls-1" transform="translate(106.8 272.6)" d="M0 0v51.5"/></g><g id="Group_161" data-name="Group 161"><path id="Path_681" data-name="Path 681" d="M300.4 280.1v23.2a4.754 4.754 0 0 0 2.5 4.3l90 52a4.967 4.967 0 0 0 5 0l90-52a5.018 5.018 0 0 0 2.5-4.4v-23.1h-190" fill="url(#linear-gradient-11)"/><path id="Path_682" data-name="Path 682" class="cls-4" d="M302.9 277.4l90-52a4.967 4.967 0 0 1 5 0l90 52a5.06 5.06 0 0 1 0 8.7l-90 52a4.967 4.967 0 0 1-5 0l-90-52a5.06 5.06 0 0 1 0-8.7z"/><path id="Path_683" data-name="Path 683" class="cls-5" d="M302.9 275.8l90-52a4.967 4.967 0 0 1 5 0l90 52a5.06 5.06 0 0 1 0 8.7l-90 52a4.967 4.967 0 0 1-5 0l-90-52a5.06 5.06 0 0 1 0-8.7z"/><path id="Path_684" data-name="Path 684" class="cls-2" d="M332.4 260.6V276a3.481 3.481 0 0 0 1.7 2.9l59.7 34.5a3.25 3.25 0 0 0 3.3 0l59.7-34.5a3.357 3.357 0 0 0 1.7-2.9v-15.3H332.4"/><path id="Path_685" data-name="Path 685" class="cls-4" d="M334 258.8l59.7-34.5a3.25 3.25 0 0 1 3.3 0l59.7 34.5a3.286 3.286 0 0 1 0 5.7L397 299a3.25 3.25 0 0 1-3.3 0L334 264.5a3.286 3.286 0 0 1 0-5.7z"/><path id="Path_686" data-name="Path 686" class="cls-5" d="M334 257.7l59.7-34.5a3.25 3.25 0 0 1 3.3 0l59.7 34.5a3.286 3.286 0 0 1 0 5.7L397 297.9a3.25 3.25 0 0 1-3.3 0L334 263.5a3.373 3.373 0 0 1 0-5.8z"/><path id="Path_687" data-name="Path 687" class="cls-6" d="M356.8 256l37.8-21.8a1.986 1.986 0 0 1 2.1 0l37.8 21.8a2.068 2.068 0 0 1 0 3.6l-37.8 21.8a1.986 1.986 0 0 1-2.1 0l-37.8-21.8a2.068 2.068 0 0 1 0-3.6z"/><path id="Path_688" data-name="Path 688" class="cls-7" d="M368.8 264l26.1-15a1.2 1.2 0 0 1 1.4 0l26.1 15a1.416 1.416 0 0 1 0 2.5l-26.1 15a1.2 1.2 0 0 1-1.4 0l-26.1-15a1.494 1.494 0 0 1 0-2.5z"/><path id="Path_689" data-name="Path 689" class="cls-15" d="M300.4 227.5v23.2a4.755 4.755 0 0 0 2.5 4.3l90 52a4.967 4.967 0 0 0 5 0l90-52a5.018 5.018 0 0 0 2.5-4.4v-23.1h-190"/><path id="Path_690" data-name="Path 690" class="cls-4" d="M302.9 224.8l90-52a4.967 4.967 0 0 1 5 0l90 52a5.06 5.06 0 0 1 0 8.7l-90 52a4.967 4.967 0 0 1-5 0l-90-52a5.06 5.06 0 0 1 0-8.7z"/><path id="Path_691" data-name="Path 691" class="cls-5" d="M302.9 223.2l90-52a4.967 4.967 0 0 1 5 0l90 52a5.06 5.06 0 0 1 0 8.7l-90 52a4.967 4.967 0 0 1-5 0l-90-52a5.06 5.06 0 0 1 0-8.7z"/><path id="Path_692" data-name="Path 692" class="cls-2" d="M332.4 208v15.4a3.481 3.481 0 0 0 1.7 2.9l59.7 34.5a3.25 3.25 0 0 0 3.3 0l59.7-34.5a3.357 3.357 0 0 0 1.7-2.9V208H332.4"/><path id="Path_693" data-name="Path 693" class="cls-4" d="M334 206.2l59.7-34.5a3.25 3.25 0 0 1 3.3 0l59.7 34.5a3.286 3.286 0 0 1 0 5.7L397 246.4a3.25 3.25 0 0 1-3.3 0L334 212a3.373 3.373 0 0 1 0-5.8z"/><path id="Path_694" data-name="Path 694" class="cls-5" d="M334 205.1l59.7-34.5a3.25 3.25 0 0 1 3.3 0l59.7 34.5a3.286 3.286 0 0 1 0 5.7L397 245.3a3.25 3.25 0 0 1-3.3 0L334 210.9a3.373 3.373 0 0 1 0-5.8z"/><path id="Path_695" data-name="Path 695" class="cls-6" d="M356.8 203.4l37.8-21.8a1.986 1.986 0 0 1 2.1 0l37.8 21.8a2.068 2.068 0 0 1 0 3.6l-37.8 21.8a1.986 1.986 0 0 1-2.1 0L356.8 207a2.068 2.068 0 0 1 0-3.6z"/><path id="Path_696" data-name="Path 696" class="cls-7" d="M368.8 211.4l26.1-15a1.2 1.2 0 0 1 1.4 0l26.1 15a1.416 1.416 0 0 1 0 2.5l-26.1 15a1.2 1.2 0 0 1-1.4 0l-26.1-15a1.494 1.494 0 0 1 0-2.5z"/><path id="Path_697" data-name="Path 697" d="M300.4 174.9V198a4.755 4.755 0 0 0 2.5 4.3l90 52a4.967 4.967 0 0 0 5 0l90-52a5.018 5.018 0 0 0 2.5-4.4v-23.1h-190" fill="url(#linear-gradient-13)"/><path id="Path_698" data-name="Path 698" class="cls-4" d="M302.9 172.2l90-52a4.967 4.967 0 0 1 5 0l90 52a5.06 5.06 0 0 1 0 8.7l-90 52a4.967 4.967 0 0 1-5 0l-90-52a5.06 5.06 0 0 1 0-8.7z"/><path id="Path_699" data-name="Path 699" class="cls-5" d="M302.9 170.5l90-52a4.967 4.967 0 0 1 5 0l90 52a5.06 5.06 0 0 1 0 8.7l-90 52a4.967 4.967 0 0 1-5 0l-90-52a5.06 5.06 0 0 1 0-8.7z"/><path id="Path_700" data-name="Path 700" class="cls-2" d="M332.4 155.3v15.4a3.481 3.481 0 0 0 1.7 2.9l59.7 34.5a3.25 3.25 0 0 0 3.3 0l59.7-34.5a3.357 3.357 0 0 0 1.7-2.9v-15.3H332.4"/><path id="Path_701" data-name="Path 701" class="cls-4" d="M334 153.5l59.7-34.5a3.25 3.25 0 0 1 3.3 0l59.7 34.5a3.286 3.286 0 0 1 0 5.7L397 193.7a3.25 3.25 0 0 1-3.3 0L334 159.3a3.373 3.373 0 0 1 0-5.8z"/><path id="Path_702" data-name="Path 702" class="cls-5" d="M334 152.5l59.7-34.5a3.25 3.25 0 0 1 3.3 0l59.7 34.5a3.286 3.286 0 0 1 0 5.7L397 192.7a3.25 3.25 0 0 1-3.3 0L334 158.2a3.286 3.286 0 0 1 0-5.7z"/><path id="Path_703" data-name="Path 703" class="cls-6" d="M356.8 150.8l37.8-21.8a1.986 1.986 0 0 1 2.1 0l37.8 21.8a2.068 2.068 0 0 1 0 3.6l-37.8 21.8a1.986 1.986 0 0 1-2.1 0l-37.8-21.8a2.068 2.068 0 0 1 0-3.6z"/><path id="Path_704" data-name="Path 704" class="cls-7" d="M368.8 158.7l26.1-15a1.2 1.2 0 0 1 1.4 0l26.1 15a1.416 1.416 0 0 1 0 2.5l-26.1 15a1.2 1.2 0 0 1-1.4 0l-26.1-15a1.494 1.494 0 0 1 0-2.5z"/><path id="Path_705" data-name="Path 705" d="M300.4 122.3v23.2a4.755 4.755 0 0 0 2.5 4.3l90 52a4.967 4.967 0 0 0 5 0l90-52a5.018 5.018 0 0 0 2.5-4.4v-23.1h-190" fill="url(#linear-gradient-14)"/><path id="Path_706" data-name="Path 706" class="cls-4" d="M302.9 119.6l90-52a4.967 4.967 0 0 1 5 0l90 52a5.06 5.06 0 0 1 0 8.7l-90 52a4.967 4.967 0 0 1-5 0l-90-52a5.06 5.06 0 0 1 0-8.7z"/><path id="Path_707" data-name="Path 707" class="cls-5" d="M302.9 118l90-52a4.967 4.967 0 0 1 5 0l90 52a5.06 5.06 0 0 1 0 8.7l-90 52a4.967 4.967 0 0 1-5 0l-90-52a5.06 5.06 0 0 1 0-8.7z"/><path id="Path_708" data-name="Path 708" d="M332.4 102.8v15.4a3.481 3.481 0 0 0 1.7 2.9l59.7 34.5a3.25 3.25 0 0 0 3.3 0l59.7-34.5a3.357 3.357 0 0 0 1.7-2.9v-15.3H332.4" fill="url(#linear-gradient-15)"/><path id="Path_709" data-name="Path 709" class="cls-4" d="M334 101l59.7-34.5a3.25 3.25 0 0 1 3.3 0l59.7 34.5a3.286 3.286 0 0 1 0 5.7L397 141.2a3.25 3.25 0 0 1-3.3 0L334 106.7a3.286 3.286 0 0 1 0-5.7z"/><path id="Path_710" data-name="Path 710" class="cls-2" d="M334 99.9l59.7-34.5a3.25 3.25 0 0 1 3.3 0l59.7 34.5a3.286 3.286 0 0 1 0 5.7L397 140.1a3.25 3.25 0 0 1-3.3 0L334 105.6a3.286 3.286 0 0 1 0-5.7z"/><path id="Path_711" data-name="Path 711" class="cls-6" d="M356.8 98.2l37.8-21.8a1.986 1.986 0 0 1 2.1 0l37.8 21.8a2.068 2.068 0 0 1 0 3.6l-37.8 21.8a1.986 1.986 0 0 1-2.1 0l-37.8-21.8a2.068 2.068 0 0 1 0-3.6z"/><path id="Path_712" data-name="Path 712" class="cls-7" d="M368.8 106.2l26.1-15a1.2 1.2 0 0 1 1.4 0l26.1 15a1.416 1.416 0 0 1 0 2.5l-26.1 15a1.2 1.2 0 0 1-1.4 0l-26.1-15a1.494 1.494 0 0 1 0-2.5z"/><path id="Line_133" data-name="Line 133" class="cls-1" transform="translate(464.8 204.6)" d="M0 0v51.8"/><path id="Line_134" data-name="Line 134" class="cls-1" transform="translate(429.6 174.3)" d="M0 0v51.8"/><path id="Line_135" data-name="Line 135" class="cls-1" transform="translate(447.8 215)" d="M0 0v105.2"/><g id="Group_149" data-name="Group 149"><ellipse id="Ellipse_94" data-name="Ellipse 94" class="cls-13" cx="7.6" cy="4.4" rx="7.6" ry="4.4" transform="rotate(-60 364.598 -297.86)"/></g><g id="Group_150" data-name="Group 150"><ellipse id="Ellipse_95" data-name="Ellipse 95" class="cls-13" cx="7.6" cy="4.4" rx="7.6" ry="4.4" transform="rotate(-60 364.54 -276.782)"/></g><g id="Group_151" data-name="Group 151"><ellipse id="Ellipse_96" data-name="Ellipse 96" class="cls-13" cx="7.6" cy="4.4" rx="7.6" ry="4.4" transform="rotate(-60 364.612 -317.463)"/></g><g id="Group_152" data-name="Group 152"><ellipse id="Ellipse_97" data-name="Ellipse 97" class="cls-13" cx="7.6" cy="4.4" rx="7.6" ry="4.4" transform="rotate(-60 409.718 -271.73)"/></g><g id="Group_153" data-name="Group 153"><ellipse id="Ellipse_98" data-name="Ellipse 98" class="cls-13" cx="7.6" cy="4.4" rx="7.6" ry="4.4" transform="rotate(-60 409.747 -250.703)"/></g><g id="Group_154" data-name="Group 154"><ellipse id="Ellipse_99" data-name="Ellipse 99" class="cls-13" cx="7.6" cy="4.4" rx="7.6" ry="4.4" transform="rotate(-60 409.818 -291.385)"/></g><g id="Group_155" data-name="Group 155"><ellipse id="Ellipse_100" data-name="Ellipse 100" class="cls-13" cx="7.6" cy="4.4" rx="7.6" ry="4.4" transform="rotate(-60 455.357 -245.401)"/></g><g id="Group_156" data-name="Group 156"><ellipse id="Ellipse_101" data-name="Ellipse 101" class="cls-13" cx="7.6" cy="4.4" rx="7.6" ry="4.4" transform="rotate(-60 455.386 -224.374)"/></g><g id="Group_157" data-name="Group 157"><ellipse id="Ellipse_102" data-name="Ellipse 102" class="cls-13" cx="7.6" cy="4.4" rx="7.6" ry="4.4" transform="rotate(-60 455.37 -265.006)"/></g><g id="Group_158" data-name="Group 158"><ellipse id="Ellipse_103" data-name="Ellipse 103" class="cls-13" cx="7.6" cy="4.4" rx="7.6" ry="4.4" transform="rotate(-60 500.91 -219.131)"/></g><g id="Group_159" data-name="Group 159"><ellipse id="Ellipse_104" data-name="Ellipse 104" class="cls-13" cx="7.6" cy="4.4" rx="7.6" ry="4.4" transform="rotate(-60 500.852 -198.054)"/></g><g id="Group_160" data-name="Group 160"><ellipse id="Ellipse_105" data-name="Ellipse 105" class="cls-13" cx="7.6" cy="4.4" rx="7.6" ry="4.4" transform="rotate(-60 500.924 -238.736)"/></g><path id="Line_136" data-name="Line 136" class="cls-1" transform="translate(429.6 267.6)" d="M0 10.8L18.8 0"/><path id="Line_137" data-name="Line 137" class="cls-1" transform="translate(449 309.4)" d="M0 10.8L18.8 0"/><path id="Line_138" data-name="Line 138" class="cls-1" transform="translate(447.8 152.6)" d="M0 10.7L18.8 0"/></g><g id="Group_186" data-name="Group 186"><path id="Path_713" data-name="Path 713" class="cls-3" d="M180.4 349.3v23.2a4.754 4.754 0 0 0 2.5 4.3l90 52a4.967 4.967 0 0 0 5 0l90-52a5.018 5.018 0 0 0 2.5-4.4v-23.1h-190"/><path id="Path_714" data-name="Path 714" class="cls-4" d="M182.9 346.6l90-52a4.967 4.967 0 0 1 5 0l90 52a5.06 5.06 0 0 1 0 8.7l-90 52a4.967 4.967 0 0 1-5 0l-90-52a5.06 5.06 0 0 1 0-8.7z"/><path id="Path_715" data-name="Path 715" class="cls-5" d="M182.9 345l90-52a4.967 4.967 0 0 1 5 0l90 52a5.06 5.06 0 0 1 0 8.7l-90 52a4.967 4.967 0 0 1-5 0l-90-52a5.06 5.06 0 0 1 0-8.7z"/><path id="Path_716" data-name="Path 716" class="cls-2" d="M212.4 329.8v15.4a3.481 3.481 0 0 0 1.7 2.9l59.7 34.5a3.25 3.25 0 0 0 3.3 0l59.7-34.5a3.357 3.357 0 0 0 1.7-2.9v-15.3H212.4"/><path id="Path_717" data-name="Path 717" class="cls-4" d="M214.1 328l59.7-34.5a3.25 3.25 0 0 1 3.3 0l59.7 34.5a3.286 3.286 0 0 1 0 5.7l-59.7 34.5a3.25 3.25 0 0 1-3.3 0l-59.7-34.5a3.286 3.286 0 0 1 0-5.7z"/><path id="Path_718" data-name="Path 718" class="cls-5" d="M214.1 326.9l59.7-34.5a3.25 3.25 0 0 1 3.3 0l59.7 34.5a3.286 3.286 0 0 1 0 5.7l-59.7 34.5a3.25 3.25 0 0 1-3.3 0l-59.7-34.5a3.286 3.286 0 0 1 0-5.7z"/><g id="Group_162" data-name="Group 162"><ellipse id="Ellipse_106" data-name="Ellipse 106" class="cls-13" cx="4.5" cy="7.8" rx="4.5" ry="7.8" transform="rotate(-30 832.183 -215.013)"/></g><g id="Group_163" data-name="Group 163"><ellipse id="Ellipse_107" data-name="Ellipse 107" class="cls-13" cx="4.5" cy="7.8" rx="4.5" ry="7.8" transform="rotate(-30 862.642 -246.374)"/></g><path id="Path_719" data-name="Path 719" class="cls-6" d="M236.8 325.2l37.8-21.8a1.986 1.986 0 0 1 2.1 0l37.8 21.8a2.068 2.068 0 0 1 0 3.6l-37.8 21.8a1.986 1.986 0 0 1-2.1 0l-37.8-21.8a2.068 2.068 0 0 1 0-3.6z"/><path id="Path_720" data-name="Path 720" class="cls-7" d="M248.9 333.2l26.1-15a1.2 1.2 0 0 1 1.4 0l26.1 15a1.416 1.416 0 0 1 0 2.5l-26.1 15a1.2 1.2 0 0 1-1.4 0l-26.1-15a1.417 1.417 0 0 1 0-2.5z"/><g id="Group_164" data-name="Group 164"><ellipse id="Ellipse_108" data-name="Ellipse 108" class="cls-13" cx="4.5" cy="7.8" rx="4.5" ry="7.8" transform="rotate(-30 802.608 -184.491)"/></g><path id="Path_721" data-name="Path 721" class="cls-8" d="M180.4 296.7v23.2a4.754 4.754 0 0 0 2.5 4.3l90 52a4.967 4.967 0 0 0 5 0l90-52a5.018 5.018 0 0 0 2.5-4.4v-23.1h-190"/><path id="Path_722" data-name="Path 722" class="cls-4" d="M182.9 294l90-52a4.967 4.967 0 0 1 5 0l90 52a5.06 5.06 0 0 1 0 8.7l-90 52a4.967 4.967 0 0 1-5 0l-90-52a5.06 5.06 0 0 1 0-8.7z"/><path id="Path_723" data-name="Path 723" class="cls-5" d="M182.9 292.4l90-52a4.967 4.967 0 0 1 5 0l90 52a5.06 5.06 0 0 1 0 8.7l-90 52a4.967 4.967 0 0 1-5 0l-90-52a5.06 5.06 0 0 1 0-8.7z"/><path id="Path_724" data-name="Path 724" class="cls-2" d="M212.4 277.2v15.4a3.481 3.481 0 0 0 1.7 2.9l59.7 34.5a3.25 3.25 0 0 0 3.3 0l59.7-34.5a3.357 3.357 0 0 0 1.7-2.9v-15.3H212.4"/><path id="Path_725" data-name="Path 725" class="cls-4" d="M214.1 275.4l59.7-34.5a3.25 3.25 0 0 1 3.3 0l59.7 34.5a3.286 3.286 0 0 1 0 5.7l-59.7 34.5a3.25 3.25 0 0 1-3.3 0l-59.7-34.5a3.286 3.286 0 0 1 0-5.7z"/><path id="Path_726" data-name="Path 726" class="cls-5" d="M214.1 274.4l59.7-34.5a3.25 3.25 0 0 1 3.3 0l59.7 34.5a3.286 3.286 0 0 1 0 5.7l-59.7 34.5a3.25 3.25 0 0 1-3.3 0l-59.7-34.5a3.286 3.286 0 0 1 0-5.7z"/><g id="Group_165" data-name="Group 165"><ellipse id="Ellipse_109" data-name="Ellipse 109" class="cls-13" cx="4.5" cy="7.8" rx="4.5" ry="7.8" transform="rotate(-30 734.036 -241.284)"/></g><g id="Group_166" data-name="Group 166"><ellipse id="Ellipse_110" data-name="Ellipse 110" class="cls-13" cx="4.5" cy="7.8" rx="4.5" ry="7.8" transform="rotate(-30 764.683 -272.697)"/></g><path id="Path_727" data-name="Path 727" class="cls-6" d="M236.8 272.6l37.8-21.8a1.986 1.986 0 0 1 2.1 0l37.8 21.8a2.068 2.068 0 0 1 0 3.6L276.7 298a1.986 1.986 0 0 1-2.1 0l-37.8-21.8a2.067 2.067 0 0 1 0-3.6z"/><path id="Path_728" data-name="Path 728" class="cls-7" d="M248.9 280.6l26.1-15a1.2 1.2 0 0 1 1.4 0l26.1 15a1.416 1.416 0 0 1 0 2.5l-26.1 15a1.2 1.2 0 0 1-1.4 0l-26.1-15a1.416 1.416 0 0 1 0-2.5z"/><g id="Group_167" data-name="Group 167"><ellipse id="Ellipse_111" data-name="Ellipse 111" class="cls-13" cx="4.5" cy="7.8" rx="4.5" ry="7.8" transform="rotate(-30 704.46 -210.763)"/></g><path id="Path_729" data-name="Path 729" d="M180.4 244.1v23.2a4.754 4.754 0 0 0 2.5 4.3l90 52a4.967 4.967 0 0 0 5 0l90-52a5.018 5.018 0 0 0 2.5-4.4v-23.1h-190" fill="url(#linear-gradient-18)"/><path id="Path_730" data-name="Path 730" class="cls-4" d="M182.9 241.4l90-52a4.967 4.967 0 0 1 5 0l90 52a5.06 5.06 0 0 1 0 8.7l-90 52a4.967 4.967 0 0 1-5 0l-90-52a5.06 5.06 0 0 1 0-8.7z"/><path id="Path_731" data-name="Path 731" class="cls-5" d="M182.9 239.7l90-52a4.967 4.967 0 0 1 5 0l90 52a5.06 5.06 0 0 1 0 8.7l-90 52a4.967 4.967 0 0 1-5 0l-90-52a5.06 5.06 0 0 1 0-8.7z"/><path id="Path_732" data-name="Path 732" class="cls-2" d="M212.4 224.5v15.4a3.481 3.481 0 0 0 1.7 2.9l59.7 34.5a3.25 3.25 0 0 0 3.3 0l59.7-34.5a3.357 3.357 0 0 0 1.7-2.9v-15.3H212.4"/><path id="Path_733" data-name="Path 733" class="cls-4" d="M214.1 222.8l59.7-34.5a3.25 3.25 0 0 1 3.3 0l59.7 34.5a3.286 3.286 0 0 1 0 5.7L277.1 263a3.25 3.25 0 0 1-3.3 0l-59.7-34.5a3.286 3.286 0 0 1 0-5.7z"/><path id="Path_734" data-name="Path 734" class="cls-5" d="M214.1 221.7l59.7-34.5a3.25 3.25 0 0 1 3.3 0l59.7 34.5a3.286 3.286 0 0 1 0 5.7l-59.7 34.5a3.25 3.25 0 0 1-3.3 0l-59.7-34.5a3.286 3.286 0 0 1 0-5.7z"/><g id="Group_168" data-name="Group 168"><ellipse id="Ellipse_112" data-name="Ellipse 112" class="cls-13" cx="4.5" cy="7.8" rx="4.5" ry="7.8" transform="rotate(-30 635.7 -267.614)"/></g><g id="Group_169" data-name="Group 169"><ellipse id="Ellipse_113" data-name="Ellipse 113" class="cls-13" cx="4.5" cy="7.8" rx="4.5" ry="7.8" transform="rotate(-30 666.347 -299.027)"/></g><path id="Path_735" data-name="Path 735" class="cls-6" d="M236.8 220l37.8-21.8a1.986 1.986 0 0 1 2.1 0l37.8 21.8a2.068 2.068 0 0 1 0 3.6l-37.8 21.8a1.986 1.986 0 0 1-2.1 0l-37.8-21.8a2.068 2.068 0 0 1 0-3.6z"/><path id="Path_736" data-name="Path 736" class="cls-7" d="M248.9 228l26.1-15a1.2 1.2 0 0 1 1.4 0l26.1 15a1.416 1.416 0 0 1 0 2.5l-26.1 15a1.2 1.2 0 0 1-1.4 0l-26.1-15a1.416 1.416 0 0 1 0-2.5z"/><g id="Group_170" data-name="Group 170"><ellipse id="Ellipse_114" data-name="Ellipse 114" class="cls-13" cx="4.5" cy="7.8" rx="4.5" ry="7.8" transform="rotate(-30 606.313 -237.144)"/></g><path id="Path_737" data-name="Path 737" d="M180.4 191.5v23.2a4.755 4.755 0 0 0 2.5 4.3l90 52a4.967 4.967 0 0 0 5 0l90-52a5.018 5.018 0 0 0 2.5-4.4v-23.1h-190" fill="url(#linear-gradient-19)"/><path id="Path_738" data-name="Path 738" class="cls-4" d="M182.9 188.8l90-52a4.967 4.967 0 0 1 5 0l90 52a5.06 5.06 0 0 1 0 8.7l-90 52a4.967 4.967 0 0 1-5 0l-90-52a5.06 5.06 0 0 1 0-8.7z"/><path id="Path_739" data-name="Path 739" class="cls-5" d="M182.9 187.2l90-52a4.967 4.967 0 0 1 5 0l90 52a5.06 5.06 0 0 1 0 8.7l-90 52a4.967 4.967 0 0 1-5 0l-90-52a5.06 5.06 0 0 1 0-8.7z"/><path id="Path_740" data-name="Path 740" class="cls-11" d="M212.4 172v15.4a3.481 3.481 0 0 0 1.7 2.9l59.7 34.5a3.25 3.25 0 0 0 3.3 0l59.7-34.5a3.357 3.357 0 0 0 1.7-2.9V172H212.4"/><path id="Path_741" data-name="Path 741" class="cls-4" d="M214.1 170.2l59.7-34.5a3.25 3.25 0 0 1 3.3 0l59.7 34.5a3.286 3.286 0 0 1 0 5.7l-59.7 34.5a3.25 3.25 0 0 1-3.3 0l-59.7-34.5a3.286 3.286 0 0 1 0-5.7z"/><path id="Path_742" data-name="Path 742" class="cls-2" d="M214.1 169.1l59.7-34.5a3.25 3.25 0 0 1 3.3 0l59.7 34.5a3.286 3.286 0 0 1 0 5.7l-59.7 34.5a3.25 3.25 0 0 1-3.3 0l-59.7-34.5a3.286 3.286 0 0 1 0-5.7z"/><g id="Group_171" data-name="Group 171"><ellipse id="Ellipse_115" data-name="Ellipse 115" class="cls-13" cx="4.5" cy="7.8" rx="4.5" ry="7.8" transform="rotate(-30 537.553 -293.886)"/></g><g id="Group_172" data-name="Group 172"><ellipse id="Ellipse_116" data-name="Ellipse 116" class="cls-13" cx="4.5" cy="7.8" rx="4.5" ry="7.8" transform="rotate(-30 568.2 -325.298)"/></g><path id="Path_743" data-name="Path 743" class="cls-6" d="M236.8 167.4l37.8-21.8a1.986 1.986 0 0 1 2.1 0l37.8 21.8a2.068 2.068 0 0 1 0 3.6l-37.8 21.8a1.986 1.986 0 0 1-2.1 0L236.8 171a2.068 2.068 0 0 1 0-3.6z"/><path id="Path_744" data-name="Path 744" class="cls-7" d="M248.9 175.4l26.1-15a1.2 1.2 0 0 1 1.4 0l26.1 15a1.416 1.416 0 0 1 0 2.5l-26.1 15a1.2 1.2 0 0 1-1.4 0l-26.1-15a1.416 1.416 0 0 1 0-2.5z"/><g id="Group_173" data-name="Group 173"><ellipse id="Ellipse_117" data-name="Ellipse 117" class="cls-13" cx="4.5" cy="7.8" rx="4.5" ry="7.8" transform="rotate(-30 508.165 -263.416)"/></g><path id="Line_139" data-name="Line 139" class="cls-1" transform="translate(207.6 224)" d="M0 0v51.9"/><path id="Line_140" data-name="Line 140" class="cls-1" transform="translate(344.9 273.8)" d="M0 0v51.8"/><path id="Line_141" data-name="Line 141" class="cls-1" transform="translate(309.6 243.5)" d="M0 0v51.9"/><path id="Line_142" data-name="Line 142" class="cls-1" transform="translate(207.6 275.9)" d="M18.8 10.6L0 0"/><path id="Line_143" data-name="Line 143" class="cls-1" transform="translate(207.6 329.1)" d="M18.8 10.7L0 0"/><path id="Line_144" data-name="Line 144" class="cls-1" transform="translate(246.6 245.8)" d="M0 0v105.1"/><path id="Line_145" data-name="Line 145" class="cls-1" transform="translate(327.9 284.2)" d="M0 0v105.2"/><path id="Line_146" data-name="Line 146" class="cls-1" transform="translate(207.6 381.1)" d="M19.2 12.2L0 0"/><path id="Line_147" data-name="Line 147" class="cls-1" transform="translate(226.8 341.8)" d="M0 0v51.5"/><g id="Group_174" data-name="Group 174"><ellipse id="Ellipse_118" data-name="Ellipse 118" class="cls-13" cx="7.6" cy="4.4" rx="7.6" ry="4.4" transform="rotate(-60 364.513 -159.41)"/></g><g id="Group_175" data-name="Group 175"><ellipse id="Ellipse_119" data-name="Ellipse 119" class="cls-13" cx="7.6" cy="4.4" rx="7.6" ry="4.4" transform="rotate(-60 364.506 -138.245)"/></g><g id="Group_176" data-name="Group 176"><ellipse id="Ellipse_120" data-name="Ellipse 120" class="cls-13" cx="7.6" cy="4.4" rx="7.6" ry="4.4" transform="rotate(-60 364.527 -179.013)"/></g><g id="Group_177" data-name="Group 177"><ellipse id="Ellipse_121" data-name="Ellipse 121" class="cls-13" cx="7.6" cy="4.4" rx="7.6" ry="4.4" transform="rotate(-60 409.633 -133.28)"/></g><g id="Group_178" data-name="Group 178"><ellipse id="Ellipse_122" data-name="Ellipse 122" class="cls-13" cx="7.6" cy="4.4" rx="7.6" ry="4.4" transform="rotate(-60 409.712 -112.166)"/></g><g id="Group_179" data-name="Group 179"><ellipse id="Ellipse_123" data-name="Ellipse 123" class="cls-13" cx="7.6" cy="4.4" rx="7.6" ry="4.4" transform="rotate(-60 409.734 -152.934)"/></g><g id="Group_180" data-name="Group 180"><ellipse id="Ellipse_124" data-name="Ellipse 124" class="cls-13" cx="7.6" cy="4.4" rx="7.6" ry="4.4" transform="rotate(-60 455.273 -106.952)"/></g><g id="Group_181" data-name="Group 181"><ellipse id="Ellipse_125" data-name="Ellipse 125" class="cls-13" cx="7.6" cy="4.4" rx="7.6" ry="4.4" transform="rotate(-60 455.352 -85.837)"/></g><g id="Group_182" data-name="Group 182"><ellipse id="Ellipse_126" data-name="Ellipse 126" class="cls-13" cx="7.6" cy="4.4" rx="7.6" ry="4.4" transform="rotate(-60 455.287 -126.556)"/></g><g id="Group_183" data-name="Group 183"><ellipse id="Ellipse_127" data-name="Ellipse 127" class="cls-13" cx="7.6" cy="4.4" rx="7.6" ry="4.4" transform="rotate(-60 500.825 -80.682)"/></g><g id="Group_184" data-name="Group 184"><ellipse id="Ellipse_128" data-name="Ellipse 128" class="cls-13" cx="7.6" cy="4.4" rx="7.6" ry="4.4" transform="rotate(-60 500.905 -59.568)"/></g><g id="Group_185" data-name="Group 185"><ellipse id="Ellipse_129" data-name="Ellipse 129" class="cls-13" cx="7.6" cy="4.4" rx="7.6" ry="4.4" transform="rotate(-60 500.84 -100.286)"/></g><path id="Line_148" data-name="Line 148" class="cls-1" transform="translate(309.6 336.8)" d="M0 10.8L18.8 0"/><path id="Line_149" data-name="Line 149" class="cls-1" transform="translate(329 378.6)" d="M0 10.8L18.8 0"/><path id="Line_150" data-name="Line 150" class="cls-1" transform="translate(327.9 221.8)" d="M0 10.8L18.8 0"/></g><path id="Path_745" data-name="Path 745" class="cls-1" d="M355.5 407.3l32.5 18.8a5.06 5.06 0 0 1 0 8.7l-25 14.4a5.06 5.06 0 0 0 0 8.7l172.5 99.7"/><path id="Path_746" data-name="Path 746" class="cls-1" d="M572.9 625.3l-70-40.4a5.06 5.06 0 0 1 0-8.7L531 560a4.714 4.714 0 0 1 1.5-.6l119.9-25.2a4.38 4.38 0 0 1 3.5.6l32 18.3a4.985 4.985 0 0 1 0 8.7l-110 63.5a4.966 4.966 0 0 1-5 0z"/><g id="Group_189" data-name="Group 189"><path id="Path_747" data-name="Path 747" d="M656.4 556.1a12.081 12.081 0 0 1-4.1 4l-57.5 33.1s-19.9 11.6-39.8 0l-19-11a6.735 6.735 0 0 1-2.2-1.9c-2.1-2.8-6.1-10.2-3-24.1 0 0 15.5-72.3 60-50.5a7.657 7.657 0 0 0 7.2-.3c3.8-2.2 10.3-4.7 17.1-1.8a7.364 7.364 0 0 0 6.9-.5c3.5-2 9.3-4 15.1-.3l23.3 13.1.6.3c2.1.9 14.8 8.2-4.6 39.9z" fill="url(#linear-gradient-21)"/><g id="Group_188" data-name="Group 188"><g id="Group_187" data-name="Group 187" clip-path="url(#clip-path)"><path id="Path_748" data-name="Path 748" d="M680.9 573.7l-60 34.5s-19.9 11.6-39.8 0l-20-11.6s-8.3-7.1-4.2-25.4c0 0 16.3-76.3 63.8-48.5 0 0 12.3-10.6 24-2.1 0 0 9.1-8.7 18.5-2.8l23.6 13.2c0 .1 17.4 6-5.9 42.7z" fill="url(#linear-gradient-22)"/></g></g></g><path id="Path_750" data-name="Path 750" class="cls-1" d="M298.1 648.5l130-75.1a5.06 5.06 0 0 0 0-8.7l-83.3-48.2c-1-.6-1.8-1.2-2.7-1.8l-46.2-26.6c-.6.1 0-.2-.6.1l-132.8 76a4.985 4.985 0 0 0 0 8.7l130.7 75.5a4.561 4.561 0 0 0 4.9.1z"/><path id="Path_751" data-name="Path 751" d="M200.6 545.9v23.2a4.754 4.754 0 0 0 2.5 4.3l90 52a4.967 4.967 0 0 0 5 0l90-52a5.018 5.018 0 0 0 2.5-4.4v-23.1h-190" fill="url(#linear-gradient-23)"/><path id="Path_752" data-name="Path 752" class="cls-1" d="M255.8 511.4l-91.4-52.8-1.4-.8a5.06 5.06 0 0 1 0-8.7l3.1-1.8 21.9-12.7a5.06 5.06 0 0 0 0-8.7l-65-37.5a5.06 5.06 0 0 1 0-8.7l12.5-7.3"/><path id="Path_753" data-name="Path 753" class="cls-4" d="M203.1 543.2l90-52a4.967 4.967 0 0 1 5 0l90 52a5.06 5.06 0 0 1 0 8.7l-90 52a4.967 4.967 0 0 1-5 0l-90-52a4.985 4.985 0 0 1 0-8.7z"/><path id="Path_754" data-name="Path 754" class="cls-1" d="M125.9 447.4l-3.1 1.8a5.06 5.06 0 0 0 0 8.7l1.4.8L235.8 523"/><path id="Path_755" data-name="Path 755" class="cls-5" d="M203.1 541.6l90-52a4.967 4.967 0 0 1 5 0l90 52a5.06 5.06 0 0 1 0 8.7l-90 52a4.967 4.967 0 0 1-5 0l-90-52a4.985 4.985 0 0 1 0-8.7z"/><path id="Path_756" data-name="Path 756" d="M232.6 526.4v15.4a3.481 3.481 0 0 0 1.7 2.9l59.7 34.5a3.25 3.25 0 0 0 3.3 0l59.7-34.5a3.357 3.357 0 0 0 1.7-2.9v-15.3H232.6" fill="url(#linear-gradient-24)"/><path id="Path_757" data-name="Path 757" class="cls-4" d="M234.2 524.6l59.7-34.5a3.25 3.25 0 0 1 3.3 0l59.7 34.5a3.286 3.286 0 0 1 0 5.7l-59.7 34.5a3.25 3.25 0 0 1-3.3 0l-59.7-34.5a3.286 3.286 0 0 1 0-5.7z"/><g id="Group_190" data-name="Group 190"><path id="Path_758" data-name="Path 758" class="cls-29" d="M277.2 522.3q-6.45-3.3-5.1-6.9c1.2-2.9 6.1-4.9 7.9-5.4l.3-.1a1.387 1.387 0 0 1 .9 0l25.9 11.7a11.026 11.026 0 0 0 2.8.9 2.933 2.933 0 0 1 1.3-1.2 14.277 14.277 0 0 1 5.4-1.6l1.4-.1a1.269 1.269 0 0 1 .6.1c.2.1.3.1.4.2l.4.7a2.415 2.415 0 0 1-.5 3.1c1.9.7 3.9 1.7 4.5 2.6l.5.7c.1.2-.1.4-.4.4l-.4.1a5.272 5.272 0 0 1-1.3.2 17.227 17.227 0 0 1-9.7-1.4c-12.3 2.6-25.1 1-34.9-4z"/><path id="Path_759" data-name="Path 759" d="M277.2 522.4q-6.45-3.3-5.1-6.9c1.2-2.9 6.1-4.9 7.9-5.4l.3-.1a1.387 1.387 0 0 1 .9 0l25.9 11.7a11.026 11.026 0 0 0 2.8.9 2.933 2.933 0 0 1 1.3-1.2 14.277 14.277 0 0 1 5.4-1.6l1.4-.1a1.269 1.269 0 0 1 .6.1c.2.1.3.1.4.2l.4.7a2.415 2.415 0 0 1-.5 3.1c1.9.7 3.9 1.7 4.5 2.6l.5.7c.1.2-.1.4-.4.4l-.4.1a5.272 5.272 0 0 1-1.3.2 17.227 17.227 0 0 1-9.7-1.4c-12.3 2.5-25.1 1-34.9-4z" fill="url(#linear-gradient-26)"/><path id="Path_760" data-name="Path 760" d="M277.2 522.5q-6.45-3.3-5.1-6.9c1.2-2.9 6.1-4.9 7.9-5.4l.3-.1a1.387 1.387 0 0 1 .9 0l25.9 11.7a11.026 11.026 0 0 0 2.8.9 2.933 2.933 0 0 1 1.3-1.2 14.277 14.277 0 0 1 5.4-1.6l1.4-.1a1.269 1.269 0 0 1 .6.1c.2.1.3.1.4.2l.4.7a2.415 2.415 0 0 1-.5 3.1c1.9.7 3.9 1.7 4.5 2.6l.5.7c.1.2-.1.4-.4.4l-.4.1a5.272 5.272 0 0 1-1.3.2 17.227 17.227 0 0 1-9.7-1.4c-12.3 2.5-25.1 1-34.9-4z" fill="url(#linear-gradient-27)"/><path id="Path_761" data-name="Path 761" d="M277.2 522.6q-6.45-3.3-5.1-6.9c1.2-2.9 6.1-4.9 7.9-5.4l.3-.1a1.387 1.387 0 0 1 .9 0l25.9 11.7a11.026 11.026 0 0 0 2.8.9 2.933 2.933 0 0 1 1.3-1.2 14.277 14.277 0 0 1 5.4-1.6l1.4-.1a1.269 1.269 0 0 1 .6.1c.2.1.3.1.4.2l.4.7a2.415 2.415 0 0 1-.5 3.1c1.9.7 3.9 1.7 4.5 2.6l.5.7c.1.2-.1.4-.4.4l-.4.1a5.272 5.272 0 0 1-1.3.2 17.227 17.227 0 0 1-9.7-1.4c-12.3 2.5-25.1 1-34.9-4z" fill="url(#linear-gradient-28)"/><path id="Path_762" data-name="Path 762" class="cls-33" d="M277.2 522.6q-6.45-3.3-5.1-6.9c1.2-2.9 6.1-4.9 7.9-5.4l.3-.1a1.387 1.387 0 0 1 .9 0l25.9 11.7a11.026 11.026 0 0 0 2.8.9 2.933 2.933 0 0 1 1.3-1.2 14.277 14.277 0 0 1 5.4-1.6l1.4-.1a1.269 1.269 0 0 1 .6.1c.2.1.3.1.4.2l.4.7a2.415 2.415 0 0 1-.5 3.1c1.9.7 3.9 1.7 4.5 2.6l.5.7c.1.2-.1.4-.4.4l-.4.1a5.272 5.272 0 0 1-1.3.2 17.227 17.227 0 0 1-9.7-1.4c-12.3 2.6-25.1 1.1-34.9-4z"/><path id="Path_763" data-name="Path 763" d="M277.2 522.7q-6.45-3.3-5.1-6.9c1.2-2.9 6.1-4.9 7.9-5.4l.3-.1a1.387 1.387 0 0 1 .9 0l25.9 11.7a11.026 11.026 0 0 0 2.8.9 2.933 2.933 0 0 1 1.3-1.2 14.277 14.277 0 0 1 5.4-1.6l1.4-.1a1.269 1.269 0 0 1 .6.1c.2.1.3.1.4.2l.4.7a2.415 2.415 0 0 1-.5 3.1c1.9.7 3.9 1.7 4.5 2.6l.5.7c.1.2-.1.4-.4.4l-.4.1a5.272 5.272 0 0 1-1.3.2 17.227 17.227 0 0 1-9.7-1.4c-12.3 2.6-25.1 1-34.9-4z" fill="url(#linear-gradient-30)"/><path id="Path_764" data-name="Path 764" d="M277.2 522.8q-6.45-3.3-5.1-6.9c1.2-2.9 6.1-4.9 7.9-5.4l.3-.1a1.387 1.387 0 0 1 .9 0l25.9 11.7a11.026 11.026 0 0 0 2.8.9 2.933 2.933 0 0 1 1.3-1.2 14.277 14.277 0 0 1 5.4-1.6l1.4-.1a1.269 1.269 0 0 1 .6.1c.2.1.3.1.4.2l.4.7a2.415 2.415 0 0 1-.5 3.1c1.9.7 3.9 1.7 4.5 2.6l.5.7c.1.2-.1.4-.4.4l-.4.1a5.272 5.272 0 0 1-1.3.2 17.227 17.227 0 0 1-9.7-1.4c-12.3 2.5-25.1 1-34.9-4z" fill="url(#linear-gradient-31)"/><path id="Path_765" data-name="Path 765" d="M277.2 522.9q-6.45-3.3-5.1-6.9c1.2-2.9 6.1-4.9 7.9-5.4l.3-.1a1.387 1.387 0 0 1 .9 0l25.9 11.7a11.026 11.026 0 0 0 2.8.9 2.933 2.933 0 0 1 1.3-1.2 14.277 14.277 0 0 1 5.4-1.6l1.4-.1a1.269 1.269 0 0 1 .6.1c.2.1.3.1.4.2l.4.7a2.415 2.415 0 0 1-.5 3.1c1.9.7 3.9 1.7 4.5 2.6l.5.7c.1.2-.1.4-.4.4l-.4.1a5.272 5.272 0 0 1-1.3.2 17.227 17.227 0 0 1-9.7-1.4c-12.3 2.5-25.1 1-34.9-4z" fill="url(#linear-gradient-32)"/><path id="Path_766" data-name="Path 766" d="M277.2 523q-6.45-3.3-5.1-6.9c1.2-2.9 6.1-4.9 7.9-5.4l.3-.1a1.387 1.387 0 0 1 .9 0l25.9 11.7a11.026 11.026 0 0 0 2.8.9 2.933 2.933 0 0 1 1.3-1.2 14.277 14.277 0 0 1 5.4-1.6l1.4-.1a1.269 1.269 0 0 1 .6.1c.2.1.3.1.4.2l.4.7a2.415 2.415 0 0 1-.5 3.1c1.9.7 3.9 1.7 4.5 2.6l.5.7c.1.2-.1.4-.4.4l-.4.1a5.272 5.272 0 0 1-1.3.2 17.227 17.227 0 0 1-9.7-1.4c-12.3 2.5-25.1 1-34.9-4z" fill="url(#linear-gradient-33)"/><path id="Path_767" data-name="Path 767" d="M277.2 523.1q-6.45-3.3-5.1-6.9c1.2-2.9 6.1-4.9 7.9-5.4l.3-.1a1.387 1.387 0 0 1 .9 0l25.9 11.7a11.026 11.026 0 0 0 2.8.9 2.933 2.933 0 0 1 1.3-1.2 14.277 14.277 0 0 1 5.4-1.6l1.4-.1a1.269 1.269 0 0 1 .6.1c.2.1.3.1.4.2l.4.7a2.415 2.415 0 0 1-.5 3.1c1.9.7 3.9 1.7 4.5 2.6l.5.7c.1.2-.1.4-.4.4l-.4.1a5.272 5.272 0 0 1-1.3.2 17.227 17.227 0 0 1-9.7-1.4c-12.3 2.5-25.1 1-34.9-4z" fill="url(#linear-gradient-34)"/><path id="Path_768" data-name="Path 768" class="cls-39" d="M277.2 523.1q-6.45-3.3-5.1-6.9c1.2-2.9 6.1-4.9 7.9-5.4l.3-.1a1.387 1.387 0 0 1 .9 0l25.9 11.7a11.026 11.026 0 0 0 2.8.9 2.933 2.933 0 0 1 1.3-1.2 14.277 14.277 0 0 1 5.4-1.6l1.4-.1a1.269 1.269 0 0 1 .6.1c.2.1.3.1.4.2l.4.7a2.415 2.415 0 0 1-.5 3.1c1.9.7 3.9 1.7 4.5 2.6l.5.7c.1.2-.1.4-.4.4l-.4.1a5.272 5.272 0 0 1-1.3.2 17.227 17.227 0 0 1-9.7-1.4c-12.3 2.6-25.1 1.1-34.9-4z"/><path id="Path_769" data-name="Path 769" class="cls-40" d="M277.2 523.2q-6.45-3.3-5.1-6.9c1.2-2.9 6.1-4.9 7.9-5.4l.3-.1a1.387 1.387 0 0 1 .9 0l25.9 11.7a11.026 11.026 0 0 0 2.8.9 2.933 2.933 0 0 1 1.3-1.2 14.277 14.277 0 0 1 5.4-1.6l1.4-.1a1.269 1.269 0 0 1 .6.1c.2.1.3.1.4.2l.4.7a2.415 2.415 0 0 1-.5 3.1c1.9.7 3.9 1.7 4.5 2.6l.5.7c.1.2-.1.4-.4.4l-.4.1a5.272 5.272 0 0 1-1.3.2 17.227 17.227 0 0 1-9.7-1.4c-12.3 2.6-25.1 1-34.9-4z"/><path id="Path_770" data-name="Path 770" class="cls-41" d="M277.2 523.3q-6.45-3.3-5.1-6.9c1.2-2.9 6.1-4.9 7.9-5.4l.3-.1a1.387 1.387 0 0 1 .9 0l25.9 11.7a11.026 11.026 0 0 0 2.8.9 2.933 2.933 0 0 1 1.3-1.2 14.277 14.277 0 0 1 5.4-1.6l1.4-.1a1.269 1.269 0 0 1 .6.1c.2.1.3.1.4.2l.4.7a2.415 2.415 0 0 1-.5 3.1c1.9.7 3.9 1.7 4.5 2.6l.5.7c.1.2-.1.4-.4.4l-.4.1a5.272 5.272 0 0 1-1.3.2 17.227 17.227 0 0 1-9.7-1.4c-12.3 2.5-25.1 1-34.9-4z"/><path id="Path_771" data-name="Path 771" class="cls-42" d="M277.2 523.4q-6.45-3.3-5.1-6.9c1.2-2.9 6.1-4.9 7.9-5.4l.3-.1a1.387 1.387 0 0 1 .9 0l25.9 11.7a11.026 11.026 0 0 0 2.8.9 2.933 2.933 0 0 1 1.3-1.2 14.277 14.277 0 0 1 5.4-1.6l1.4-.1a1.269 1.269 0 0 1 .6.1c.2.1.3.1.4.2l.4.7a2.415 2.415 0 0 1-.5 3.1c1.9.7 3.9 1.7 4.5 2.6l.5.7c.1.2-.1.4-.4.4l-.4.1a5.272 5.272 0 0 1-1.3.2 17.227 17.227 0 0 1-9.7-1.4c-12.3 2.5-25.1 1-34.9-4z"/><path id="Path_772" data-name="Path 772" class="cls-43" d="M277.2 523.5q-6.45-3.3-5.1-6.9c1.2-2.9 6.1-4.9 7.9-5.4l.3-.1a1.387 1.387 0 0 1 .9 0l25.9 11.7a11.026 11.026 0 0 0 2.8.9 2.933 2.933 0 0 1 1.3-1.2 14.277 14.277 0 0 1 5.4-1.6l1.4-.1a1.269 1.269 0 0 1 .6.1c.2.1.3.1.4.2l.4.7a2.415 2.415 0 0 1-.5 3.1c1.9.7 3.9 1.7 4.5 2.6l.5.7c.1.2-.1.4-.4.4l-.4.1a5.272 5.272 0 0 1-1.3.2 17.227 17.227 0 0 1-9.7-1.4c-12.3 2.5-25.1 1-34.9-4z"/><path id="Path_773" data-name="Path 773" class="cls-33" d="M277.2 523.5q-6.45-3.3-5.1-6.9c1.2-2.9 6.1-4.9 7.9-5.4l.3-.1a1.387 1.387 0 0 1 .9 0l25.9 11.7a11.026 11.026 0 0 0 2.8.9 2.933 2.933 0 0 1 1.3-1.2 14.277 14.277 0 0 1 5.4-1.6l1.4-.1a1.269 1.269 0 0 1 .6.1c.2.1.3.1.4.2l.4.7a2.415 2.415 0 0 1-.5 3.1c1.9.7 3.9 1.7 4.5 2.6l.5.7c.1.2-.1.4-.4.4l-.4.1a5.272 5.272 0 0 1-1.3.2 17.227 17.227 0 0 1-9.7-1.4c-12.3 2.6-25.1 1.1-34.9-4z"/><path id="Path_774" data-name="Path 774" class="cls-44" d="M277.2 523.6q-6.45-3.3-5.1-6.9c1.2-2.9 6.1-4.9 7.9-5.4l.3-.1a1.387 1.387 0 0 1 .9 0l25.9 11.7a11.026 11.026 0 0 0 2.8.9 2.933 2.933 0 0 1 1.3-1.2 14.277 14.277 0 0 1 5.4-1.6l1.4-.1a1.269 1.269 0 0 1 .6.1c.2.1.3.1.4.2l.4.7a2.415 2.415 0 0 1-.5 3.1c1.9.7 3.9 1.7 4.5 2.6l.5.7c.1.2-.1.4-.4.4l-.4.1a5.272 5.272 0 0 1-1.3.2 17.227 17.227 0 0 1-9.7-1.4c-12.3 2.6-25.1 1-34.9-4z"/><path id="Path_775" data-name="Path 775" class="cls-45" d="M277.2 523.7q-6.45-3.3-5.1-6.9c1.2-2.9 6.1-4.9 7.9-5.4l.3-.1a1.387 1.387 0 0 1 .9 0l25.9 11.7a11.026 11.026 0 0 0 2.8.9 2.933 2.933 0 0 1 1.3-1.2 14.277 14.277 0 0 1 5.4-1.6l1.4-.1a1.269 1.269 0 0 1 .6.1c.2.1.3.1.4.2l.4.7a2.415 2.415 0 0 1-.5 3.1c1.9.7 3.9 1.7 4.5 2.6l.5.7c.1.2-.1.4-.4.4l-.4.1a5.272 5.272 0 0 1-1.3.2 17.227 17.227 0 0 1-9.7-1.4c-12.3 2.5-25.1 1-34.9-4z"/><path id="Path_776" data-name="Path 776" class="cls-46" d="M277.2 523.8q-6.45-3.3-5.1-6.9c1.2-2.9 6.1-4.9 7.9-5.4l.3-.1a1.387 1.387 0 0 1 .9 0l25.9 11.7a11.026 11.026 0 0 0 2.8.9 2.933 2.933 0 0 1 1.3-1.2 14.277 14.277 0 0 1 5.4-1.6l1.4-.1a1.269 1.269 0 0 1 .6.1c.2.1.3.1.4.2l.4.7a2.415 2.415 0 0 1-.5 3.1c1.9.7 3.9 1.7 4.5 2.6l.5.7c.1.2-.1.4-.4.4l-.4.1a5.272 5.272 0 0 1-1.3.2 17.227 17.227 0 0 1-9.7-1.4c-12.3 2.5-25.1 1-34.9-4z"/><path id="Path_777" data-name="Path 777" class="cls-47" d="M277.2 523.9q-6.45-3.3-5.1-6.9c1.2-2.9 6.1-4.9 7.9-5.4l.3-.1a1.387 1.387 0 0 1 .9 0l25.9 11.7a11.026 11.026 0 0 0 2.8.9 2.933 2.933 0 0 1 1.3-1.2 14.277 14.277 0 0 1 5.4-1.6l1.4-.1a1.269 1.269 0 0 1 .6.1c.2.1.3.1.4.2l.4.7a2.415 2.415 0 0 1-.5 3.1c1.9.7 3.9 1.7 4.5 2.6l.5.7c.1.2-.1.4-.4.4l-.4.1a5.272 5.272 0 0 1-1.3.2 17.227 17.227 0 0 1-9.7-1.4c-12.3 2.5-25.1 1-34.9-4z"/><path id="Path_778" data-name="Path 778" class="cls-48" d="M277.2 524q-6.45-3.3-5.1-6.9c1.2-2.9 6.1-4.9 7.9-5.4l.3-.1a1.387 1.387 0 0 1 .9 0l25.9 11.7a11.026 11.026 0 0 0 2.8.9 2.933 2.933 0 0 1 1.3-1.2 14.277 14.277 0 0 1 5.4-1.6l1.4-.1a1.269 1.269 0 0 1 .6.1c.2.1.3.1.4.2l.4.7a2.415 2.415 0 0 1-.5 3.1c1.9.7 3.9 1.7 4.5 2.6l.5.7c.1.2-.1.4-.4.4l-.4.1a5.272 5.272 0 0 1-1.3.2 17.227 17.227 0 0 1-9.7-1.4c-12.3 2.5-25.1 1-34.9-4z"/><path id="Path_779" data-name="Path 779" class="cls-39" d="M277.2 524q-6.45-3.3-5.1-6.9c1.2-2.9 6.1-4.9 7.9-5.4l.3-.1a1.387 1.387 0 0 1 .9 0l25.9 11.7a11.026 11.026 0 0 0 2.8.9 2.933 2.933 0 0 1 1.3-1.2 14.277 14.277 0 0 1 5.4-1.6l1.4-.1a1.269 1.269 0 0 1 .6.1c.2.1.3.1.4.2l.4.7a2.415 2.415 0 0 1-.5 3.1c1.9.7 3.9 1.7 4.5 2.6l.5.7c.1.2-.1.4-.4.4l-.4.1a5.272 5.272 0 0 1-1.3.2 17.227 17.227 0 0 1-9.7-1.4c-12.3 2.6-25.1 1.1-34.9-4z"/><path id="Path_780" data-name="Path 780" class="cls-40" d="M277.2 524.1q-6.45-3.3-5.1-6.9c1.2-2.9 6.1-4.9 7.9-5.4l.3-.1a1.387 1.387 0 0 1 .9 0l25.9 11.7a11.026 11.026 0 0 0 2.8.9 2.933 2.933 0 0 1 1.3-1.2 14.277 14.277 0 0 1 5.4-1.6l1.4-.1a1.269 1.269 0 0 1 .6.1c.2.1.3.1.4.2l.4.7a2.415 2.415 0 0 1-.5 3.1c1.9.7 3.9 1.7 4.5 2.6l.5.7c.1.2-.1.4-.4.4l-.4.1a5.272 5.272 0 0 1-1.3.2 17.227 17.227 0 0 1-9.7-1.4c-12.3 2.6-25.1 1-34.9-4z"/><path id="Path_781" data-name="Path 781" class="cls-41" d="M277.2 524.2q-6.45-3.3-5.1-6.9c1.2-2.9 6.1-4.9 7.9-5.4l.3-.1a1.387 1.387 0 0 1 .9 0l25.9 11.7a11.026 11.026 0 0 0 2.8.9 2.933 2.933 0 0 1 1.3-1.2 14.277 14.277 0 0 1 5.4-1.6l1.4-.1a1.269 1.269 0 0 1 .6.1c.2.1.3.1.4.2l.4.7a2.415 2.415 0 0 1-.5 3.1c1.9.7 3.9 1.7 4.5 2.6l.5.7c.1.2-.1.4-.4.4l-.4.1a5.272 5.272 0 0 1-1.3.2 17.227 17.227 0 0 1-9.7-1.4c-12.3 2.5-25.1 1-34.9-4z"/><path id="Path_782" data-name="Path 782" class="cls-42" d="M277.2 524.3q-6.45-3.3-5.1-6.9c1.2-2.9 6.1-4.9 7.9-5.4l.3-.1a1.387 1.387 0 0 1 .9 0l25.9 11.7a11.026 11.026 0 0 0 2.8.9 2.933 2.933 0 0 1 1.3-1.2 14.277 14.277 0 0 1 5.4-1.6l1.4-.1a1.269 1.269 0 0 1 .6.1c.2.1.3.1.4.2l.4.7a2.415 2.415 0 0 1-.5 3.1c1.9.7 3.9 1.7 4.5 2.6l.5.7c.1.2-.1.4-.4.4l-.4.1a5.272 5.272 0 0 1-1.3.2 17.227 17.227 0 0 1-9.7-1.4c-12.3 2.5-25.1 1-34.9-4z"/><path id="Path_783" data-name="Path 783" class="cls-43" d="M277.2 524.4q-6.45-3.3-5.1-6.9c1.2-2.9 6.1-4.9 7.9-5.4l.3-.1a1.387 1.387 0 0 1 .9 0l25.9 11.7a11.026 11.026 0 0 0 2.8.9 2.933 2.933 0 0 1 1.3-1.2 14.277 14.277 0 0 1 5.4-1.6l1.4-.1a1.269 1.269 0 0 1 .6.1c.2.1.3.1.4.2l.4.7a2.415 2.415 0 0 1-.5 3.1c1.9.7 3.9 1.7 4.5 2.6l.5.7c.1.2-.1.4-.4.4l-.4.1a5.272 5.272 0 0 1-1.3.2 17.227 17.227 0 0 1-9.7-1.4c-12.3 2.5-25.1 1-34.9-4z"/><path id="Path_784" data-name="Path 784" class="cls-33" d="M277.2 524.4q-6.45-3.3-5.1-6.9c1.2-2.9 6.1-4.9 7.9-5.4l.3-.1a1.387 1.387 0 0 1 .9 0l25.9 11.7a11.026 11.026 0 0 0 2.8.9 2.933 2.933 0 0 1 1.3-1.2 14.277 14.277 0 0 1 5.4-1.6l1.4-.1a1.269 1.269 0 0 1 .6.1c.2.1.3.1.4.2l.4.7a2.415 2.415 0 0 1-.5 3.1c1.9.7 3.9 1.7 4.5 2.6l.5.7c.1.2-.1.4-.4.4l-.4.1a5.272 5.272 0 0 1-1.3.2 17.227 17.227 0 0 1-9.7-1.4c-12.3 2.6-25.1 1.1-34.9-4z"/><path id="Path_785" data-name="Path 785" class="cls-44" d="M277.2 524.5q-6.45-3.3-5.1-6.9c1.2-2.9 6.1-4.9 7.9-5.4l.3-.1a1.387 1.387 0 0 1 .9 0l25.9 11.7a11.026 11.026 0 0 0 2.8.9 2.933 2.933 0 0 1 1.3-1.2 14.277 14.277 0 0 1 5.4-1.6l1.4-.1a1.269 1.269 0 0 1 .6.1c.2.1.3.1.4.2l.4.7a2.415 2.415 0 0 1-.5 3.1c1.9.7 3.9 1.7 4.5 2.6l.5.7c.1.2-.1.4-.4.4l-.4.1a5.272 5.272 0 0 1-1.3.2 17.227 17.227 0 0 1-9.7-1.4c-12.3 2.6-25.1 1-34.9-4z"/><path id="Path_786" data-name="Path 786" class="cls-45" d="M277.2 524.6q-6.45-3.3-5.1-6.9c1.2-2.9 6.1-4.9 7.9-5.4l.3-.1a1.388 1.388 0 0 1 .9 0l25.9 11.7a11.026 11.026 0 0 0 2.8.9 2.933 2.933 0 0 1 1.3-1.2 14.277 14.277 0 0 1 5.4-1.6l1.4-.1a1.269 1.269 0 0 1 .6.1c.2.1.3.1.4.2l.4.7a2.415 2.415 0 0 1-.5 3.1c1.9.7 3.9 1.7 4.5 2.6l.5.7c.1.2-.1.4-.4.4l-.4.1a5.272 5.272 0 0 1-1.3.2 17.227 17.227 0 0 1-9.7-1.4c-12.3 2.5-25.1 1-34.9-4z"/><path id="Path_787" data-name="Path 787" class="cls-46" d="M277.2 524.7q-6.45-3.3-5.1-6.9c1.2-2.9 6.1-4.9 7.9-5.4l.3-.1a1.388 1.388 0 0 1 .9 0l25.9 11.7a11.026 11.026 0 0 0 2.8.9 2.933 2.933 0 0 1 1.3-1.2 14.277 14.277 0 0 1 5.4-1.6l1.4-.1a1.269 1.269 0 0 1 .6.1c.2.1.3.1.4.2l.4.7a2.415 2.415 0 0 1-.5 3.1c1.9.7 3.9 1.7 4.5 2.6l.5.7c.1.2-.1.4-.4.4l-.4.1a5.272 5.272 0 0 1-1.3.2 17.227 17.227 0 0 1-9.7-1.4c-12.3 2.5-25.1 1-34.9-4z"/><path id="Path_788" data-name="Path 788" class="cls-47" d="M277.2 524.8q-6.45-3.3-5.1-6.9c1.2-2.9 6.1-4.9 7.9-5.4l.3-.1a1.388 1.388 0 0 1 .9 0l25.9 11.7a11.026 11.026 0 0 0 2.8.9 2.933 2.933 0 0 1 1.3-1.2 14.277 14.277 0 0 1 5.4-1.6l1.4-.1a1.269 1.269 0 0 1 .6.1c.2.1.3.1.4.2l.4.7a2.415 2.415 0 0 1-.5 3.1c1.9.7 3.9 1.7 4.5 2.6l.5.7c.1.2-.1.4-.4.4l-.4.1a5.272 5.272 0 0 1-1.3.2 17.227 17.227 0 0 1-9.7-1.4c-12.3 2.5-25.1 1-34.9-4z"/><path id="Path_789" data-name="Path 789" class="cls-48" d="M277.2 524.9q-6.45-3.3-5.1-6.9c1.2-2.9 6.1-4.9 7.9-5.4l.3-.1a1.388 1.388 0 0 1 .9 0l25.9 11.7a11.026 11.026 0 0 0 2.8.9 2.933 2.933 0 0 1 1.3-1.2 14.277 14.277 0 0 1 5.4-1.6l1.4-.1a1.269 1.269 0 0 1 .6.1c.2.1.3.1.4.2l.4.7a2.415 2.415 0 0 1-.5 3.1c1.9.7 3.9 1.7 4.5 2.6l.5.7c.1.2-.1.4-.4.4l-.4.1a5.272 5.272 0 0 1-1.3.2 17.227 17.227 0 0 1-9.7-1.4c-12.3 2.5-25.1 1-34.9-4z"/><path id="Path_790" data-name="Path 790" class="cls-39" d="M277.2 524.9q-6.45-3.3-5.1-6.9c1.2-2.9 6.1-4.9 7.9-5.4l.3-.1a1.388 1.388 0 0 1 .9 0l25.9 11.7a11.026 11.026 0 0 0 2.8.9 2.933 2.933 0 0 1 1.3-1.2 14.277 14.277 0 0 1 5.4-1.6l1.4-.1a1.269 1.269 0 0 1 .6.1c.2.1.3.1.4.2l.4.7a2.415 2.415 0 0 1-.5 3.1c1.9.7 3.9 1.7 4.5 2.6l.5.7c.1.2-.1.4-.4.4l-.4.1a5.272 5.272 0 0 1-1.3.2 17.227 17.227 0 0 1-9.7-1.4c-12.3 2.6-25.1 1.1-34.9-4z"/><path id="Path_791" data-name="Path 791" class="cls-40" d="M277.2 525q-6.45-3.3-5.1-6.9c1.2-2.9 6.1-4.9 7.9-5.4l.3-.1a1.388 1.388 0 0 1 .9 0l25.9 11.7a11.026 11.026 0 0 0 2.8.9 2.933 2.933 0 0 1 1.3-1.2 14.277 14.277 0 0 1 5.4-1.6l1.4-.1a1.269 1.269 0 0 1 .6.1c.2.1.3.1.4.2l.4.7a2.415 2.415 0 0 1-.5 3.1c1.9.7 3.9 1.7 4.5 2.6l.5.7c.1.2-.1.4-.4.4l-.4.1a5.272 5.272 0 0 1-1.3.2 17.227 17.227 0 0 1-9.7-1.4c-12.3 2.6-25.1 1-34.9-4z"/><path id="Path_792" data-name="Path 792" class="cls-41" d="M277.2 525.1q-6.45-3.3-5.1-6.9c1.2-2.9 6.1-4.9 7.9-5.4l.3-.1a1.388 1.388 0 0 1 .9 0l25.9 11.7a11.026 11.026 0 0 0 2.8.9 2.933 2.933 0 0 1 1.3-1.2 14.277 14.277 0 0 1 5.4-1.6l1.4-.1a1.269 1.269 0 0 1 .6.1c.2.1.3.1.4.2l.4.7a2.415 2.415 0 0 1-.5 3.1c1.9.7 3.9 1.7 4.5 2.6l.5.7c.1.2-.1.4-.4.4l-.4.1a5.272 5.272 0 0 1-1.3.2 17.227 17.227 0 0 1-9.7-1.4c-12.3 2.5-25.1 1-34.9-4z"/><path id="Path_793" data-name="Path 793" class="cls-42" d="M277.2 525.2q-6.45-3.3-5.1-6.9c1.2-2.9 6.1-4.9 7.9-5.4l.3-.1a1.388 1.388 0 0 1 .9 0l25.9 11.7a11.026 11.026 0 0 0 2.8.9 2.933 2.933 0 0 1 1.3-1.2 14.277 14.277 0 0 1 5.4-1.6l1.4-.1a1.269 1.269 0 0 1 .6.1c.2.1.3.1.4.2l.4.7a2.415 2.415 0 0 1-.5 3.1c1.9.7 3.9 1.7 4.5 2.6l.5.7c.1.2-.1.4-.4.4l-.4.1a5.272 5.272 0 0 1-1.3.2 17.227 17.227 0 0 1-9.7-1.4c-12.3 2.5-25.1 1-34.9-4z"/><path id="Path_794" data-name="Path 794" class="cls-43" d="M277.2 525.3q-6.45-3.3-5.1-6.9c1.2-2.9 6.1-4.9 7.9-5.4l.3-.1a1.388 1.388 0 0 1 .9 0l25.9 11.7a11.026 11.026 0 0 0 2.8.9 2.933 2.933 0 0 1 1.3-1.2 14.277 14.277 0 0 1 5.4-1.6l1.4-.1a1.269 1.269 0 0 1 .6.1c.2.1.3.1.4.2l.4.7a2.415 2.415 0 0 1-.5 3.1c1.9.7 3.9 1.7 4.5 2.6l.5.7c.1.2-.1.4-.4.4l-.4.1a5.272 5.272 0 0 1-1.3.2 17.227 17.227 0 0 1-9.7-1.4c-12.3 2.5-25.1 1-34.9-4z"/><path id="Path_795" data-name="Path 795" class="cls-49" d="M277.2 525.3q-6.45-3.3-5.1-6.9c1.2-2.9 6.1-4.9 7.9-5.4l.3-.1a1.388 1.388 0 0 1 .9 0l25.9 11.7a11.026 11.026 0 0 0 2.8.9 2.933 2.933 0 0 1 1.3-1.2 14.277 14.277 0 0 1 5.4-1.6l1.4-.1a1.269 1.269 0 0 1 .6.1c.2.1.3.1.4.2l.4.7a2.415 2.415 0 0 1-.5 3.1c1.9.7 3.9 1.7 4.5 2.6l.5.7c.1.2-.1.4-.4.4l-.4.1a5.272 5.272 0 0 1-1.3.2 17.227 17.227 0 0 1-9.7-1.4c-12.3 2.6-25.1 1.1-34.9-4z"/><path id="Path_796" data-name="Path 796" class="cls-29" d="M277.2 525.4q-6.45-3.3-5.1-6.9c1.2-2.9 6.1-4.9 7.9-5.4l.3-.1a1.388 1.388 0 0 1 .9 0l25.9 11.7a11.026 11.026 0 0 0 2.8.9 2.933 2.933 0 0 1 1.3-1.2 14.277 14.277 0 0 1 5.4-1.6l1.4-.1a1.269 1.269 0 0 1 .6.1c.2.1.3.1.4.2l.4.7a2.415 2.415 0 0 1-.5 3.1c1.9.7 3.9 1.7 4.5 2.6l.5.7c.1.2-.1.4-.4.4l-.4.1a5.272 5.272 0 0 1-1.3.2 17.227 17.227 0 0 1-9.7-1.4c-12.3 2.6-25.1 1-34.9-4z"/><path id="Path_797" data-name="Path 797" class="cls-50" d="M277.2 525.5q-6.45-3.3-5.1-6.9c1.2-2.9 6.1-4.9 7.9-5.4l.3-.1a1.388 1.388 0 0 1 .9 0l25.9 11.7a11.026 11.026 0 0 0 2.8.9 2.933 2.933 0 0 1 1.3-1.2 14.277 14.277 0 0 1 5.4-1.6l1.4-.1a1.269 1.269 0 0 1 .6.1c.2.1.3.1.4.2l.4.7a2.415 2.415 0 0 1-.5 3.1c1.9.7 3.9 1.7 4.5 2.6l.5.7c.1.2-.1.4-.4.4l-.4.1a5.272 5.272 0 0 1-1.3.2 17.227 17.227 0 0 1-9.7-1.4c-12.3 2.5-25.1 1-34.9-4z"/><path id="Path_798" data-name="Path 798" class="cls-51" d="M277.2 525.6q-6.45-3.3-5.1-6.9c1.2-2.9 6.1-4.9 7.9-5.4l.3-.1a1.388 1.388 0 0 1 .9 0l25.9 11.7a11.026 11.026 0 0 0 2.8.9 2.933 2.933 0 0 1 1.3-1.2 14.277 14.277 0 0 1 5.4-1.6l1.4-.1a1.269 1.269 0 0 1 .6.1c.2.1.3.1.4.2l.4.7a2.415 2.415 0 0 1-.5 3.1c1.9.7 3.9 1.7 4.5 2.6l.5.7c.1.2-.1.4-.4.4l-.4.1a5.272 5.272 0 0 1-1.3.2 17.227 17.227 0 0 1-9.7-1.4c-12.3 2.5-25.1 1-34.9-4z"/><path id="Path_799" data-name="Path 799" class="cls-52" d="M277.2 525.7q-6.45-3.3-5.1-6.9c1.2-2.9 6.1-4.9 7.9-5.4l.3-.1a1.388 1.388 0 0 1 .9 0l25.9 11.7a11.026 11.026 0 0 0 2.8.9 2.933 2.933 0 0 1 1.3-1.2 14.277 14.277 0 0 1 5.4-1.6l1.4-.1a1.269 1.269 0 0 1 .6.1c.2.1.3.1.4.2l.4.7a2.415 2.415 0 0 1-.5 3.1c1.9.7 3.9 1.7 4.5 2.6l.5.7c.1.2-.1.4-.4.4l-.4.1a5.272 5.272 0 0 1-1.3.2 17.227 17.227 0 0 1-9.7-1.4c-12.3 2.5-25.1 1-34.9-4z"/><path id="Path_800" data-name="Path 800" class="cls-53" d="M277.2 525.8q-6.45-3.3-5.1-6.9c1.2-2.9 6.1-4.9 7.9-5.4l.3-.1a1.388 1.388 0 0 1 .9 0l25.9 11.7a11.026 11.026 0 0 0 2.8.9 2.933 2.933 0 0 1 1.3-1.2 14.277 14.277 0 0 1 5.4-1.6l1.4-.1a1.269 1.269 0 0 1 .6.1c.2.1.3.1.4.2l.4.7a2.415 2.415 0 0 1-.5 3.1c1.9.7 3.9 1.7 4.5 2.6l.5.7c.1.2-.1.4-.4.4l-.4.1a5.272 5.272 0 0 1-1.3.2 17.227 17.227 0 0 1-9.7-1.4c-12.3 2.5-25.1 1-34.9-4z"/><path id="Path_801" data-name="Path 801" class="cls-54" d="M277.2 525.8q-6.45-3.3-5.1-6.9c1.2-2.9 6.1-4.9 7.9-5.4l.3-.1a1.388 1.388 0 0 1 .9 0l25.9 11.7a11.026 11.026 0 0 0 2.8.9 2.933 2.933 0 0 1 1.3-1.2 14.277 14.277 0 0 1 5.4-1.6l1.4-.1a1.269 1.269 0 0 1 .6.1c.2.1.3.1.4.2l.4.7a2.415 2.415 0 0 1-.5 3.1c1.9.7 3.9 1.7 4.5 2.6l.5.7c.1.2-.1.4-.4.4l-.4.1a5.272 5.272 0 0 1-1.3.2 17.227 17.227 0 0 1-9.7-1.4c-12.3 2.6-25.1 1.1-34.9-4z"/><path id="Path_802" data-name="Path 802" class="cls-55" d="M277.2 525.9q-6.45-3.3-5.1-6.9c1.2-2.9 6.1-4.9 7.9-5.4l.3-.1a1.388 1.388 0 0 1 .9 0l25.9 11.7a11.026 11.026 0 0 0 2.8.9 2.933 2.933 0 0 1 1.3-1.2 14.277 14.277 0 0 1 5.4-1.6l1.4-.1a1.269 1.269 0 0 1 .6.1c.2.1.3.1.4.2l.4.7a2.415 2.415 0 0 1-.5 3.1c1.9.7 3.9 1.7 4.5 2.6l.5.7c.1.2-.1.4-.4.4l-.4.1a5.272 5.272 0 0 1-1.3.2 17.227 17.227 0 0 1-9.7-1.4c-12.3 2.6-25.1 1-34.9-4z"/><path id="Path_803" data-name="Path 803" class="cls-56" d="M277.2 526q-6.45-3.3-5.1-6.9c1.2-2.9 6.1-4.9 7.9-5.4l.3-.1a1.388 1.388 0 0 1 .9 0l25.9 11.7a11.026 11.026 0 0 0 2.8.9 2.933 2.933 0 0 1 1.3-1.2 14.277 14.277 0 0 1 5.4-1.6l1.4-.1a1.269 1.269 0 0 1 .6.1c.2.1.3.1.4.2l.4.7a2.415 2.415 0 0 1-.5 3.1c1.9.7 3.9 1.7 4.5 2.6l.5.7c.1.2-.1.4-.4.4l-.4.1a5.272 5.272 0 0 1-1.3.2 17.227 17.227 0 0 1-9.7-1.4c-12.3 2.5-25.1 1-34.9-4z"/><path id="Path_804" data-name="Path 804" class="cls-57" d="M277.2 526.1q-6.45-3.3-5.1-6.9c1.2-2.9 6.1-4.9 7.9-5.4l.3-.1a1.388 1.388 0 0 1 .9 0l25.9 11.7a11.026 11.026 0 0 0 2.8.9 2.933 2.933 0 0 1 1.3-1.2 14.277 14.277 0 0 1 5.4-1.6l1.4-.1a1.269 1.269 0 0 1 .6.1c.2.1.3.1.4.2l.4.7a2.415 2.415 0 0 1-.5 3.1c1.9.7 3.9 1.7 4.5 2.6l.5.7c.1.2-.1.4-.4.4l-.4.1a5.272 5.272 0 0 1-1.3.2 17.227 17.227 0 0 1-9.7-1.4c-12.3 2.5-25.1 1-34.9-4z"/><path id="Path_805" data-name="Path 805" class="cls-58" d="M277.2 526.2q-6.45-3.3-5.1-6.9c1.2-2.9 6.1-4.9 7.9-5.4l.3-.1a1.388 1.388 0 0 1 .9 0l25.9 11.7a11.026 11.026 0 0 0 2.8.9 2.933 2.933 0 0 1 1.3-1.2 14.277 14.277 0 0 1 5.4-1.6l1.4-.1a1.269 1.269 0 0 1 .6.1c.2.1.3.1.4.2l.4.7a2.415 2.415 0 0 1-.5 3.1c1.9.7 3.9 1.7 4.5 2.6l.5.7c.1.2-.1.4-.4.4l-.4.1a5.272 5.272 0 0 1-1.3.2 17.227 17.227 0 0 1-9.7-1.4c-12.3 2.5-25.1 1-34.9-4z"/><path id="Path_806" data-name="Path 806" class="cls-49" d="M277.2 526.2q-6.45-3.3-5.1-6.9c1.2-2.9 6.1-4.9 7.9-5.4l.3-.1a1.388 1.388 0 0 1 .9 0l25.9 11.7a11.026 11.026 0 0 0 2.8.9 2.933 2.933 0 0 1 1.3-1.2 14.277 14.277 0 0 1 5.4-1.6l1.4-.1a1.269 1.269 0 0 1 .6.1c.2.1.3.1.4.2l.4.7a2.415 2.415 0 0 1-.5 3.1c1.9.7 3.9 1.7 4.5 2.6l.5.7c.1.2-.1.4-.4.4l-.4.1a5.272 5.272 0 0 1-1.3.2 17.227 17.227 0 0 1-9.7-1.4c-12.3 2.6-25.1 1.1-34.9-4z"/><path id="Path_807" data-name="Path 807" class="cls-29" d="M277.2 526.3q-6.45-3.3-5.1-6.9c1.2-2.9 6.1-4.9 7.9-5.4l.3-.1a1.388 1.388 0 0 1 .9 0l25.9 11.7a11.026 11.026 0 0 0 2.8.9 2.933 2.933 0 0 1 1.3-1.2 14.277 14.277 0 0 1 5.4-1.6l1.4-.1a1.269 1.269 0 0 1 .6.1c.2.1.3.1.4.2l.4.7a2.415 2.415 0 0 1-.5 3.1c1.9.7 3.9 1.7 4.5 2.6l.5.7c.1.2-.1.4-.4.4l-.4.1a5.272 5.272 0 0 1-1.3.2 17.227 17.227 0 0 1-9.7-1.4c-12.3 2.6-25.1 1-34.9-4z"/><path id="Path_808" data-name="Path 808" class="cls-50" d="M277.2 526.4q-6.45-3.3-5.1-6.9c1.2-2.9 6.1-4.9 7.9-5.4l.3-.1a1.388 1.388 0 0 1 .9 0l25.9 11.7a11.026 11.026 0 0 0 2.8.9 2.933 2.933 0 0 1 1.3-1.2 14.277 14.277 0 0 1 5.4-1.6l1.4-.1a1.269 1.269 0 0 1 .6.1c.2.1.3.1.4.2l.4.7a2.415 2.415 0 0 1-.5 3.1c1.9.7 3.9 1.7 4.5 2.6l.5.7c.1.2-.1.4-.4.4l-.4.1a5.272 5.272 0 0 1-1.3.2 17.227 17.227 0 0 1-9.7-1.4c-12.3 2.5-25.1 1-34.9-4z"/><path id="Path_809" data-name="Path 809" class="cls-51" d="M277.2 526.5q-6.45-3.3-5.1-6.9c1.2-2.9 6.1-4.9 7.9-5.4l.3-.1a1.388 1.388 0 0 1 .9 0l25.9 11.7a11.026 11.026 0 0 0 2.8.9 2.933 2.933 0 0 1 1.3-1.2 14.277 14.277 0 0 1 5.4-1.6l1.4-.1a1.269 1.269 0 0 1 .6.1c.2.1.3.1.4.2l.4.7a2.415 2.415 0 0 1-.5 3.1c1.9.7 3.9 1.7 4.5 2.6l.5.7c.1.2-.1.4-.4.4l-.4.1a5.272 5.272 0 0 1-1.3.2 17.227 17.227 0 0 1-9.7-1.4c-12.3 2.5-25.1 1-34.9-4z"/><path id="Path_810" data-name="Path 810" class="cls-52" d="M277.2 526.6q-6.45-3.3-5.1-6.9c1.2-2.9 6.1-4.9 7.9-5.4l.3-.1a1.388 1.388 0 0 1 .9 0l25.9 11.7a11.026 11.026 0 0 0 2.8.9 2.933 2.933 0 0 1 1.3-1.2 14.277 14.277 0 0 1 5.4-1.6l1.4-.1a1.269 1.269 0 0 1 .6.1c.2.1.3.1.4.2l.4.7a2.415 2.415 0 0 1-.5 3.1c1.9.7 3.9 1.7 4.5 2.6l.5.7c.1.2-.1.4-.4.4l-.4.1a5.272 5.272 0 0 1-1.3.2 17.227 17.227 0 0 1-9.7-1.4c-12.3 2.5-25.1 1-34.9-4z"/><path id="Path_811" data-name="Path 811" class="cls-53" d="M277.2 526.7q-6.45-3.3-5.1-6.9c1.2-2.9 6.1-4.9 7.9-5.4l.3-.1a1.388 1.388 0 0 1 .9 0l25.9 11.7a11.026 11.026 0 0 0 2.8.9 2.933 2.933 0 0 1 1.3-1.2 14.277 14.277 0 0 1 5.4-1.6l1.4-.1a1.269 1.269 0 0 1 .6.1c.2.1.3.1.4.2l.4.7a2.415 2.415 0 0 1-.5 3.1c1.9.7 3.9 1.7 4.5 2.6l.5.7c.1.2-.1.4-.4.4l-.4.1a5.272 5.272 0 0 1-1.3.2 17.227 17.227 0 0 1-9.7-1.4c-12.3 2.5-25.1 1-34.9-4z"/><path id="Path_812" data-name="Path 812" class="cls-54" d="M277.2 526.7q-6.45-3.3-5.1-6.9c1.2-2.9 6.1-4.9 7.9-5.4l.3-.1a1.388 1.388 0 0 1 .9 0l25.9 11.7a11.026 11.026 0 0 0 2.8.9 2.933 2.933 0 0 1 1.3-1.2 14.277 14.277 0 0 1 5.4-1.6l1.4-.1a1.269 1.269 0 0 1 .6.1c.2.1.3.1.4.2l.4.7a2.415 2.415 0 0 1-.5 3.1c1.9.7 3.9 1.7 4.5 2.6l.5.7c.1.2-.1.4-.4.4l-.4.1a5.272 5.272 0 0 1-1.3.2 17.227 17.227 0 0 1-9.7-1.4c-12.3 2.6-25.1 1.1-34.9-4z"/><path id="Path_813" data-name="Path 813" class="cls-55" d="M277.2 526.8q-6.45-3.3-5.1-6.9c1.2-2.9 6.1-4.9 7.9-5.4l.3-.1a1.388 1.388 0 0 1 .9 0l25.9 11.7a11.026 11.026 0 0 0 2.8.9 2.933 2.933 0 0 1 1.3-1.2 14.277 14.277 0 0 1 5.4-1.6l1.4-.1a1.269 1.269 0 0 1 .6.1c.2.1.3.1.4.2l.4.7a2.415 2.415 0 0 1-.5 3.1c1.9.7 3.9 1.7 4.5 2.6l.5.7c.1.2-.1.4-.4.4l-.4.1a5.272 5.272 0 0 1-1.3.2 17.227 17.227 0 0 1-9.7-1.4c-12.3 2.6-25.1 1-34.9-4z"/><path id="Path_814" data-name="Path 814" class="cls-56" d="M277.2 526.9q-6.45-3.3-5.1-6.9c1.2-2.9 6.1-4.9 7.9-5.4l.3-.1a1.388 1.388 0 0 1 .9 0l25.9 11.7a11.026 11.026 0 0 0 2.8.9 2.933 2.933 0 0 1 1.3-1.2 14.277 14.277 0 0 1 5.4-1.6l1.4-.1a1.269 1.269 0 0 1 .6.1c.2.1.3.1.4.2l.4.7a2.415 2.415 0 0 1-.5 3.1c1.9.7 3.9 1.7 4.5 2.6l.5.7c.1.2-.1.4-.4.4l-.4.1a5.272 5.272 0 0 1-1.3.2 17.227 17.227 0 0 1-9.7-1.4c-12.3 2.5-25.1 1-34.9-4z"/><path id="Path_815" data-name="Path 815" class="cls-57" d="M277.2 527q-6.45-3.3-5.1-6.9c1.2-2.9 6.1-4.9 7.9-5.4l.3-.1a1.388 1.388 0 0 1 .9 0l25.9 11.7a11.026 11.026 0 0 0 2.8.9 2.933 2.933 0 0 1 1.3-1.2 14.277 14.277 0 0 1 5.4-1.6l1.4-.1a1.269 1.269 0 0 1 .6.1c.2.1.3.1.4.2l.4.7a2.415 2.415 0 0 1-.5 3.1c1.9.7 3.9 1.7 4.5 2.6l.5.7c.1.2-.1.4-.4.4l-.4.1a5.272 5.272 0 0 1-1.3.2 17.227 17.227 0 0 1-9.7-1.4c-12.3 2.5-25.1 1-34.9-4z"/><path id="Path_816" data-name="Path 816" class="cls-58" d="M277.2 527.1q-6.45-3.3-5.1-6.9c1.2-2.9 6.1-4.9 7.9-5.4l.3-.1a1.388 1.388 0 0 1 .9 0l25.9 11.7a11.026 11.026 0 0 0 2.8.9 2.933 2.933 0 0 1 1.3-1.2 14.277 14.277 0 0 1 5.4-1.6l1.4-.1a1.269 1.269 0 0 1 .6.1c.2.1.3.1.4.2l.4.7a2.415 2.415 0 0 1-.5 3.1c1.9.7 3.9 1.7 4.5 2.6l.5.7c.1.2-.1.4-.4.4l-.4.1a5.272 5.272 0 0 1-1.3.2 17.227 17.227 0 0 1-9.7-1.4c-12.3 2.5-25.1 1-34.9-4z"/><path id="Path_817" data-name="Path 817" d="M277.2 527.1q-6.45-3.3-5.1-6.9c1.2-2.9 6.1-4.9 7.9-5.4l.3-.1a1.388 1.388 0 0 1 .9 0l25.9 11.7a11.026 11.026 0 0 0 2.8.9 2.933 2.933 0 0 1 1.3-1.2 14.277 14.277 0 0 1 5.4-1.6l1.4-.1a1.269 1.269 0 0 1 .6.1c.2.1.3.1.4.2l.4.7a2.415 2.415 0 0 1-.5 3.1c1.9.7 3.9 1.7 4.5 2.6l.5.7c.1.2-.1.4-.4.4l-.4.1a5.272 5.272 0 0 1-1.3.2 17.227 17.227 0 0 1-9.7-1.4c-12.3 2.6-25.1 1.1-34.9-4z" fill="url(#linear-gradient-84)"/><path id="Path_818" data-name="Path 818" class="cls-60" d="M277.2 527.2q-6.45-3.3-5.1-6.9c1.2-2.9 6.1-4.9 7.9-5.4l.3-.1a1.388 1.388 0 0 1 .9 0l25.9 11.7a11.026 11.026 0 0 0 2.8.9 2.933 2.933 0 0 1 1.3-1.2 14.277 14.277 0 0 1 5.4-1.6l1.4-.1a1.269 1.269 0 0 1 .6.1c.2.1.3.1.4.2l.4.7a2.415 2.415 0 0 1-.5 3.1c1.9.7 3.9 1.7 4.5 2.6l.5.7c.1.2-.1.4-.4.4l-.4.1a5.272 5.272 0 0 1-1.3.2 17.227 17.227 0 0 1-9.7-1.4c-12.3 2.6-25.1 1-34.9-4z"/><path id="Path_819" data-name="Path 819" class="cls-61" d="M277.2 527.3q-6.45-3.3-5.1-6.9c1.2-2.9 6.1-4.9 7.9-5.4l.3-.1a1.388 1.388 0 0 1 .9 0l25.9 11.7a11.026 11.026 0 0 0 2.8.9 2.933 2.933 0 0 1 1.3-1.2 14.277 14.277 0 0 1 5.4-1.6l1.4-.1a1.269 1.269 0 0 1 .6.1c.2.1.3.1.4.2l.4.7a2.415 2.415 0 0 1-.5 3.1c1.9.7 3.9 1.7 4.5 2.6l.5.7c.1.2-.1.4-.4.4l-.4.1a5.272 5.272 0 0 1-1.3.2 17.227 17.227 0 0 1-9.7-1.4c-12.3 2.6-25.1 1-34.9-4z"/><path id="Path_820" data-name="Path 820" class="cls-51" d="M277.2 527.4q-6.45-3.3-5.1-6.9c1.2-2.9 6.1-4.9 7.9-5.4l.3-.1a1.388 1.388 0 0 1 .9 0l25.9 11.7a11.026 11.026 0 0 0 2.8.9 2.933 2.933 0 0 1 1.3-1.2 14.277 14.277 0 0 1 5.4-1.6l1.4-.1a1.269 1.269 0 0 1 .6.1c.2.1.3.1.4.2l.4.7a2.415 2.415 0 0 1-.5 3.1c1.9.7 3.9 1.7 4.5 2.6l.5.7c.1.2-.1.4-.4.4l-.4.1a5.272 5.272 0 0 1-1.3.2 17.227 17.227 0 0 1-9.7-1.4c-12.3 2.5-25.1 1-34.9-4z"/><path id="Path_821" data-name="Path 821" class="cls-52" d="M277.2 527.5q-6.45-3.3-5.1-6.9c1.2-2.9 6.1-4.9 7.9-5.4l.3-.1a1.388 1.388 0 0 1 .9 0l25.9 11.7a11.026 11.026 0 0 0 2.8.9 2.933 2.933 0 0 1 1.3-1.2 14.277 14.277 0 0 1 5.4-1.6l1.4-.1a1.269 1.269 0 0 1 .6.1c.2.1.3.1.4.2l.4.7a2.415 2.415 0 0 1-.5 3.1c1.9.7 3.9 1.7 4.5 2.6l.5.7c.1.2-.1.4-.4.4l-.4.1a5.272 5.272 0 0 1-1.3.2 17.227 17.227 0 0 1-9.7-1.4c-12.3 2.5-25.1 1-34.9-4z"/><path id="Path_822" data-name="Path 822" class="cls-53" d="M277.2 527.6q-6.45-3.3-5.1-6.9c1.2-2.9 6.1-4.9 7.9-5.4l.3-.1a1.388 1.388 0 0 1 .9 0l25.9 11.7a11.026 11.026 0 0 0 2.8.9 2.933 2.933 0 0 1 1.3-1.2 14.277 14.277 0 0 1 5.4-1.6l1.4-.1a1.269 1.269 0 0 1 .6.1c.2.1.3.1.4.2l.4.7a2.415 2.415 0 0 1-.5 3.1c1.9.7 3.9 1.7 4.5 2.6l.5.7c.1.2-.1.4-.4.4l-.4.1a5.272 5.272 0 0 1-1.3.2 17.227 17.227 0 0 1-9.7-1.4c-12.3 2.5-25.1 1-34.9-4z"/><path id="Path_823" data-name="Path 823" class="cls-62" d="M277.2 527.6q-6.45-3.3-5.1-6.9c1.2-2.9 6.1-4.9 7.9-5.4l.3-.1a1.388 1.388 0 0 1 .9 0l25.9 11.7a11.026 11.026 0 0 0 2.8.9 2.933 2.933 0 0 1 1.3-1.2 14.277 14.277 0 0 1 5.4-1.6l1.4-.1a1.269 1.269 0 0 1 .6.1c.2.1.3.1.4.2l.4.7a2.415 2.415 0 0 1-.5 3.1c1.9.7 3.9 1.7 4.5 2.6l.5.7c.1.2-.1.4-.4.4l-.4.1a5.272 5.272 0 0 1-1.3.2 17.227 17.227 0 0 1-9.7-1.4c-12.3 2.6-25.1 1.1-34.9-4z"/><path id="Path_824" data-name="Path 824" class="cls-63" d="M277.2 527.7q-6.45-3.3-5.1-6.9c1.2-2.9 6.1-4.9 7.9-5.4l.3-.1a1.388 1.388 0 0 1 .9 0l25.9 11.7a11.026 11.026 0 0 0 2.8.9 2.933 2.933 0 0 1 1.3-1.2 14.277 14.277 0 0 1 5.4-1.6l1.4-.1a1.269 1.269 0 0 1 .6.1c.2.1.3.1.4.2l.4.7a2.415 2.415 0 0 1-.5 3.1c1.9.7 3.9 1.7 4.5 2.6l.5.7c.1.2-.1.4-.4.4l-.4.1a5.272 5.272 0 0 1-1.3.2 17.227 17.227 0 0 1-9.7-1.4c-12.3 2.6-25.1 1-34.9-4z"/><path id="Path_825" data-name="Path 825" class="cls-64" d="M277.2 527.8q-6.45-3.3-5.1-6.9c1.2-2.9 6.1-4.9 7.9-5.4l.3-.1a1.388 1.388 0 0 1 .9 0l25.9 11.7a11.026 11.026 0 0 0 2.8.9 2.933 2.933 0 0 1 1.3-1.2 14.277 14.277 0 0 1 5.4-1.6l1.4-.1a1.269 1.269 0 0 1 .6.1c.2.1.3.1.4.2l.4.7a2.415 2.415 0 0 1-.5 3.1c1.9.7 3.9 1.7 4.5 2.6l.5.7c.1.2-.1.4-.4.4l-.4.1a5.272 5.272 0 0 1-1.3.2 17.227 17.227 0 0 1-9.7-1.4c-12.3 2.5-25.1 1-34.9-4z"/><path id="Path_826" data-name="Path 826" class="cls-65" d="M277.2 527.9q-6.45-3.3-5.1-6.9c1.2-2.9 6.1-4.9 7.9-5.4l.3-.1a1.388 1.388 0 0 1 .9 0l25.9 11.7a11.026 11.026 0 0 0 2.8.9 2.933 2.933 0 0 1 1.3-1.2 14.277 14.277 0 0 1 5.4-1.6l1.4-.1a1.269 1.269 0 0 1 .6.1c.2.1.3.1.4.2l.4.7a2.415 2.415 0 0 1-.5 3.1c1.9.7 3.9 1.7 4.5 2.6l.5.7c.1.2-.1.4-.4.4l-.4.1a5.272 5.272 0 0 1-1.3.2 17.227 17.227 0 0 1-9.7-1.4c-12.3 2.5-25.1 1-34.9-4z"/><path id="Path_827" data-name="Path 827" class="cls-66" d="M277.2 528q-6.45-3.3-5.1-6.9c1.2-2.9 6.1-4.9 7.9-5.4l.3-.1a1.388 1.388 0 0 1 .9 0l25.9 11.7a11.026 11.026 0 0 0 2.8.9 2.933 2.933 0 0 1 1.3-1.2 14.277 14.277 0 0 1 5.4-1.6l1.4-.1a1.269 1.269 0 0 1 .6.1c.2.1.3.1.4.2l.4.7a2.415 2.415 0 0 1-.5 3.1c1.9.7 3.9 1.7 4.5 2.6l.5.7c.1.2-.1.4-.4.4l-.4.1a5.272 5.272 0 0 1-1.3.2 17.227 17.227 0 0 1-9.7-1.4c-12.3 2.5-25.1 1-34.9-4z"/><path id="Path_828" data-name="Path 828" class="cls-67" d="M277.2 528.1q-6.45-3.3-5.1-6.9c1.2-2.9 6.1-4.9 7.9-5.4l.3-.1a1.388 1.388 0 0 1 .9 0l25.9 11.7a11.026 11.026 0 0 0 2.8.9 2.933 2.933 0 0 1 1.3-1.2 14.277 14.277 0 0 1 5.4-1.6l1.4-.1a1.269 1.269 0 0 1 .6.1c.2.1.3.1.4.2l.4.7a2.415 2.415 0 0 1-.5 3.1c1.9.7 3.9 1.7 4.5 2.6l.5.7c.1.2-.1.4-.4.4l-.4.1a5.272 5.272 0 0 1-1.3.2 17.227 17.227 0 0 1-9.7-1.4c-12.3 2.5-25.1 1-34.9-4z"/><path id="Path_829" data-name="Path 829" class="cls-60" d="M277.2 528.1q-6.45-3.3-5.1-6.9c1.2-2.9 6.1-4.9 7.9-5.4l.3-.1a1.388 1.388 0 0 1 .9 0l25.9 11.7a11.026 11.026 0 0 0 2.8.9 2.933 2.933 0 0 1 1.3-1.2 14.277 14.277 0 0 1 5.4-1.6l1.4-.1a1.269 1.269 0 0 1 .6.1c.2.1.3.1.4.2l.4.7a2.415 2.415 0 0 1-.5 3.1c1.9.7 3.9 1.7 4.5 2.6l.5.7c.1.2-.1.4-.4.4l-.4.1a5.272 5.272 0 0 1-1.3.2 17.227 17.227 0 0 1-9.7-1.4c-12.3 2.6-25.1 1-34.9-4z"/><path id="Path_830" data-name="Path 830" class="cls-61" d="M277.2 528.2q-6.45-3.3-5.1-6.9c1.2-2.9 6.1-4.9 7.9-5.4l.3-.1a1.388 1.388 0 0 1 .9 0l25.9 11.7a11.026 11.026 0 0 0 2.8.9 2.933 2.933 0 0 1 1.3-1.2 14.277 14.277 0 0 1 5.4-1.6l1.4-.1a1.269 1.269 0 0 1 .6.1c.2.1.3.1.4.2l.4.7a2.415 2.415 0 0 1-.5 3.1c1.9.7 3.9 1.7 4.5 2.6l.5.7c.1.2-.1.4-.4.4l-.4.1a5.272 5.272 0 0 1-1.3.2 17.227 17.227 0 0 1-9.7-1.4c-12.3 2.6-25.1 1-34.9-4z"/><path id="Path_831" data-name="Path 831" class="cls-68" d="M277.2 528.3q-6.45-3.3-5.1-6.9c1.2-2.9 6.1-4.9 7.9-5.4l.3-.1a1.388 1.388 0 0 1 .9 0l25.9 11.7a11.026 11.026 0 0 0 2.8.9 2.933 2.933 0 0 1 1.3-1.2 14.277 14.277 0 0 1 5.4-1.6l1.4-.1a1.269 1.269 0 0 1 .6.1c.2.1.3.1.4.2l.4.7a2.415 2.415 0 0 1-.5 3.1c1.9.7 3.9 1.7 4.5 2.6l.5.7c.1.2-.1.4-.4.4l-.4.1a5.272 5.272 0 0 1-1.3.2 17.227 17.227 0 0 1-9.7-1.4c-12.3 2.5-25.1 1-34.9-4z"/><path id="Path_832" data-name="Path 832" class="cls-69" d="M277.2 528.4q-6.45-3.3-5.1-6.9c1.2-2.9 6.1-4.9 7.9-5.4l.3-.1a1.388 1.388 0 0 1 .9 0l25.9 11.7a11.026 11.026 0 0 0 2.8.9 2.933 2.933 0 0 1 1.3-1.2 14.277 14.277 0 0 1 5.4-1.6l1.4-.1a1.269 1.269 0 0 1 .6.1c.2.1.3.1.4.2l.4.7a2.415 2.415 0 0 1-.5 3.1c1.9.7 3.9 1.7 4.5 2.6l.5.7c.1.2-.1.4-.4.4l-.4.1a5.272 5.272 0 0 1-1.3.2 17.227 17.227 0 0 1-9.7-1.4c-12.3 2.5-25.1 1-34.9-4z"/><path id="Path_833" data-name="Path 833" class="cls-70" d="M277.2 528.5q-6.45-3.3-5.1-6.9c1.2-2.9 6.1-4.9 7.9-5.4l.3-.1a1.388 1.388 0 0 1 .9 0l25.9 11.7a11.026 11.026 0 0 0 2.8.9 2.933 2.933 0 0 1 1.3-1.2 14.277 14.277 0 0 1 5.4-1.6l1.4-.1a1.269 1.269 0 0 1 .6.1c.2.1.3.1.4.2l.4.7a2.415 2.415 0 0 1-.5 3.1c1.9.7 3.9 1.7 4.5 2.6l.5.7c.1.2-.1.4-.4.4l-.4.1a5.272 5.272 0 0 1-1.3.2 17.227 17.227 0 0 1-9.7-1.4c-12.3 2.5-25.1 1-34.9-4z"/><path id="Path_834" data-name="Path 834" class="cls-62" d="M277.2 528.5q-6.45-3.3-5.1-6.9c1.2-2.9 6.1-4.9 7.9-5.4l.3-.1a1.388 1.388 0 0 1 .9 0l25.9 11.7a11.026 11.026 0 0 0 2.8.9 2.933 2.933 0 0 1 1.3-1.2 14.277 14.277 0 0 1 5.4-1.6l1.4-.1a1.269 1.269 0 0 1 .6.1c.2.1.3.1.4.2l.4.7a2.415 2.415 0 0 1-.5 3.1c1.9.7 3.9 1.7 4.5 2.6l.5.7c.1.2-.1.4-.4.4l-.4.1a5.272 5.272 0 0 1-1.3.2 17.227 17.227 0 0 1-9.7-1.4c-12.3 2.6-25.1 1.1-34.9-4z"/><path id="Path_835" data-name="Path 835" class="cls-63" d="M277.2 528.6q-6.45-3.3-5.1-6.9c1.2-2.9 6.1-4.9 7.9-5.4l.3-.1a1.388 1.388 0 0 1 .9 0l25.9 11.7a11.026 11.026 0 0 0 2.8.9 2.933 2.933 0 0 1 1.3-1.2 14.277 14.277 0 0 1 5.4-1.6l1.4-.1a1.269 1.269 0 0 1 .6.1c.2.1.3.1.4.2l.4.7a2.415 2.415 0 0 1-.5 3.1c1.9.7 3.9 1.7 4.5 2.6l.5.7c.1.2-.1.4-.4.4l-.4.1a5.272 5.272 0 0 1-1.3.2 17.227 17.227 0 0 1-9.7-1.4c-12.3 2.6-25.1 1-34.9-4z"/><path id="Path_836" data-name="Path 836" class="cls-64" d="M277.2 528.7q-6.45-3.3-5.1-6.9c1.2-2.9 6.1-4.9 7.9-5.4l.3-.1a1.388 1.388 0 0 1 .9 0l25.9 11.7a11.026 11.026 0 0 0 2.8.9 2.933 2.933 0 0 1 1.3-1.2 14.277 14.277 0 0 1 5.4-1.6l1.4-.1a1.269 1.269 0 0 1 .6.1c.2.1.3.1.4.2l.4.7a2.415 2.415 0 0 1-.5 3.1c1.9.7 3.9 1.7 4.5 2.6l.5.7c.1.2-.1.4-.4.4l-.4.1a5.272 5.272 0 0 1-1.3.2 17.227 17.227 0 0 1-9.7-1.4c-12.3 2.5-25.1 1-34.9-4z"/><path id="Path_837" data-name="Path 837" class="cls-65" d="M277.2 528.8q-6.45-3.3-5.1-6.9c1.2-2.9 6.1-4.9 7.9-5.4l.3-.1a1.388 1.388 0 0 1 .9 0l25.9 11.7a11.026 11.026 0 0 0 2.8.9 2.933 2.933 0 0 1 1.3-1.2 14.277 14.277 0 0 1 5.4-1.6l1.4-.1a1.269 1.269 0 0 1 .6.1c.2.1.3.1.4.2l.4.7a2.415 2.415 0 0 1-.5 3.1c1.9.7 3.9 1.7 4.5 2.6l.5.7c.1.2-.1.4-.4.4l-.4.1a5.272 5.272 0 0 1-1.3.2 17.227 17.227 0 0 1-9.7-1.4c-12.3 2.5-25.1 1-34.9-4z"/><path id="Path_838" data-name="Path 838" class="cls-66" d="M277.2 528.9q-6.45-3.3-5.1-6.9c1.2-2.9 6.1-4.9 7.9-5.4l.3-.1a1.388 1.388 0 0 1 .9 0l25.9 11.7a11.026 11.026 0 0 0 2.8.9 2.933 2.933 0 0 1 1.3-1.2 14.277 14.277 0 0 1 5.4-1.6l1.4-.1a1.269 1.269 0 0 1 .6.1c.2.1.3.1.4.2l.4.7a2.415 2.415 0 0 1-.5 3.1c1.9.7 3.9 1.7 4.5 2.6l.5.7c.1.2-.1.4-.4.4l-.4.1a5.272 5.272 0 0 1-1.3.2 17.227 17.227 0 0 1-9.7-1.4c-12.3 2.5-25.1 1-34.9-4z"/><path id="Path_839" data-name="Path 839" class="cls-67" d="M277.2 529q-6.45-3.3-5.1-6.9c1.2-2.9 6.1-4.9 7.9-5.4l.3-.1a1.388 1.388 0 0 1 .9 0l25.9 11.7a11.026 11.026 0 0 0 2.8.9 2.933 2.933 0 0 1 1.3-1.2 14.277 14.277 0 0 1 5.4-1.6l1.4-.1a1.269 1.269 0 0 1 .6.1c.2.1.3.1.4.2l.4.7a2.415 2.415 0 0 1-.5 3.1c1.9.7 3.9 1.7 4.5 2.6l.5.7c.1.2-.1.4-.4.4l-.4.1a5.272 5.272 0 0 1-1.3.2 17.227 17.227 0 0 1-9.7-1.4c-12.3 2.5-25.1 1-34.9-4z"/><path id="Path_840" data-name="Path 840" class="cls-60" d="M277.2 529q-6.45-3.3-5.1-6.9c1.2-2.9 6.1-4.9 7.9-5.4l.3-.1a1.388 1.388 0 0 1 .9 0l25.9 11.7a11.026 11.026 0 0 0 2.8.9 2.933 2.933 0 0 1 1.3-1.2 14.277 14.277 0 0 1 5.4-1.6l1.4-.1a1.269 1.269 0 0 1 .6.1c.2.1.3.1.4.2l.4.7a2.415 2.415 0 0 1-.5 3.1c1.9.7 3.9 1.7 4.5 2.6l.5.7c.1.2-.1.4-.4.4l-.4.1a5.272 5.272 0 0 1-1.3.2 17.227 17.227 0 0 1-9.7-1.4c-12.3 2.6-25.1 1-34.9-4z"/><path id="Path_841" data-name="Path 841" class="cls-61" d="M277.2 529.1q-6.45-3.3-5.1-6.9c1.2-2.9 6.1-4.9 7.9-5.4l.3-.1a1.388 1.388 0 0 1 .9 0l25.9 11.7a11.026 11.026 0 0 0 2.8.9 2.933 2.933 0 0 1 1.3-1.2 14.277 14.277 0 0 1 5.4-1.6l1.4-.1a1.269 1.269 0 0 1 .6.1c.2.1.3.1.4.2l.4.7a2.415 2.415 0 0 1-.5 3.1c1.9.7 3.9 1.7 4.5 2.6l.5.7c.1.2-.1.4-.4.4l-.4.1a5.272 5.272 0 0 1-1.3.2 17.227 17.227 0 0 1-9.7-1.4c-12.3 2.6-25.1 1-34.9-4z"/><path id="Path_842" data-name="Path 842" class="cls-68" d="M277.2 529.2q-6.45-3.3-5.1-6.9c1.2-2.9 6.1-4.9 7.9-5.4l.3-.1a1.388 1.388 0 0 1 .9 0l25.9 11.7a11.026 11.026 0 0 0 2.8.9 2.933 2.933 0 0 1 1.3-1.2 14.277 14.277 0 0 1 5.4-1.6l1.4-.1a1.269 1.269 0 0 1 .6.1c.2.1.3.1.4.2l.4.7a2.415 2.415 0 0 1-.5 3.1c1.9.7 3.9 1.7 4.5 2.6l.5.7c.1.2-.1.4-.4.4l-.4.1a5.272 5.272 0 0 1-1.3.2 17.227 17.227 0 0 1-9.7-1.4c-12.3 2.5-25.1 1-34.9-4z"/><path id="Path_843" data-name="Path 843" class="cls-69" d="M277.2 529.3q-6.45-3.3-5.1-6.9c1.2-2.9 6.1-4.9 7.9-5.4l.3-.1a1.388 1.388 0 0 1 .9 0l25.9 11.7a11.026 11.026 0 0 0 2.8.9 2.933 2.933 0 0 1 1.3-1.2 14.277 14.277 0 0 1 5.4-1.6l1.4-.1a1.269 1.269 0 0 1 .6.1c.2.1.3.1.4.2l.4.7a2.415 2.415 0 0 1-.5 3.1c1.9.7 3.9 1.7 4.5 2.6l.5.7c.1.2-.1.4-.4.4l-.4.1a5.272 5.272 0 0 1-1.3.2 17.227 17.227 0 0 1-9.7-1.4c-12.3 2.5-25.1 1-34.9-4z"/><path id="Path_844" data-name="Path 844" class="cls-70" d="M277.2 529.4q-6.45-3.3-5.1-6.9c1.2-2.9 6.1-4.9 7.9-5.4l.3-.1a1.388 1.388 0 0 1 .9 0l25.9 11.7a11.026 11.026 0 0 0 2.8.9 2.933 2.933 0 0 1 1.3-1.2 14.277 14.277 0 0 1 5.4-1.6l1.4-.1a1.269 1.269 0 0 1 .6.1c.2.1.3.1.4.2l.4.7a2.415 2.415 0 0 1-.5 3.1c1.9.7 3.9 1.7 4.5 2.6l.5.7c.1.2-.1.4-.4.4l-.4.1a5.272 5.272 0 0 1-1.3.2 17.227 17.227 0 0 1-9.7-1.4c-12.3 2.5-25.1 1-34.9-4z"/><path id="Path_845" data-name="Path 845" class="cls-71" d="M277.2 529.4q-6.45-3.3-5.1-6.9c1.2-2.9 6.1-4.9 7.9-5.4l.3-.1a1.388 1.388 0 0 1 .9 0l25.9 11.7a11.026 11.026 0 0 0 2.8.9 2.933 2.933 0 0 1 1.3-1.2 14.277 14.277 0 0 1 5.4-1.6l1.4-.1a1.269 1.269 0 0 1 .6.1c.2.1.3.1.4.2l.4.7a2.415 2.415 0 0 1-.5 3.1c1.9.7 3.9 1.7 4.5 2.6l.5.7c.1.2-.1.4-.4.4l-.4.1a5.272 5.272 0 0 1-1.3.2 17.227 17.227 0 0 1-9.7-1.4c-12.3 2.6-25.1 1.1-34.9-4z"/><path id="Path_846" data-name="Path 846" class="cls-72" d="M277.2 529.5q-6.45-3.3-5.1-6.9c1.2-2.9 6.1-4.9 7.9-5.4l.3-.1a1.388 1.388 0 0 1 .9 0l25.9 11.7a11.026 11.026 0 0 0 2.8.9 2.933 2.933 0 0 1 1.3-1.2 14.277 14.277 0 0 1 5.4-1.6l1.4-.1a1.269 1.269 0 0 1 .6.1c.2.1.3.1.4.2l.4.7a2.415 2.415 0 0 1-.5 3.1c1.9.7 3.9 1.7 4.5 2.6l.5.7c.1.2-.1.4-.4.4l-.4.1a5.272 5.272 0 0 1-1.3.2 17.227 17.227 0 0 1-9.7-1.4c-12.3 2.6-25.1 1-34.9-4z"/><path id="Path_847" data-name="Path 847" class="cls-73" d="M277.2 529.6q-6.45-3.3-5.1-6.9c1.2-2.9 6.1-4.9 7.9-5.4l.3-.1a1.388 1.388 0 0 1 .9 0l25.9 11.7a11.026 11.026 0 0 0 2.8.9 2.933 2.933 0 0 1 1.3-1.2 14.277 14.277 0 0 1 5.4-1.6l1.4-.1a1.269 1.269 0 0 1 .6.1c.2.1.3.1.4.2l.4.7a2.415 2.415 0 0 1-.5 3.1c1.9.7 3.9 1.7 4.5 2.6l.5.7c.1.2-.1.4-.4.4l-.4.1a5.272 5.272 0 0 1-1.3.2 17.227 17.227 0 0 1-9.7-1.4c-12.3 2.5-25.1 1-34.9-4z"/><path id="Path_848" data-name="Path 848" class="cls-65" d="M277.2 529.7q-6.45-3.3-5.1-6.9c1.2-2.9 6.1-4.9 7.9-5.4l.3-.1a1.388 1.388 0 0 1 .9 0l25.9 11.7a11.026 11.026 0 0 0 2.8.9 2.933 2.933 0 0 1 1.3-1.2 14.277 14.277 0 0 1 5.4-1.6l1.4-.1a1.269 1.269 0 0 1 .6.1c.2.1.3.1.4.2l.4.7a2.415 2.415 0 0 1-.5 3.1c1.9.7 3.9 1.7 4.5 2.6l.5.7c.1.2-.1.4-.4.4l-.4.1a5.272 5.272 0 0 1-1.3.2 17.227 17.227 0 0 1-9.7-1.4c-12.3 2.5-25.1 1-34.9-4z"/><path id="Path_849" data-name="Path 849" class="cls-66" d="M277.2 529.8q-6.45-3.3-5.1-6.9c1.2-2.9 6.1-4.9 7.9-5.4l.3-.1a1.388 1.388 0 0 1 .9 0l25.9 11.7a11.026 11.026 0 0 0 2.8.9 2.933 2.933 0 0 1 1.3-1.2 14.277 14.277 0 0 1 5.4-1.6l1.4-.1a1.269 1.269 0 0 1 .6.1c.2.1.3.1.4.2l.4.7a2.415 2.415 0 0 1-.5 3.1c1.9.7 3.9 1.7 4.5 2.6l.5.7c.1.2-.1.4-.4.4l-.4.1a5.272 5.272 0 0 1-1.3.2 17.227 17.227 0 0 1-9.7-1.4c-12.3 2.5-25.1 1-34.9-4z"/><path id="Path_850" data-name="Path 850" class="cls-67" d="M277.2 529.9q-6.45-3.3-5.1-6.9c1.2-2.9 6.1-4.9 7.9-5.4l.3-.1a1.388 1.388 0 0 1 .9 0l25.9 11.7a11.026 11.026 0 0 0 2.8.9 2.933 2.933 0 0 1 1.3-1.2 14.277 14.277 0 0 1 5.4-1.6l1.4-.1a1.269 1.269 0 0 1 .6.1c.2.1.3.1.4.2l.4.7a2.415 2.415 0 0 1-.5 3.1c1.9.7 3.9 1.7 4.5 2.6l.5.7c.1.2-.1.4-.4.4l-.4.1a5.272 5.272 0 0 1-1.3.2 17.227 17.227 0 0 1-9.7-1.4c-12.3 2.5-25.1 1-34.9-4z"/><path id="Path_851" data-name="Path 851" d="M277.2 529.9q-6.45-3.3-5.1-6.9c1.2-2.9 6.1-4.9 7.9-5.4l.3-.1a1.388 1.388 0 0 1 .9 0l25.9 11.7a11.026 11.026 0 0 0 2.8.9 2.933 2.933 0 0 1 1.3-1.2 14.277 14.277 0 0 1 5.4-1.6l1.4-.1a1.269 1.269 0 0 1 .6.1c.2.1.3.1.4.2l.4.7a2.415 2.415 0 0 1-.5 3.1c1.9.7 3.9 1.7 4.5 2.6l.5.7c.1.2-.1.4-.4.4l-.4.1a5.272 5.272 0 0 1-1.3.2 17.227 17.227 0 0 1-9.7-1.4c-12.3 2.6-25.1 1-34.9-4z" fill="url(#linear-gradient-118)"/><path id="Path_852" data-name="Path 852" d="M277.2 530q-6.45-3.3-5.1-6.9c1.2-2.9 6.1-4.9 7.9-5.4l.3-.1a1.388 1.388 0 0 1 .9 0l25.9 11.7a11.026 11.026 0 0 0 2.8.9 2.933 2.933 0 0 1 1.3-1.2 14.277 14.277 0 0 1 5.4-1.6l1.4-.1a1.269 1.269 0 0 1 .6.1c.2.1.3.1.4.2l.4.7a2.415 2.415 0 0 1-.5 3.1c1.9.7 3.9 1.7 4.5 2.6l.5.7c.1.2-.1.4-.4.4l-.4.1a5.272 5.272 0 0 1-1.3.2 17.227 17.227 0 0 1-9.7-1.4c-12.3 2.6-25.1 1-34.9-4z" fill="url(#linear-gradient-119)"/><path id="Path_853" data-name="Path 853" d="M277.2 530.1q-6.45-3.3-5.1-6.9c1.2-2.9 6.1-4.9 7.9-5.4l.3-.1a1.388 1.388 0 0 1 .9 0l25.9 11.7a11.026 11.026 0 0 0 2.8.9 2.933 2.933 0 0 1 1.3-1.2 14.277 14.277 0 0 1 5.4-1.6l1.4-.1a1.269 1.269 0 0 1 .6.1c.2.1.3.1.4.2l.4.7a2.415 2.415 0 0 1-.5 3.1c1.9.7 3.9 1.7 4.5 2.6l.5.7c.1.2-.1.4-.4.4l-.4.1a5.272 5.272 0 0 1-1.3.2 17.227 17.227 0 0 1-9.7-1.4c-12.3 2.5-25.1 1-34.9-4z" fill="url(#linear-gradient-120)"/><path id="Path_854" data-name="Path 854" d="M277.2 530.2q-6.45-3.3-5.1-6.9c1.2-2.9 6.1-4.9 7.9-5.4l.3-.1a1.388 1.388 0 0 1 .9 0l25.9 11.7a11.026 11.026 0 0 0 2.8.9 2.933 2.933 0 0 1 1.3-1.2 14.277 14.277 0 0 1 5.4-1.6l1.4-.1a1.269 1.269 0 0 1 .6.1c.2.1.3.1.4.2l.4.7a2.415 2.415 0 0 1-.5 3.1c1.9.7 3.9 1.7 4.5 2.6l.5.7c.1.2-.1.4-.4.4l-.4.1a5.272 5.272 0 0 1-1.3.2 17.227 17.227 0 0 1-9.7-1.4c-12.3 2.5-25.1 1-34.9-4z" fill="url(#linear-gradient-121)"/><path id="Path_855" data-name="Path 855" d="M277.2 530.3q-6.45-3.3-5.1-6.9c1.2-2.9 6.1-4.9 7.9-5.4l.3-.1a1.388 1.388 0 0 1 .9 0l25.9 11.7a11.026 11.026 0 0 0 2.8.9 2.933 2.933 0 0 1 1.3-1.2 14.277 14.277 0 0 1 5.4-1.6l1.4-.1a1.269 1.269 0 0 1 .6.1c.2.1.3.1.4.2l.4.7a2.415 2.415 0 0 1-.5 3.1c1.9.7 3.9 1.7 4.5 2.6l.5.7c.1.2-.1.4-.4.4l-.4.1a5.272 5.272 0 0 1-1.3.2 17.227 17.227 0 0 1-9.7-1.4c-12.3 2.5-25.1 1-34.9-4z" fill="url(#linear-gradient-122)"/><path id="Path_856" data-name="Path 856" class="cls-71" d="M277.2 530.3q-6.45-3.3-5.1-6.9c1.2-2.9 6.1-4.9 7.9-5.4l.3-.1a1.388 1.388 0 0 1 .9 0l25.9 11.7a11.026 11.026 0 0 0 2.8.9 2.933 2.933 0 0 1 1.3-1.2 14.277 14.277 0 0 1 5.4-1.6l1.4-.1a1.269 1.269 0 0 1 .6.1c.2.1.3.1.4.2l.4.7a2.415 2.415 0 0 1-.5 3.1c1.9.7 3.9 1.7 4.5 2.6l.5.7c.1.2-.1.4-.4.4l-.4.1a5.272 5.272 0 0 1-1.3.2 17.227 17.227 0 0 1-9.7-1.4c-12.3 2.6-25.1 1.1-34.9-4z"/><path id="Path_857" data-name="Path 857" class="cls-72" d="M277.2 530.4q-6.45-3.3-5.1-6.9c1.2-2.9 6.1-4.9 7.9-5.4l.3-.1a1.388 1.388 0 0 1 .9 0l25.9 11.7a11.026 11.026 0 0 0 2.8.9 2.933 2.933 0 0 1 1.3-1.2 14.277 14.277 0 0 1 5.4-1.6l1.4-.1a1.269 1.269 0 0 1 .6.1c.2.1.3.1.4.2l.4.7a2.415 2.415 0 0 1-.5 3.1c1.9.7 3.9 1.7 4.5 2.6l.5.7c.1.2-.1.4-.4.4l-.4.1a5.272 5.272 0 0 1-1.3.2 17.227 17.227 0 0 1-9.7-1.4c-12.3 2.6-25.1 1-34.9-4z"/><path id="Path_858" data-name="Path 858" class="cls-73" d="M277.2 530.5q-6.45-3.3-5.1-6.9c1.2-2.9 6.1-4.9 7.9-5.4l.3-.1a1.388 1.388 0 0 1 .9 0l25.9 11.7a11.026 11.026 0 0 0 2.8.9 2.933 2.933 0 0 1 1.3-1.2 14.277 14.277 0 0 1 5.4-1.6l1.4-.1a1.269 1.269 0 0 1 .6.1c.2.1.3.1.4.2l.4.7a2.415 2.415 0 0 1-.5 3.1c1.9.7 3.9 1.7 4.5 2.6l.5.7c.1.2-.1.4-.4.4l-.4.1a5.272 5.272 0 0 1-1.3.2 17.227 17.227 0 0 1-9.7-1.4c-12.3 2.5-25.1 1-34.9-4z"/><path id="Path_859" data-name="Path 859" class="cls-41" d="M277.2 530.6q-6.45-3.3-5.1-6.9c1.2-2.9 6.1-4.9 7.9-5.4l.3-.1a1.388 1.388 0 0 1 .9 0l25.9 11.7a11.026 11.026 0 0 0 2.8.9 2.933 2.933 0 0 1 1.3-1.2 14.277 14.277 0 0 1 5.4-1.6l1.4-.1a1.269 1.269 0 0 1 .6.1c.2.1.3.1.4.2l.4.7a2.415 2.415 0 0 1-.5 3.1c1.9.7 3.9 1.7 4.5 2.6l.5.7c.1.2-.1.4-.4.4l-.4.1a5.272 5.272 0 0 1-1.3.2 17.227 17.227 0 0 1-9.7-1.4c-12.3 2.5-25.1 1-34.9-4z"/></g><path id="Path_860" data-name="Path 860" class="cls-5" d="M277.2 522.3q-6.45-3.3-5.1-6.9c1.2-2.9 6.1-4.9 7.9-5.4l.3-.1a1.387 1.387 0 0 1 .9 0l25.9 11.7a11.026 11.026 0 0 0 2.8.9 2.933 2.933 0 0 1 1.3-1.2 14.277 14.277 0 0 1 5.4-1.6l1.4-.1a1.269 1.269 0 0 1 .6.1c.2.1.3.1.4.2l.4.7a2.415 2.415 0 0 1-.5 3.1c1.9.7 3.9 1.7 4.5 2.6l.5.7c.1.2-.1.4-.4.4l-.4.1a5.272 5.272 0 0 1-1.3.2 17.227 17.227 0 0 1-9.7-1.4c-12.3 2.6-25.1 1-34.9-4z"/><path id="Path_861" data-name="Path 861" class="cls-1" d="M107.9 434.7L86 447.4l-3.1 1.8a5.06 5.06 0 0 0 0 8.7l1.4.8 91.4 52.8 39.6 22.9"/><path id="Path_862" data-name="Path 862" class="cls-1" d="M67.9 434.7L46 447.4l-3.1 1.8a5.06 5.06 0 0 0 0 8.7l1.4.8 91.4 52.8 59.7 34.5"/></g></svg>