<svg id="Layer_1" xmlns="http://www.w3.org/2000/svg" xmlns:xlink="http://www.w3.org/1999/xlink" viewBox="0 0 1170.3 336"><style>.st0{fill:none}.st3{fill:#26c6ec}.st7{fill:#ff859e}.st8{fill:none;stroke:#fff;stroke-width:5;stroke-linecap:round;stroke-linejoin:round;stroke-dasharray:9.500000e-02,9.501}.st9{fill:#24caee}.st10{fill:#25c8ed}.st11{enable-background:new}.st12{fill:#fff}</style><pattern y="336" width="904" height="221" patternUnits="userSpaceOnUse" id="pattern" viewBox="0 -221 904 221" overflow="visible"><path class="st0" d="M0-221h904V0H0z"/></pattern><pattern y="336" width="900" height="221" patternUnits="userSpaceOnUse" id="pattern-2" viewBox="0 -221 900 221" overflow="visible"><path class="st0" d="M0-221h900V0H0z"/></pattern><linearGradient id="_x32_11_1_" gradientUnits="userSpaceOnUse" x1="85.218" y1="666.622" x2="85.218" y2="665.643" gradientTransform="matrix(301.6 0 0 -140.242 -24718.943 93613.016)"><stop offset="0" stop-color="#26c6ec"/><stop offset=".115" stop-color="#26c6ec"/><stop offset="1" stop-color="#100053"/></linearGradient><path id="_x32_11" d="M832.1 260.8V146.2l18.1 7.5 15.1 13.6h16.6l6 6 10.6-12.1 25.6 10.6 28.7-10.6 18.1 12.1 24.1-12.1 12.1-21.1 18.1 15.1 19.6-33.2 22.6 43.7 28.7-36.2 18.1 21.1 19.6-5.9v117.5l-301.7-1.4z" opacity=".9" fill="url(#_x32_11_1_)"/><pattern id="_x39_82_1_" xlink:href="#pattern" patternTransform="matrix(.3599 0 0 -.3505 -4133.41 -10679.925)"/><path id="_x39_82" d="M820.7 114.3h325.4v77.4H820.7v-77.4z" opacity=".1" fill="url(#_x39_82_1_)"/><path class="st3" d="M887.7 176.6c-.8 0-1.5-.4-2-1l-4.7-6.2h-15c-.7 0-1.3-.3-1.8-.7L852 156.5l-19.4-8c-1.3-.5-1.9-2-1.4-3.3.5-1.3 2-1.9 3.3-1.4l19.9 8.1c.3.1.6.3.8.5l11.8 11.8h15.2c.8 0 1.5.4 2 1l3.5 4.6 7-9.2c.7-.9 1.9-1.2 3-.8l26.9 11.3 26.9-12.2c.8-.4 1.7-.3 2.5.2l16.9 11.8 20.6-10.8 14.3-20.9c.4-.6 1-1 1.7-1.1.7-.1 1.4.1 1.9.6l15.8 13.2 18.1-30.6c.5-.8 1.3-1.3 2.3-1.2.9 0 1.7.6 2.1 1.4l19.4 40.1 27.7-36c.5-.6 1.2-1 2-1s1.5.4 2 1l17 22.7 16.4-5.5c1.3-.4 2.7.3 3.2 1.6.4 1.3-.3 2.7-1.6 3.2l-18.1 6c-1 .3-2.1 0-2.8-.9l-16.1-21.5-28.2 36.6c-.5.7-1.4 1-2.2 1-.9-.1-1.6-.6-2-1.4l-19.1-39.5-17.2 29.2c-.4.6-1 1.1-1.7 1.2-.7.1-1.5-.1-2-.5l-16-13.3-13.1 19.1c-.2.3-.5.6-.9.8l-22.5 11.8c-.8.4-1.8.4-2.6-.2l-16.9-11.8-26.6 12.1c-.6.3-1.4.3-2 0l-26.1-11-7.9 10.2c-.6.8-1.3 1.1-2.1 1.1z"/><linearGradient id="_x32_13_1_" gradientUnits="userSpaceOnUse" x1="85.218" y1="666.622" x2="85.218" y2="665.643" gradientTransform="matrix(301.71 0 0 -140.242 -25534.762 93613.016)"><stop offset="0" stop-color="#26c6ec"/><stop offset=".115" stop-color="#26c6ec"/><stop offset="1" stop-color="#100053"/></linearGradient><path id="_x32_13" d="M25.6 260.8V146.2l18.1 7.5 15.1 13.6h16.6l6 6L92 161.2l25.6 10.6 28.7-10.6 18.1 12.1 24.1-12.1 12.1-21.1 18.1 15.1 19.6-33.2 22.6 43.7 28.7-36.2 18.1 21.1 19.7-6.3-.1 117.9-301.7-1.4z" opacity=".9" fill="url(#_x32_13_1_)"/><path id="_x32_14" d="M28.3 48.4v96.1l20 8.4 12.4 11.6 15.8.9 4.5 4.5 9.1-8.6 27.9 10.6 28.2-11.3 17.7 11 22-11 15.8-21 17.9 13.4 20.3-31.2 21.5 41.9 30-37.1 18.5 24.1 17.1-5.9-.5-97.1-298.2.7z" opacity=".3" fill="#ff7676"/><pattern id="_x39_92_1_" xlink:href="#pattern-2" patternTransform="matrix(.3615 0 0 -.3505 -4927.95 -10679.925)"/><path id="_x39_92" d="M14 114.3h325.4v77.4H14v-77.4z" opacity=".1" fill="url(#_x39_92_1_)"/><path class="st3" d="M118.2 176.6c-.3 0-.7-.1-1-.2l-26.3-11-7.7 10.2c-.5.6-1.2 1-2 1s-1.5-.4-2-1l-4.7-6.2h-15c-.7 0-1.3-.3-1.8-.7l-12.3-12.2-19.3-8c-1.3-.5-1.9-2-1.4-3.3.5-1.3 2-1.9 3.3-1.4l19.8 8.1c.3.1.6.3.8.5l11.9 11.8h15.3c.8 0 1.5.4 2 1l3.4 4.6 6.9-9.1c.7-.9 1.9-1.2 3-.8l27 11.3L145 159c.8-.4 1.8-.3 2.5.2l16.7 11.8 20.7-10.8 14.3-20.9c.4-.6 1-1 1.7-1.1.7-.1 1.4.1 1.9.6l15.8 13.2 18.1-30.6c.5-.8 1.3-1.3 2.3-1.2.9 0 1.7.6 2.1 1.4l19.4 40.1 27.7-36c.5-.6 1.2-1 2-1s1.5.4 2 1l17 22.7 16.4-5.5c1.3-.4 2.7.3 3.2 1.6.4 1.3-.3 2.7-1.6 3.2l-18.1 6c-1 .3-2.1 0-2.8-.9l-16.1-21.5-28.2 36.6c-.5.7-1.4 1-2.2 1-.9-.1-1.6-.6-2-1.4L238.7 128l-17.2 29.2c-.4.6-1 1.1-1.7 1.2-.7.1-1.5-.1-2-.5l-16-13.3-13.1 19.1c-.2.3-.5.6-.9.8l-22.6 11.8c-.8.4-1.8.4-2.6-.2l-16.8-11.8-26.6 12.1c-.3.2-.7.2-1 .2z"/><path class="st7" d="M326 50H27.6c-1.4 0-2.5-1.1-2.5-2.5s1.1-2.5 2.5-2.5H326c1.4 0 2.5 1.1 2.5 2.5S327.4 50 326 50zM1132.6 49.5h-6.2c-1.4 0-2.5-1.1-2.5-2.5s1.1-2.5 2.5-2.5h6.2c1.4 0 2.5 1.1 2.5 2.5s-1.2 2.5-2.5 2.5zm-16.6 0h-6.2c-1.4 0-2.5-1.1-2.5-2.5s1.1-2.5 2.5-2.5h6.2c1.4 0 2.5 1.1 2.5 2.5s-1.2 2.5-2.5 2.5zm-16.7 0h-6.2c-1.4 0-2.5-1.1-2.5-2.5s1.1-2.5 2.5-2.5h6.2c1.4 0 2.5 1.1 2.5 2.5s-1.1 2.5-2.5 2.5zm-16.6 0h-6.2c-1.4 0-2.5-1.1-2.5-2.5s1.1-2.5 2.5-2.5h6.2c1.4 0 2.5 1.1 2.5 2.5s-1.1 2.5-2.5 2.5zm-16.6 0h-6.2c-1.4 0-2.5-1.1-2.5-2.5s1.1-2.5 2.5-2.5h6.2c1.4 0 2.5 1.1 2.5 2.5s-1.1 2.5-2.5 2.5zm-16.6 0h-6.2c-1.4 0-2.5-1.1-2.5-2.5s1.1-2.5 2.5-2.5h6.2c1.4 0 2.5 1.1 2.5 2.5s-1.1 2.5-2.5 2.5zm-16.6 0h-6.2c-1.4 0-2.5-1.1-2.5-2.5s1.1-2.5 2.5-2.5h6.2c1.4 0 2.5 1.1 2.5 2.5s-1.1 2.5-2.5 2.5zm-16.6 0h-6.2c-1.4 0-2.5-1.1-2.5-2.5s1.1-2.5 2.5-2.5h6.2c1.4 0 2.5 1.1 2.5 2.5s-1.1 2.5-2.5 2.5zm-16.6 0h-6.2c-1.4 0-2.5-1.1-2.5-2.5s1.1-2.5 2.5-2.5h6.2c1.4 0 2.5 1.1 2.5 2.5s-1.1 2.5-2.5 2.5zm-16.6 0h-6.2c-1.4 0-2.5-1.1-2.5-2.5s1.1-2.5 2.5-2.5h6.2c1.4 0 2.5 1.1 2.5 2.5s-1.1 2.5-2.5 2.5zm-16.6 0h-6.2c-1.4 0-2.5-1.1-2.5-2.5s1.1-2.5 2.5-2.5h6.2c1.4 0 2.5 1.1 2.5 2.5s-1.1 2.5-2.5 2.5zm-16.6 0h-6.2c-1.4 0-2.5-1.1-2.5-2.5s1.1-2.5 2.5-2.5h6.2c1.4 0 2.5 1.1 2.5 2.5s-1.1 2.5-2.5 2.5zm-16.6 0h-6.2c-1.4 0-2.5-1.1-2.5-2.5s1.1-2.5 2.5-2.5h6.2c1.4 0 2.5 1.1 2.5 2.5s-1.1 2.5-2.5 2.5zm-16.6 0h-6.2c-1.4 0-2.5-1.1-2.5-2.5s1.1-2.5 2.5-2.5h6.2c1.4 0 2.5 1.1 2.5 2.5s-1.1 2.5-2.5 2.5zm-16.6 0h-6.2c-1.4 0-2.5-1.1-2.5-2.5s1.1-2.5 2.5-2.5h6.2c1.4 0 2.5 1.1 2.5 2.5s-1.1 2.5-2.5 2.5zm-16.6 0h-6.2c-1.4 0-2.5-1.1-2.5-2.5s1.1-2.5 2.5-2.5h6.2c1.4 0 2.5 1.1 2.5 2.5s-1.1 2.5-2.5 2.5zm-16.6 0h-6.2c-1.4 0-2.5-1.1-2.5-2.5s1.1-2.5 2.5-2.5h6.2c1.4 0 2.5 1.1 2.5 2.5s-1.1 2.5-2.5 2.5zm-16.6 0h-6.2c-1.4 0-2.5-1.1-2.5-2.5s1.1-2.5 2.5-2.5h6.2c1.4 0 2.5 1.1 2.5 2.5s-1.1 2.5-2.5 2.5z"/><path id="_x35_" class="st8" d="M729.3 200.3l78.7 12.2"/><path id="_x35_2" class="st8" d="M438.9 100.5l-78.7-12.2"/><path id="_x35_3" class="st8" d="M729.6 100.5l78.1-15.4"/><path id="_x35_4" class="st8" d="M438.6 200.2l-78.1 15.4"/><path id="_x32_16" class="st9" d="M685.8 111.1c6.1 0 11.1-4.9 11.2-11V55.6c0-6.1-5-11.1-11.1-11.2H486.3c-6.1 0-11.1 5-11.2 11.1V100c0 6.1 4.9 11 11 11H497.5v11h-11.2c-6.1 0-11.1 4.9-11.2 11v44.3c0 6.1 4.9 11 11 11H497.5v11.2h177.2v-11.2h11.2c6.1 0 11.1-4.9 11.2-11v-44c0-6.1-4.9-11-11-11H674.7v-11h11.2v-.2zM482.5 100V55.6c0-2 1.6-3.6 3.6-3.6h199.7c2 0 3.7 1.6 3.8 3.6V100c0 2-1.6 3.6-3.6 3.6H486.3c-1.9.1-3.6-1.3-3.8-3.3v-.3zm36.9 22.1v-11h133v11h-133zm-14.7-11h7.4v11h-7.4v-11zm0 77.5h7.4v10.9h-7.4v-10.9zm147.8 0v10.9h-133v-10.9h133zm14.7 10.9h-7.3l-.1-10.9h7.4v10.9zm22.2-66.2v44.3c0 2.1-1.6 3.7-3.7 3.8H486.3c-2.1 0-3.7-1.6-3.8-3.7v-44.4c0-2 1.6-3.6 3.6-3.6h199.7c1.9-.1 3.5 1.4 3.6 3.3v.3zm-22.2-11.2h-7.4v-11h7.4v11z"/><path id="_x32_17" class="st7" d="M523.6 80.9h62.2c1.7 0 3.2-1.3 3.2-3.1 0-1.7-1.3-3.2-3.1-3.2H523.6c-1.7-4.8-7-7.4-11.8-5.7-4.8 1.7-7.4 7-5.7 11.8 1.7 4.8 7 7.4 11.8 5.7 2.7-.8 4.7-2.9 5.7-5.5zm-11.8-3.1c0-1.7 1.4-3 3.1-3 1.7 0 3 1.4 3 3.1 0 1.7-1.4 3-3.1 3-1.7 0-3.1-1.4-3-3.1z"/><path id="_x31_01" class="st7" d="M641.3 62.6h.1c1.7 0 3 1.3 3 3v.1c0 1.7-1.3 3-3 3h-.1c-1.7 0-3-1.3-3-3v-.1c0-1.7 1.4-3 3-3z"/><path id="_x31_02" class="st7" d="M653.5 62.6h.1c1.7 0 3 1.3 3 3v.1c0 1.7-1.3 3-3 3h-.1c-1.7 0-3-1.3-3-3v-.1c0-1.7 1.4-3 3-3z"/><path id="_x31_03" class="st7" d="M665.8 62.6h.1c1.7 0 3 1.3 3 3v.1c0 1.7-1.3 3-3 3h-.1c-1.7 0-3-1.3-3-3v-.1c0-1.7 1.3-3 3-3z"/><path id="_x31_04" class="st7" d="M629.1 62.6h.1c1.7 0 3 1.3 3 3v.1c0 1.7-1.3 3-3 3h-.1c-1.7 0-3-1.3-3-3v-.1c0-1.7 1.3-3 3-3z"/><path id="_x31_05" class="st7" d="M616.9 62.6h.1c1.7 0 3 1.3 3 3v.1c0 1.7-1.3 3-3 3h-.1c-1.7 0-3-1.3-3-3v-.1c0-1.7 1.3-3 3-3z"/><path id="_x31_06" class="st7" d="M641.3 74.8h.1c1.7 0 3 1.3 3 3v.1c0 1.7-1.3 3-3 3h-.1c-1.7 0-3-1.3-3-3v-.1c0-1.6 1.4-3 3-3z"/><path id="_x31_07" class="st7" d="M653.5 74.8h.1c1.7 0 3 1.3 3 3v.1c0 1.7-1.3 3-3 3h-.1c-1.7 0-3-1.3-3-3v-.1c0-1.6 1.4-3 3-3z"/><path id="_x31_08" class="st7" d="M665.8 74.8h.1c1.7 0 3 1.3 3 3v.1c0 1.7-1.3 3-3 3h-.1c-1.7 0-3-1.3-3-3v-.1c0-1.6 1.3-3 3-3z"/><path id="_x31_09" class="st7" d="M629.1 74.8h.1c1.7 0 3 1.3 3 3v.1c0 1.7-1.3 3-3 3h-.1c-1.7 0-3-1.3-3-3v-.1c0-1.6 1.3-3 3-3z"/><path id="_x31_10" class="st7" d="M616.9 74.8h.1c1.7 0 3 1.3 3 3v.1c0 1.7-1.3 3-3 3h-.1c-1.7 0-3-1.3-3-3v-.1c0-1.6 1.3-3 3-3z"/><path id="_x31_11" class="st7" d="M641.3 87h.1c1.7 0 3 1.3 3 3v.1c0 1.7-1.3 3-3 3h-.1c-1.7 0-3-1.3-3-3V90c0-1.6 1.4-3 3-3z"/><path id="_x31_12" class="st7" d="M653.5 87h.1c1.7 0 3 1.3 3 3v.1c0 1.7-1.3 3-3 3h-.1c-1.7 0-3-1.3-3-3V90c0-1.6 1.4-3 3-3z"/><path id="_x31_13" class="st7" d="M665.8 87h.1c1.7 0 3 1.3 3 3v.1c0 1.7-1.3 3-3 3h-.1c-1.7 0-3-1.3-3-3V90c0-1.6 1.3-3 3-3z"/><path id="_x31_14" class="st7" d="M629.1 87h.1c1.7 0 3 1.3 3 3v.1c0 1.7-1.3 3-3 3h-.1c-1.7 0-3-1.3-3-3V90c0-1.6 1.3-3 3-3z"/><path id="_x31_15" class="st7" d="M616.9 87h.1c1.7 0 3 1.3 3 3v.1c0 1.7-1.3 3-3 3h-.1c-1.7 0-3-1.3-3-3V90c0-1.6 1.3-3 3-3z"/><path id="_x32_18" class="st7" d="M585.6 152.3h-62.2c-1.7-4.8-7-7.4-11.8-5.7-4.8 1.7-7.4 7-5.7 11.8 1.7 4.8 7 7.4 11.8 5.7 2.6-.9 4.7-3 5.7-5.7h62.2c1.7 0 3.1-1.3 3.1-3s-1.4-3.1-3.1-3.1zm-70.7 6.2c-1.6 0-3-1.3-3-2.9v-.1c0-1.7 1.3-3.1 3-3.1s3.1 1.3 3.2 3c0 1.7-1.3 3.1-3 3.2-.1-.1-.2-.1-.2-.1z"/><path id="_x31_16" class="st7" d="M641.3 140.1h.1c1.7 0 3 1.3 3 3v.1c0 1.7-1.3 3-3 3h-.1c-1.7 0-3-1.3-3-3v-.1c0-1.6 1.4-3 3-3z"/><path id="_x31_17" class="st7" d="M653.5 140.1h.1c1.7 0 3 1.3 3 3v.1c0 1.7-1.3 3-3 3h-.1c-1.7 0-3-1.3-3-3v-.1c0-1.6 1.4-3 3-3z"/><path id="_x31_18" class="st7" d="M665.8 140.1h.1c1.7 0 3 1.3 3 3v.1c0 1.7-1.3 3-3 3h-.1c-1.7 0-3-1.3-3-3v-.1c0-1.6 1.3-3 3-3z"/><path id="_x31_19" class="st7" d="M629.1 140.1h.1c1.7 0 3 1.3 3 3v.1c0 1.7-1.3 3-3 3h-.1c-1.7 0-3-1.3-3-3v-.1c0-1.6 1.3-3 3-3z"/><path id="_x31_20" class="st7" d="M616.9 140.1h.1c1.7 0 3 1.3 3 3v.1c0 1.7-1.3 3-3 3h-.1c-1.7 0-3-1.3-3-3v-.1c0-1.6 1.3-3 3-3z"/><path id="_x31_21" class="st7" d="M641.3 152.3h.1c1.7 0 3 1.3 3 3v.1c0 1.7-1.3 3-3 3h-.1c-1.7 0-3-1.3-3-3v-.1c0-1.6 1.4-3 3-3z"/><path id="_x31_22" class="st7" d="M653.5 152.3h.1c1.7 0 3 1.3 3 3v.1c0 1.7-1.3 3-3 3h-.1c-1.7 0-3-1.3-3-3v-.1c0-1.6 1.4-3 3-3z"/><path id="_x31_23" class="st7" d="M665.8 152.3h.1c1.7 0 3 1.3 3 3v.1c0 1.7-1.3 3-3 3h-.1c-1.7 0-3-1.3-3-3v-.1c0-1.6 1.3-3 3-3z"/><path id="_x31_24" class="st7" d="M629.1 152.3h.1c1.7 0 3 1.3 3 3v.1c0 1.7-1.3 3-3 3h-.1c-1.7 0-3-1.3-3-3v-.1c0-1.6 1.3-3 3-3z"/><path id="_x31_25" class="st7" d="M616.9 152.3h.1c1.7 0 3 1.3 3 3v.1c0 1.7-1.3 3-3 3h-.1c-1.7 0-3-1.3-3-3v-.1c0-1.6 1.3-3 3-3z"/><path id="_x31_26" class="st7" d="M641.3 164.6h.1c1.7 0 3 1.3 3 3v.1c0 1.7-1.3 3-3 3h-.1c-1.7 0-3-1.3-3-3v-.1c0-1.7 1.4-3 3-3z"/><path id="_x31_27" class="st7" d="M653.5 164.6h.1c1.7 0 3 1.3 3 3v.1c0 1.7-1.3 3-3 3h-.1c-1.7 0-3-1.3-3-3v-.1c0-1.7 1.4-3 3-3z"/><path id="_x31_28" class="st7" d="M665.8 164.6h.1c1.7 0 3 1.3 3 3v.1c0 1.7-1.3 3-3 3h-.1c-1.7 0-3-1.3-3-3v-.1c0-1.7 1.3-3 3-3z"/><path id="_x31_29" class="st7" d="M629.1 164.6h.1c1.7 0 3 1.3 3 3v.1c0 1.7-1.3 3-3 3h-.1c-1.7 0-3-1.3-3-3v-.1c0-1.7 1.3-3 3-3z"/><path id="_x31_30" class="st7" d="M616.9 164.6h.1c1.7 0 3 1.3 3 3v.1c0 1.7-1.3 3-3 3h-.1c-1.7 0-3-1.3-3-3v-.1c0-1.7 1.3-3 3-3z"/><path id="_x32_20" class="st3" d="M674.6 265.5h11.2c6.1 0 11.1-5 11.2-11.1V210c0-6.1-5-11.1-11.1-11.2H486.1c-6.1 0-11.1 5-11.2 11.1v44.4c0 6.1 5 11.1 11.1 11.2h188.6zm14.8-55.3v44.3c0 2-1.6 3.6-3.6 3.6H486.3c-2 0-3.7-1.6-3.8-3.6v-44.3c0-2 1.6-3.6 3.6-3.6h199.7c1.9-.1 3.5 1.4 3.6 3.3v.3z"/><path id="_x32_21" class="st7" d="M585.6 229.2h-62.2c-1.7-4.8-7-7.4-11.8-5.7s-7.4 7-5.7 11.8c1.7 4.8 7 7.4 11.8 5.7 2.6-.9 4.7-3 5.7-5.7h62.2c1.7 0 3.1-1.3 3.2-3s-1.3-3.1-3-3.2c-.1.1-.1.1-.2.1zm-70.7 6.2c-1.7 0-3-1.4-3-3s1.4-3 3-3c1.7 0 3.1 1.3 3.1 3-.1 1.6-1.5 2.9-3.1 3z"/><path id="_x31_46" class="st7" d="M641.3 217h.1c1.7 0 3 1.3 3 3v.1c0 1.7-1.3 3-3 3h-.1c-1.7 0-3-1.3-3-3v-.1c0-1.6 1.4-3 3-3z"/><path id="_x31_47" class="st7" d="M653.5 217h.1c1.7 0 3 1.3 3 3v.1c0 1.7-1.3 3-3 3h-.1c-1.7 0-3-1.3-3-3v-.1c0-1.6 1.4-3 3-3z"/><path id="_x31_48" class="st7" d="M665.7 217h.1c1.7 0 3 1.3 3 3v.1c0 1.7-1.3 3-3 3h-.1c-1.7 0-3-1.3-3-3v-.1c0-1.6 1.4-3 3-3z"/><path id="_x31_49" class="st7" d="M629.1 217h.1c1.7 0 3 1.3 3 3v.1c0 1.7-1.3 3-3 3h-.1c-1.7 0-3-1.3-3-3v-.1c0-1.6 1.3-3 3-3z"/><path id="_x31_50" class="st7" d="M616.9 217h.1c1.7 0 3 1.3 3 3v.1c0 1.7-1.3 3-3 3h-.1c-1.7 0-3-1.3-3-3v-.1c0-1.6 1.3-3 3-3z"/><path id="_x31_51" class="st7" d="M641.3 229.2h.1c1.7 0 3 1.3 3 3v.1c0 1.7-1.3 3-3 3h-.1c-1.7 0-3-1.3-3-3v-.1c0-1.6 1.4-3 3-3z"/><path id="_x31_52" class="st7" d="M653.5 229.2h.1c1.7 0 3 1.3 3 3v.1c0 1.7-1.3 3-3 3h-.1c-1.7 0-3-1.3-3-3v-.1c0-1.6 1.4-3 3-3z"/><path id="_x31_53" class="st7" d="M665.7 229.2h.1c1.7 0 3 1.3 3 3v.1c0 1.7-1.3 3-3 3h-.1c-1.7 0-3-1.3-3-3v-.1c0-1.6 1.4-3 3-3z"/><path id="_x31_54" class="st7" d="M629.1 229.2h.1c1.7 0 3 1.3 3 3v.1c0 1.7-1.3 3-3 3h-.1c-1.7 0-3-1.3-3-3v-.1c0-1.6 1.3-3 3-3z"/><path id="_x31_55" class="st7" d="M616.9 229.2h.1c1.7 0 3 1.3 3 3v.1c0 1.7-1.3 3-3 3h-.1c-1.7 0-3-1.3-3-3v-.1c0-1.6 1.3-3 3-3z"/><path id="_x31_56" class="st7" d="M641.3 241.5h.1c1.7 0 3 1.3 3 3v.1c0 1.7-1.3 3-3 3h-.1c-1.7 0-3-1.3-3-3v-.1c0-1.7 1.4-3 3-3z"/><path id="_x31_57" class="st7" d="M653.5 241.5h.1c1.7 0 3 1.3 3 3v.1c0 1.7-1.3 3-3 3h-.1c-1.7 0-3-1.3-3-3v-.1c0-1.7 1.4-3 3-3z"/><path id="_x31_58" class="st7" d="M665.7 241.5h.1c1.7 0 3 1.3 3 3v.1c0 1.7-1.3 3-3 3h-.1c-1.7 0-3-1.3-3-3v-.1c0-1.7 1.4-3 3-3z"/><path id="_x31_59" class="st7" d="M629.1 241.5h.1c1.7 0 3 1.3 3 3v.1c0 1.7-1.3 3-3 3h-.1c-1.7 0-3-1.3-3-3v-.1c0-1.7 1.3-3 3-3z"/><path id="_x31_60" class="st7" d="M616.9 241.5h.1c1.7 0 3 1.3 3 3v.1c0 1.7-1.3 3-3 3h-.1c-1.7 0-3-1.3-3-3v-.1c0-1.7 1.3-3 3-3z"/><path id="_x32_22" class="st10" d="M833.1 278.9h-.5c-1.9 0-3.4-1.6-3.5-3.5V9.5c0-1.9 1.6-3.4 3.5-3.5h.5c1.9 0 3.4 1.5 3.5 3.4v266c0 1.9-1.5 3.5-3.5 3.5z"/><path id="_x32_24" class="st9" d="M815.5 261.9v-.5c0-1.9 1.4-3.4 3.3-3.5h314.4c1.9.1 3.3 1.6 3.3 3.5v.5c.1 1.8-1.3 3.4-3.2 3.5H818.9c-1.9-.1-3.4-1.6-3.4-3.5z"/><path id="_x32_25" class="st9" d="M26.6 278.9h-.5c-1.9 0-3.5-1.6-3.5-3.5V9.5c-.1-1.8 1.2-3.3 2.9-3.5h.9c1.9-.1 3.5 1.4 3.6 3.3V275.4c.2 1.9-1.4 3.5-3.4 3.5z"/><path id="_x32_27" class="st9" d="M9 261.9v-.5c-.1-1.8 1.3-3.4 3.2-3.5H326.4c1.9.1 3.3 1.6 3.3 3.5v.5c0 1.9-1.4 3.4-3.3 3.5H12.3c-1.9-.1-3.3-1.6-3.3-3.5z"/><path class="st3" d="M948.4 294.2c.3-.6.5-1.3.5-2 0-.5-.1-1-.3-1.5 2.1-1.1 3.5-3.3 3.4-5.8 0-.8-.8-1.5-1.6-1.4-.8 0-1.5.7-1.4 1.6.1 1.5-1 2.9-2.4 3.2-.7-.4-1.5-.6-2.3-.6-.7 0-1.4.2-2 .5-8.1-7.3-16.9-4.3-21-1.3-.1.1-.2.1-.2.2-.1.1-.3.2-.4.3-.9.8-1.4 2-1.4 3.3 0 .7.2 1.4.5 2-8.7 9.5-7 20.6-6.2 24-.5.7-.8 1.6-.8 2.6 0 2.5 2 4.6 4.6 4.6.8 0 1.5-.2 2.2-.6 1.1.3 3.4.7 6.4.7 5 0 11.8-1.3 17.9-6.9.6.3 1.3.5 2 .5 1.4 0 2.6-.6 3.5-1.6 3.1-3.9 6.9-13.2-1-21.8zm-4-3.5c.9 0 1.6.7 1.6 1.6s-.7 1.6-1.6 1.6-1.6-.7-1.6-1.6.7-1.6 1.6-1.6zm-4.1-.4c-.3.6-.4 1.2-.4 1.9 0 2.5 2 4.6 4.6 4.6.7 0 1.4-.2 1.9-.5 4.7 5.2 4.2 10.3 2.9 13.7-.8-1-2-1.6-3.4-1.6-.5 0-1.1.1-1.6.3-4.3-10-12.5-14.7-16.2-16.4.2-.5.3-1.1.3-1.6 0-1.3-.6-2.5-1.5-3.3 3.4-1.2 8.3-1.6 13.4 2.9zm-18 .4c0-.4.2-.8.4-1.1.1-.1.2-.2.4-.3.2-.1.5-.2.7-.2.9 0 1.6.7 1.6 1.6s-.7 1.6-1.6 1.6-1.5-.7-1.5-1.6zm-5 30.1c-.9 0-1.6-.7-1.6-1.6s.7-1.6 1.6-1.6 1.6.7 1.6 1.6-.8 1.6-1.6 1.6zm4.3-.2c.1-.4.2-.9.2-1.3 0-2.5-2-4.6-4.6-4.6-.4 0-.7.1-1 .1-.7-3.8-1.2-12.5 5.7-20.1.6.3 1.2.4 1.9.4.8 0 1.5-.2 2.1-.5 2.5 1 11.8 5.5 15.9 16.1-.4.7-.6 1.4-.6 2.2 0 .7.2 1.3.4 1.9-7.5 7-16.2 6.5-20 5.8zm24.2-6c-.9 0-1.6-.7-1.6-1.6s.7-1.6 1.6-1.6 1.6.7 1.6 1.6-.8 1.6-1.6 1.6z"/><g class="st11"><path class="st10" d="M5.9 189.5c-.7 0-1.2-.5-1.2-1.2v-3.9c0-1.4.4-2.5 1.1-3.3.6-.6 1.5-1 2.6-1 1.8 0 2.8.9 3.4 2.2l2.1-1.7c.3-.2.6-.4.9-.4.7 0 1.1.6 1.1 1.2s-.3.9-.6 1.2l-3 2.4v2h2.4c.7 0 1.2.5 1.2 1.2s-.5 1.2-1.2 1.2H5.9zm4.2-4.9c0-1.2-.6-1.9-1.6-1.9-1.1 0-1.6.7-1.6 1.9v2.4h3.2v-2.4zM16 174.3c0 2.6-1.8 4.5-4.4 4.5-2.4 0-4.5-1.7-4.5-4.2 0-2.9 2.4-4.1 4.1-4.1.7 0 1.2.5 1.2 1.1v4.8c1.1-.2 1.7-1 1.7-2.1 0-.7-.2-1.2-.6-1.7-.1-.2-.2-.3-.2-.6 0-.5.4-.9 1-.9.3 0 .6.1.7.3.6.7 1 1.7 1 2.9zm-5.1-1.6c-1.1.1-1.8.8-1.8 1.8s.7 1.7 1.8 1.9v-3.7zM15 168.8c-.2.3-.4.5-.8.5-.5 0-1-.4-1-1 0-.2 0-.4.1-.5.5-.8.8-1.6.8-2.3 0-.7-.3-1-.6-1-.5 0-.7.8-1 1.8-.4 1.2-.9 2.6-2.6 2.6-1.7 0-2.7-1.4-2.7-3.1 0-.9.2-1.8.7-2.7.2-.4.5-.6.9-.6.5 0 1 .4 1 1 0 .2 0 .3-.1.4-.3.7-.5 1.3-.5 1.9 0 .6.3.9.6.9.5 0 .7-.8 1-1.7.4-1.2 1-2.6 2.5-2.6 1.9 0 2.8 1.4 2.8 3.3-.1.9-.4 2-1.1 3.1zM11.6 160.9c-2.5 0-4.5-2-4.5-4.7s2-4.6 4.4-4.6c2.5 0 4.5 2 4.5 4.7s-1.9 4.6-4.4 4.6zm0-6.8c-1.3 0-2.4.9-2.4 2.3s1.1 2.2 2.3 2.2c1.3 0 2.4-.9 2.4-2.3s-1-2.2-2.3-2.2zM14.7 142.1c.7 0 1.2.5 1.2 1.2s-.5 1.2-1.2 1.2h-.1c.7.6 1.4 1.3 1.4 2.5 0 1.8-1.2 2.9-3.2 2.9H8.4c-.7 0-1.2-.5-1.2-1.2s.5-1.2 1.2-1.2h3.7c1.2 0 1.7-.5 1.7-1.5 0-.9-.6-1.5-1.7-1.5H8.4c-.7 0-1.2-.5-1.2-1.2s.5-1.2 1.2-1.2h6.3zM8.4 139.9c-.7 0-1.2-.5-1.2-1.2s.5-1.2 1.2-1.2h.4c-.8-.4-1.6-.9-1.6-1.6 0-.8.5-1.2 1.2-1.2.6 0 1 .4 1.1.9.3 1.2 1.2 1.9 3 1.9h2.3c.7 0 1.2.5 1.2 1.2s-.5 1.2-1.2 1.2H8.4zM11.6 133.9c-2.5 0-4.5-1.9-4.5-4.5 0-1.3.4-2.2 1-2.9.1-.2.4-.4.8-.4.6 0 1.1.5 1.1 1.1 0 .3-.1.6-.2.7-.3.4-.5.9-.5 1.5 0 1.2 1.1 2.1 2.3 2.1 1.3 0 2.4-.8 2.4-2.2 0-.6-.2-1.1-.6-1.6-.1-.1-.2-.4-.2-.7 0-.6.5-1 1-1 .3 0 .6.1.8.4.7.7 1.1 1.6 1.1 3-.1 2.6-2 4.5-4.5 4.5zM16 120.5c0 2.6-1.8 4.5-4.4 4.5-2.4 0-4.5-1.7-4.5-4.2 0-2.9 2.4-4.1 4.1-4.1.7 0 1.2.5 1.2 1.1v4.8c1.1-.2 1.7-1 1.7-2.1 0-.7-.2-1.2-.6-1.7-.1-.2-.2-.3-.2-.6 0-.5.4-.9 1-.9.3 0 .6.1.7.3.6.7 1 1.7 1 2.9zm-5.1-1.5c-1.1.1-1.8.8-1.8 1.8s.7 1.7 1.8 1.9V119zM15 115c-.2.3-.4.5-.8.5-.5 0-1-.4-1-1 0-.2 0-.4.1-.5.5-.8.8-1.6.8-2.3 0-.7-.3-1-.6-1-.5 0-.7.8-1 1.8-.4 1.2-.9 2.6-2.6 2.6-1.7 0-2.7-1.4-2.7-3.1 0-.9.2-1.8.7-2.7.2-.4.5-.6.9-.6.5 0 1 .4 1 1 0 .2 0 .3-.1.4-.3.7-.5 1.3-.5 1.9 0 .6.3.9.6.9.5 0 .7-.8 1-1.7.4-1.2 1-2.6 2.5-2.6 1.9 0 2.8 1.4 2.8 3.3-.1.9-.4 2.1-1.1 3.1z"/></g><g class="st11"><path class="st10" d="M812.9 189.5c-.7 0-1.2-.5-1.2-1.2v-3.9c0-1.4.4-2.5 1.1-3.3.6-.6 1.5-1 2.6-1 1.8 0 2.8.9 3.4 2.2l2.1-1.7c.3-.2.6-.4.9-.4.7 0 1.1.6 1.1 1.2s-.3.9-.6 1.2l-3 2.4v2h2.4c.7 0 1.2.5 1.2 1.2s-.5 1.2-1.2 1.2h-8.8zm4.2-4.9c0-1.2-.6-1.9-1.6-1.9-1.1 0-1.6.7-1.6 1.9v2.4h3.2v-2.4zM823 174.3c0 2.6-1.8 4.5-4.4 4.5-2.4 0-4.5-1.7-4.5-4.2 0-2.9 2.4-4.1 4.1-4.1.7 0 1.2.5 1.2 1.1v4.8c1.1-.2 1.7-1 1.7-2.1 0-.7-.2-1.2-.6-1.7-.1-.2-.2-.3-.2-.6 0-.5.4-.9 1-.9.3 0 .6.1.7.3.6.7 1 1.7 1 2.9zm-5.1-1.6c-1.1.1-1.8.8-1.8 1.8s.7 1.7 1.8 1.9v-3.7zM822 168.8c-.2.3-.4.5-.8.5-.5 0-1-.4-1-1 0-.2 0-.4.1-.5.5-.8.8-1.6.8-2.3 0-.7-.3-1-.6-1-.5 0-.7.8-1 1.8-.4 1.2-.9 2.6-2.6 2.6-1.7 0-2.7-1.4-2.7-3.1 0-.9.2-1.8.7-2.7.2-.4.5-.6.9-.6.5 0 1 .4 1 1 0 .2 0 .3-.1.4-.3.7-.5 1.3-.5 1.9 0 .6.3.9.6.9.5 0 .7-.8 1-1.7.4-1.2 1-2.6 2.5-2.6 1.9 0 2.8 1.4 2.8 3.3-.1.9-.4 2-1.1 3.1zM818.6 160.9c-2.5 0-4.5-2-4.5-4.7s2-4.6 4.4-4.6c2.5 0 4.5 2 4.5 4.7s-1.9 4.6-4.4 4.6zm0-6.8c-1.3 0-2.4.9-2.4 2.3s1.1 2.2 2.3 2.2c1.3 0 2.4-.9 2.4-2.3s-1-2.2-2.3-2.2zM821.7 142.1c.7 0 1.2.5 1.2 1.2s-.5 1.2-1.2 1.2h-.1c.7.6 1.4 1.3 1.4 2.5 0 1.8-1.2 2.9-3.2 2.9h-4.4c-.7 0-1.2-.5-1.2-1.2s.5-1.2 1.2-1.2h3.7c1.2 0 1.7-.5 1.7-1.5 0-.9-.6-1.5-1.7-1.5h-3.7c-.7 0-1.2-.5-1.2-1.2s.5-1.2 1.2-1.2h6.3zM815.4 139.9c-.7 0-1.2-.5-1.2-1.2s.5-1.2 1.2-1.2h.4c-.8-.4-1.6-.9-1.6-1.6 0-.8.5-1.2 1.2-1.2.6 0 1 .4 1.1.9.3 1.2 1.2 1.9 3 1.9h2.3c.7 0 1.2.5 1.2 1.2s-.5 1.2-1.2 1.2h-6.4zM818.6 133.9c-2.5 0-4.5-1.9-4.5-4.5 0-1.3.4-2.2 1-2.9.1-.2.4-.4.8-.4.6 0 1.1.5 1.1 1.1 0 .3-.1.6-.2.7-.3.4-.5.9-.5 1.5 0 1.2 1.1 2.1 2.3 2.1 1.3 0 2.4-.8 2.4-2.2 0-.6-.2-1.1-.6-1.6-.1-.1-.2-.4-.2-.7 0-.6.5-1 1-1 .3 0 .6.1.8.4.7.7 1.1 1.6 1.1 3-.1 2.6-2 4.5-4.5 4.5zM823 120.5c0 2.6-1.8 4.5-4.4 4.5-2.4 0-4.5-1.7-4.5-4.2 0-2.9 2.4-4.1 4.1-4.1.7 0 1.2.5 1.2 1.1v4.8c1.1-.2 1.7-1 1.7-2.1 0-.7-.2-1.2-.6-1.7-.1-.2-.2-.3-.2-.6 0-.5.4-.9 1-.9.3 0 .6.1.7.3.6.7 1 1.7 1 2.9zm-5.1-1.5c-1.1.1-1.8.8-1.8 1.8s.7 1.7 1.8 1.9V119zM822 115c-.2.3-.4.5-.8.5-.5 0-1-.4-1-1 0-.2 0-.4.1-.5.5-.8.8-1.6.8-2.3 0-.7-.3-1-.6-1-.5 0-.7.8-1 1.8-.4 1.2-.9 2.6-2.6 2.6-1.7 0-2.7-1.4-2.7-3.1 0-.9.2-1.8.7-2.7.2-.4.5-.6.9-.6.5 0 1 .4 1 1 0 .2 0 .3-.1.4-.3.7-.5 1.3-.5 1.9 0 .6.3.9.6.9.5 0 .7-.8 1-1.7.4-1.2 1-2.6 2.5-2.6 1.9 0 2.8 1.4 2.8 3.3-.1.9-.4 2.1-1.1 3.1z"/></g><g class="st11"><path class="st10" d="M539.2 33l-3.6-4.9c-.2-.2-.3-.5-.3-.9 0-.7.5-1.2 1.2-1.2.6 0 .9.3 1.2.8l2.7 3.9 2.8-4c.3-.4.7-.7 1.2-.7.8 0 1.2.5 1.2 1.2 0 .3-.2.6-.3.9l-3.6 4.9v3.2c0 .7-.5 1.2-1.2 1.2s-1.2-.5-1.2-1.2V33zM545.5 33.1c0-2.5 2-4.5 4.7-4.5s4.6 2 4.6 4.4c0 2.5-2 4.5-4.7 4.5-2.6 0-4.6-1.9-4.6-4.4zm6.9 0c0-1.3-.9-2.4-2.3-2.4s-2.2 1.1-2.2 2.3c0 1.3.9 2.4 2.3 2.4s2.2-1 2.2-2.3zM564.4 36.2c0 .7-.5 1.2-1.2 1.2s-1.2-.5-1.2-1.2v-.1c-.6.7-1.3 1.4-2.5 1.4-1.8 0-2.9-1.2-2.9-3.2v-4.4c0-.7.5-1.2 1.2-1.2s1.2.5 1.2 1.2v3.7c0 1.2.5 1.7 1.5 1.7.9 0 1.5-.6 1.5-1.7v-3.7c0-.7.5-1.2 1.2-1.2s1.2.5 1.2 1.2v6.3zM566.5 29.9c0-.7.5-1.2 1.2-1.2s1.2.5 1.2 1.2v.4c.4-.8.9-1.6 1.6-1.6.8 0 1.2.5 1.2 1.2 0 .6-.4 1-.9 1.1-1.2.3-1.9 1.2-1.9 3v2.3c0 .7-.5 1.2-1.2 1.2s-1.2-.5-1.2-1.2v-6.4zM578.1 36.2c-.3-.2-.5-.5-.5-.9 0-.6.5-1.1 1.2-1.1.3 0 .5.1.7.2.8.6 1.8 1 2.9 1 1 0 1.6-.4 1.6-1.1 0-.6-.4-.9-2.3-1.4-2.3-.6-3.7-1.2-3.7-3.4 0-2 1.6-3.4 3.9-3.4 1.4 0 2.5.4 3.6 1 .3.2.5.5.5 1 0 .6-.5 1.1-1.2 1.1-.2 0-.4-.1-.6-.2-.8-.5-1.6-.8-2.4-.8-.9 0-1.4.4-1.4 1 0 .7.5 1 2.4 1.5 2.3.6 3.6 1.4 3.6 3.4 0 2.2-1.7 3.5-4.1 3.5-1.5-.1-3-.5-4.2-1.4zM592.3 37.5c-2.6 0-4.5-1.8-4.5-4.4 0-2.4 1.7-4.5 4.2-4.5 2.9 0 4.1 2.4 4.1 4.1 0 .7-.5 1.2-1.1 1.2h-4.8c.2 1.1 1 1.7 2.1 1.7.7 0 1.2-.2 1.7-.6.2-.1.3-.2.6-.2.5 0 .9.4.9 1 0 .3-.1.6-.3.7-.6.6-1.6 1-2.9 1zm1.6-5.1c-.1-1.1-.8-1.8-1.8-1.8s-1.7.7-1.9 1.8h3.7zM598.1 29.9c0-.7.5-1.2 1.2-1.2s1.2.5 1.2 1.2v.4c.4-.8.9-1.6 1.6-1.6.8 0 1.2.5 1.2 1.2 0 .6-.4 1-.9 1.1-1.2.3-1.9 1.2-1.9 3v2.3c0 .7-.5 1.2-1.2 1.2s-1.2-.5-1.2-1.2v-6.4zM608.4 37.5h-.1c-.7 0-1.1-.4-1.4-1.1l-2.6-6.1c-.1-.2-.1-.4-.1-.6 0-.6.5-1.1 1.2-1.1s1 .4 1.2.9l1.8 5 1.9-5c.2-.4.5-.8 1.1-.8s1.2.5 1.2 1.2c0 .2-.1.5-.1.6l-2.6 6.1c-.3.5-.8.9-1.5.9zM618 37.5c-2.6 0-4.5-1.8-4.5-4.4 0-2.4 1.7-4.5 4.2-4.5 2.9 0 4.1 2.4 4.1 4.1 0 .7-.5 1.2-1.1 1.2h-4.8c.2 1.1 1 1.7 2.1 1.7.7 0 1.2-.2 1.7-.6.2-.1.3-.2.6-.2.5 0 .9.4.9 1 0 .3-.1.6-.3.7-.7.6-1.7 1-2.9 1zm1.5-5.1c-.1-1.1-.8-1.8-1.8-1.8s-1.7.7-1.9 1.8h3.7zM623.7 29.9c0-.7.5-1.2 1.2-1.2s1.2.5 1.2 1.2v.4c.4-.8.9-1.6 1.6-1.6.8 0 1.2.5 1.2 1.2 0 .6-.4 1-.9 1.1-1.2.3-1.9 1.2-1.9 3v2.3c0 .7-.5 1.2-1.2 1.2s-1.2-.5-1.2-1.2v-6.4z"/></g><g class="st11"><path class="st7" d="M79.2 10.3c0-.9.7-1.7 1.7-1.7h4.6c3.7 0 5.9 2.2 5.9 5.3 0 3.6-2.8 5.4-6.2 5.4h-2.6v3.1c0 .9-.7 1.7-1.7 1.7s-1.7-.7-1.7-1.7V10.3zm6 6.1c1.7 0 2.7-1 2.7-2.3 0-1.5-1.1-2.3-2.8-2.3h-2.6v4.7h2.7zM92.6 20.6c0-2.6 2-3.8 4.8-3.8 1.2 0 2 .2 2.9.5v-.2c0-1.4-.9-2.2-2.5-2.2-.9 0-1.7.1-2.3.3-.2.1-.3.1-.5.1-.8 0-1.4-.6-1.4-1.4 0-.6.4-1.1.9-1.3 1.1-.4 2.2-.6 3.8-.6 1.8 0 3.1.5 4 1.3.9.9 1.3 2.2 1.3 3.8v5.4c0 .9-.7 1.6-1.6 1.6-1 0-1.6-.7-1.6-1.4-.8.9-1.9 1.5-3.6 1.5-2.4 0-4.2-1.3-4.2-3.6zm7.7-.8v-.6c-.6-.3-1.3-.4-2.1-.4-1.4 0-2.3.6-2.3 1.6 0 .9.7 1.4 1.8 1.4 1.5.1 2.6-.7 2.6-2zM106.7 27.3c-.5-.2-1.1-.6-1.1-1.4 0-.8.6-1.4 1.3-1.4.3 0 .4 0 .5.1.3.1.5.1.7.1.6 0 .9-.1 1.2-.7l.1-.3-4-9.3c-.1-.2-.2-.5-.2-.8 0-.9.7-1.6 1.7-1.6.8 0 1.3.5 1.6 1.3l2.6 6.9 2.5-6.8c.3-.7.7-1.3 1.6-1.3.9 0 1.6.7 1.6 1.5 0 .3-.1.6-.2.8l-4.1 9.9c-1 2.4-2 3.3-4 3.3-.7 0-1.2-.1-1.8-.3zM126.2 15.1h-.2c-.8 0-1.4-.6-1.4-1.4 0-.8.6-1.4 1.4-1.4h.1v-.7c0-1.3.3-2.2.9-2.9.6-.6 1.5-.9 2.7-.9.5 0 1 0 1.4.1.6.1 1.1.6 1.1 1.3s-.6 1.4-1.4 1.4h-.3c-.8 0-1.2.4-1.2 1.3v.5h1.5c.8 0 1.4.6 1.4 1.4 0 .8-.6 1.4-1.4 1.4h-1.4v7.4c0 .9-.7 1.7-1.7 1.7-.9 0-1.7-.7-1.7-1.7v-7.5zM133.2 18.2c0-3.4 2.7-6.2 6.4-6.2s6.4 2.7 6.4 6.1c0 3.4-2.7 6.1-6.4 6.1-3.7.1-6.4-2.6-6.4-6zm9.5 0c0-1.8-1.3-3.3-3.1-3.3-1.9 0-3.1 1.5-3.1 3.2 0 1.7 1.3 3.3 3.1 3.3 1.9 0 3.1-1.5 3.1-3.2zM148.4 13.7c0-.9.7-1.7 1.7-1.7s1.7.7 1.7 1.7v.5c.5-1.1 1.3-2.2 2.3-2.2 1 0 1.6.7 1.6 1.6 0 .9-.6 1.4-1.3 1.6-1.7.4-2.6 1.7-2.6 4.1v3.1c0 .9-.7 1.7-1.7 1.7s-1.7-.7-1.7-1.7v-8.7zM164.7 20.7v-5.6h-.1c-.8 0-1.4-.6-1.4-1.4s.6-1.4 1.4-1.4h.1v-1.5c0-.9.7-1.7 1.7-1.7.9 0 1.7.7 1.7 1.7v1.5h1.5c.8 0 1.4.6 1.4 1.4s-.6 1.4-1.4 1.4h-1.5v5c0 .8.3 1.1 1.1 1.1h.4c.7 0 1.4.6 1.4 1.4 0 .6-.4 1.1-.9 1.3-.6.2-1.2.3-1.9.3-2.1 0-3.5-.8-3.5-3.5zM173.3 9.5c0-.9.7-1.7 1.7-1.7s1.7.7 1.7 1.7v4.4c.8-1 1.8-1.9 3.5-1.9 2.5 0 4 1.7 4 4.4v6.1c0 .9-.7 1.7-1.7 1.7-.9 0-1.7-.7-1.7-1.7v-5c0-1.6-.7-2.4-2-2.4s-2.1.8-2.1 2.4v5c0 .9-.7 1.7-1.7 1.7s-1.7-.7-1.7-1.7v-13zM192.6 24.3c-3.5 0-6.2-2.5-6.2-6.1 0-3.4 2.4-6.1 5.8-6.1 3.9 0 5.7 3.2 5.7 5.7 0 1-.7 1.6-1.6 1.6h-6.6c.3 1.5 1.4 2.3 2.9 2.3.9 0 1.7-.3 2.4-.8.2-.2.5-.3.8-.3.7 0 1.3.6 1.3 1.3 0 .4-.2.8-.4 1-1 .8-2.4 1.4-4.1 1.4zm2.2-7.1c-.2-1.5-1.1-2.5-2.5-2.5s-2.3 1-2.6 2.5h5.1zM207.5 10.2c0-.9.7-1.7 1.7-1.7s1.7.7 1.7 1.7V21h6.3c.9 0 1.5.7 1.5 1.5s-.7 1.5-1.6 1.5h-8c-.9 0-1.7-.7-1.7-1.7V10.2zM220.7 9.4c0-1 .8-1.6 1.9-1.6s1.9.6 1.9 1.6-.8 1.6-1.9 1.6-1.9-.6-1.9-1.6zm.2 4.3c0-.9.7-1.7 1.7-1.7.9 0 1.7.7 1.7 1.7v8.7c0 .9-.7 1.7-1.7 1.7-.9 0-1.7-.7-1.7-1.7v-8.7zM227.4 13.7c0-.9.7-1.7 1.7-1.7s1.7.7 1.7 1.7v.1c.8-1 1.8-1.9 3.5-1.9 1.5 0 2.7.7 3.3 1.9 1-1.2 2.3-1.9 3.9-1.9 2.5 0 4 1.5 4 4.3v6.1c0 .9-.7 1.7-1.7 1.7-.9 0-1.7-.7-1.7-1.7v-5c0-1.6-.7-2.4-2-2.4s-2 .8-2 2.4v5c0 .9-.7 1.7-1.7 1.7-.9 0-1.7-.7-1.7-1.7v-5c0-1.6-.7-2.4-2-2.4s-2 .8-2 2.4v5c0 .9-.7 1.7-1.7 1.7s-1.7-.7-1.7-1.7v-8.6zM248.2 9.4c0-1 .8-1.6 1.9-1.6s1.9.6 1.9 1.6-.8 1.6-1.9 1.6-1.9-.6-1.9-1.6zm.2 4.3c0-.9.7-1.7 1.7-1.7.9 0 1.7.7 1.7 1.7v8.7c0 .9-.7 1.7-1.7 1.7-.9 0-1.7-.7-1.7-1.7v-8.7zM255.5 20.7v-5.6h-.1c-.8 0-1.4-.6-1.4-1.4s.6-1.4 1.4-1.4h.1v-1.5c0-.9.7-1.7 1.7-1.7.9 0 1.7.7 1.7 1.7v1.5h1.5c.8 0 1.4.6 1.4 1.4s-.6 1.4-1.4 1.4h-1.5v5c0 .8.3 1.1 1.1 1.1h.4c.7 0 1.4.6 1.4 1.4 0 .6-.4 1.1-.9 1.3-.6.2-1.2.3-1.9.3-2.2 0-3.5-.8-3.5-3.5z"/></g><g class="st11"><path class="st10" d="M880 10.3c0-.9.7-1.7 1.7-1.7h4.6c3.7 0 5.9 2.2 5.9 5.3 0 3.6-2.8 5.4-6.2 5.4h-2.6v3.1c0 .9-.7 1.7-1.7 1.7s-1.7-.7-1.7-1.7V10.3zm6.1 6.1c1.7 0 2.7-1 2.7-2.3 0-1.5-1.1-2.3-2.8-2.3h-2.6v4.7h2.7zM893.4 20.6c0-2.6 2-3.8 4.8-3.8 1.2 0 2 .2 2.9.5v-.2c0-1.4-.9-2.2-2.5-2.2-.9 0-1.7.1-2.3.3-.2.1-.3.1-.5.1-.8 0-1.4-.6-1.4-1.4 0-.6.4-1.1.9-1.3 1.1-.4 2.2-.6 3.8-.6 1.8 0 3.1.5 4 1.3.9.9 1.3 2.2 1.3 3.8v5.4c0 .9-.7 1.6-1.6 1.6-1 0-1.6-.7-1.6-1.4-.8.9-1.9 1.5-3.6 1.5-2.3 0-4.2-1.3-4.2-3.6zm7.7-.8v-.6c-.6-.3-1.3-.4-2.1-.4-1.4 0-2.3.6-2.3 1.6 0 .9.7 1.4 1.8 1.4 1.6.1 2.6-.7 2.6-2zM907.6 27.3c-.5-.2-1.1-.6-1.1-1.4 0-.8.6-1.4 1.3-1.4.3 0 .4 0 .5.1.3.1.5.1.7.1.6 0 .9-.1 1.2-.7l.1-.3-4-9.3c-.1-.2-.2-.5-.2-.8 0-.9.7-1.6 1.7-1.6.8 0 1.3.5 1.6 1.3l2.6 6.9 2.5-6.8c.3-.7.7-1.3 1.6-1.3.9 0 1.6.7 1.6 1.5 0 .3-.1.6-.2.8l-4.1 9.9c-1 2.4-2 3.3-4 3.3-.8 0-1.3-.1-1.8-.3zM927 15.1h-.1c-.8 0-1.4-.6-1.4-1.4 0-.8.6-1.4 1.4-1.4h.1v-.7c0-1.3.3-2.2.9-2.9.6-.6 1.5-.9 2.7-.9.5 0 1 0 1.4.1.6.1 1.1.6 1.1 1.3s-.6 1.4-1.4 1.4h-.3c-.8 0-1.2.4-1.2 1.3v.5h1.5c.8 0 1.4.6 1.4 1.4 0 .8-.6 1.4-1.4 1.4h-1.4v7.4c0 .9-.7 1.7-1.7 1.7s-1.7-.7-1.7-1.7v-7.5zM934.1 18.2c0-3.4 2.7-6.2 6.4-6.2s6.4 2.7 6.4 6.1c0 3.4-2.7 6.1-6.4 6.1-3.7.1-6.4-2.6-6.4-6zm9.4 0c0-1.8-1.3-3.3-3.1-3.3-1.9 0-3.1 1.5-3.1 3.2 0 1.7 1.3 3.3 3.1 3.3 2 0 3.1-1.5 3.1-3.2zM949.2 13.7c0-.9.7-1.7 1.7-1.7.9 0 1.7.7 1.7 1.7v.5c.5-1.1 1.3-2.2 2.3-2.2 1 0 1.6.7 1.6 1.6 0 .9-.6 1.4-1.3 1.6-1.7.4-2.6 1.7-2.6 4.1v3.1c0 .9-.7 1.7-1.7 1.7-.9 0-1.7-.7-1.7-1.7v-8.7zM965.6 20.7v-5.6h-.1c-.8 0-1.4-.6-1.4-1.4s.6-1.4 1.4-1.4h.1v-1.5c0-.9.7-1.7 1.7-1.7.9 0 1.7.7 1.7 1.7v1.5h1.5c.8 0 1.4.6 1.4 1.4s-.6 1.4-1.4 1.4H969v5c0 .8.3 1.1 1.1 1.1h.4c.7 0 1.4.6 1.4 1.4 0 .6-.4 1.1-.9 1.3-.6.2-1.2.3-1.9.3-2.1 0-3.5-.8-3.5-3.5zM974.2 9.5c0-.9.7-1.7 1.7-1.7.9 0 1.7.7 1.7 1.7v4.4c.8-1 1.8-1.9 3.5-1.9 2.5 0 4 1.7 4 4.4v6.1c0 .9-.7 1.7-1.7 1.7-.9 0-1.7-.7-1.7-1.7v-5c0-1.6-.7-2.4-2-2.4s-2.1.8-2.1 2.4v5c0 .9-.7 1.7-1.7 1.7-.9 0-1.7-.7-1.7-1.7v-13zM993.5 24.3c-3.5 0-6.2-2.5-6.2-6.1 0-3.4 2.4-6.1 5.8-6.1 3.9 0 5.7 3.2 5.7 5.7 0 1-.7 1.6-1.6 1.6h-6.6c.3 1.5 1.4 2.3 2.9 2.3.9 0 1.7-.3 2.4-.8.2-.2.5-.3.8-.3.7 0 1.3.6 1.3 1.3 0 .4-.2.8-.4 1-1.1.8-2.4 1.4-4.1 1.4zm2.1-7.1c-.2-1.5-1.1-2.5-2.5-2.5s-2.3 1-2.6 2.5h5.1zM1008.1 17.4v-7.2c0-.9.7-1.7 1.7-1.7s1.7.7 1.7 1.7v7.2c0 2.5 1.3 3.8 3.3 3.8s3.3-1.3 3.3-3.7v-7.3c0-.9.7-1.7 1.7-1.7s1.7.7 1.7 1.7v7.1c0 4.7-2.6 7-6.8 7s-6.6-2.4-6.6-6.9zM1024.3 22.9c-.4-.2-.6-.6-.6-1.1 0-.7.6-1.3 1.3-1.3.2 0 .5.1.7.2 1.1.7 2.2 1.1 3.2 1.1s1.4-.4 1.4-.9c0-.7-1.1-1-2.4-1.4-1.6-.5-3.5-1.3-3.5-3.5 0-2.4 1.9-3.7 4.3-3.7 1.2 0 2.5.3 3.7.9.5.2.8.7.8 1.3 0 .7-.6 1.3-1.3 1.3-.2 0-.4 0-.6-.2-.9-.5-1.8-.7-2.6-.7s-1.2.4-1.2.8c0 .7 1.1 1 2.4 1.4 1.7.5 3.6 1.3 3.6 3.5 0 2.6-2 3.8-4.5 3.8-1.7-.2-3.3-.6-4.7-1.5zM1034.9 20.6c0-2.6 2-3.8 4.8-3.8 1.2 0 2 .2 2.9.5v-.2c0-1.4-.9-2.2-2.5-2.2-.9 0-1.7.1-2.3.3-.2.1-.3.1-.5.1-.8 0-1.4-.6-1.4-1.4 0-.6.4-1.1.9-1.3 1.1-.4 2.2-.6 3.8-.6 1.8 0 3.1.5 4 1.3.9.9 1.3 2.2 1.3 3.8v5.4c0 .9-.7 1.6-1.6 1.6-1 0-1.6-.7-1.6-1.4-.8.9-1.9 1.5-3.6 1.5-2.4 0-4.2-1.3-4.2-3.6zm7.7-.8v-.6c-.6-.3-1.3-.4-2.1-.4-1.4 0-2.3.6-2.3 1.6 0 .9.7 1.4 1.8 1.4 1.5.1 2.6-.7 2.6-2zM1049.6 26.8c-.6-.2-.9-.7-.9-1.3 0-.7.6-1.4 1.4-1.4.2 0 .4 0 .6.1 1 .4 2 .7 3.3.7 2.3 0 3.4-1.1 3.4-3.2v-.6c-1 1.2-2.1 1.9-3.9 1.9-2.8 0-5.2-2-5.2-5.5s2.5-5.5 5.2-5.5c1.8 0 2.9.8 3.8 1.8 0-.9.7-1.7 1.7-1.7s1.7.7 1.7 1.7v7.6c0 2.1-.5 3.7-1.5 4.6-1.1 1.1-2.8 1.6-5.1 1.6-1.7 0-3.1-.3-4.5-.8zm7.6-9.3c0-1.7-1.3-2.8-2.9-2.8s-2.9 1.1-2.9 2.7 1.2 2.7 2.9 2.7 2.9-1 2.9-2.6zM1069.1 24.3c-3.5 0-6.2-2.5-6.2-6.1 0-3.4 2.4-6.1 5.8-6.1 3.9 0 5.7 3.2 5.7 5.7 0 1-.7 1.6-1.6 1.6h-6.6c.3 1.5 1.4 2.3 2.9 2.3.9 0 1.7-.3 2.4-.8.2-.2.5-.3.8-.3.7 0 1.3.6 1.3 1.3 0 .4-.2.8-.4 1-1.1.8-2.4 1.4-4.1 1.4zm2.1-7.1c-.2-1.5-1.1-2.5-2.5-2.5s-2.3 1-2.6 2.5h5.1z"/></g><g class="st11"><path class="st7" d="M56.2 305.6l-4.1-9.8c-.1-.2-.2-.4-.2-.7 0-.8.6-1.4 1.4-1.4.7 0 1.2.4 1.4 1l3.2 8.2 3.2-8.2c.2-.5.7-.9 1.3-.9.8 0 1.4.6 1.4 1.3 0 .2-.1.4-.1.6l-4.1 9.9c-.3.7-.8 1.1-1.6 1.1h-.2c-.8 0-1.4-.4-1.6-1.1zM65.9 295.2c0-.8.6-1.4 1.4-1.4h.3c.6 0 1 .3 1.3.7l3.3 5.5 3.4-5.5c.3-.5.7-.7 1.2-.7h.3c.8 0 1.4.6 1.4 1.4v10c0 .8-.6 1.4-1.4 1.4-.8 0-1.4-.6-1.4-1.4v-6.3l-2.4 3.7c-.3.4-.6.7-1.2.7s-.9-.3-1.2-.7l-2.4-3.7v6.3c0 .8-.6 1.4-1.4 1.4s-1.4-.6-1.4-1.4v-10zM80.8 300.9c0-.7.6-1.3 1.3-1.3h3.1c.7 0 1.3.6 1.3 1.3 0 .7-.6 1.3-1.3 1.3h-3.1c-.7 0-1.3-.6-1.3-1.3zM88.8 295.3c0-.8.6-1.4 1.4-1.4h4.5c1.4 0 2.6.4 3.3 1.1.6.6.9 1.3.9 2.1 0 1.4-.8 2.2-1.7 2.7 1.5.6 2.4 1.4 2.4 3.1 0 2.3-1.9 3.5-4.7 3.5h-4.6c-.8 0-1.4-.6-1.4-1.4v-9.7zm5.3 3.7c1.2 0 2-.4 2-1.3 0-.8-.6-1.3-1.8-1.3h-2.7v2.7h2.5zm.7 5c1.2 0 2-.4 2-1.4 0-.8-.6-1.4-2.1-1.4h-3.2v2.8h3.3zM101 303.7c0-2.1 1.6-3.1 3.9-3.1 1 0 1.7.2 2.4.4v-.2c0-1.1-.7-1.8-2.1-1.8-.8 0-1.4.1-1.9.3-.2.1-.3.1-.4.1-.6 0-1.1-.5-1.1-1.1 0-.5.3-.9.7-1.1.9-.3 1.8-.5 3.1-.5 1.5 0 2.6.4 3.3 1.1.7.7 1 1.8 1 3.1v4.4c0 .7-.6 1.3-1.3 1.3-.8 0-1.3-.6-1.3-1.1-.7.7-1.6 1.2-2.9 1.2-2 0-3.4-1.1-3.4-3zm6.2-.6v-.5c-.5-.2-1.1-.4-1.7-.4-1.2 0-1.9.5-1.9 1.3 0 .7.6 1.2 1.5 1.2 1.3.1 2.1-.6 2.1-1.6zM111.9 305.6c-.3-.2-.5-.5-.5-.9 0-.6.5-1.1 1.1-1.1.2 0 .4.1.5.1.9.6 1.8.9 2.6.9s1.2-.3 1.2-.7c0-.6-.9-.8-2-1.1-1.4-.4-2.9-1-2.9-2.9 0-2 1.6-3.1 3.5-3.1 1 0 2.1.3 3 .7.4.2.6.6.6 1 0 .6-.5 1.1-1.1 1.1-.2 0-.3 0-.5-.1-.8-.4-1.5-.6-2.1-.6-.7 0-1 .3-1 .7 0 .5.9.8 2 1.2 1.4.5 2.9 1.1 2.9 2.9 0 2.1-1.6 3.1-3.7 3.1-1.1-.1-2.4-.5-3.6-1.2zM125.8 306.7c-2.9 0-5-2-5-5 0-2.8 2-5 4.8-5 3.2 0 4.6 2.6 4.6 4.6 0 .8-.6 1.3-1.3 1.3h-5.4c.3 1.2 1.1 1.9 2.4 1.9.8 0 1.4-.2 1.9-.6.2-.1.4-.2.7-.2.6 0 1.1.5 1.1 1.1 0 .4-.2.6-.4.8-.9.6-2 1.1-3.4 1.1zm1.8-5.8c-.2-1.2-.9-2.1-2-2.1s-1.9.8-2.1 2.1h4.1zM142 305.2c0 .8-.6 1.4-1.4 1.4-.8 0-1.4-.6-1.4-1.4v-.1c-.7.9-1.6 1.6-3 1.6-2.3 0-4.4-1.8-4.4-5s2.1-5 4.4-5c1.5 0 2.4.7 3 1.4v-3.5c0-.8.6-1.4 1.4-1.4.8 0 1.4.6 1.4 1.4v10.6zm-7.4-3.6c0 1.6 1.1 2.7 2.4 2.7s2.3-1.1 2.3-2.7-1.1-2.7-2.3-2.7-2.4 1.1-2.4 2.7zM149.5 300.2c0-3.6 2.7-6.6 6.6-6.6 1.9 0 3.2.5 4.2 1.3.3.2.5.6.5 1.1 0 .8-.6 1.4-1.4 1.4-.4 0-.6-.1-.8-.3-.8-.6-1.6-.9-2.6-.9-2.1 0-3.7 1.8-3.7 3.9 0 2.2 1.5 4 3.7 4 1.2 0 1.9-.4 2.7-1 .2-.2.5-.3.8-.3.7 0 1.3.6 1.3 1.3 0 .4-.2.8-.5 1-1.1 1-2.5 1.6-4.5 1.6-3.5 0-6.3-2.9-6.3-6.5zM163.2 294.6c0-.8.6-1.4 1.4-1.4s1.4.6 1.4 1.4v10.6c0 .8-.6 1.4-1.4 1.4s-1.4-.6-1.4-1.4v-10.6zM168.1 301.7c0-2.8 2.2-5.1 5.2-5.1s5.2 2.2 5.2 5-2.2 5-5.2 5c-3 .1-5.2-2.1-5.2-4.9zm7.7 0c0-1.5-1-2.7-2.5-2.7-1.6 0-2.5 1.2-2.5 2.6 0 1.4 1 2.7 2.5 2.7 1.6 0 2.5-1.2 2.5-2.6zM189.2 305.2c0 .8-.6 1.4-1.4 1.4s-1.4-.6-1.4-1.4v-.1c-.6.8-1.4 1.5-2.8 1.5-2.1 0-3.3-1.4-3.3-3.6v-5c0-.8.6-1.4 1.4-1.4.8 0 1.4.6 1.4 1.4v4.1c0 1.3.6 2 1.7 2 1 0 1.7-.7 1.7-2V298c0-.8.6-1.4 1.4-1.4s1.4.6 1.4 1.4v7.2zM201.4 305.2c0 .8-.6 1.4-1.4 1.4-.8 0-1.4-.6-1.4-1.4v-.1c-.7.9-1.6 1.6-3 1.6-2.3 0-4.4-1.8-4.4-5s2.1-5 4.4-5c1.5 0 2.4.7 3 1.4v-3.5c0-.8.6-1.4 1.4-1.4.8 0 1.4.6 1.4 1.4v10.6zm-7.4-3.6c0 1.6 1.1 2.7 2.4 2.7s2.3-1.1 2.3-2.7-1.1-2.7-2.3-2.7-2.4 1.1-2.4 2.7zM212.9 305.6l-4.1-9.8c-.1-.2-.2-.4-.2-.7 0-.8.6-1.4 1.4-1.4.7 0 1.2.4 1.4 1l3.2 8.2 3.2-8.2c.2-.5.7-.9 1.3-.9.8 0 1.4.6 1.4 1.3 0 .2-.1.4-.1.6l-4.1 9.9c-.3.7-.8 1.1-1.6 1.1h-.2c-.8 0-1.3-.4-1.6-1.1zM226 306.7c-2.9 0-5-2-5-5 0-2.8 2-5 4.8-5 3.2 0 4.6 2.6 4.6 4.6 0 .8-.6 1.3-1.3 1.3h-5.4c.3 1.2 1.1 1.9 2.4 1.9.8 0 1.4-.2 1.9-.6.2-.1.4-.2.7-.2.6 0 1.1.5 1.1 1.1 0 .4-.2.6-.4.8-.9.6-2 1.1-3.4 1.1zm1.7-5.8c-.2-1.2-.9-2.1-2-2.1s-1.9.8-2.1 2.1h4.1zM232.4 298.1c0-.8.6-1.4 1.4-1.4s1.4.6 1.4 1.4v.1c.6-.8 1.4-1.5 2.8-1.5 2.1 0 3.3 1.4 3.3 3.6v5c0 .8-.6 1.4-1.4 1.4-.8 0-1.4-.6-1.4-1.4v-4.1c0-1.3-.6-2-1.7-2-1 0-1.7.7-1.7 2v4.1c0 .8-.6 1.4-1.4 1.4s-1.4-.6-1.4-1.4v-7.2zM253.4 305.2c0 .8-.6 1.4-1.4 1.4-.8 0-1.4-.6-1.4-1.4v-.1c-.7.9-1.6 1.6-3 1.6-2.3 0-4.4-1.8-4.4-5s2.1-5 4.4-5c1.5 0 2.4.7 3 1.4v-3.5c0-.8.6-1.4 1.4-1.4.8 0 1.4.6 1.4 1.4v10.6zm-7.4-3.6c0 1.6 1.1 2.7 2.4 2.7s2.3-1.1 2.3-2.7-1.1-2.7-2.3-2.7-2.4 1.1-2.4 2.7zM255.3 301.7c0-2.8 2.2-5.1 5.2-5.1s5.2 2.2 5.2 5-2.2 5-5.2 5c-2.9.1-5.2-2.1-5.2-4.9zm7.8 0c0-1.5-1-2.7-2.5-2.7-1.6 0-2.5 1.2-2.5 2.6 0 1.4 1 2.7 2.5 2.7s2.5-1.2 2.5-2.6zM267.8 298.1c0-.8.6-1.4 1.4-1.4s1.4.6 1.4 1.4v.4c.4-.9 1-1.8 1.9-1.8.8 0 1.3.6 1.3 1.3 0 .7-.5 1.2-1 1.3-1.4.3-2.2 1.4-2.2 3.3v2.6c0 .8-.6 1.4-1.4 1.4s-1.4-.6-1.4-1.4v-7.1zM275 305.6c-.3-.2-.5-.5-.5-.9 0-.6.5-1.1 1.1-1.1.2 0 .4.1.5.1.9.6 1.8.9 2.6.9s1.2-.3 1.2-.7c0-.6-.9-.8-2-1.1-1.4-.4-2.9-1-2.9-2.9 0-2 1.6-3.1 3.5-3.1 1 0 2.1.3 3 .7.4.2.6.6.6 1 0 .6-.5 1.1-1.1 1.1-.2 0-.3 0-.5-.1-.8-.4-1.5-.6-2.1-.6-.7 0-1 .3-1 .7 0 .5.9.8 2 1.2 1.4.5 2.9 1.1 2.9 2.9 0 2.1-1.6 3.1-3.7 3.1-1.1-.1-2.4-.5-3.6-1.2z"/></g><path class="st3" d="M969.4 295.3c0-.8.6-1.4 1.4-1.4h7.1c.7 0 1.3.6 1.3 1.3s-.6 1.3-1.3 1.3h-5.7v2.7h4.9c.7 0 1.3.6 1.3 1.3s-.6 1.3-1.3 1.3h-4.9v3.6c0 .8-.6 1.4-1.4 1.4-.8 0-1.4-.6-1.4-1.4v-10.1zM979.9 303.7c0-2.1 1.6-3.1 3.9-3.1 1 0 1.7.2 2.4.4v-.2c0-1.1-.7-1.8-2.1-1.8-.8 0-1.4.1-1.9.3-.2.1-.3.1-.4.1-.6 0-1.1-.5-1.1-1.1 0-.5.3-.9.7-1.1.9-.3 1.8-.5 3.1-.5 1.5 0 2.6.4 3.3 1.1.7.7 1 1.8 1 3.1v4.4c0 .7-.6 1.3-1.3 1.3-.8 0-1.3-.6-1.3-1.1-.7.7-1.6 1.2-2.9 1.2-1.9 0-3.4-1.1-3.4-3zm6.3-.6v-.5c-.5-.2-1.1-.4-1.7-.4-1.2 0-1.9.5-1.9 1.3 0 .7.6 1.2 1.5 1.2 1.2.1 2.1-.6 2.1-1.6zM991.1 298.1c0-.8.6-1.4 1.4-1.4.8 0 1.4.6 1.4 1.4v.1c.6-.8 1.4-1.5 2.8-1.5 2.1 0 3.3 1.4 3.3 3.6v5c0 .8-.6 1.4-1.4 1.4-.8 0-1.4-.6-1.4-1.4v-4.1c0-1.3-.6-2-1.7-2s-1.7.7-1.7 2v4.1c0 .8-.6 1.4-1.4 1.4-.8 0-1.4-.6-1.4-1.4v-7.2zM1012 305.2c0 .8-.6 1.4-1.4 1.4-.8 0-1.4-.6-1.4-1.4v-.1c-.7.9-1.6 1.6-3 1.6-2.2 0-4.4-1.8-4.4-5s2.1-5 4.4-5c1.5 0 2.4.7 3 1.4v-3.5c0-.8.6-1.4 1.4-1.4.8 0 1.4.6 1.4 1.4v10.6zm-7.4-3.6c0 1.6 1.1 2.7 2.4 2.7s2.3-1.1 2.3-2.7-1.1-2.7-2.3-2.7-2.4 1.1-2.4 2.7zM1014 301.7c0-2.8 2.2-5.1 5.2-5.1s5.2 2.2 5.2 5-2.2 5-5.2 5c-3 .1-5.2-2.1-5.2-4.9zm7.8 0c0-1.5-1-2.7-2.5-2.7-1.6 0-2.5 1.2-2.5 2.6 0 1.4 1 2.7 2.5 2.7s2.5-1.2 2.5-2.6zM1027.2 308.7c-.5-.2-.8-.6-.8-1.1 0-.6.5-1.1 1.1-1.1.2 0 .3 0 .4.1.8.4 1.6.6 2.7.6 1.9 0 2.8-.9 2.8-2.6v-.5c-.8 1-1.7 1.6-3.2 1.6-2.3 0-4.3-1.6-4.3-4.5s2.1-4.5 4.3-4.5c1.5 0 2.4.6 3.1 1.4 0-.7.6-1.4 1.4-1.4.8 0 1.4.6 1.4 1.4v6.2c0 1.7-.4 3-1.2 3.8-.9.9-2.3 1.3-4.2 1.3-1.2 0-2.3-.2-3.5-.7zm6.2-7.5c0-1.3-1-2.3-2.4-2.3-1.3 0-2.3.9-2.3 2.2 0 1.3 1 2.2 2.3 2.2 1.4.1 2.4-.8 2.4-2.1zM1038.6 294.6c0-.8.6-1.4 1.4-1.4.8 0 1.4.6 1.4 1.4v3.6c.6-.8 1.4-1.5 2.8-1.5 2.1 0 3.3 1.4 3.3 3.6v5c0 .8-.6 1.4-1.4 1.4s-1.4-.6-1.4-1.4v-4.1c0-1.3-.6-2-1.7-2-1 0-1.7.7-1.7 2v4.1c0 .8-.6 1.4-1.4 1.4-.8 0-1.4-.6-1.4-1.4v-10.7z"/><g class="st11"><path class="st12" d="M57.7 187.6c.4 0 .6.3.6.6v1.1c1.9.2 3.3.8 4.8 1.9.2.2.4.4.4.6 0 .4-.3.7-.7.7-.2 0-.3 0-.5-.2-1.3-1.1-2.6-1.6-4-1.8v7.6c4.1.9 5.8 2.4 5.8 5 0 2.9-2.4 4.9-5.8 5v2.1c0 .4-.3.6-.6.6-.4 0-.6-.3-.6-.6v-2.1c-2.3-.2-4.3-1.1-6.1-2.6-.2-.2-.3-.3-.3-.6 0-.4.3-.7.7-.7.2 0 .4.1.5.2 1.5 1.4 3.2 2.2 5.3 2.5v-7.7c-4-.9-5.7-2.4-5.7-5.1 0-2.7 2.4-4.8 5.7-4.9v-1c-.1-.3.2-.6.5-.6zm-.5 10.2v-7.4c-2.6.1-4.3 1.6-4.3 3.6-.1 1.9.8 3 4.3 3.8zm1.1 1.7v7.5c2.7-.1 4.5-1.6 4.5-3.7 0-1.9-1-3-4.5-3.8z"/></g><g class="st11"><path class="st7" d="M57.7 99.5c.4 0 .6.3.6.6v1.1c1.9.2 3.3.8 4.8 1.9.2.2.4.4.4.6 0 .4-.3.7-.7.7-.2 0-.3 0-.5-.2-1.3-1.1-2.6-1.6-4-1.8v7.6c4.1.9 5.8 2.4 5.8 5 0 2.9-2.4 4.9-5.8 5v2.1c0 .4-.3.6-.6.6-.4 0-.6-.3-.6-.6V120c-2.3-.2-4.3-1.1-6.1-2.6-.2-.2-.3-.3-.3-.6 0-.4.3-.7.7-.7.2 0 .4.1.5.2 1.5 1.4 3.2 2.2 5.3 2.5v-7.7c-4-.9-5.7-2.4-5.7-5.1 0-2.7 2.4-4.8 5.7-4.9v-1c-.1-.3.2-.6.5-.6zm-.5 10.2v-7.4c-2.6.1-4.3 1.6-4.3 3.6-.1 1.9.8 3 4.3 3.8zm1.1 1.7v7.5c2.7-.1 4.5-1.6 4.5-3.7 0-1.9-1-3-4.5-3.8z"/></g><g class="st11"><path class="st12" d="M196.8 212.1c.4 0 .6.3.6.6v1.1c1.9.2 3.3.8 4.8 1.9.2.2.4.4.4.6 0 .4-.3.7-.7.7-.2 0-.3 0-.5-.2-1.3-1.1-2.6-1.6-4-1.8v7.6c4.1.9 5.8 2.4 5.8 5 0 2.9-2.4 4.9-5.8 5v2.1c0 .4-.3.6-.6.6-.4 0-.6-.3-.6-.6v-2.1c-2.3-.2-4.3-1.1-6.1-2.6-.2-.2-.3-.3-.3-.6 0-.4.3-.7.7-.7.2 0 .4.1.5.2 1.5 1.4 3.2 2.2 5.3 2.5v-7.7c-4-.9-5.7-2.4-5.7-5.1 0-2.7 2.4-4.8 5.7-4.9v-1c-.2-.3.1-.6.5-.6zm-.6 10.2V215c-2.6.1-4.3 1.6-4.3 3.6-.1 1.8.8 2.9 4.3 3.7zm1.2 1.7v7.5c2.7-.1 4.5-1.6 4.5-3.7-.1-1.9-1-3-4.5-3.8z"/></g><g class="st11"><path class="st7" d="M196.8 77.9c.4 0 .6.3.6.6v1.1c1.9.2 3.3.8 4.8 1.9.2.2.4.4.4.6 0 .4-.3.7-.7.7-.2 0-.3 0-.5-.2-1.3-1.1-2.6-1.6-4-1.8v7.6c4.1.9 5.8 2.4 5.8 5 0 2.9-2.4 4.9-5.8 5v2.1c0 .4-.3.6-.6.6-.4 0-.6-.3-.6-.6v-2.1c-2.3-.2-4.3-1.1-6.1-2.6-.2-.2-.3-.3-.3-.6 0-.4.3-.7.7-.7.2 0 .4.1.5.2 1.5 1.4 3.2 2.2 5.3 2.5v-7.7c-4-.9-5.7-2.4-5.7-5.1 0-2.7 2.4-4.8 5.7-4.9v-1c-.2-.3.1-.6.5-.6zm-.6 10.3v-7.4c-2.6.1-4.3 1.6-4.3 3.6-.1 1.8.8 2.9 4.3 3.8zm1.2 1.6v7.5c2.7-.1 4.5-1.6 4.5-3.7-.1-1.9-1-3-4.5-3.8z"/></g><g class="st11"><path class="st12" d="M288.8 190.5c.4 0 .6.3.6.6v1.1c1.9.2 3.3.8 4.8 1.9.2.2.4.4.4.6 0 .4-.3.7-.7.7-.2 0-.3 0-.5-.2-1.3-1.1-2.6-1.6-4-1.8v7.6c4.1.9 5.8 2.4 5.8 5 0 2.9-2.4 4.9-5.8 5v2.1c0 .4-.3.6-.6.6-.4 0-.6-.3-.6-.6V211c-2.3-.2-4.3-1.1-6.1-2.6-.2-.2-.3-.3-.3-.6 0-.4.3-.7.7-.7.2 0 .4.1.5.2 1.5 1.4 3.2 2.2 5.3 2.5v-7.7c-4-.9-5.7-2.4-5.7-5.1 0-2.7 2.4-4.8 5.7-4.9v-1c-.1-.3.2-.6.5-.6zm-.6 10.3v-7.4c-2.6.1-4.3 1.6-4.3 3.6 0 1.8.9 2.9 4.3 3.8zm1.2 1.6v7.5c2.7-.1 4.5-1.6 4.5-3.7 0-1.9-1-3-4.5-3.8z"/></g><g class="st11"><path class="st7" d="M288.8 71.1c.4 0 .6.3.6.6v1.1c1.9.2 3.3.8 4.8 1.9.2.2.4.4.4.6 0 .4-.3.7-.7.7-.2 0-.3 0-.5-.2-1.3-1.1-2.6-1.6-4-1.8v7.6c4.1.9 5.8 2.4 5.8 5 0 2.9-2.4 4.9-5.8 5v2.1c0 .4-.3.6-.6.6-.4 0-.6-.3-.6-.6v-2.1c-2.3-.2-4.3-1.1-6.1-2.6-.2-.2-.3-.3-.3-.6 0-.4.3-.7.7-.7.2 0 .4.1.5.2 1.5 1.4 3.2 2.2 5.3 2.5v-7.7c-4-.9-5.7-2.4-5.7-5.1 0-2.7 2.4-4.8 5.7-4.9v-1c-.1-.3.2-.6.5-.6zm-.6 10.2V74c-2.6.1-4.3 1.6-4.3 3.6 0 1.8.9 2.9 4.3 3.7zm1.2 1.7v7.5c2.7-.1 4.5-1.6 4.5-3.7 0-1.9-1-3-4.5-3.8z"/></g><g class="st11"><path class="st12" d="M99.5 223.9c.2 0 .4.2.4.4v.6c1.1.1 1.9.5 2.7 1 .1.1.2.2.2.3 0 .2-.2.4-.4.4-.1 0-.2 0-.3-.1-.7-.6-1.5-.9-2.2-1v4.2c2.3.5 3.2 1.3 3.2 2.8 0 1.6-1.3 2.7-3.2 2.8v1.2c0 .2-.2.4-.4.4s-.4-.2-.4-.4v-1.2c-1.3-.1-2.4-.6-3.4-1.5-.1-.1-.2-.2-.2-.3 0-.2.2-.4.4-.4.1 0 .2.1.3.1.8.8 1.8 1.2 2.9 1.4v-4.3c-2.2-.5-3.2-1.3-3.2-2.8 0-1.5 1.3-2.7 3.1-2.7v-.6c.1-.1.3-.3.5-.3zm-.3 5.7v-4.1c-1.5 0-2.4.9-2.4 2 0 1 .4 1.7 2.4 2.1zm.6 1v4.1c1.5 0 2.5-.9 2.5-2s-.5-1.7-2.5-2.1z"/></g><g class="st11"><path class="st7" d="M99.5 77.1c.2 0 .4.2.4.4v.5c1.1.1 1.9.5 2.7 1 .1.1.2.2.2.3 0 .2-.2.4-.4.4-.1 0-.2 0-.3-.1-.7-.6-1.5-.9-2.2-1v4.2c2.3.5 3.2 1.3 3.2 2.8 0 1.6-1.3 2.7-3.2 2.8v1.2c0 .2-.2.4-.4.4s-.4-.2-.4-.4v-1.2c-1.3-.1-2.4-.6-3.4-1.5-.1-.1-.2-.2-.2-.3 0-.2.2-.4.4-.4.1 0 .2.1.3.1.8.8 1.8 1.2 2.9 1.4v-4.3c-2.2-.4-3.1-1.2-3.1-2.7 0-1.5 1.3-2.7 3.1-2.7v-.6c0-.2.2-.3.4-.3zm-.3 5.7v-4.1c-1.5 0-2.4.9-2.4 2 0 1 .4 1.6 2.4 2.1zm.6.9v4.1c1.5 0 2.5-.9 2.5-2s-.5-1.7-2.5-2.1z"/></g><g class="st11"><path class="st12" d="M237.7 187.3c.3 0 .5.2.5.5v.8c1.5.1 2.6.6 3.7 1.5.2.1.3.3.3.5 0 .3-.3.5-.5.5-.1 0-.2 0-.4-.1-1-.8-2-1.2-3.1-1.4v5.9c3.2.7 4.5 1.9 4.5 3.9 0 2.2-1.9 3.8-4.5 3.9v1.6c0 .3-.2.5-.5.5s-.5-.2-.5-.5v-1.7c-1.8-.1-3.3-.8-4.7-2-.1-.1-.2-.3-.2-.4 0-.3.3-.5.5-.5s.3.1.4.1c1.2 1.1 2.5 1.7 4.1 1.9v-6c-3.1-.7-4.5-1.8-4.5-3.9 0-2.1 1.8-3.7 4.4-3.8v-.8c0-.2.3-.5.5-.5zm-.4 8v-5.7c-2 0-3.4 1.3-3.4 2.8 0 1.4.7 2.3 3.4 2.9zm.9 1.3v5.8c2.1 0 3.5-1.3 3.5-2.9 0-1.4-.8-2.3-3.5-2.9z"/></g><g class="st11"><path class="st7" d="M237.8 62.4c.1 0 .3.1.3.3v.4c.8.1 1.4.3 2 .8.1.1.2.1.2.3 0 .2-.1.3-.3.3-.1 0-.1 0-.2-.1-.5-.4-1.1-.6-1.7-.7v3.1c1.7.4 2.4 1 2.4 2.1 0 1.2-1 2-2.4 2v.9c0 .1-.1.3-.3.3-.1 0-.3-.1-.3-.3v-.9c-1-.1-1.7-.4-2.5-1.1-.1-.1-.1-.1-.1-.2s.1-.3.3-.3c.1 0 .2 0 .2.1.6.6 1.3.9 2.1 1v-3.1c-1.7-.4-2.3-1-2.3-2.1s1-2 2.3-2v-.4c0-.3.1-.4.3-.4zm-.3 4.2v-3c-1.1 0-1.8.7-1.8 1.5.1.7.4 1.2 1.8 1.5zm.5.7v3c1.1 0 1.8-.7 1.8-1.5 0-.7-.3-1.2-1.8-1.5z"/></g><g class="st11"><path class="st12" d="M144.6 191.3c.2 0 .4.2.4.4v.7c1.3.1 2.2.5 3.2 1.3.2.1.3.2.3.4 0 .3-.2.5-.5.5-.1 0-.2 0-.3-.1-.9-.7-1.7-1.1-2.7-1.2v5c2.7.6 3.9 1.6 3.9 3.4 0 1.9-1.6 3.3-3.9 3.3v1.4c0 .2-.2.4-.4.4s-.4-.2-.4-.4V205c-1.6-.1-2.8-.7-4.1-1.7-.1-.1-.2-.2-.2-.4s.2-.5.5-.5c.2 0 .3.1.3.1 1 .9 2.1 1.5 3.5 1.6V199c-2.7-.6-3.8-1.6-3.8-3.4 0-1.8 1.6-3.2 3.8-3.3v-.7c0-.1.2-.3.4-.3zm-.4 6.9v-4.9c-1.7 0-2.9 1.1-2.9 2.4 0 1.2.6 1.9 2.9 2.5zm.8 1.1v5c1.8 0 3-1.1 3-2.4 0-1.3-.6-2.1-3-2.6z"/></g><g class="st11"><path class="st7" d="M144.5 88.6c.5 0 .8.4.8.8v1.4c2.5.2 4.3 1 6.2 2.5.3.2.5.5.5.8 0 .5-.4.9-.9.9-.2 0-.4 0-.6-.2-1.7-1.4-3.4-2.1-5.3-2.3v9.8c5.3 1.1 7.6 3.1 7.6 6.5 0 3.7-3.1 6.3-7.5 6.5v2.7c0 .5-.4.8-.8.8s-.8-.4-.8-.8v-2.8c-3-.2-5.5-1.4-7.9-3.4-.2-.2-.4-.4-.4-.7 0-.5.4-.9.9-.9.3 0 .5.1.6.2 2 1.8 4.1 2.9 6.8 3.2v-10c-5.3-1.2-7.4-3.1-7.4-6.6 0-3.5 3.1-6.2 7.4-6.3v-1.3c-.1-.4.3-.8.8-.8zm-.8 13.3v-9.6c-3.4.1-5.6 2.1-5.6 4.6 0 2.4 1.1 3.9 5.6 5zm1.5 2.1v9.7c3.5-.1 5.8-2.1 5.8-4.8 0-2.4-1.2-3.9-5.8-4.9z"/></g><g class="st11"><path class="st12" d="M866.5 188.6c.4 0 .6.3.6.6v1.1c1.9.2 3.3.8 4.8 1.9.2.2.4.4.4.6 0 .4-.3.7-.7.7-.2 0-.3 0-.5-.2-1.3-1.1-2.6-1.6-4-1.8v7.6c4.1.9 5.8 2.4 5.8 5 0 2.9-2.4 4.9-5.8 5v2.1c0 .4-.3.6-.6.6-.4 0-.6-.3-.6-.6v-2.1c-2.3-.2-4.3-1.1-6.1-2.6-.2-.2-.3-.3-.3-.6 0-.4.3-.7.7-.7.2 0 .4.1.5.2 1.5 1.4 3.2 2.2 5.3 2.5v-7.7c-4-.9-5.7-2.4-5.7-5.1 0-2.7 2.4-4.8 5.7-4.9v-1c-.1-.3.2-.6.5-.6zm-.6 10.2v-7.4c-2.6.1-4.3 1.6-4.3 3.6 0 1.9.9 3 4.3 3.8zm1.2 1.7v7.5c2.7-.1 4.5-1.6 4.5-3.7 0-1.9-1-3-4.5-3.8z"/></g><g class="st11"><path class="st12" d="M1005.6 213c.4 0 .6.3.6.6v1.1c1.9.2 3.3.8 4.8 1.9.2.2.4.4.4.6 0 .4-.3.7-.7.7-.2 0-.3 0-.5-.2-1.3-1.1-2.6-1.6-4-1.8v7.6c4.1.9 5.8 2.4 5.8 5 0 2.9-2.4 4.9-5.8 5v2.1c0 .4-.3.6-.6.6-.4 0-.6-.3-.6-.6v-2.1c-2.3-.2-4.3-1.1-6.1-2.6-.2-.2-.3-.3-.3-.6 0-.4.3-.7.7-.7.2 0 .4.1.5.2 1.5 1.4 3.2 2.2 5.3 2.5v-7.7c-4-.9-5.7-2.4-5.7-5.1 0-2.7 2.4-4.8 5.7-4.9v-1c-.2-.3.1-.6.5-.6zm-.6 10.3v-7.4c-2.6.1-4.3 1.6-4.3 3.6-.1 1.8.8 3 4.3 3.8zm1.2 1.7v7.5c2.7-.1 4.5-1.6 4.5-3.7-.1-1.9-1-3.1-4.5-3.8z"/></g><g class="st11"><path class="st12" d="M1097.6 191.5c.4 0 .6.3.6.6v1.1c1.9.2 3.3.8 4.8 1.9.2.2.4.4.4.6 0 .4-.3.7-.7.7-.2 0-.3 0-.5-.2-1.3-1.1-2.6-1.6-4-1.8v7.6c4.1.9 5.8 2.4 5.8 5 0 2.9-2.4 4.9-5.8 5v2.1c0 .4-.3.6-.6.6-.4 0-.6-.3-.6-.6V212c-2.3-.2-4.3-1.1-6.1-2.6-.2-.2-.3-.3-.3-.6 0-.4.3-.7.7-.7.2 0 .4.1.5.2 1.5 1.4 3.2 2.2 5.3 2.5v-7.7c-4-.9-5.7-2.4-5.7-5.1 0-2.7 2.4-4.8 5.7-4.9v-1c-.1-.3.2-.6.5-.6zm-.6 10.3v-7.4c-2.6.1-4.3 1.6-4.3 3.6 0 1.8.8 2.9 4.3 3.8zm1.2 1.6v7.5c2.7-.1 4.5-1.6 4.5-3.7 0-1.9-1-3-4.5-3.8z"/></g><g class="st11"><path class="st12" d="M908.3 224.9c.2 0 .4.2.4.4v.6c1.1.1 1.9.5 2.7 1 .1.1.2.2.2.3 0 .2-.2.4-.4.4-.1 0-.2 0-.3-.1-.7-.6-1.5-.9-2.2-1v4.2c2.3.5 3.2 1.3 3.2 2.8 0 1.6-1.3 2.7-3.2 2.8v1.2c0 .2-.2.4-.4.4s-.4-.2-.4-.4v-1.2c-1.3-.1-2.4-.6-3.4-1.5-.1-.1-.2-.2-.2-.3 0-.2.2-.4.4-.4.1 0 .2.1.3.1.8.8 1.8 1.2 2.9 1.4v-4.3c-2.2-.5-3.2-1.3-3.2-2.8 0-1.5 1.3-2.7 3.1-2.7v-.6c.1-.1.3-.3.5-.3zm-.3 5.7v-4.1c-1.5 0-2.4.9-2.4 2-.1 1 .4 1.7 2.4 2.1zm.6.9v4.1c1.5 0 2.5-.9 2.5-2 0-1-.5-1.6-2.5-2.1z"/></g><g class="st11"><path class="st12" d="M1046.5 180.3c.3 0 .5.2.5.5v.8c1.5.1 2.6.6 3.7 1.5.2.1.3.3.3.5 0 .3-.3.5-.5.5-.1 0-.2 0-.4-.1-1-.8-2-1.2-3.1-1.4v5.9c3.2.7 4.5 1.9 4.5 3.9 0 2.2-1.9 3.8-4.5 3.9v1.6c0 .3-.2.5-.5.5s-.5-.2-.5-.5v-1.7c-1.8-.1-3.3-.8-4.7-2-.1-.1-.2-.3-.2-.4 0-.3.3-.5.5-.5s.3.1.4.1c1.2 1.1 2.5 1.7 4.1 1.9v-6c-3.1-.7-4.5-1.8-4.5-3.9 0-2.1 1.8-3.7 4.4-3.8v-.8c0-.3.2-.5.5-.5zm-.4 8v-5.7c-2 0-3.4 1.3-3.4 2.8 0 1.4.6 2.2 3.4 2.9zm.9 1.3v5.8c2.1 0 3.5-1.3 3.5-2.9-.1-1.4-.8-2.3-3.5-2.9z"/></g><g class="st11"><path class="st12" d="M953.4 192.3c.2 0 .4.2.4.4v.7c1.3.1 2.2.5 3.2 1.3.2.1.3.2.3.4 0 .3-.2.5-.5.5-.1 0-.2 0-.3-.1-.9-.7-1.7-1.1-2.7-1.2v5c2.7.6 3.9 1.6 3.9 3.4 0 1.9-1.6 3.3-3.9 3.3v1.4c0 .2-.2.4-.4.4s-.4-.2-.4-.4V206c-1.6-.1-2.8-.7-4.1-1.7-.1-.1-.2-.2-.2-.4s.2-.5.5-.5c.2 0 .3.1.3.1 1 .9 2.1 1.5 3.5 1.6V200c-2.7-.6-3.8-1.6-3.8-3.4 0-1.8 1.6-3.2 3.8-3.3v-.7c0-.1.2-.3.4-.3zm-.4 6.9v-4.9c-1.7 0-2.9 1.1-2.9 2.4 0 1.1.6 1.9 2.9 2.5zm.8 1.1v5c1.8 0 3-1.1 3-2.4 0-1.4-.7-2.1-3-2.6z"/></g><g class="st11"><path class="st7" d="M339.4 43.5c0-.4.3-.8.8-.8.4 0 .8.3.8.8v4.9h2.8c.4 0 .7.3.7.7 0 .4-.3.7-.7.7h-3.6c-.4 0-.8-.3-.8-.8v-5.5zM345.5 43.1c0-.4.4-.7.8-.7.5 0 .8.3.8.7 0 .4-.4.7-.8.7-.5 0-.8-.2-.8-.7zm0 2c0-.4.3-.8.8-.8.4 0 .8.3.8.8v4c0 .4-.3.8-.8.8-.4 0-.8-.3-.8-.8v-4zM348.5 45.1c0-.4.3-.8.8-.8.4 0 .8.3.8.8v.1c.4-.4.8-.9 1.6-.9.7 0 1.2.3 1.5.8.5-.5 1-.8 1.8-.8 1.1 0 1.8.7 1.8 2V49c0 .4-.3.8-.8.8-.4 0-.8-.3-.8-.8v-2.3c0-.7-.3-1.1-.9-1.1-.6 0-.9.4-.9 1.1V49c0 .4-.3.8-.8.8-.4 0-.8-.3-.8-.8v-2.3c0-.7-.3-1.1-.9-1.1-.6 0-.9.4-.9 1.1V49c0 .4-.3.8-.8.8-.4 0-.8-.3-.8-.8v-3.9zM358 43.1c0-.4.4-.7.8-.7.5 0 .8.3.8.7 0 .4-.4.7-.8.7-.5 0-.8-.2-.8-.7zm.1 2c0-.4.3-.8.8-.8.4 0 .8.3.8.8v4c0 .4-.3.8-.8.8-.4 0-.8-.3-.8-.8v-4zM361.3 48.2v-2.5h-.1c-.4 0-.6-.3-.6-.6 0-.4.3-.7.6-.7h.1v-.7c0-.4.3-.8.8-.8.4 0 .8.3.8.8v.7h.7c.4 0 .6.3.6.7 0 .4-.3.6-.6.6h-.7V48c0 .3.1.5.5.5h.2c.3 0 .6.3.6.6s-.2.5-.4.6c-.3.1-.5.1-.9.1-1 0-1.6-.3-1.6-1.6z"/></g><g class="st11"><path class="st7" d="M1145.3 43.5c0-.4.3-.8.8-.8.4 0 .8.3.8.8v4.9h2.8c.4 0 .7.3.7.7 0 .4-.3.7-.7.7h-3.6c-.4 0-.8-.3-.8-.8v-5.5zM1151.3 43.1c0-.4.4-.7.8-.7.5 0 .8.3.8.7 0 .4-.4.7-.8.7s-.8-.2-.8-.7zm.1 2c0-.4.3-.8.8-.8.4 0 .8.3.8.8v4c0 .4-.3.8-.8.8-.4 0-.8-.3-.8-.8v-4zM1154.3 45.1c0-.4.3-.8.8-.8.4 0 .8.3.8.8v.1c.4-.4.8-.9 1.6-.9.7 0 1.2.3 1.5.8.5-.5 1-.8 1.8-.8 1.1 0 1.8.7 1.8 2V49c0 .4-.3.8-.8.8-.4 0-.8-.3-.8-.8v-2.3c0-.7-.3-1.1-.9-1.1s-.9.4-.9 1.1V49c0 .4-.3.8-.8.8-.4 0-.8-.3-.8-.8v-2.3c0-.7-.3-1.1-.9-1.1s-.9.4-.9 1.1V49c0 .4-.3.8-.8.8-.4 0-.8-.3-.8-.8v-3.9zM1163.8 43.1c0-.4.4-.7.8-.7s.8.3.8.7c0 .4-.4.7-.8.7s-.8-.2-.8-.7zm.1 2c0-.4.3-.8.8-.8s.8.3.8.8v4c0 .4-.3.8-.8.8s-.8-.3-.8-.8v-4zM1167.1 48.2v-2.5h-.1c-.4 0-.6-.3-.6-.6 0-.4.3-.7.6-.7h.1v-.7c0-.4.3-.8.8-.8.4 0 .8.3.8.8v.7h.7c.4 0 .6.3.6.7 0 .4-.3.6-.6.6h-.7V48c0 .3.2.5.5.5h.2c.3 0 .6.3.6.6s-.2.5-.4.6c-.3.1-.5.1-.9.1-1 0-1.6-.3-1.6-1.6z"/></g></svg>