<svg xmlns="http://www.w3.org/2000/svg" viewBox="0 0 343.533 371.773">
    <defs>
        <style>
            .cls-1,.cls-2,.cls-3{fill:none;stroke-linejoin:round;stroke-miterlimit:10;stroke-width:3px}.cls-1,.cls-2{stroke:#26c6ec}.cls-1,.cls-3{stroke-linecap:round}.cls-3{stroke:#ff859e}.cls-4{filter:url(#Path_292)}.cls-5{filter:url(#Ellipse_32)}.cls-6{filter:url(#Ellipse_31)}.cls-7{filter:url(#Ellipse_30)}.cls-8{filter:url(#Line_31)}.cls-9{filter:url(#Line_30)}.cls-10{filter:url(#Line_29)}.cls-11{filter:url(#Line_28)}.cls-12{filter:url(#Line_27)}.cls-13{filter:url(#Line_26)}.cls-14{filter:url(#Line_25)}.cls-15{filter:url(#Line_24)}.cls-16{filter:url(#Line_23)}.cls-17{filter:url(#Line_22)}.cls-18{filter:url(#Path_290)}.cls-19{filter:url(#Path_289)}.cls-20{filter:url(#Line_21)}.cls-21{filter:url(#Path_288)}.cls-22{filter:url(#Line_20)}.cls-23{filter:url(#Path_287)}.cls-24{filter:url(#Path_286)}.cls-25{filter:url(#Path_285)}.cls-26{filter:url(#Path_284)}.cls-27{filter:url(#Path_283)}.cls-28{filter:url(#Path_282)}.cls-29{filter:url(#Line_19)}.cls-30{filter:url(#Line_18)}.cls-31{filter:url(#Path_281)}.cls-32{filter:url(#Path_280)}.cls-33{filter:url(#Path_279)}.cls-34{filter:url(#Path_278)}.cls-35{filter:url(#Path_277)}.cls-36{filter:url(#Path_276)}.cls-37{filter:url(#Path_275)}.cls-38{filter:url(#Path_273)}.cls-39{filter:url(#Path_272)}.cls-40{filter:url(#Path_271)}.cls-41{filter:url(#Path_270)}.cls-42{filter:url(#Path_269)}.cls-43{filter:url(#Path_268)}.cls-44{filter:url(#Path_267)}.cls-45{filter:url(#Path_266)}.cls-46{filter:url(#Path_265)}.cls-47{filter:url(#Path_264)}.cls-48{filter:url(#Path_263)}.cls-49{filter:url(#Path_262)}.cls-50{filter:url(#Path_261)}.cls-51{filter:url(#Path_260)}.cls-52{filter:url(#Path_259)}.cls-53{filter:url(#Path_258)}.cls-54{filter:url(#Path_257)}
        </style>
        <filter id="Path_257" width="135.457" height="89.331" x="158.685" y="13.54" filterUnits="userSpaceOnUse">
            <feOffset dy="3"/>
            <feGaussianBlur result="blur" stdDeviation="3"/>
            <feFlood flood-color="#21cbeb" flood-opacity=".922"/>
            <feComposite in2="blur" operator="in"/>
            <feComposite in="SourceGraphic"/>
        </filter>
        <filter id="Path_258" width="21" height="24.34" x="283.252" y="94.418" filterUnits="userSpaceOnUse">
            <feOffset dy="3"/>
            <feGaussianBlur result="blur-2" stdDeviation="3"/>
            <feFlood flood-color="#21cbeb" flood-opacity=".922"/>
            <feComposite in2="blur-2" operator="in"/>
            <feComposite in="SourceGraphic"/>
        </filter>
        <filter id="Path_259" width="91.137" height="63.876" x="201.2" y="112.11" filterUnits="userSpaceOnUse">
            <feOffset dy="3"/>
            <feGaussianBlur result="blur-3" stdDeviation="3"/>
            <feFlood flood-color="#21cbeb" flood-opacity=".922"/>
            <feComposite in2="blur-3" operator="in"/>
            <feComposite in="SourceGraphic"/>
        </filter>
        <filter id="Path_260" width="43.386" height="53.496" x="160.49" y="112.02" filterUnits="userSpaceOnUse">
            <feOffset dy="3"/>
            <feGaussianBlur result="blur-4" stdDeviation="3"/>
            <feFlood flood-color="#21cbeb" flood-opacity=".922"/>
            <feComposite in2="blur-4" operator="in"/>
            <feComposite in="SourceGraphic"/>
        </filter>
        <filter id="Path_261" width="21" height="24.34" x="148.575" y="94.418" filterUnits="userSpaceOnUse">
            <feOffset dy="3"/>
            <feGaussianBlur result="blur-5" stdDeviation="3"/>
            <feFlood flood-color="#21cbeb" flood-opacity=".922"/>
            <feComposite in2="blur-5" operator="in"/>
            <feComposite in="SourceGraphic"/>
        </filter>
        <filter id="Path_262" width="54.669" height="27.702" x="199.034" y="121.317" filterUnits="userSpaceOnUse">
            <feOffset dy="3"/>
            <feGaussianBlur result="blur-6" stdDeviation="3"/>
            <feFlood flood-color="#21cbeb" flood-opacity=".922"/>
            <feComposite in2="blur-6" operator="in"/>
            <feComposite in="SourceGraphic"/>
        </filter>
        <filter id="Path_263" width="37.789" height="26.596" x="229.453" y="85.392" filterUnits="userSpaceOnUse">
            <feOffset dy="3"/>
            <feGaussianBlur result="blur-7" stdDeviation="3"/>
            <feFlood flood-color="#21cbeb" flood-opacity=".922"/>
            <feComposite in2="blur-7" operator="in"/>
            <feComposite in="SourceGraphic"/>
        </filter>
        <filter id="Path_264" width="37.789" height="26.596" x="185.584" y="84.308" filterUnits="userSpaceOnUse">
            <feOffset dy="3"/>
            <feGaussianBlur result="blur-8" stdDeviation="3"/>
            <feFlood flood-color="#21cbeb" flood-opacity=".922"/>
            <feComposite in2="blur-8" operator="in"/>
            <feComposite in="SourceGraphic"/>
        </filter>
        <filter id="Path_265" width="135.457" height="89.331" x="158.685" y="13.54" filterUnits="userSpaceOnUse">
            <feOffset dy="3"/>
            <feGaussianBlur result="blur-9" stdDeviation="3"/>
            <feFlood flood-color="#21cbeb" flood-opacity=".922"/>
            <feComposite in2="blur-9" operator="in"/>
            <feComposite in="SourceGraphic"/>
        </filter>
        <filter id="Path_266" width="129.861" height="64.779" x="161.483" y="50.639" filterUnits="userSpaceOnUse">
            <feOffset dy="3"/>
            <feGaussianBlur result="blur-10" stdDeviation="3"/>
            <feFlood flood-color="#21cbeb" flood-opacity=".922"/>
            <feComposite in2="blur-10" operator="in"/>
            <feComposite in="SourceGraphic"/>
        </filter>
        <filter id="Path_267" width="54.669" height="61.439" x="148.485" y="107.868" filterUnits="userSpaceOnUse">
            <feOffset dy="3"/>
            <feGaussianBlur result="blur-11" stdDeviation="3"/>
            <feFlood flood-color="#21cbeb" flood-opacity=".922"/>
            <feComposite in2="blur-11" operator="in"/>
            <feComposite in="SourceGraphic"/>
        </filter>
        <filter id="Path_268" width="169.217" height="101.878" x="141.805" y="0" filterUnits="userSpaceOnUse">
            <feOffset dy="3"/>
            <feGaussianBlur result="blur-12" stdDeviation="3"/>
            <feFlood flood-color="#21cbeb" flood-opacity=".922"/>
            <feComposite in2="blur-12" operator="in"/>
            <feComposite in="SourceGraphic"/>
        </filter>
        <filter id="Path_269" width="41.22" height="54.759" x="135.035" y="80.788" filterUnits="userSpaceOnUse">
            <feOffset dy="3"/>
            <feGaussianBlur result="blur-13" stdDeviation="3"/>
            <feFlood flood-color="#21cbeb" flood-opacity=".922"/>
            <feComposite in2="blur-13" operator="in"/>
            <feComposite in="SourceGraphic"/>
        </filter>
        <filter id="Path_270" width="34.54" height="54.76" x="148.485" y="80.878" filterUnits="userSpaceOnUse">
            <feOffset dy="3"/>
            <feGaussianBlur result="blur-14" stdDeviation="3"/>
            <feFlood flood-color="#21cbeb" flood-opacity=".922"/>
            <feComposite in2="blur-14" operator="in"/>
            <feComposite in="SourceGraphic"/>
        </filter>
        <filter id="Path_271" width="41.22" height="54.759" x="276.482" y="80.788" filterUnits="userSpaceOnUse">
            <feOffset dy="3"/>
            <feGaussianBlur result="blur-15" stdDeviation="3"/>
            <feFlood flood-color="#21cbeb" flood-opacity=".922"/>
            <feComposite in2="blur-15" operator="in"/>
            <feComposite in="SourceGraphic"/>
        </filter>
        <filter id="Path_272" width="34.45" height="54.76" x="269.802" y="80.878" filterUnits="userSpaceOnUse">
            <feOffset dy="3"/>
            <feGaussianBlur result="blur-16" stdDeviation="3"/>
            <feFlood flood-color="#21cbeb" flood-opacity=".922"/>
            <feComposite in2="blur-16" operator="in"/>
            <feComposite in="SourceGraphic"/>
        </filter>
        <filter id="Path_273" width="41.22" height="41.22" x="182.154" y="138.197" filterUnits="userSpaceOnUse">
            <feOffset dy="3"/>
            <feGaussianBlur result="blur-17" stdDeviation="3"/>
            <feFlood flood-color="#21cbeb" flood-opacity=".922"/>
            <feComposite in2="blur-17" operator="in"/>
            <feComposite in="SourceGraphic"/>
        </filter>
        <filter id="Path_275" width="68.119" height="61.529" x="222.232" y="289.031" filterUnits="userSpaceOnUse">
            <feOffset dy="3"/>
            <feGaussianBlur result="blur-18" stdDeviation="3"/>
            <feFlood flood-color="#21cbeb" flood-opacity=".922"/>
            <feComposite in2="blur-18" operator="in"/>
            <feComposite in="SourceGraphic"/>
        </filter>
        <filter id="Path_276" width="87.345" height="139.629" x="236.675" y="160.403" filterUnits="userSpaceOnUse">
            <feOffset dy="3"/>
            <feGaussianBlur result="blur-19" stdDeviation="3"/>
            <feFlood flood-color="#21cbeb" flood-opacity=".922"/>
            <feComposite in2="blur-19" operator="in"/>
            <feComposite in="SourceGraphic"/>
        </filter>
        <filter id="Path_277" width="68.119" height="61.529" x="222.232" y="289.031" filterUnits="userSpaceOnUse">
            <feOffset dy="3"/>
            <feGaussianBlur result="blur-20" stdDeviation="3"/>
            <feFlood flood-color="#21cbeb" flood-opacity=".922"/>
            <feComposite in2="blur-20" operator="in"/>
            <feComposite in="SourceGraphic"/>
        </filter>
        <filter id="Path_278" width="87.797" height="96.552" x="128.446" y="160.132" filterUnits="userSpaceOnUse">
            <feOffset dy="3"/>
            <feGaussianBlur result="blur-21" stdDeviation="3"/>
            <feFlood flood-color="#21cbeb" flood-opacity=".922"/>
            <feComposite in2="blur-21" operator="in"/>
            <feComposite in="SourceGraphic"/>
        </filter>
        <filter id="Path_279" width="53.796" height="135.548" x="199.072" y="174.484" filterUnits="userSpaceOnUse">
            <feOffset dy="3"/>
            <feGaussianBlur result="blur-22" stdDeviation="3"/>
            <feFlood flood-color="#21cbeb" flood-opacity=".922"/>
            <feComposite in2="blur-22" operator="in"/>
            <feComposite in="SourceGraphic"/>
        </filter>
        <filter id="Path_280" width="63.154" height="52.942" x="215.462" y="160.403" filterUnits="userSpaceOnUse">
            <feOffset dy="3"/>
            <feGaussianBlur result="blur-23" stdDeviation="3"/>
            <feFlood flood-color="#21cbeb" flood-opacity=".922"/>
            <feComposite in2="blur-23" operator="in"/>
            <feComposite in="SourceGraphic"/>
        </filter>
        <filter id="Path_281" width="63.154" height="52.942" x="173.308" y="160.403" filterUnits="userSpaceOnUse">
            <feOffset dy="3"/>
            <feGaussianBlur result="blur-24" stdDeviation="3"/>
            <feFlood flood-color="#21cbeb" flood-opacity=".922"/>
            <feComposite in2="blur-24" operator="in"/>
            <feComposite in="SourceGraphic"/>
        </filter>
        <filter id="Line_18" width="21" height="53.135" x="161.573" y="248.683" filterUnits="userSpaceOnUse">
            <feOffset dy="3"/>
            <feGaussianBlur result="blur-25" stdDeviation="3"/>
            <feFlood flood-color="#21cbeb" flood-opacity=".922"/>
            <feComposite in2="blur-25" operator="in"/>
            <feComposite in="SourceGraphic"/>
        </filter>
        <filter id="Line_19" width="21" height="61.439" x="269.351" y="248.593" filterUnits="userSpaceOnUse">
            <feOffset dy="3"/>
            <feGaussianBlur result="blur-26" stdDeviation="3"/>
            <feFlood flood-color="#21cbeb" flood-opacity=".922"/>
            <feComposite in2="blur-26" operator="in"/>
            <feComposite in="SourceGraphic"/>
        </filter>
        <filter id="Path_282" width="39.866" height="31.2" x="203.366" y="319.361" filterUnits="userSpaceOnUse">
            <feOffset dy="3"/>
            <feGaussianBlur result="blur-27" stdDeviation="3"/>
            <feFlood flood-color="#21cbeb" flood-opacity=".922"/>
            <feComposite in2="blur-27" operator="in"/>
            <feComposite in="SourceGraphic"/>
        </filter>
        <filter id="Path_283" width="18" height="18" x="58.726" y="334.311" filterUnits="userSpaceOnUse">
            <feOffset dy="3"/>
            <feGaussianBlur result="blur-28" stdDeviation="3"/>
            <feFlood flood-color="#21cbeb" flood-opacity=".922"/>
            <feComposite in2="blur-28" operator="in"/>
            <feComposite in="SourceGraphic"/>
        </filter>
        <filter id="Path_284" width="61.62" height="108.016" x="124.113" y="249.766" filterUnits="userSpaceOnUse">
            <feOffset dy="3"/>
            <feGaussianBlur result="blur-29" stdDeviation="3"/>
            <feFlood flood-color="#21cbeb" flood-opacity=".922"/>
            <feComposite in2="blur-29" operator="in"/>
            <feComposite in="SourceGraphic"/>
        </filter>
        <filter id="Path_285" width="136.089" height="34.991" x="42.783" y="336.782" filterUnits="userSpaceOnUse">
            <feOffset dy="3"/>
            <feGaussianBlur result="blur-30" stdDeviation="3"/>
            <feFlood flood-color="#21cbeb" flood-opacity=".922"/>
            <feComposite in2="blur-30" operator="in"/>
            <feComposite in="SourceGraphic"/>
        </filter>
        <filter id="Path_286" width="74.528" height="34.991" x="157.782" y="336.782" filterUnits="userSpaceOnUse">
            <feOffset dy="3"/>
            <feGaussianBlur result="blur-31" stdDeviation="3"/>
            <feFlood flood-color="#21cbeb" flood-opacity=".922"/>
            <feComposite in2="blur-31" operator="in"/>
            <feComposite in="SourceGraphic"/>
        </filter>
        <filter id="Path_287" width="43.383" height="41.966" x="70.859" y="282.147" filterUnits="userSpaceOnUse">
            <feOffset dy="3"/>
            <feGaussianBlur result="blur-32" stdDeviation="3"/>
            <feFlood flood-color="#21cbeb" flood-opacity=".922"/>
            <feComposite in2="blur-32" operator="in"/>
            <feComposite in="SourceGraphic"/>
        </filter>
        <filter id="Line_20" width="24.77" height="24.77" x="84.226" y="271.892" filterUnits="userSpaceOnUse">
            <feOffset dy="3"/>
            <feGaussianBlur result="blur-33" stdDeviation="3"/>
            <feFlood flood-color="#21cbeb" flood-opacity=".922"/>
            <feComposite in2="blur-33" operator="in"/>
            <feComposite in="SourceGraphic"/>
        </filter>
        <filter id="Path_288" width="156.438" height="108.016" x="16.747" y="249.766" filterUnits="userSpaceOnUse">
            <feOffset dy="3"/>
            <feGaussianBlur result="blur-34" stdDeviation="3"/>
            <feFlood flood-color="#21cbeb" flood-opacity=".922"/>
            <feComposite in2="blur-34" operator="in"/>
            <feComposite in="SourceGraphic"/>
        </filter>
        <filter id="Line_21" width="21" height="30.117" x="236.675" y="151.286" filterUnits="userSpaceOnUse">
            <feOffset dy="3"/>
            <feGaussianBlur result="blur-35" stdDeviation="3"/>
            <feFlood flood-color="#21cbeb" flood-opacity=".922"/>
            <feComposite in2="blur-35" operator="in"/>
            <feComposite in="SourceGraphic"/>
        </filter>
        <filter id="Path_289" width="49.326" height="158.191" x="294.207" y="103.154" filterUnits="userSpaceOnUse">
            <feOffset dy="3"/>
            <feGaussianBlur result="blur-36" stdDeviation="3"/>
            <feFlood flood-color="#21cbeb" flood-opacity=".922"/>
            <feComposite in2="blur-36" operator="in"/>
            <feComposite in="SourceGraphic"/>
        </filter>
        <filter id="Path_290" width="188.095" height="253.803" x="0" y="17.849" filterUnits="userSpaceOnUse">
            <feOffset dy="3"/>
            <feGaussianBlur result="blur-37" stdDeviation="3"/>
            <feFlood flood-color="#21cbeb" flood-opacity=".922"/>
            <feComposite in2="blur-37" operator="in"/>
            <feComposite in="SourceGraphic"/>
        </filter>
        <filter id="Line_22" width="38.491" height="38.49" x="20.859" y="186.59" filterUnits="userSpaceOnUse">
            <feOffset dy="3"/>
            <feGaussianBlur result="blur-38" stdDeviation="3"/>
            <feFlood flood-color="#21cbeb" flood-opacity=".922"/>
            <feComposite in2="blur-38" operator="in"/>
            <feComposite in="SourceGraphic"/>
        </filter>
        <filter id="Line_23" width="29.103" height="29.103" x="55.883" y="191.826" filterUnits="userSpaceOnUse">
            <feOffset dy="3"/>
            <feGaussianBlur result="blur-39" stdDeviation="3"/>
            <feFlood flood-color="#21cbeb" flood-opacity=".922"/>
            <feComposite in2="blur-39" operator="in"/>
            <feComposite in="SourceGraphic"/>
        </filter>
        <filter id="Line_24" width="29.103" height="29.103" x="55.883" y="191.826" filterUnits="userSpaceOnUse">
            <feOffset dy="3"/>
            <feGaussianBlur result="blur-40" stdDeviation="3"/>
            <feFlood flood-color="#21cbeb" flood-opacity=".922"/>
            <feComposite in2="blur-40" operator="in"/>
            <feComposite in="SourceGraphic"/>
        </filter>
        <filter id="Line_25" width="28.651" height="28.561" x="39.454" y="191.194" filterUnits="userSpaceOnUse">
            <feOffset dy="3"/>
            <feGaussianBlur result="blur-41" stdDeviation="3"/>
            <feFlood flood-color="#21cbeb" flood-opacity=".922"/>
            <feComposite in2="blur-41" operator="in"/>
            <feComposite in="SourceGraphic"/>
        </filter>
        <filter id="Line_26" width="24.95" height="25.04" x="68.159" y="211.053" filterUnits="userSpaceOnUse">
            <feOffset dy="3"/>
            <feGaussianBlur result="blur-42" stdDeviation="3"/>
            <feFlood flood-color="#21cbeb" flood-opacity=".922"/>
            <feComposite in2="blur-42" operator="in"/>
            <feComposite in="SourceGraphic"/>
        </filter>
        <filter id="Line_27" width="21" height="39.685" x="283.424" y="137.926" filterUnits="userSpaceOnUse">
            <feOffset dy="3"/>
            <feGaussianBlur result="blur-43" stdDeviation="3"/>
            <feFlood flood-color="#21cbeb" flood-opacity=".922"/>
            <feComposite in2="blur-43" operator="in"/>
            <feComposite in="SourceGraphic"/>
        </filter>
        <filter id="Line_28" width="21" height="28.853" x="300.484" y="161.034" filterUnits="userSpaceOnUse">
            <feOffset dy="3"/>
            <feGaussianBlur result="blur-44" stdDeviation="3"/>
            <feFlood flood-color="#21cbeb" flood-opacity=".922"/>
            <feComposite in2="blur-44" operator="in"/>
            <feComposite in="SourceGraphic"/>
        </filter>
        <filter id="Line_29" width="28.853" height="21" x="296.602" y="165.006" filterUnits="userSpaceOnUse">
            <feOffset dy="3"/>
            <feGaussianBlur result="blur-45" stdDeviation="3"/>
            <feFlood flood-color="#21cbeb" flood-opacity=".922"/>
            <feComposite in2="blur-45" operator="in"/>
            <feComposite in="SourceGraphic"/>
        </filter>
        <filter id="Line_30" width="21" height="28.312" x="291.457" y="151.195" filterUnits="userSpaceOnUse">
            <feOffset dy="3"/>
            <feGaussianBlur result="blur-46" stdDeviation="3"/>
            <feFlood flood-color="#21cbeb" flood-opacity=".922"/>
            <feComposite in2="blur-46" operator="in"/>
            <feComposite in="SourceGraphic"/>
        </filter>
        <filter id="Line_31" width="21" height="24.159" x="296.512" y="179.178" filterUnits="userSpaceOnUse">
            <feOffset dy="3"/>
            <feGaussianBlur result="blur-47" stdDeviation="3"/>
            <feFlood flood-color="#21cbeb" flood-opacity=".922"/>
            <feComposite in2="blur-47" operator="in"/>
            <feComposite in="SourceGraphic"/>
        </filter>
        <filter id="Ellipse_30" width="39.526" height="39.526" x="46.88" y="80.461" filterUnits="userSpaceOnUse">
            <feOffset dy="3"/>
            <feGaussianBlur result="blur-48" stdDeviation="3"/>
            <feFlood flood-color="#ff859e" flood-opacity=".922"/>
            <feComposite in2="blur-48" operator="in"/>
            <feComposite in="SourceGraphic"/>
        </filter>
        <filter id="Ellipse_31" width="22.797" height="22.797" x="50.82" y="88.826" filterUnits="userSpaceOnUse">
            <feOffset dy="3"/>
            <feGaussianBlur result="blur-49" stdDeviation="3"/>
            <feFlood flood-color="#ff859e" flood-opacity=".922"/>
            <feComposite in2="blur-49" operator="in"/>
            <feComposite in="SourceGraphic"/>
        </filter>
        <filter id="Ellipse_32" width="22.797" height="22.797" x="55.244" y="84.471" filterUnits="userSpaceOnUse">
            <feOffset dy="3"/>
            <feGaussianBlur result="blur-50" stdDeviation="3"/>
            <feFlood flood-color="#ff859e" flood-opacity=".922"/>
            <feComposite in2="blur-50" operator="in"/>
            <feComposite in="SourceGraphic"/>
        </filter>
        <filter id="Path_292" width="26.455" height="26.527" x="55.452" y="89.033" filterUnits="userSpaceOnUse">
            <feOffset dy="3"/>
            <feGaussianBlur result="blur-51" stdDeviation="3"/>
            <feFlood flood-color="#ff859e" flood-opacity=".922"/>
            <feComposite in2="blur-51" operator="in"/>
            <feComposite in="SourceGraphic"/>
        </filter>
    </defs>
    <g id="img_supportIll" transform="translate(-16.097 -3.568)">
        <g id="Group_65" data-name="Group 65" transform="translate(43.383 11.068)">
            <g class="cls-54" transform="translate(-27.29 -7.5)">
                <path id="Path_257-2" d="M319.557 95.431v-11.1a57.229 57.229 0 1 0-114.457 0v11.01" class="cls-1" data-name="Path 257" transform="translate(-35.92 -6.06)"/>
            </g>
            <g class="cls-53" transform="translate(-27.29 -7.5)">
                <path id="Path_258-2" d="M343.1 120.04v-3.34" class="cls-1" data-name="Path 258" transform="translate(-49.35 -14.78)"/>
            </g>
            <g class="cls-52" transform="translate(-27.29 -7.5)">
                <path id="Path_259-2" d="M252.2 177.281a56.69 56.69 0 0 0 14.713 1.9 57.337 57.337 0 0 0 55.424-42.881" class="cls-1" data-name="Path 259" transform="translate(-40.5 -16.69)"/>
            </g>
            <g class="cls-51" transform="translate(-27.29 -7.5)">
                <path id="Path_260-2" d="M207.1 136.2a57.293 57.293 0 0 0 22.386 32.5" class="cls-1" data-name="Path 260" transform="translate(-36.11 -16.68)"/>
            </g>
            <g class="cls-50" transform="translate(-27.29 -7.5)">
                <path id="Path_261-2" d="M193.9 116.7v3.34" class="cls-1" data-name="Path 261" transform="translate(-34.82 -14.78)"/>
            </g>
            <g class="cls-49" transform="translate(-27.29 -7.5)">
                <path id="Path_262-2" d="M249.8 146.5c10.2 8.936 23.469 8.936 33.669 0" class="cls-1" data-name="Path 262" transform="translate(-40.27 -17.68)"/>
            </g>
            <g class="cls-48" transform="translate(-27.29 -7.5)">
                <path id="Path_263-2" d="M300.289 112.3a9.573 9.573 0 0 0-8.395-5.6c-3.611 0-6.68 2.347-8.395 5.6" class="cls-1" data-name="Path 263" transform="translate(-43.55 -13.81)"/>
            </g>
            <g class="cls-47" transform="translate(-27.29 -7.5)">
                <path id="Path_264-2" d="M251.689 111.1a9.573 9.573 0 0 0-8.395-5.6c-3.611 0-6.68 2.347-8.395 5.6" class="cls-1" data-name="Path 264" transform="translate(-38.82 -13.69)"/>
            </g>
            <g class="cls-46" transform="translate(-27.29 -7.5)">
                <path id="Path_265-2" d="M319.557 95.431v-11.1a57.229 57.229 0 1 0-114.457 0v11.01" class="cls-1" data-name="Path 265" transform="translate(-35.92 -6.06)"/>
            </g>
            <g class="cls-45" transform="translate(-27.29 -7.5)">
                <path id="Path_266-2" d="M208.2 102.591a9.6 9.6 0 0 1 7.312 9.388 57.334 57.334 0 0 0 1.173-23.83c5.958 1.986 15.616-6.409 15.616-6.409V68.2s19.949 6.77 30.329 6.77 30.33-6.77 30.33-6.77v13.45s9.749 8.395 15.616 6.409a57.334 57.334 0 0 0 1.173 23.83 9.6 9.6 0 0 1 7.312-9.388" class="cls-1" data-name="Path 266" transform="translate(-36.22 -10.06)"/>
            </g>
            <g class="cls-44" transform="translate(-27.29 -7.5)">
                <path id="Path_267-2" d="M193.8 131.6v10.11a30.337 30.337 0 0 0 30.329 30.329h3.34" class="cls-1" data-name="Path 267" transform="translate(-34.82 -16.23)"/>
            </g>
            <g class="cls-43" transform="translate(-27.29 -7.5)">
                <path id="Path_268-2" d="M186.4 92.978v-6.77a74.108 74.108 0 0 1 148.217 0v6.77" class="cls-1" data-name="Path 268" transform="translate(-34.09 -4.6)"/>
            </g>
            <g class="cls-42" transform="translate(-27.29 -7.5)">
                <path id="Path_269-2" d="M199.12 135.359h-13.45a6.761 6.761 0 0 1-6.77-6.77V108.37a6.761 6.761 0 0 1 6.77-6.77h13.45" class="cls-1" data-name="Path 269" transform="translate(-33.36 -13.31)"/>
            </g>
            <g class="cls-41" transform="translate(-27.29 -7.5)">
                <path id="Path_270-2" d="M193.8 128.69a6.77 6.77 0 0 0 13.54 0v-20.22a6.77 6.77 0 1 0-13.54 0z" class="cls-1" data-name="Path 270" transform="translate(-34.82 -13.32)"/>
            </g>
            <g class="cls-40" transform="translate(-27.29 -7.5)">
                <path id="Path_271-2" d="M335.6 135.359h13.45a6.761 6.761 0 0 0 6.77-6.77V108.37a6.761 6.761 0 0 0-6.77-6.77H335.6" class="cls-1" data-name="Path 271" transform="translate(-48.62 -13.31)"/>
            </g>
            <g class="cls-39" transform="translate(-27.29 -7.5)">
                <path id="Path_272-2" d="M341.65 128.69a6.725 6.725 0 1 1-13.45 0v-20.22a6.761 6.761 0 0 1 6.77-6.77 6.685 6.685 0 0 1 6.68 6.77z" class="cls-1" data-name="Path 272" transform="translate(-47.9 -13.32)"/>
            </g>
            <g class="cls-38" transform="translate(-27.29 -7.5)">
                <path id="Path_273-2" d="M251.32 175.31a10.11 10.11 0 1 1-10.11-10.11 10.093 10.093 0 0 1 10.11 10.11z" class="cls-1" data-name="Path 273" transform="translate(-38.45 -19.5)"/>
            </g>
            <g id="Group_64" data-name="Group 64" transform="translate(0 151.286)">
                <g id="Group_63" data-name="Group 63">
                    <g class="cls-37" transform="translate(-27.29 -158.784)">
                        <path id="Path_275-2" d="M322.619 332.3c0 25.636-18.866 30.329-33.308 30.329H275.5v10.2" class="cls-1" data-name="Path 275" transform="translate(-42.77 -35.77)"/>
                    </g>
                    <g class="cls-36" transform="translate(-27.29 -158.784)">
                        <path id="Path_276-2" d="M290.079 199.8c38.634 9.117 66.345 33.508 66.345 74.85v43.779" class="cls-1" data-name="Path 276" transform="translate(-42.9 -31.9)"/>
                    </g>
                    <g class="cls-35" transform="translate(-27.29 -158.784)">
                        <path id="Path_277-2" d="M322.619 332.3c0 25.636-18.866 30.329-33.308 30.329H275.5v10.2" class="cls-1" data-name="Path 277" transform="translate(-42.77 -35.77)"/>
                    </g>
                    <g class="cls-34" transform="translate(-27.29 -158.784)">
                        <path id="Path_278-2" d="M171.6 265.053a87.427 87.427 0 0 1 66.8-75.553" class="cls-1" data-name="Path 278" transform="translate(-32.65 -21.87)"/>
                    </g>
                    <g class="cls-33" transform="translate(-27.29 -158.784)">
                        <path id="Path_279-2" d="M276.343 319.947l5.235-10.471a10.2 10.2 0 0 0 .9-6.319L266.233 205.4l-16.248 97.758a10.242 10.242 0 0 0 .993 6.319l5.235 10.471" class="cls-1" data-name="Path 279" transform="translate(-40.27 -23.42)"/>
                    </g>
                    <g class="cls-32" transform="translate(-27.29 -158.784)">
                        <path id="Path_280-2" d="M289.212 189.8L268 203.972l19.227 16.519a5.3 5.3 0 0 0 7.673-.9l15.255-21.574" class="cls-1" data-name="Path 280" transform="translate(-42.04 -21.9)"/>
                    </g>
                    <g class="cls-31" transform="translate(-27.29 -158.784)">
                        <path id="Path_281-2" d="M242.242 189.8l21.212 14.172-19.226 16.518a5.3 5.3 0 0 1-7.673-.9L221.3 198.014" class="cls-1" data-name="Path 281" transform="translate(-37.49 -21.9)"/>
                    </g>
                    <g class="cls-30" transform="translate(-27.29 -158.784)">
                        <path id="Line_18-2" d="M0 32.135V0" class="cls-1" data-name="Line 18" transform="translate(172.07 256.18)"/>
                    </g>
                    <g class="cls-29" transform="translate(-27.29 -158.784)">
                        <path id="Line_19-2" d="M0 0v40.439" class="cls-1" data-name="Line 19" transform="translate(279.85 256.09)"/>
                    </g>
                    <g class="cls-28" transform="translate(-27.29 -158.784)">
                        <path id="Path_282-2" d="M273.466 376.1v-10.2h-10.11a13.582 13.582 0 0 0-8.756 3.25" class="cls-1" data-name="Path 282" transform="translate(-40.73 -39.04)"/>
                    </g>
                    <g class="cls-26" transform="translate(-27.29 -158.784)">
                        <path id="Path_284-2" d="M194.873 375.816h12.547l-26.809-83.135a5.525 5.525 0 0 0-5.326-3.881H166.8z" class="cls-2" data-name="Path 284" transform="translate(-32.19 -31.53)"/>
                    </g>
                    <g class="cls-25" transform="translate(-27.29 -158.784)">
                        <path id="Path_285-2" d="M76.7 385.2h115.089v13.991H87.983A11.191 11.191 0 0 1 76.79 388v-2.8z" class="cls-2" data-name="Path 285" transform="translate(-23.42 -40.92)"/>
                    </g>
                    <g class="cls-24" transform="translate(-27.29 -158.784)">
                        <path id="Path_286-2" d="M204.1 385.2h50.729a2.812 2.812 0 0 1 2.8 2.8 11.191 11.191 0 0 1-11.193 11.193H204.1V385.2z" class="cls-2" data-name="Path 286" transform="translate(-35.82 -40.92)"/>
                    </g>
                    <g class="cls-23" transform="translate(-27.29 -158.784)">
                        <path id="Path_287-2" d="M126.577 332.64a6.124 6.124 0 0 1 2.979-5.235 6.372 6.372 0 0 0-5.056-2.705c-2.166-.271-4.152 1.264-5.235 1.264s-2.8-1.264-4.6-1.173a6.614 6.614 0 0 0-5.687 3.43c-2.437 4.242-.632 10.471 1.715 13.9 1.173 1.625 2.527 3.52 4.333 3.52 1.715-.09 2.437-1.173 4.513-1.173s2.708 1.173 4.513 1.083c1.9 0 3.069-1.715 4.243-3.43a13.691 13.691 0 0 0 1.9-3.881 5.975 5.975 0 0 1-3.618-5.6z" class="cls-2" data-name="Path 287" transform="translate(-26.45 -35.03)"/>
                    </g>
                    <g class="cls-22" transform="translate(-27.29 -158.784)">
                        <path id="Line_20-2" d="M0 2.527L2.527 0" class="cls-1" data-name="Line 20" transform="translate(95.35 280.01)"/>
                    </g>
                    <g class="cls-21" transform="translate(-27.29 -158.784)">
                        <path id="Path_288-2" d="M73.9 375.816h109.4L155.226 288.8H53.5a5.294 5.294 0 0 0-4.513 2.347 5.613 5.613 0 0 0-.812 5.055z" class="cls-2" data-name="Path 288" transform="translate(-20.61 -31.53)"/>
                    </g>
                </g>
                <g class="cls-20" transform="translate(-27.29 -158.79)">
                    <path id="Line_21-2" d="M0 9.117V0" class="cls-1" data-name="Line 21" transform="translate(247.17 158.79)"/>
                </g>
            </g>
        </g>
        <g class="cls-19" transform="translate(16.1 3.57)">
            <path id="Path_289-2" d="M337.1 48.5c15.821 17.86 25.892 44.841 25.892 75 0 23.418-6.064 44.889-16.169 61.7" class="cls-1" data-name="Path 289" transform="translate(-29.08 56.3)"/>
        </g>
        <g class="cls-18" transform="translate(16.1 3.57)">
            <path id="Path_290-2" d="M21.258 234.3A156.647 156.647 0 0 1 158.066 1.5c3.438 0 6.853.11 10.529.347" class="cls-1" data-name="Path 290" transform="translate(9 23.85)"/>
        </g>
        <g id="Group_66" data-name="Group 66">
            <g class="cls-17" transform="translate(16.097 3.57)">
                <path id="Line_22-2" d="M0 0l16.248 16.248" class="cls-1" data-name="Line 22" transform="translate(31.98 194.71)"/>
            </g>
            <g class="cls-16" transform="translate(16.097 3.57)">
                <path id="Line_23-2" d="M0 0l6.86 6.86" class="cls-1" data-name="Line 23" transform="translate(67 199.95)"/>
            </g>
            <g class="cls-15" transform="translate(16.097 3.57)">
                <path id="Line_24-2" d="M6.86 0L0 6.86" class="cls-1" data-name="Line 24" transform="translate(67 199.95)"/>
            </g>
            <g class="cls-14" transform="translate(16.097 3.57)">
                <path id="Line_25-2" d="M6.409 6.319L0 0" class="cls-1" data-name="Line 25" transform="translate(50.58 199.32)"/>
            </g>
            <g class="cls-13" transform="translate(16.097 3.57)">
                <path id="Line_26-2" d="M2.708 2.798L0 0" class="cls-1" data-name="Line 26" transform="translate(79.28 219.17)"/>
            </g>
        </g>
        <g id="Group_67" data-name="Group 67">
            <g class="cls-12" transform="translate(16.1 3.564)">
                <path id="Line_27-2" d="M0 0v18.685" class="cls-1" data-name="Line 27" transform="translate(293.92 145.43)"/>
            </g>
            <g class="cls-11" transform="translate(16.1 3.564)">
                <path id="Line_28-2" d="M0 0v7.853" class="cls-1" data-name="Line 28" transform="translate(310.98 168.53)"/>
            </g>
            <g class="cls-10" transform="translate(16.1 3.564)">
                <path id="Line_29-2" d="M7.853 0H0" class="cls-1" data-name="Line 29" transform="translate(307.1 172.51)"/>
            </g>
            <g class="cls-9" transform="translate(16.1 3.564)">
                <path id="Line_30-2" d="M0 7.312V0" class="cls-1" data-name="Line 30" transform="translate(301.96 158.7)"/>
            </g>
            <g class="cls-8" transform="translate(16.1 3.564)">
                <path id="Line_31-2" d="M0 3.159V0" class="cls-1" data-name="Line 31" transform="translate(307.01 186.68)"/>
            </g>
        </g>
        <g class="cls-7" transform="translate(16.1 3.57)">
            <ellipse id="Ellipse_30-2" cx="9.263" cy="9.263" class="cls-3" data-name="Ellipse 30" rx="9.263" ry="9.263" transform="translate(57.38 87.96)"/>
        </g>
        <g class="cls-6" transform="translate(16.1 3.57)">
            <ellipse id="Ellipse_31-2" cx=".899" cy=".899" class="cls-3" data-name="Ellipse 31" rx=".899" ry=".899" transform="translate(61.32 96.33)"/>
        </g>
        <g class="cls-5" transform="translate(16.1 3.57)">
            <ellipse id="Ellipse_32-2" cx=".899" cy=".899" class="cls-3" data-name="Ellipse 32" rx=".899" ry=".899" transform="translate(65.74 91.97)"/>
        </g>
        <g class="cls-4" transform="translate(16.1 3.57)">
            <path id="Path_292-2" d="M90.5 115.339a3.112 3.112 0 0 0 4.148-.622 3.208 3.208 0 0 0 .622-4.217" class="cls-3" data-name="Path 292" transform="translate(-24.55 -13.97)"/>
        </g>
    </g>
</svg>
