<svg xmlns="http://www.w3.org/2000/svg" viewBox="0 0 391.002 333">
    <defs>
        <style>
            .cls-1,.cls-2{fill:none;stroke-linecap:round;stroke-linejoin:round;stroke-miterlimit:10;stroke-width:3px}.cls-1{stroke:#26c6ec}.cls-2{stroke:#ff859e}.cls-3{filter:url(#Path_305)}.cls-4{filter:url(#Path_304)}.cls-5{filter:url(#Line_42)}.cls-6{filter:url(#Line_41)}.cls-7{filter:url(#Line_40)}.cls-8{filter:url(#Line_39)}.cls-9{filter:url(#Line_38)}.cls-10{filter:url(#Line_37)}.cls-11{filter:url(#Line_36)}.cls-12{filter:url(#Line_35)}.cls-13{filter:url(#Line_34)}.cls-14{filter:url(#Line_33)}.cls-15{filter:url(#Path_303)}.cls-16{filter:url(#Path_302)}.cls-17{filter:url(#Path_301)}.cls-18{filter:url(#Ellipse_33)}.cls-19{filter:url(#Path_300)}.cls-20{filter:url(#Path_299)}.cls-21{filter:url(#Path_298)}.cls-22{filter:url(#Path_297)}.cls-23{filter:url(#Path_296)}.cls-24{filter:url(#Line_32)}.cls-25{filter:url(#Path_295)}.cls-26{filter:url(#Path_294)}.cls-27{filter:url(#Path_293)}
        </style>
        <filter id="Path_293" width="35.444" height="38.36" x="213.347" y="248.236" filterUnits="userSpaceOnUse">
            <feOffset dy="3"/>
            <feGaussianBlur result="blur" stdDeviation="3"/>
            <feFlood flood-color="#21cbeb" flood-opacity=".922"/>
            <feComposite in2="blur" operator="in"/>
            <feComposite in="SourceGraphic"/>
        </filter>
        <filter id="Path_294" width="391.002" height="276.842" x="0" y="27.762" filterUnits="userSpaceOnUse">
            <feOffset dy="3"/>
            <feGaussianBlur result="blur-2" stdDeviation="3"/>
            <feFlood flood-color="#21cbeb" flood-opacity=".922"/>
            <feComposite in2="blur-2" operator="in"/>
            <feComposite in="SourceGraphic"/>
        </filter>
        <filter id="Path_295" width="52.543" height="62.339" x="300.684" y="242.764" filterUnits="userSpaceOnUse">
            <feOffset dy="3"/>
            <feGaussianBlur result="blur-3" stdDeviation="3"/>
            <feFlood flood-color="#21cbeb" flood-opacity=".922"/>
            <feComposite in2="blur-3" operator="in"/>
            <feComposite in="SourceGraphic"/>
        </filter>
        <filter id="Line_32" width="145.458" height="21" x="245.542" y="131.987" filterUnits="userSpaceOnUse">
            <feOffset dy="3"/>
            <feGaussianBlur result="blur-4" stdDeviation="3"/>
            <feFlood flood-color="#21cbeb" flood-opacity=".922"/>
            <feComposite in2="blur-4" operator="in"/>
            <feComposite in="SourceGraphic"/>
        </filter>
        <filter id="Path_296" width="37.401" height="129.278" x="232.988" y="131.987" filterUnits="userSpaceOnUse">
            <feOffset dy="3"/>
            <feGaussianBlur result="blur-5" stdDeviation="3"/>
            <feFlood flood-color="#21cbeb" flood-opacity=".922"/>
            <feComposite in2="blur-5" operator="in"/>
            <feComposite in="SourceGraphic"/>
        </filter>
        <filter id="Path_297" width="85.186" height="39.722" x="249.389" y="174.204" filterUnits="userSpaceOnUse">
            <feOffset dy="3"/>
            <feGaussianBlur result="blur-6" stdDeviation="3"/>
            <feFlood flood-color="#21cbeb" flood-opacity=".922"/>
            <feComposite in2="blur-6" operator="in"/>
            <feComposite in="SourceGraphic"/>
        </filter>
        <filter id="Path_298" width="42.193" height="33.158" x="345.972" y="174.407" filterUnits="userSpaceOnUse">
            <feOffset dy="3"/>
            <feGaussianBlur result="blur-7" stdDeviation="3"/>
            <feFlood flood-color="#21cbeb" flood-opacity=".922"/>
            <feComposite in2="blur-7" operator="in"/>
            <feComposite in="SourceGraphic"/>
        </filter>
        <filter id="Path_299" width="130.564" height="31.732" x="254.828" y="132.987" filterUnits="userSpaceOnUse">
            <feOffset dy="3"/>
            <feGaussianBlur result="blur-8" stdDeviation="3"/>
            <feFlood flood-color="#21cbeb" flood-opacity=".922"/>
            <feComposite in2="blur-8" operator="in"/>
            <feComposite in="SourceGraphic"/>
        </filter>
        <filter id="Path_300" width="92.709" height="68.621" x="274.834" y="175.082" filterUnits="userSpaceOnUse">
            <feOffset dy="3"/>
            <feGaussianBlur result="blur-9" stdDeviation="3"/>
            <feFlood flood-color="#21cbeb" flood-opacity=".922"/>
            <feComposite in2="blur-9" operator="in"/>
            <feComposite in="SourceGraphic"/>
        </filter>
        <filter id="Ellipse_33" width="40.438" height="40.454" x="216.924" y="123.746" filterUnits="userSpaceOnUse">
            <feOffset dy="3"/>
            <feGaussianBlur result="blur-10" stdDeviation="3"/>
            <feFlood flood-color="#21cbeb" flood-opacity=".922"/>
            <feComposite in2="blur-10" operator="in"/>
            <feComposite in="SourceGraphic"/>
        </filter>
        <filter id="Path_301" width="31.664" height="31.672" x="221.311" y="128.07" filterUnits="userSpaceOnUse">
            <feOffset dy="3"/>
            <feGaussianBlur result="blur-11" stdDeviation="3"/>
            <feFlood flood-color="#21cbeb" flood-opacity=".922"/>
            <feComposite in2="blur-11" operator="in"/>
            <feComposite in="SourceGraphic"/>
        </filter>
        <filter id="Path_302" width="271.131" height="124.28" x="81.6" y="0" filterUnits="userSpaceOnUse">
            <feOffset dy="3"/>
            <feGaussianBlur result="blur-12" stdDeviation="3"/>
            <feFlood flood-color="#21cbeb" flood-opacity=".922"/>
            <feComposite in2="blur-12" operator="in"/>
            <feComposite in="SourceGraphic"/>
        </filter>
        <filter id="Path_303" width="288.14" height="226.884" x="29.157" y="106.116" filterUnits="userSpaceOnUse">
            <feOffset dy="3"/>
            <feGaussianBlur result="blur-13" stdDeviation="3"/>
            <feFlood flood-color="#21cbeb" flood-opacity=".922"/>
            <feComposite in2="blur-13" operator="in"/>
            <feComposite in="SourceGraphic"/>
        </filter>
        <filter id="Line_33" width="38.211" height="21" x="263.09" y="59.712" filterUnits="userSpaceOnUse">
            <feOffset dy="3"/>
            <feGaussianBlur result="blur-14" stdDeviation="3"/>
            <feFlood flood-color="#21cbeb" flood-opacity=".922"/>
            <feComposite in2="blur-14" operator="in"/>
            <feComposite in="SourceGraphic"/>
        </filter>
        <filter id="Line_34" width="28.222" height="21" x="251.751" y="75.45" filterUnits="userSpaceOnUse">
            <feOffset dy="3"/>
            <feGaussianBlur result="blur-15" stdDeviation="3"/>
            <feFlood flood-color="#21cbeb" flood-opacity=".922"/>
            <feComposite in2="blur-15" operator="in"/>
            <feComposite in="SourceGraphic"/>
        </filter>
        <filter id="Line_35" width="21" height="28.228" x="255.396" y="71.87" filterUnits="userSpaceOnUse">
            <feOffset dy="3"/>
            <feGaussianBlur result="blur-16" stdDeviation="3"/>
            <feFlood flood-color="#21cbeb" flood-opacity=".922"/>
            <feComposite in2="blur-16" operator="in"/>
            <feComposite in="SourceGraphic"/>
        </filter>
        <filter id="Line_36" width="27.682" height="21" x="261.335" y="67.142" filterUnits="userSpaceOnUse">
            <feOffset dy="3"/>
            <feGaussianBlur result="blur-17" stdDeviation="3"/>
            <feFlood flood-color="#21cbeb" flood-opacity=".922"/>
            <feComposite in2="blur-17" operator="in"/>
            <feComposite in="SourceGraphic"/>
        </filter>
        <filter id="Line_37" width="23.902" height="21" x="239.467" y="71.802" filterUnits="userSpaceOnUse">
            <feOffset dy="3"/>
            <feGaussianBlur result="blur-18" stdDeviation="3"/>
            <feFlood flood-color="#21cbeb" flood-opacity=".922"/>
            <feComposite in2="blur-18" operator="in"/>
            <feComposite in="SourceGraphic"/>
        </filter>
        <filter id="Line_38" width="34.391" height="34.401" x="51.349" y="192.158" filterUnits="userSpaceOnUse">
            <feOffset dy="3"/>
            <feGaussianBlur result="blur-19" stdDeviation="3"/>
            <feFlood flood-color="#21cbeb" flood-opacity=".922"/>
            <feComposite in2="blur-19" operator="in"/>
            <feComposite in="SourceGraphic"/>
        </filter>
        <filter id="Line_39" width="27.305" height="27.309" x="77.536" y="196.076" filterUnits="userSpaceOnUse">
            <feOffset dy="3"/>
            <feGaussianBlur result="blur-20" stdDeviation="3"/>
            <feFlood flood-color="#21cbeb" flood-opacity=".922"/>
            <feComposite in2="blur-20" operator="in"/>
            <feComposite in="SourceGraphic"/>
        </filter>
        <filter id="Line_40" width="27.305" height="27.309" x="77.536" y="196.076" filterUnits="userSpaceOnUse">
            <feOffset dy="3"/>
            <feGaussianBlur result="blur-21" stdDeviation="3"/>
            <feFlood flood-color="#21cbeb" flood-opacity=".922"/>
            <feComposite in2="blur-21" operator="in"/>
            <feComposite in="SourceGraphic"/>
        </filter>
        <filter id="Line_41" width="26.967" height="26.971" x="65.252" y="195.535" filterUnits="userSpaceOnUse">
            <feOffset dy="3"/>
            <feGaussianBlur result="blur-22" stdDeviation="3"/>
            <feFlood flood-color="#21cbeb" flood-opacity=".922"/>
            <feComposite in2="blur-22" operator="in"/>
            <feComposite in="SourceGraphic"/>
        </filter>
        <filter id="Line_42" width="24.267" height="24.269" x="86.648" y="210.463" filterUnits="userSpaceOnUse">
            <feOffset dy="3"/>
            <feGaussianBlur result="blur-23" stdDeviation="3"/>
            <feFlood flood-color="#21cbeb" flood-opacity=".922"/>
            <feComposite in2="blur-23" operator="in"/>
            <feComposite in="SourceGraphic"/>
        </filter>
        <filter id="Path_304" width="35.581" height="35.488" x="130.799" y="60.32" filterUnits="userSpaceOnUse">
            <feOffset dy="3"/>
            <feGaussianBlur result="blur-24" stdDeviation="3"/>
            <feFlood flood-color="#ff859e" flood-opacity=".922"/>
            <feComposite in2="blur-24" operator="in"/>
            <feComposite in="SourceGraphic"/>
        </filter>
        <filter id="Path_305" width="120.08" height="26.269" x="52.848" y="233.308" filterUnits="userSpaceOnUse">
            <feOffset dy="3"/>
            <feGaussianBlur result="blur-25" stdDeviation="3"/>
            <feFlood flood-color="#21cbeb" flood-opacity=".922"/>
            <feComposite in2="blur-25" operator="in"/>
            <feComposite in="SourceGraphic"/>
        </filter>
    </defs>
    <g id="img_dockerIll" transform="translate(9 6)">
        <g id="Group_69" data-name="Group 69">
            <g class="cls-27" transform="translate(-9 -5.998)">
                <path id="Path_293-2" d="M332.044 369a72.842 72.842 0 0 1-14.444 17.36" class="cls-1" data-name="Path 293" transform="translate(-93.75 -113.26)"/>
            </g>
            <g class="cls-26" transform="translate(-9 -5.998)">
                <path id="Path_294-2" d="M178.873 267.734S85.327 229.1 63.257 117.375c0 0-41.846 16.414-61.757-20.8 0 0 11.339-20.061 48.393-10.943 0 0-.337-33.1 24.5-43.027 0 0 29.157 24.452 2.5 64.3 0 0 10.529 11.213 30.71 11.213h252.22s11.339-.068 11.676 12.766v34.652s.742 80.854-69.316 112.6c0 0-38.471 18.711-87.269 2.229 0 0-29.225 27.694-39.349 14.388 0 0-4.927-3.85.2-12.834 0 0 12.014-19.926-11-43.028" class="cls-1" data-name="Path 294" transform="translate(9 -7.34)"/>
            </g>
            <g class="cls-25" transform="translate(-9 -5.998)">
                <path id="Path_295-2" d="M447 381.434v20.8s36.649-.068 30.912-41.339" class="cls-1" data-name="Path 295" transform="translate(-135.82 -110.64)"/>
            </g>
            <g class="cls-24" transform="translate(-9 -5.998)">
                <path id="Line_32-2" d="M0 0h124.458" class="cls-1" data-name="Line 32" transform="translate(256.04 139.49)"/>
            </g>
            <g class="cls-23" transform="translate(-9 -5.998)">
                <path id="Path_296-2" d="M346.7 305.178s13.7-17.089 16.4-56.6l-.2-51.674" class="cls-1" data-name="Path 296" transform="translate(-103.21 -57.41)"/>
            </g>
            <g class="cls-22" transform="translate(-9 -5.998)">
                <path id="Path_297-2" d="M435.186 278.111c-17.818.27-39.484-4.255-64.186-18.711" class="cls-1" data-name="Path 297" transform="translate(-111.11 -77.7)"/>
            </g>
            <g class="cls-21" transform="translate(-9 -5.998)">
                <path id="Path_298-2" d="M535.293 259.7s-7.492 6.822-21.193 12.158" class="cls-1" data-name="Path 298" transform="translate(-157.63 -77.79)"/>
            </g>
            <g class="cls-20" transform="translate(-9 -5.998)">
                <path id="Path_299-2" d="M383.565 196.9s-7.289 15.266 9.989 7.7c0 0 6.412 5.742 12.149 0 0 0 6.749 5.674 12.419 0 0 0 6.277 5.877 12.149 0 0 0 5.8 6.62 12.419 0 0 0 5.332 6.755 12.081 0 0 0 5.8 6.282 12.081 0 0 0 5.6 6.349 12.014 0 0 0 14.781 8.511 12.486-7.7" class="cls-1" data-name="Path 299" transform="translate(-116.7 -56.41)"/>
            </g>
            <g class="cls-19" transform="translate(-9 -5.998)">
                <path id="Path_300-2" d="M408.7 271.17s3.847-10.47 18.763-10.47 20.046 7.7 20.046 17.832V291.3s.135 17.022 17.008 17.022 15.861-15.874 15.861-15.874v-15.2s.81-16.549-16-16.549h-36.915" class="cls-1" data-name="Path 300" transform="translate(-123.37 -78.12)"/>
            </g>
            <g class="cls-18" transform="translate(-9 -5.998)">
                <ellipse id="Ellipse_33-2" cx="9.719" cy="9.727" class="cls-1" data-name="Ellipse 33" rx="9.719" ry="9.727" transform="translate(227.42 131.25)"/>
            </g>
            <g class="cls-17" transform="translate(-9 -5.998)">
                <path id="Path_301-2" d="M334.732 191.1a5.377 5.377 0 1 1-4.05 1.891s.472 3.377 3.307 1.621.743-3.512.743-3.512z" class="cls-1" data-name="Path 301" transform="translate(-97.59 -55.53)"/>
            </g>
        </g>
        <g class="cls-16" transform="translate(-9 -6)">
            <path id="Path_302-2" d="M122.4 40.745a155.86 155.86 0 0 1 250.131 64.035" class="cls-1" data-name="Path 302" transform="translate(-30.3 6)"/>
        </g>
        <g class="cls-15" transform="translate(-9 -6)">
            <path id="Path_303-2" d="M311.839 317.673a155.45 155.45 0 0 1-111.3 46.81C114.488 364.484 44.7 294.64 44.7 208.517a154.761 154.761 0 0 1 8.1-49.917" class="cls-1" data-name="Path 303" transform="translate(-5.04 -44.98)"/>
        </g>
        <g id="Group_70" data-name="Group 70">
            <g class="cls-14" transform="translate(-9.003 -5.998)">
                <path id="Line_33-2" d="M17.211 0H0" class="cls-1" data-name="Line 33" transform="translate(273.59 67.21)"/>
            </g>
            <g class="cls-13" transform="translate(-9.003 -5.998)">
                <path id="Line_34-2" d="M7.222 0H0" class="cls-1" data-name="Line 34" transform="translate(262.25 82.95)"/>
            </g>
            <g class="cls-12" transform="translate(-9.003 -5.998)">
                <path id="Line_35-2" d="M0 7.228V0" class="cls-1" data-name="Line 35" transform="translate(265.9 79.37)"/>
            </g>
            <g class="cls-11" transform="translate(-9.003 -5.998)">
                <path id="Line_36-2" d="M0 0h6.682" class="cls-1" data-name="Line 36" transform="translate(271.84 74.64)"/>
            </g>
            <g class="cls-10" transform="translate(-9.003 -5.998)">
                <path id="Line_37-2" d="M0 0h2.902" class="cls-1" data-name="Line 37" transform="translate(249.97 79.3)"/>
            </g>
        </g>
        <g id="Group_71" data-name="Group 71">
            <g class="cls-9" transform="translate(-9 -6.001)">
                <path id="Line_38-2" d="M0 0l12.149 12.158" class="cls-1" data-name="Line 38" transform="translate(62.47 200.28)"/>
            </g>
            <g class="cls-8" transform="translate(-9 -6.001)">
                <path id="Line_39-2" d="M0 0l5.062 5.066" class="cls-1" data-name="Line 39" transform="translate(88.66 204.2)"/>
            </g>
            <g class="cls-7" transform="translate(-9 -6.001)">
                <path id="Line_40-2" d="M5.062 0L0 5.066" class="cls-1" data-name="Line 40" transform="translate(88.66 204.2)"/>
            </g>
            <g class="cls-6" transform="translate(-9 -6.001)">
                <path id="Line_41-2" d="M4.725 4.728L0 0" class="cls-1" data-name="Line 41" transform="translate(76.37 203.66)"/>
            </g>
            <g class="cls-5" transform="translate(-9 -6.001)">
                <path id="Line_42-2" d="M2.025 2.026L0 0" class="cls-1" data-name="Line 42" transform="translate(97.77 218.58)"/>
            </g>
        </g>
        <g class="cls-4" transform="translate(-9 -6)">
            <path id="Path_304-2" d="M200.6 95.573s-7.424.338-4.522 6.079c2.9 5.674 12.216 3.107 12.351 3.04.068-.135 3.982-8.984-1.215-12.7s-6.614 3.58-6.614 3.58" class="cls-2" data-name="Path 304" transform="translate(-54.03 -23.03)"/>
        </g>
        <g class="cls-3" transform="translate(-9 -6)">
            <path id="Path_305-2" d="M79.8 352.169c8.234 0 8.234-5.269 16.536-5.269 8.234 0 8.234 5.269 16.536 5.269 8.234 0 8.234-5.269 16.536-5.269 8.234 0 8.234 5.269 16.468 5.269s8.234-5.269 16.536-5.269c8.234 0 8.234 5.269 16.468 5.269" class="cls-1" data-name="Path 305" transform="translate(-16.45 -106.09)"/>
        </g>
    </g>
</svg>
