<svg xmlns="http://www.w3.org/2000/svg" xmlns:xlink="http://www.w3.org/1999/xlink" viewBox="0 0 391 342"><defs><style>.a,.b{fill:none;stroke-linecap:round;stroke-linejoin:round;stroke-miterlimit:10;stroke-width:3px;}.a{stroke:#26c6ec;}.b{stroke:#ff859e;}.c{filter:url(#ce);}.d{filter:url(#cc);}.e{filter:url(#ca);}.f{filter:url(#by);}.g{filter:url(#bw);}.h{filter:url(#bu);}.i{filter:url(#bs);}.j{filter:url(#bq);}.k{filter:url(#bo);}.l{filter:url(#bm);}.m{filter:url(#bk);}.n{filter:url(#bi);}.o{filter:url(#bg);}.p{filter:url(#be);}.q{filter:url(#bc);}.r{filter:url(#ba);}.s{filter:url(#ay);}.t{filter:url(#aw);}.u{filter:url(#au);}.v{filter:url(#as);}.w{filter:url(#aq);}.x{filter:url(#ao);}.y{filter:url(#am);}.z{filter:url(#ak);}.aa{filter:url(#ai);}.ab{filter:url(#ag);}.ac{filter:url(#ae);}.ad{filter:url(#ac);}.ae{filter:url(#aa);}.af{filter:url(#y);}.ag{filter:url(#w);}.ah{filter:url(#u);}.ai{filter:url(#s);}.aj{filter:url(#q);}.ak{filter:url(#o);}.al{filter:url(#m);}.am{filter:url(#k);}.an{filter:url(#i);}.ao{filter:url(#g);}.ap{filter:url(#e);}.aq{filter:url(#c);}.ar{filter:url(#a);}</style><filter id="a" x="230.379" y="80.502" width="42.409" height="21" filterUnits="userSpaceOnUse"><feOffset dy="3" input="SourceAlpha"/><feGaussianBlur stdDeviation="3" result="b"/><feFlood flood-color="#21cbeb" flood-opacity="0.922"/><feComposite operator="in" in2="b"/><feComposite in="SourceGraphic"/></filter><filter id="c" x="216.358" y="100.081" width="29.899" height="21" filterUnits="userSpaceOnUse"><feOffset dy="3" input="SourceAlpha"/><feGaussianBlur stdDeviation="3" result="d"/><feFlood flood-color="#21cbeb" flood-opacity="0.922"/><feComposite operator="in" in2="d"/><feComposite in="SourceGraphic"/></filter><filter id="e" x="220.808" y="95.627" width="21" height="29.991" filterUnits="userSpaceOnUse"><feOffset dy="3" input="SourceAlpha"/><feGaussianBlur stdDeviation="3" result="f"/><feFlood flood-color="#21cbeb" flood-opacity="0.922"/><feComposite operator="in" in2="f"/><feComposite in="SourceGraphic"/></filter><filter id="g" x="228.196" y="89.746" width="29.312" height="21" filterUnits="userSpaceOnUse"><feOffset dy="3" input="SourceAlpha"/><feGaussianBlur stdDeviation="3" result="h"/><feFlood flood-color="#21cbeb" flood-opacity="0.922"/><feComposite operator="in" in2="h"/><feComposite in="SourceGraphic"/></filter><filter id="i" x="200.994" y="95.543" width="24.61" height="21" filterUnits="userSpaceOnUse"><feOffset dy="3" input="SourceAlpha"/><feGaussianBlur stdDeviation="3" result="j"/><feFlood flood-color="#21cbeb" flood-opacity="0.922"/><feComposite operator="in" in2="j"/><feComposite in="SourceGraphic"/></filter><filter id="k" x="123.384" y="200.214" width="37.355" height="37.368" filterUnits="userSpaceOnUse"><feOffset dy="3" input="SourceAlpha"/><feGaussianBlur stdDeviation="3" result="l"/><feFlood flood-color="#21cbeb" flood-opacity="0.922"/><feComposite operator="in" in2="l"/><feComposite in="SourceGraphic"/></filter><filter id="m" x="155.875" y="205.088" width="28.623" height="28.629" filterUnits="userSpaceOnUse"><feOffset dy="3" input="SourceAlpha"/><feGaussianBlur stdDeviation="3" result="n"/><feFlood flood-color="#21cbeb" flood-opacity="0.922"/><feComposite operator="in" in2="n"/><feComposite in="SourceGraphic"/></filter><filter id="o" x="155.875" y="205.088" width="28.623" height="28.629" filterUnits="userSpaceOnUse"><feOffset dy="3" input="SourceAlpha"/><feGaussianBlur stdDeviation="3" result="p"/><feFlood flood-color="#21cbeb" flood-opacity="0.922"/><feComposite operator="in" in2="p"/><feComposite in="SourceGraphic"/></filter><filter id="q" x="140.679" y="204.5" width="28.12" height="28.125" filterUnits="userSpaceOnUse"><feOffset dy="3" input="SourceAlpha"/><feGaussianBlur stdDeviation="3" result="r"/><feFlood flood-color="#21cbeb" flood-opacity="0.922"/><feComposite operator="in" in2="r"/><feComposite in="SourceGraphic"/></filter><filter id="s" x="167.293" y="222.986" width="24.761" height="24.763" filterUnits="userSpaceOnUse"><feOffset dy="3" input="SourceAlpha"/><feGaussianBlur stdDeviation="3" result="t"/><feFlood flood-color="#21cbeb" flood-opacity="0.922"/><feComposite operator="in" in2="t"/><feComposite in="SourceGraphic"/></filter><filter id="u" x="0" y="26.722" width="309.226" height="247.213" filterUnits="userSpaceOnUse"><feOffset dy="3" input="SourceAlpha"/><feGaussianBlur stdDeviation="3" result="v"/><feFlood flood-color="#21cbeb" flood-opacity="0.922"/><feComposite operator="in" in2="v"/><feComposite in="SourceGraphic"/></filter><filter id="w" x="0.336" y="47.898" width="294.785" height="21" filterUnits="userSpaceOnUse"><feOffset dy="3" input="SourceAlpha"/><feGaussianBlur stdDeviation="3" result="x"/><feFlood flood-color="#21cbeb" flood-opacity="0.922"/><feComposite operator="in" in2="x"/><feComposite in="SourceGraphic"/></filter><filter id="y" x="76.401" y="27.226" width="21" height="41.672" filterUnits="userSpaceOnUse"><feOffset dy="3" input="SourceAlpha"/><feGaussianBlur stdDeviation="3" result="z"/><feFlood flood-color="#21cbeb" flood-opacity="0.922"/><feComposite operator="in" in2="z"/><feComposite in="SourceGraphic"/></filter><filter id="aa" x="94.2" y="27.226" width="21" height="41.672" filterUnits="userSpaceOnUse"><feOffset dy="3" input="SourceAlpha"/><feGaussianBlur stdDeviation="3" result="ab"/><feFlood flood-color="#21cbeb" flood-opacity="0.922"/><feComposite operator="in" in2="ab"/><feComposite in="SourceGraphic"/></filter><filter id="ac" x="66.578" y="65.208" width="31.998" height="21" filterUnits="userSpaceOnUse"><feOffset dy="3" input="SourceAlpha"/><feGaussianBlur stdDeviation="3" result="ad"/><feFlood flood-color="#21cbeb" flood-opacity="0.922"/><feComposite operator="in" in2="ad"/><feComposite in="SourceGraphic"/></filter><filter id="ae" x="76.653" y="65.208" width="232.656" height="56.881" filterUnits="userSpaceOnUse"><feOffset dy="3" input="SourceAlpha"/><feGaussianBlur stdDeviation="3" result="af"/><feFlood flood-color="#21cbeb" flood-opacity="0.922"/><feComposite operator="in" in2="af"/><feComposite in="SourceGraphic"/></filter><filter id="ag" x="87.232" y="65.208" width="43.501" height="36.714" filterUnits="userSpaceOnUse"><feOffset dy="3" input="SourceAlpha"/><feGaussianBlur stdDeviation="3" result="ah"/><feFlood flood-color="#21cbeb" flood-opacity="0.922"/><feComposite operator="in" in2="ah"/><feComposite in="SourceGraphic"/></filter><filter id="ai" x="30.477" y="101.089" width="129.473" height="213.18" filterUnits="userSpaceOnUse"><feOffset dy="3" input="SourceAlpha"/><feGaussianBlur stdDeviation="3" result="aj"/><feFlood flood-color="#21cbeb" flood-opacity="0.922"/><feComposite operator="in" in2="aj"/><feComposite in="SourceGraphic"/></filter><filter id="ak" x="50.374" y="266.8" width="109.575" height="21" filterUnits="userSpaceOnUse"><feOffset dy="3" input="SourceAlpha"/><feGaussianBlur stdDeviation="3" result="al"/><feFlood flood-color="#21cbeb" flood-opacity="0.922"/><feComposite operator="in" in2="al"/><feComposite in="SourceGraphic"/></filter><filter id="am" x="288.31" y="88.233" width="21" height="41.588" filterUnits="userSpaceOnUse"><feOffset dy="3" input="SourceAlpha"/><feGaussianBlur stdDeviation="3" result="an"/><feFlood flood-color="#21cbeb" flood-opacity="0.922"/><feComposite operator="in" in2="an"/><feComposite in="SourceGraphic"/></filter><filter id="ao" x="288.31" y="120.165" width="21" height="40.832" filterUnits="userSpaceOnUse"><feOffset dy="3" input="SourceAlpha"/><feGaussianBlur stdDeviation="3" result="ap"/><feFlood flood-color="#21cbeb" flood-opacity="0.922"/><feComposite operator="in" in2="ap"/><feComposite in="SourceGraphic"/></filter><filter id="aq" x="205.947" y="151.172" width="185.053" height="148.812" filterUnits="userSpaceOnUse"><feOffset dy="3" input="SourceAlpha"/><feGaussianBlur stdDeviation="3" result="ar"/><feFlood flood-color="#21cbeb" flood-opacity="0.922"/><feComposite operator="in" in2="ar"/><feComposite in="SourceGraphic"/></filter><filter id="as" x="206.115" y="178.398" width="184.297" height="21" filterUnits="userSpaceOnUse"><feOffset dy="3" input="SourceAlpha"/><feGaussianBlur stdDeviation="3" result="at"/><feFlood flood-color="#21cbeb" flood-opacity="0.922"/><feComposite operator="in" in2="at"/><feComposite in="SourceGraphic"/></filter><filter id="au" x="214.511" y="171.256" width="42.997" height="21" filterUnits="userSpaceOnUse"><feOffset dy="3" input="SourceAlpha"/><feGaussianBlur stdDeviation="3" result="av"/><feFlood flood-color="#21cbeb" flood-opacity="0.922"/><feComposite operator="in" in2="av"/><feComposite in="SourceGraphic"/></filter><filter id="aw" x="214.511" y="185.542" width="79.938" height="21" filterUnits="userSpaceOnUse"><feOffset dy="3" input="SourceAlpha"/><feGaussianBlur stdDeviation="3" result="ax"/><feFlood flood-color="#21cbeb" flood-opacity="0.922"/><feComposite operator="in" in2="ax"/><feComposite in="SourceGraphic"/></filter><filter id="ay" x="214.511" y="192.684" width="101.683" height="21" filterUnits="userSpaceOnUse"><feOffset dy="3" input="SourceAlpha"/><feGaussianBlur stdDeviation="3" result="az"/><feFlood flood-color="#21cbeb" flood-opacity="0.922"/><feComposite operator="in" in2="az"/><feComposite in="SourceGraphic"/></filter><filter id="ba" x="214.511" y="200.835" width="55.422" height="21" filterUnits="userSpaceOnUse"><feOffset dy="3" input="SourceAlpha"/><feGaussianBlur stdDeviation="3" result="bb"/><feFlood flood-color="#21cbeb" flood-opacity="0.922"/><feComposite operator="in" in2="bb"/><feComposite in="SourceGraphic"/></filter><filter id="bc" x="214.511" y="260.329" width="101.683" height="21" filterUnits="userSpaceOnUse"><feOffset dy="3" input="SourceAlpha"/><feGaussianBlur stdDeviation="3" result="bd"/><feFlood flood-color="#21cbeb" flood-opacity="0.922"/><feComposite operator="in" in2="bd"/><feComposite in="SourceGraphic"/></filter><filter id="be" x="214.511" y="268.48" width="55.422" height="21" filterUnits="userSpaceOnUse"><feOffset dy="3" input="SourceAlpha"/><feGaussianBlur stdDeviation="3" result="bf"/><feFlood flood-color="#21cbeb" flood-opacity="0.922"/><feComposite operator="in" in2="bf"/><feComposite in="SourceGraphic"/></filter><filter id="bg" x="214.511" y="207.978" width="149.287" height="21" filterUnits="userSpaceOnUse"><feOffset dy="3" input="SourceAlpha"/><feGaussianBlur stdDeviation="3" result="bh"/><feFlood flood-color="#21cbeb" flood-opacity="0.922"/><feComposite operator="in" in2="bh"/><feComposite in="SourceGraphic"/></filter><filter id="bi" x="223.327" y="220.834" width="101.683" height="21" filterUnits="userSpaceOnUse"><feOffset dy="3" input="SourceAlpha"/><feGaussianBlur stdDeviation="3" result="bj"/><feFlood flood-color="#21cbeb" flood-opacity="0.922"/><feComposite operator="in" in2="bj"/><feComposite in="SourceGraphic"/></filter><filter id="bk" x="223.327" y="228.901" width="55.422" height="21" filterUnits="userSpaceOnUse"><feOffset dy="3" input="SourceAlpha"/><feGaussianBlur stdDeviation="3" result="bl"/><feFlood flood-color="#21cbeb" flood-opacity="0.922"/><feComposite operator="in" in2="bl"/><feComposite in="SourceGraphic"/></filter><filter id="bm" x="223.327" y="236.044" width="55.339" height="21" filterUnits="userSpaceOnUse"><feOffset dy="3" input="SourceAlpha"/><feGaussianBlur stdDeviation="3" result="bn"/><feFlood flood-color="#21cbeb" flood-opacity="0.922"/><feComposite operator="in" in2="bn"/><feComposite in="SourceGraphic"/></filter><filter id="bo" x="223.327" y="243.439" width="55.422" height="21" filterUnits="userSpaceOnUse"><feOffset dy="3" input="SourceAlpha"/><feGaussianBlur stdDeviation="3" result="bp"/><feFlood flood-color="#21cbeb" flood-opacity="0.922"/><feComposite operator="in" in2="bp"/><feComposite in="SourceGraphic"/></filter><filter id="bq" x="223.327" y="250.582" width="55.339" height="21" filterUnits="userSpaceOnUse"><feOffset dy="3" input="SourceAlpha"/><feGaussianBlur stdDeviation="3" result="br"/><feFlood flood-color="#21cbeb" flood-opacity="0.922"/><feComposite operator="in" in2="br"/><feComposite in="SourceGraphic"/></filter><filter id="bs" x="363.367" y="171.256" width="21.252" height="21" filterUnits="userSpaceOnUse"><feOffset dy="3" input="SourceAlpha"/><feGaussianBlur stdDeviation="3" result="bt"/><feFlood flood-color="#21cbeb" flood-opacity="0.922"/><feComposite operator="in" in2="bt"/><feComposite in="SourceGraphic"/></filter><filter id="bu" x="359.169" y="171.256" width="21.252" height="21" filterUnits="userSpaceOnUse"><feOffset dy="3" input="SourceAlpha"/><feGaussianBlur stdDeviation="3" result="bv"/><feFlood flood-color="#21cbeb" flood-opacity="0.922"/><feComposite operator="in" in2="bv"/><feComposite in="SourceGraphic"/></filter><filter id="bw" x="354.972" y="171.256" width="21.252" height="21" filterUnits="userSpaceOnUse"><feOffset dy="3" input="SourceAlpha"/><feGaussianBlur stdDeviation="3" result="bx"/><feFlood flood-color="#21cbeb" flood-opacity="0.922"/><feComposite operator="in" in2="bx"/><feComposite in="SourceGraphic"/></filter><filter id="by" x="22.668" y="65.292" width="52.232" height="205.953" filterUnits="userSpaceOnUse"><feOffset dy="3" input="SourceAlpha"/><feGaussianBlur stdDeviation="3" result="bz"/><feFlood flood-color="#21cbeb" flood-opacity="0.922"/><feComposite operator="in" in2="bz"/><feComposite in="SourceGraphic"/></filter><filter id="ca" x="93.025" y="279.236" width="218.971" height="62.764" filterUnits="userSpaceOnUse"><feOffset dy="3" input="SourceAlpha"/><feGaussianBlur stdDeviation="3" result="cb"/><feFlood flood-color="#21cbeb" flood-opacity="0.922"/><feComposite operator="in" in2="cb"/><feComposite in="SourceGraphic"/></filter><filter id="cc" x="94.452" y="0" width="269.933" height="184.273" filterUnits="userSpaceOnUse"><feOffset dy="3" input="SourceAlpha"/><feGaussianBlur stdDeviation="3" result="cd"/><feFlood flood-color="#21cbeb" flood-opacity="0.922"/><feComposite operator="in" in2="cd"/><feComposite in="SourceGraphic"/></filter><filter id="ce" x="186.721" y="146.383" width="36.112" height="36.125" filterUnits="userSpaceOnUse"><feOffset dy="3" input="SourceAlpha"/><feGaussianBlur stdDeviation="3" result="cf"/><feFlood flood-color="#ff859e" flood-opacity="0.922"/><feComposite operator="in" in2="cf"/><feComposite in="SourceGraphic"/></filter></defs><g transform="translate(9 6)"><g transform="translate(202.494 82.002)"><g class="ar" transform="matrix(1, 0, 0, 1, -211.49, -88)"><line class="a" x1="21.409" transform="translate(240.88 88)"/></g><g class="aq" transform="matrix(1, 0, 0, 1, -211.49, -88)"><line class="a" x1="8.899" transform="translate(226.86 107.58)"/></g><g class="ap" transform="matrix(1, 0, 0, 1, -211.49, -88)"><line class="a" y1="8.991" transform="translate(231.31 103.13)"/></g><g class="ao" transform="matrix(1, 0, 0, 1, -211.49, -88)"><line class="a" x2="8.312" transform="translate(238.7 97.25)"/></g><g class="an" transform="matrix(1, 0, 0, 1, -211.49, -88)"><line class="a" x2="3.61" transform="translate(211.49 103.04)"/></g></g><g transform="translate(125.505 202.335)"><g class="am" transform="matrix(1, 0, 0, 1, -134.5, -208.34)"><line class="a" x2="15.112" y2="15.126" transform="translate(134.5 208.34)"/></g><g class="al" transform="matrix(1, 0, 0, 1, -134.5, -208.34)"><line class="a" x2="6.381" y2="6.386" transform="translate(167 213.21)"/></g><g class="ak" transform="matrix(1, 0, 0, 1, -134.5, -208.34)"><line class="a" x1="6.381" y2="6.386" transform="translate(167 213.21)"/></g><g class="aj" transform="matrix(1, 0, 0, 1, -134.5, -208.34)"><line class="a" x1="5.877" y1="5.882" transform="translate(151.8 212.62)"/></g><g class="ai" transform="matrix(1, 0, 0, 1, -134.5, -208.34)"><line class="a" x1="2.519" y1="2.521" transform="translate(178.41 231.11)"/></g></g><g class="ah" transform="matrix(1, 0, 0, 1, -9, -6)"><path class="a" d="M78.153,259.513V107.668H70.345s-2.351.168-2.351-3.361V71.7H5.362S1.5,71.954,1.5,68.089v-14.2L78.153,33.3H95.784L274.865,52.879l14.86,18.487V85.147" transform="translate(9 0.92)"/></g><g class="ag" transform="matrix(1, 0, 0, 1, -9, -6)"><line class="a" x2="273.785" transform="translate(10.84 55.4)"/></g><g class="af" transform="matrix(1, 0, 0, 1, -9, -6)"><line class="a" y2="20.672" transform="translate(86.9 34.73)"/></g><g class="ae" transform="matrix(1, 0, 0, 1, -9, -6)"><line class="a" y2="20.672" transform="translate(104.7 34.73)"/></g><g class="ad" transform="matrix(1, 0, 0, 1, -9, -6)"><line class="a" x1="10.998" transform="translate(77.08 72.71)"/></g><g class="ac" transform="matrix(1, 0, 0, 1, -9, -6)"><path class="a" d="M92.8,114.981h26.447L125.963,79.1H304.456" transform="translate(-5.65 -6.39)"/></g><g class="ab" transform="matrix(1, 0, 0, 1, -9, -6)"><path class="a" d="M124.626,94.814H105.4L108.674,79.1H127.9" transform="translate(-7.67 -6.39)"/></g><g class="aa" transform="matrix(1, 0, 0, 1, -9, -6)"><path class="a" d="M83.893,248.6,37.8,287.678v26.3H146.273V287.762l-42.986-41.427V121.8" transform="translate(3.18 -13.21)"/></g><g class="z" transform="matrix(1, 0, 0, 1, -9, -6)"><line class="a" x2="88.575" transform="translate(60.87 274.3)"/></g><g class="y" transform="matrix(1, 0, 0, 1, -9, -6)"><line class="a" y2="20.588" transform="translate(298.81 95.73)"/></g><g class="x" transform="matrix(1, 0, 0, 1, -9, -6)"><line class="a" y2="19.831" transform="translate(298.81 127.66)"/></g><g class="w" transform="matrix(1, 0, 0, 1, -9, -6)"><path class="a" d="M329.162,181.4v12.353H246.8V309.212H410.853V194.089l-85.888-.336" transform="translate(-30.35 -22.73)"/></g><g class="v" transform="matrix(1, 0, 0, 1, -9, -6)"><line class="a" x2="163.297" transform="translate(216.62 185.9)"/></g><g class="u" transform="matrix(1, 0, 0, 1, -9, -6)"><line class="a" x2="21.997" transform="translate(225.01 178.76)"/></g><g class="t" transform="matrix(1, 0, 0, 1, -9, -6)"><line class="a" x2="58.938" transform="translate(225.01 193.04)"/></g><g class="s" transform="matrix(1, 0, 0, 1, -9, -6)"><line class="a" x2="80.683" transform="translate(225.01 200.18)"/></g><g class="r" transform="matrix(1, 0, 0, 1, -9, -6)"><line class="a" x2="34.423" transform="translate(225.01 208.34)"/></g><g class="q" transform="matrix(1, 0, 0, 1, -9, -6)"><line class="a" x2="80.683" transform="translate(225.01 267.83)"/></g><g class="p" transform="matrix(1, 0, 0, 1, -9, -6)"><line class="a" x2="34.423" transform="translate(225.01 275.98)"/></g><g class="o" transform="matrix(1, 0, 0, 1, -9, -6)"><line class="a" x2="128.287" transform="translate(225.01 215.48)"/></g><g class="n" transform="matrix(1, 0, 0, 1, -9, -6)"><line class="a" x2="80.683" transform="translate(233.83 228.33)"/></g><g class="m" transform="matrix(1, 0, 0, 1, -9, -6)"><line class="a" x2="34.423" transform="translate(233.83 236.4)"/></g><g class="l" transform="matrix(1, 0, 0, 1, -9, -6)"><line class="a" x2="34.339" transform="translate(233.83 243.54)"/></g><g class="k" transform="matrix(1, 0, 0, 1, -9, -6)"><line class="a" x2="34.423" transform="translate(233.83 250.94)"/></g><g class="j" transform="matrix(1, 0, 0, 1, -9, -6)"><line class="a" x2="34.339" transform="translate(233.83 258.08)"/></g><g class="i" transform="matrix(1, 0, 0, 1, -9, -6)"><line class="a" x2="0.252" transform="translate(373.87 178.76)"/></g><g class="h" transform="matrix(1, 0, 0, 1, -9, -6)"><line class="a" x2="0.252" transform="translate(369.67 178.76)"/></g><g class="g" transform="matrix(1, 0, 0, 1, -9, -6)"><line class="a" x2="0.252" transform="translate(365.47 178.76)"/></g><g class="f" transform="matrix(1, 0, 0, 1, -9, -6)"><path class="a" d="M55.87,264.153A160.774,160.774,0,0,1,59.732,79.2" transform="translate(4.67 -6.41)"/></g><g class="e" transform="matrix(1, 0, 0, 1, -9, -6)"><path class="a" d="M310.271,333.8A160.391,160.391,0,0,1,112.3,347.917" transform="translate(-8.78 -47.06)"/></g><g class="d" transform="matrix(1, 0, 0, 1, -9, -6)"><path class="a" d="M114,28.222A159.26,159.26,0,0,1,202.575,1.5C291.15,1.5,362.934,73.347,362.934,162v2.773" transform="translate(-9.05 6)"/></g><g class="c" transform="matrix(1, 0, 0, 1, -9, -6)"><path class="b" d="M233.639,185.364l5.037-1.681a.558.558,0,0,0,.336-.42c0-.168-.168-.42-.336-.42l-4.2-1.429a1.824,1.824,0,0,1-1.175-1.176l-1.427-4.2a.558.558,0,0,0-.42-.336c-.168,0-.42.168-.42.336l-1.427,4.2a1.824,1.824,0,0,1-1.175,1.176l-4.2,1.429a.558.558,0,0,0-.336.42c0,.168.168.42.336.42l4.2,1.429a1.824,1.824,0,0,1,1.175,1.176l1.427,4.2a.558.558,0,0,0,.42.336c.168,0,.42-.168.42-.336Z" transform="translate(-26.68 -21.82)"/></g></g></svg>