<svg xmlns="http://www.w3.org/2000/svg" viewBox="0 0 24 23.997">
    <defs>
        <style>
            .cls-1{fill:#fff}
        </style>
    </defs>
    <g id="Group_1784" data-name="Group 1784" transform="translate(13276.33 14937.998)">
        <g id="rocket" transform="translate(-13273 -14933.997)">
            <g id="Group_860" data-name="Group 860">
                <g id="Group_859" data-name="Group 859">
                    <path id="Path_745" d="M103.341 10.716a7.661 7.661 0 0 0-2.324-4.349A18.621 18.621 0 0 0 99.284.62a1.158 1.158 0 0 0-2.05 0 16.455 16.455 0 0 0-1.371 3.88q-.208.893-.362 1.867a7.66 7.66 0 0 0-2.324 4.349.521.521 0 0 0 .516.591h1.394q0 .216-.007.435a.853.853 0 0 0 .853.862h.327l-.116.845v.012a.438.438 0 0 0 .436.481h.257l-.394 1.405a.312.312 0 0 0 .456.356l.774-.442.245.326a.312.312 0 0 0 .444.058l.419-.331.914.627a.312.312 0 0 0 .481-.326l-.376-1.674h.142a.438.438 0 0 0 .436-.481v-.012l-.116-.845h.327a.853.853 0 0 0 .853-.862q0-.218-.007-.435h1.394a.521.521 0 0 0 .516-.591zm-8.241-.034h-1.287a6.848 6.848 0 0 1 1.538-3.238q-.187 1.535-.251 3.238zm1.688 2.635l.1-.713h1.056v.713h-1.152zm.6-1.338v-2.23a.35.35 0 0 1 .35-.35h1.041a.35.35 0 0 1 .35.35v2.23zm1.554 2.69a.312.312 0 0 0-.37.012l-.348.275-.218-.29a.313.313 0 0 0-.4-.084l-.352.2.236-.841h1.672l.233 1.034zm.465-1.352h-.835V12.6h1.056l.1.713zm2.007-2.635q-.011-.324-.027-.64a.312.312 0 0 0-.624.031q.015.3.026.608t.018.625q0 .22.007.442a.228.228 0 0 1-.228.23h-.831V9.749a.976.976 0 0 0-.975-.975h-1.041a.976.976 0 0 0-.975.975v2.23h-.831a.228.228 0 0 1-.228-.23c0-.149 0-.3.007-.442q.007-.318.018-.625.018-.5.046-.969c.073-1.226.2-2.317.351-3.282A18.048 18.048 0 0 1 97.787.91a.533.533 0 0 1 .944 0 17.952 17.952 0 0 1 1.663 5.514q.084.529.155 1.109.021.17.04.344a.312.312 0 0 0 .621-.069l-.041-.35v-.016a6.835 6.835 0 0 1 1.538 3.24z" class="cls-1" data-name="Path 745" transform="translate(-93.172)"/>
                </g>
            </g>
            <g id="Group_862" data-name="Group 862" transform="translate(3.32 4.118)">
                <g id="Group_861" data-name="Group 861">
                    <path id="Path_746" d="M201.2 131.8a1.767 1.767 0 1 0 1.767 1.767 1.769 1.769 0 0 0-1.767-1.767zm0 2.91a1.142 1.142 0 1 1 1.142-1.142 1.144 1.144 0 0 1-1.142 1.141z" class="cls-1" data-name="Path 746" transform="translate(-199.435 -131.799)"/>
                </g>
            </g>
            <g id="Group_864" data-name="Group 864" transform="translate(4.639 5.323)">
                <g id="Group_863" data-name="Group 863">
                    <path id="Path_747" d="M242.488 170.42a.312.312 0 0 0-.428.108l-.349.585a.312.312 0 1 0 .536.321l.349-.585a.312.312 0 0 0-.108-.429z" class="cls-1" data-name="Path 747" transform="translate(-241.666 -170.376)"/>
                </g>
            </g>
            <g id="Group_866" data-name="Group 866" transform="translate(7.519 8.631)">
                <g id="Group_865" data-name="Group 865">
                    <path id="Path_748" d="M334.46 276.516a.313.313 0 0 0-.047-.112.309.309 0 0 0-.086-.087.31.31 0 0 0-.054-.029.317.317 0 0 0-.058-.018.308.308 0 0 0-.122 0 .326.326 0 0 0-.059.018.317.317 0 0 0-.054.029.3.3 0 0 0-.046.038.311.311 0 0 0-.086.16.306.306 0 0 0-.006.061.315.315 0 0 0 .092.221h.005a.3.3 0 0 0 .042.034.31.31 0 0 0 .112.047.3.3 0 0 0 .122 0 .316.316 0 0 0 .112-.047.3.3 0 0 0 .048-.039.3.3 0 0 0 .039-.048.335.335 0 0 0 .029-.054.317.317 0 0 0 .018-.058.3.3 0 0 0 0-.122z" class="cls-1" data-name="Path 748" transform="translate(-333.841 -276.265)"/>
                </g>
            </g>
        </g>
        <g id="cards" transform="translate(-13276.33 -14937.998)">
            <path id="Path_1079" d="M402.648 0a.383.383 0 1 0 0 .766 1.5 1.5 0 0 1 1.494 1.494v19.477a1.5 1.5 0 0 1-1.494 1.494.383.383 0 1 0 0 .766 2.262 2.262 0 0 0 2.259-2.259V2.259A2.262 2.262 0 0 0 402.648 0z" class="cls-1" data-name="Path 1079" transform="translate(-383.201)"/>
            <path id="Path_1080" d="M351.907 21.737V2.259A2.261 2.261 0 0 0 349.648 0a.383.383 0 0 0 0 .766 1.5 1.5 0 0 1 1.494 1.494v19.477a1.5 1.5 0 0 1-1.494 1.494.383.383 0 0 0 0 .766 2.262 2.262 0 0 0 2.259-2.259z" class="cls-1" data-name="Path 1080" transform="translate(-332.757)"/>
            <path id="Path_1082" d="M351.907 21.737V2.259A2.261 2.261 0 0 0 349.648 0a.383.383 0 0 0 0 .766 1.5 1.5 0 0 1 1.494 1.494v19.477a1.5 1.5 0 0 1-1.494 1.494.383.383 0 0 0 0 .766 2.262 2.262 0 0 0 2.259-2.259z" class="cls-1" data-name="Path 1082" transform="translate(-327.907)"/>
            <path id="Path_1081" d="M32.276 21.737V2.259a2.284 2.284 0 0 0-.963-1.876A2.1 2.1 0 0 0 30.1 0H18.154a2.219 2.219 0 0 0-2.172 2.259v19.478A2.219 2.219 0 0 0 18.154 24H30.1a2.1 2.1 0 0 0 1.208-.383 2.284 2.284 0 0 0 .968-1.88zM30.1 23.231H18.154a1.467 1.467 0 0 1-1.436-1.494V2.259A1.467 1.467 0 0 1 18.154.766H30.1a1.467 1.467 0 0 1 1.44 1.493v19.478a1.467 1.467 0 0 1-1.44 1.494z" class="cls-1" data-name="Path 1081" transform="translate(-15.982)"/>
        </g>
    </g>
</svg>
