<svg xmlns="http://www.w3.org/2000/svg" viewBox="0 0 24 19.826">
  <defs>
    <style>
      .cls-1 {
        fill: #fff;
      }
    </style>
  </defs>
  <g id="ic_domain" transform="translate(0 -42.667)">
    <g id="Group_365" data-name="Group 365" transform="translate(0 47.884)">
      <g id="Group_364" data-name="Group 364" transform="translate(0 0)">
        <path id="Path_636" data-name="Path 636" class="cls-1" d="M21.391,149.333H2.609A2.612,2.612,0,0,0,0,151.942v4.174a2.612,2.612,0,0,0,2.609,2.609H21.391A2.612,2.612,0,0,0,24,156.116v-4.174A2.612,2.612,0,0,0,21.391,149.333Zm1.565,6.783a1.567,1.567,0,0,1-1.565,1.565H2.609a1.567,1.567,0,0,1-1.565-1.565v-4.174a1.567,1.567,0,0,1,1.565-1.565H21.391a1.567,1.567,0,0,1,1.565,1.565Z" transform="translate(0 -149.333)"/>
      </g>
    </g>
    <g id="Group_367" data-name="Group 367" transform="translate(11.478 42.667)">
      <g id="Group_366" data-name="Group 366" transform="translate(0 0)">
        <path id="Path_637" data-name="Path 637" class="cls-1" d="M235.188,42.667a.522.522,0,0,0-.522.522v5.217a.522.522,0,1,0,1.044,0V43.189A.522.522,0,0,0,235.188,42.667Z" transform="translate(-234.666 -42.667)"/>
      </g>
    </g>
    <g id="Group_369" data-name="Group 369" transform="translate(11.478 56.232)">
      <g id="Group_368" data-name="Group 368">
        <path id="Path_638" data-name="Path 638" class="cls-1" d="M235.188,320a.522.522,0,0,0-.522.522v5.217a.522.522,0,0,0,1.044,0v-5.217A.522.522,0,0,0,235.188,320Z" transform="translate(-234.666 -320)"/>
      </g>
    </g>
    <g id="Group_371" data-name="Group 371" transform="translate(6.809 42.667)">
      <g id="Group_370" data-name="Group 370" transform="translate(0 0)">
        <path id="Path_639" data-name="Path 639" class="cls-1" d="M149.575,48.267c-.956-3.455-2.936-5.6-5.171-5.6s-4.216,2.145-5.171,5.6a.521.521,0,1,0,1,.278c.813-2.936,2.449-4.834,4.167-4.834s3.354,1.9,4.168,4.834a.519.519,0,0,0,.5.383.535.535,0,0,0,.139-.019A.521.521,0,0,0,149.575,48.267Z" transform="translate(-139.213 -42.667)"/>
      </g>
    </g>
    <g id="Group_373" data-name="Group 373" transform="translate(6.809 56.233)">
      <g id="Group_372" data-name="Group 372">
        <path id="Path_640" data-name="Path 640" class="cls-1" d="M149.212,320.026a.521.521,0,0,0-.642.364c-.813,2.936-2.449,4.834-4.167,4.834s-3.354-1.9-4.167-4.834a.521.521,0,1,0-1,.278c.956,3.455,2.936,5.6,5.171,5.6s4.216-2.145,5.171-5.6A.521.521,0,0,0,149.212,320.026Z" transform="translate(-139.213 -320.008)"/>
      </g>
    </g>
    <g id="Group_375" data-name="Group 375" transform="translate(3.075 42.667)">
      <g id="Group_374" data-name="Group 374" transform="translate(0 0)">
        <path id="Path_641" data-name="Path 641" class="cls-1" d="M80.657,48.173a9.9,9.9,0,0,0-17.741,0,.521.521,0,0,0,.934.464,8.856,8.856,0,0,1,15.874,0,.52.52,0,0,0,.466.289.511.511,0,0,0,.232-.055A.522.522,0,0,0,80.657,48.173Z" transform="translate(-62.861 -42.667)"/>
      </g>
    </g>
    <g id="Group_377" data-name="Group 377" transform="translate(3.075 56.232)">
      <g id="Group_376" data-name="Group 376">
        <path id="Path_642" data-name="Path 642" class="cls-1" d="M80.422,320.051a.522.522,0,0,0-.7.235,8.855,8.855,0,0,1-15.873,0,.521.521,0,1,0-.934.464,9.9,9.9,0,0,0,17.741,0A.522.522,0,0,0,80.422,320.051Z" transform="translate(-62.861 -319.997)"/>
      </g>
    </g>
    <g id="Group_379" data-name="Group 379" transform="translate(9.391 49.971)">
      <g id="Group_378" data-name="Group 378" transform="translate(0 0)">
        <path id="Path_643" data-name="Path 643" class="cls-1" d="M196.82,192.007a.518.518,0,0,0-.632.38l-.608,2.435-.477-1.431a.544.544,0,0,0-.99,0l-.477,1.431-.608-2.435a.522.522,0,1,0-1.012.253l1.043,4.174a.522.522,0,0,0,.486.394.488.488,0,0,0,.515-.356l.548-1.646.548,1.646a.523.523,0,0,0,.5.357h.019a.521.521,0,0,0,.486-.394l1.043-4.174A.521.521,0,0,0,196.82,192.007Z" transform="translate(-191.999 -191.991)"/>
      </g>
    </g>
    <g id="Group_381" data-name="Group 381" transform="translate(3.13 49.971)">
      <g id="Group_380" data-name="Group 380" transform="translate(0 0)">
        <path id="Path_644" data-name="Path 644" class="cls-1" d="M68.821,192.007a.52.52,0,0,0-.633.38l-.608,2.435-.477-1.431a.544.544,0,0,0-.99,0l-.477,1.431-.608-2.435a.522.522,0,1,0-1.012.253l1.043,4.174a.522.522,0,0,0,.486.394.485.485,0,0,0,.515-.356l.548-1.646.548,1.646a.523.523,0,0,0,.5.357h.02a.521.521,0,0,0,.486-.394l1.043-4.174A.521.521,0,0,0,68.821,192.007Z" transform="translate(-63.999 -191.991)"/>
      </g>
    </g>
    <g id="Group_383" data-name="Group 383" transform="translate(15.653 49.971)">
      <g id="Group_382" data-name="Group 382" transform="translate(0 0)">
        <path id="Path_645" data-name="Path 645" class="cls-1" d="M324.828,192.007a.518.518,0,0,0-.632.38l-.608,2.435-.477-1.431a.544.544,0,0,0-.99,0l-.477,1.431-.608-2.435a.522.522,0,0,0-1.012.253l1.043,4.174a.522.522,0,0,0,.486.394.492.492,0,0,0,.516-.356l.548-1.646.548,1.646a.523.523,0,0,0,.5.357h.019a.521.521,0,0,0,.486-.394l1.043-4.174A.521.521,0,0,0,324.828,192.007Z" transform="translate(-320.008 -191.991)"/>
      </g>
    </g>
  </g>
</svg>
