<svg id="ic_images" xmlns="http://www.w3.org/2000/svg" viewBox="0 0 21 21">
  <defs>
    <style>
      .cls-1 {
        fill: #fff;
      }

      .cls-2 {
        fill: none;
        stroke: #fff;
        stroke-linecap: round;
        stroke-miterlimit: 10;
      }
    </style>
  </defs>
  <path id="Path_53" data-name="Path 53" class="cls-1" d="M10.389,2.611a7.778,7.778,0,1,1-7.778,7.778,7.73,7.73,0,0,1,7.778-7.778m0-1.111a8.889,8.889,0,1,0,8.889,8.889A8.915,8.915,0,0,0,10.389,1.5Z" transform="translate(0.111 0.111)"/>
  <path id="Path_54" data-name="Path 54" class="cls-1" d="M9.944,6.611a3.274,3.274,0,0,1,3.333,3.333,3.274,3.274,0,0,1-3.333,3.333A3.274,3.274,0,0,1,6.611,9.944,3.274,3.274,0,0,1,9.944,6.611m0-1.111a4.444,4.444,0,1,0,4.444,4.444A4.458,4.458,0,0,0,9.944,5.5Z" transform="translate(0.556 0.556)"/>
  <line id="Line_1" data-name="Line 1" class="cls-2" x2="6" transform="translate(14.5 10.5)"/>
  <line id="Line_2" data-name="Line 2" class="cls-2" x2="6" transform="translate(0.5 10.5)"/>
  <line id="Line_3" data-name="Line 3" class="cls-2" x2="4.222" y2="4.222" transform="translate(13.389 13.389)"/>
  <line id="Line_4" data-name="Line 4" class="cls-2" x2="4.222" y2="4.222" transform="translate(3.389 3.389)"/>
  <line id="Line_5" data-name="Line 5" class="cls-2" x1="4.333" y2="4.333" transform="translate(3.389 13.278)"/>
  <line id="Line_6" data-name="Line 6" class="cls-2" x1="4.333" y2="4.333" transform="translate(13.278 3.389)"/>
  <path id="Path_55" data-name="Path 55" class="cls-2" d="M9.5,13.1v6" transform="translate(1 1.4)"/>
  <line id="Line_7" data-name="Line 7" class="cls-2" y2="5.889" transform="translate(10.5 0.5)"/>
  <path id="Path_56" data-name="Path 56" class="cls-2" d="M6.9,12.1" transform="translate(0.711 1.289)"/>
  <path id="Path_57" data-name="Path 57" class="cls-2" d="M12.1,6.9" transform="translate(1.289 0.711)"/>
  <path id="Path_58" data-name="Path 58" class="cls-2" d="M6.9,6.9" transform="translate(0.711 0.711)"/>
  <path id="Path_59" data-name="Path 59" class="cls-2" d="M12,12" transform="translate(1.278 1.278)"/>
</svg>
