<svg xmlns="http://www.w3.org/2000/svg" viewBox="0 0 21 21.012">
  <defs>
    <style>
      .cls-1 {
        fill: none;
        stroke: #fff;
        stroke-linecap: round;
        stroke-linejoin: round;
      }
    </style>
  </defs>
  <g id="ic_managed_services" transform="translate(-0.036 -0.038)">
    <path id="Path_65" data-name="Path 65" class="cls-1" d="M12.442,15.669H17.68c2.686,0,2.857,1.877,2.857,1.877L9.328,21.8a2.9,2.9,0,0,1-2.3-.113l-6.5-3.2V11.914H1.49c1.057,0,3.724.413,4.762,1.877H9.109a3.782,3.782,0,0,1,3.81,3.755H6.252" transform="translate(0 -1.445)"/>
    <path id="Path_66" data-name="Path 66" class="cls-1" d="M20.919,8.807l.771-1.783L20.2,6.4a3.7,3.7,0,0,0,0-1.079l1.5-.563-.743-1.8-1.486.6a3.961,3.961,0,0,0-.771-.77L19.348,1.3,17.5.547l-.619,1.464a3.865,3.865,0,0,0-1.1,0L15.176.538l-1.819.732.6,1.464a3.915,3.915,0,0,0-.771.76l-1.457-.61-.762,1.783,1.476.62a4.1,4.1,0,0,0,0,1.079l-1.486.6L11.7,8.76l1.486-.6a3.725,3.725,0,0,0,.771.77l-.648,1.464,1.81.751.629-1.464a3.865,3.865,0,0,0,1.1,0l.6,1.474,1.829-.76-.61-1.464a3.963,3.963,0,0,0,.781-.76Z" transform="translate(-1.191)"/>
    <ellipse id="Ellipse_40" data-name="Ellipse 40" class="cls-1" cx="1.476" cy="1.455" rx="1.476" ry="1.455" transform="translate(13.642 4.396)"/>
  </g>
</svg>
