<svg xmlns="http://www.w3.org/2000/svg" viewBox="0 0 21 21">
  <defs>
    <style>
      .cls-1 {
        fill: none;
        stroke: #fff;
        stroke-linecap: round;
        stroke-linejoin: round;
      }
    </style>
  </defs>
  <g id="ic_services" transform="translate(-0.073 -0.072)">
    <path id="Path_64" data-name="Path 64" class="cls-1" d="M19.271,15.861l1.3-3.4-2.77-1.07a6.83,6.83,0,0,0-.06-2l2.72-1.21-1.48-3.35-2.72,1.24a7.21,7.21,0,0,0-1.47-1.39l1.07-2.81-3.4-1.3-1.07,2.77a6.83,6.83,0,0,0-2,.06L8.161.681l-3.33,1.48,1.24,2.66a.08.08,0,0,1,0,.09,7.07,7.07,0,0,0-1.42,1.44l-2.78-1.07-1.3,3.4,2.77,1.07a6.83,6.83,0,0,0,.06,2l-2.72,1.23,1.48,3.33,2.72-1.24a7.21,7.21,0,0,0,1.47,1.39l-1.07,2.81,3.4,1.3,1.07-2.77a6.83,6.83,0,0,0,2-.06l1.21,2.72,3.33-1.48-1.22-2.72a7.21,7.21,0,0,0,1.39-1.47Z"/>
    <circle id="Ellipse_39" data-name="Ellipse 39" class="cls-1" cx="2.73" cy="2.73" r="2.73" transform="translate(7.841 7.841)"/>
  </g>
</svg>
