<svg xmlns="http://www.w3.org/2000/svg" viewBox="0 0 295.375 239.415">
  <defs>
    <style>
      .cls-1 {
        fill: #ff2d55;
      }

      .cls-2 {
        fill: #f4b2b0;
      }

      .cls-3 {
        opacity: 0.3;
      }

      .cls-4 {
        fill: rgba(255,45,85,0.5);
      }
    </style>
  </defs>
  <g id="img_delete" transform="translate(-810 -228.961)">
    <g id="trash" transform="translate(870.15 301)">
      <g id="Group_171" data-name="Group 171" transform="translate(40.609)">
        <path id="Path_40" data-name="Path 40" class="cls-1" d="M182.113,15.058a3.673,3.673,0,0,1-3.673-3.673V7.346H150.526v4.039a3.673,3.673,0,0,1-7.346,0V3.673A3.673,3.673,0,0,1,146.853,0h35.26a3.673,3.673,0,0,1,3.673,3.673v7.712A3.673,3.673,0,0,1,182.113,15.058Z" transform="translate(-122.606)"/>
        <path id="Path_41" data-name="Path 41" class="cls-1" d="M282.751,344.515A27.914,27.914,0,1,1,310.665,316.6,27.946,27.946,0,0,1,282.751,344.515Zm0-48.482A20.568,20.568,0,1,0,303.319,316.6,20.592,20.592,0,0,0,282.751,296.032Z" transform="translate(-206.349 -216.515)"/>
        <path id="Path_42" data-name="Path 42" class="cls-1" d="M120.085,229.918H71.9a3.673,3.673,0,0,1-3.657-3.325L60.9,149.464a3.672,3.672,0,0,1,3.656-4.021h76.407a3.673,3.673,0,1,1,0,7.346H68.6l6.647,69.784h44.841a3.673,3.673,0,0,1,0,7.346Z" transform="translate(-60.885 -109.082)"/>
        <path id="Path_43" data-name="Path 43" class="cls-1" d="M136.5,288.388a3.673,3.673,0,0,1-3.652-3.325l-3.624-38.05a3.673,3.673,0,0,1,7.313-.7l3.624,38.05a3.673,3.673,0,0,1-3.308,4C136.736,288.383,136.619,288.388,136.5,288.388Z" transform="translate(-112.128 -182.244)"/>
        <path id="Path_44" data-name="Path 44" class="cls-1" d="M295.958,266.868q-.181,0-.366-.018a3.673,3.673,0,0,1-3.294-4.016l1.633-16.527a3.673,3.673,0,1,1,7.31.722l-1.633,16.527A3.674,3.674,0,0,1,295.958,266.868Z" transform="translate(-234.432 -182.246)"/>
        <path id="Path_45" data-name="Path 45" class="cls-1" d="M355.7,261.77h-.038c-.073,0-.145,0-.218-.006h-.038a3.67,3.67,0,0,1-3.232-5.388l.957-10.056a3.673,3.673,0,0,1,7.313.7l-1.089,11.43A3.673,3.673,0,0,1,355.7,261.77Z" transform="translate(-279.033 -182.246)"/>
        <path id="Path_46" data-name="Path 46" class="cls-1" d="M317.849,374.184a3.673,3.673,0,0,1-2.6-6.27L334.066,349.1a3.673,3.673,0,0,1,5.194,5.194l-18.813,18.814A3.662,3.662,0,0,1,317.849,374.184Z" transform="translate(-250.854 -261.018)"/>
        <path id="Path_47" data-name="Path 47" class="cls-1" d="M336.662,374.184a3.661,3.661,0,0,1-2.6-1.076l-18.813-18.814a3.673,3.673,0,1,1,5.194-5.195l18.814,18.814a3.673,3.673,0,0,1-2.6,6.27Z" transform="translate(-250.853 -261.018)"/>
      </g>
      <rect id="Rectangle_319" data-name="Rectangle 319" class="cls-2" width="89.924" height="19.973" transform="translate(37.523 25.342)"/>
      <g id="Group_172" data-name="Group 172" transform="translate(33.85 21.669)">
        <path id="Path_48" data-name="Path 48" class="cls-1" d="M127.448,113.995H37.523a3.673,3.673,0,0,1-3.673-3.673V90.349a3.673,3.673,0,0,1,3.673-3.673h89.925a3.673,3.673,0,0,1,3.673,3.673v19.972A3.673,3.673,0,0,1,127.448,113.995ZM41.2,106.649h82.579V94.022H41.2Z" transform="translate(-33.85 -86.676)"/>
        <path id="Path_49" data-name="Path 49" class="cls-1" d="M217.373,287.126a3.673,3.673,0,0,1-3.673-3.673V244.982a3.673,3.673,0,0,1,7.346,0v38.471A3.673,3.673,0,0,1,217.373,287.126Z" transform="translate(-168.738 -202.651)"/>
      </g>
    </g>
    <g id="delete" class="cls-3" transform="translate(810 320.998)">
      <path id="Path_50" data-name="Path 50" class="cls-4" d="M14.96,3.051,10.269,7.743l4.691,4.692a1.786,1.786,0,1,1-2.526,2.527L7.742,10.27,3.049,14.962A1.787,1.787,0,1,1,.523,12.435L5.215,7.743.523,3.051A1.786,1.786,0,0,1,3.049.525L7.742,5.217,12.434.525A1.787,1.787,0,0,1,14.96,3.051Z"/>
    </g>
    <g id="delete-2" data-name="delete" class="cls-3" transform="translate(1063 281.998)">
      <path id="Path_50-2" data-name="Path 50" class="cls-4" d="M18.721,3.818,12.85,9.69l5.871,5.871a2.236,2.236,0,1,1-3.161,3.162L9.688,12.851,3.816,18.723A2.236,2.236,0,0,1,.655,15.561L6.526,9.69.655,3.818A2.236,2.236,0,0,1,3.816.656L9.688,6.528,15.559.656a2.236,2.236,0,0,1,3.162,3.162Z"/>
    </g>
    <g id="delete-3" data-name="delete" class="cls-3" transform="translate(1086 448.998)">
      <path id="Path_50-3" data-name="Path 50" class="cls-4" d="M18.721,3.818,12.85,9.69l5.871,5.871a2.236,2.236,0,1,1-3.161,3.162L9.688,12.851,3.816,18.723A2.236,2.236,0,0,1,.655,15.561L6.526,9.69.655,3.818A2.236,2.236,0,0,1,3.816.656L9.688,6.528,15.559.656a2.236,2.236,0,0,1,3.162,3.162Z"/>
    </g>
    <g id="delete-4" data-name="delete" class="cls-3" transform="translate(896.961 228.959)">
      <path id="Path_50-4" data-name="Path 50" class="cls-4" d="M12.961,2.644,8.9,6.709l4.065,4.065a1.548,1.548,0,1,1-2.188,2.189L6.707,8.9,2.642,12.963A1.548,1.548,0,0,1,.453,10.774L4.518,6.709.453,2.644A1.548,1.548,0,0,1,2.642.455L6.707,4.52,10.772.455a1.548,1.548,0,0,1,2.189,2.189Z" transform="translate(0)"/>
    </g>
    <g id="delete-5" data-name="delete" class="cls-3" transform="translate(853.961 431.959)">
      <path id="Path_50-5" data-name="Path 50" class="cls-4" d="M15.547,3.171,10.671,8.047l4.875,4.876a1.857,1.857,0,1,1-2.625,2.626L8.045,10.673,3.169,15.549A1.857,1.857,0,1,1,.544,12.923L5.419,8.047.544,3.171A1.857,1.857,0,0,1,3.169.545L8.045,5.421,12.921.545a1.857,1.857,0,0,1,2.626,2.626Z" transform="translate(0)"/>
    </g>
    <g id="delete-button" class="cls-3" transform="translate(982 247)">
      <path id="Path_51" data-name="Path 51" class="cls-4" d="M12.538,0A12.538,12.538,0,1,0,25.075,12.538,12.552,12.552,0,0,0,12.538,0Zm0,22.926A10.388,10.388,0,1,1,22.926,12.538,10.4,10.4,0,0,1,12.538,22.926Z"/>
      <path id="Path_52" data-name="Path 52" class="cls-4" d="M61.239,51.541a1.074,1.074,0,0,0-1.52,0l-3.332,3.332-3.332-3.332a1.074,1.074,0,0,0-1.52,1.52l3.332,3.332-3.332,3.332a1.075,1.075,0,1,0,1.52,1.52l3.332-3.332,3.332,3.332a1.075,1.075,0,1,0,1.52-1.52l-3.332-3.332,3.332-3.332A1.074,1.074,0,0,0,61.239,51.541Z" transform="translate(-43.85 -43.854)"/>
    </g>
    <g id="delete-button-2" data-name="delete-button" class="cls-3" transform="translate(1044 369)">
      <path id="Path_51-2" data-name="Path 51" class="cls-4" d="M12.538,0A12.538,12.538,0,1,0,25.075,12.538,12.552,12.552,0,0,0,12.538,0Zm0,22.926A10.388,10.388,0,1,1,22.926,12.538,10.4,10.4,0,0,1,12.538,22.926Z"/>
      <path id="Path_52-2" data-name="Path 52" class="cls-4" d="M61.239,51.541a1.074,1.074,0,0,0-1.52,0l-3.332,3.332-3.332-3.332a1.074,1.074,0,0,0-1.52,1.52l3.332,3.332-3.332,3.332a1.075,1.075,0,1,0,1.52,1.52l3.332-3.332,3.332,3.332a1.075,1.075,0,1,0,1.52-1.52l-3.332-3.332,3.332-3.332A1.074,1.074,0,0,0,61.239,51.541Z" transform="translate(-43.85 -43.854)"/>
    </g>
    <g id="delete-button-3" data-name="delete-button" class="cls-3" transform="translate(858 356)">
      <path id="Path_51-3" data-name="Path 51" class="cls-4" d="M12.538,0A12.538,12.538,0,1,0,25.075,12.538,12.552,12.552,0,0,0,12.538,0Zm0,22.926A10.388,10.388,0,1,1,22.926,12.538,10.4,10.4,0,0,1,12.538,22.926Z"/>
      <path id="Path_52-3" data-name="Path 52" class="cls-4" d="M61.239,51.541a1.074,1.074,0,0,0-1.52,0l-3.332,3.332-3.332-3.332a1.074,1.074,0,0,0-1.52,1.52l3.332,3.332-3.332,3.332a1.075,1.075,0,1,0,1.52,1.52l3.332-3.332,3.332,3.332a1.075,1.075,0,1,0,1.52-1.52l-3.332-3.332,3.332-3.332A1.074,1.074,0,0,0,61.239,51.541Z" transform="translate(-43.85 -43.854)"/>
    </g>
  </g>
</svg>
